<?xml version="1.0" encoding="utf-8"?>
<!-- Generator: Adobe Illustrator 16.0.0, SVG Export Plug-In . SVG Version: 6.00 Build 0)  -->
<!DOCTYPE svg PUBLIC "-//W3C//DTD SVG 1.1//EN" "http://www.w3.org/Graphics/SVG/1.1/DTD/svg11.dtd">
<svg version="1.1" id="Layer_1" xmlns="http://www.w3.org/2000/svg" xmlns:xlink="http://www.w3.org/1999/xlink" x="0px" y="0px"
	 width="300px" height="250px" viewBox="0 0 300 250" enable-background="new 0 0 300 250" xml:space="preserve">
<circle fill="#116CB4" stroke="#936037" stroke-width="0.1" stroke-miterlimit="10" cx="240.739" cy="67.073" r="35.574"/>
<g>
	<path fill="#FFFFFF" d="M220.913,76.527c0.353,0,0.649,0.12,0.888,0.358c0.238,0.239,0.357,0.534,0.357,0.887
		s-0.119,0.643-0.357,0.872c-0.238,0.229-0.535,0.343-0.888,0.343c-0.332,0-0.617-0.114-0.855-0.343
		c-0.239-0.229-0.358-0.519-0.358-0.872s0.119-0.648,0.358-0.887C220.296,76.646,220.581,76.527,220.913,76.527z"/>
	<path fill="#FFFFFF" d="M235.547,55.229c0.457,0.104,0.686,0.488,0.686,1.152c-0.104,0.603-0.28,1.375-0.529,2.32
		c-0.249,0.945-0.529,1.92-0.842,2.927c-0.31,1.007-0.622,1.973-0.933,2.896c-0.312,0.924-0.571,1.666-0.778,2.227
		c-0.146,0.373-0.327,0.908-0.546,1.604c-0.218,0.696-0.451,1.458-0.7,2.289s-0.493,1.677-0.731,2.537
		c-0.238,0.862-0.462,1.646-0.67,2.351c-0.207,0.706-0.373,1.288-0.498,1.744c-0.125,0.457-0.187,0.696-0.187,0.716
		c-0.041,0.187-0.15,0.342-0.327,0.467c-0.176,0.125-0.42,0.176-0.731,0.156c-0.187-0.062-0.343-0.183-0.467-0.358
		c-0.125-0.176-0.177-0.42-0.156-0.731c0.021-0.062,0.099-0.333,0.234-0.81c0.134-0.477,0.301-1.074,0.497-1.791
		c0.198-0.716,0.421-1.504,0.671-2.366c0.248-0.861,0.492-1.702,0.73-2.521c0.239-0.82,0.467-1.577,0.686-2.273
		c0.218-0.695,0.41-1.24,0.575-1.634c0.209-0.54,0.447-1.214,0.717-2.024s0.535-1.651,0.794-2.522
		c0.26-0.872,0.508-1.732,0.747-2.584c0.239-0.851,0.432-1.577,0.576-2.18c-0.436-0.062-1.032-0.125-1.791-0.187
		c-0.757-0.062-1.634-0.093-2.631-0.093c-0.809,0-1.639,0.031-2.491,0.093c-0.851,0.062-1.634,0.124-2.351,0.187
		c-0.715,0.062-1.312,0.125-1.789,0.187c-0.479,0.062-0.737,0.094-0.779,0.094c-0.207,0-0.395-0.073-0.561-0.218
		c-0.166-0.145-0.27-0.363-0.312-0.653c0-0.207,0.067-0.39,0.203-0.545c0.135-0.156,0.316-0.254,0.545-0.296
		c0.041,0,0.301-0.031,0.778-0.093c0.478-0.062,1.074-0.129,1.79-0.203c0.716-0.073,1.51-0.14,2.383-0.203
		c0.871-0.062,1.732-0.093,2.583-0.093c1.682,0,3.025,0.073,4.033,0.217C234.982,55.157,235.506,55.229,235.547,55.229z"/>
	<path fill="#FFFFFF" d="M247.099,54.42c0.519,0,1.142,0.229,1.868,0.685s1.459,1.126,2.196,2.008
		c0.735,0.883,1.427,1.961,2.069,3.238c0.644,1.276,1.121,2.735,1.433,4.375c0.166,0.955,0.249,1.868,0.249,2.74
		c0,1.433-0.202,2.829-0.606,4.188c-0.405,1.36-1.003,2.6-1.791,3.721c-0.56,0.789-1.168,1.432-1.821,1.931
		c-0.654,0.498-1.292,0.799-1.915,0.903c-0.166,0.042-0.338,0.062-0.514,0.062c-0.177,0-0.357,0-0.545,0
		c-0.851,0-1.712-0.156-2.584-0.467c-0.872-0.311-1.682-0.783-2.43-1.417c-0.746-0.633-1.396-1.421-1.945-2.367
		c-0.55-0.944-0.949-2.06-1.199-3.347c-0.187-0.955-0.28-2.014-0.28-3.176c0-0.997,0.068-2.024,0.203-3.083
		c0.135-1.058,0.327-2.081,0.576-3.066c0.249-0.986,0.55-1.904,0.902-2.756c0.354-0.851,0.747-1.588,1.184-2.21
		c0.769-1.121,1.65-1.764,2.646-1.93c0.062-0.021,0.13-0.031,0.202-0.031s0.141,0,0.202,0c0.354,0,0.654,0.062,0.903,0.187
		c0.125-0.042,0.25-0.073,0.374-0.093c0.125-0.021,0.259-0.042,0.404-0.062L247.099,54.42z M251.084,74.378
		c0.686-0.976,1.205-2.055,1.557-3.238c0.354-1.183,0.53-2.408,0.53-3.674c0-0.415-0.017-0.82-0.048-1.214
		c-0.031-0.394-0.088-0.789-0.171-1.183c-0.29-1.453-0.7-2.725-1.229-3.814c-0.528-1.09-1.084-2.003-1.665-2.74
		c-0.581-0.737-1.132-1.297-1.651-1.682c-0.518-0.384-0.902-0.597-1.151-0.638c-0.083,0.229-0.219,0.394-0.405,0.498
		c-0.146,0.083-0.29,0.125-0.437,0.125c-0.123,0-0.248-0.02-0.372-0.062c-0.125-0.042-0.271-0.093-0.437-0.155
		c-0.083,0.042-0.207,0.062-0.374,0.062c-0.29,0-0.508-0.104-0.654-0.312c-0.353,0.229-0.684,0.571-0.996,1.027
		c-0.394,0.54-0.747,1.198-1.058,1.977c-0.312,0.778-0.577,1.619-0.794,2.522c-0.218,0.903-0.39,1.833-0.515,2.787
		c-0.125,0.955-0.187,1.889-0.187,2.802c0,0.519,0.016,1.018,0.047,1.495s0.098,0.934,0.202,1.37
		c0.207,1.163,0.561,2.138,1.058,2.927c0.499,0.79,1.055,1.428,1.667,1.915c0.612,0.488,1.256,0.836,1.93,1.043
		c0.675,0.208,1.304,0.312,1.885,0.312c0.124,0,0.244,0,0.357,0c0.114,0,0.233-0.021,0.358-0.062
		c0.291-0.042,0.664-0.223,1.121-0.545C250.108,75.598,250.586,75.084,251.084,74.378z"/>
	<path fill="#FFFFFF" d="M265.014,73.102c0.172,0.156,0.259,0.347,0.259,0.571c0,0.156-0.052,0.312-0.156,0.467
		c-0.018,0.018-0.1,0.104-0.247,0.26c-0.146,0.155-0.35,0.324-0.609,0.506c-0.26,0.182-0.57,0.346-0.934,0.493
		s-0.771,0.212-1.22,0.195c0.035,0.519,0.065,0.947,0.091,1.284c0.026,0.337,0.047,0.523,0.064,0.558
		c0,0.191-0.064,0.359-0.194,0.506c-0.13,0.147-0.307,0.221-0.531,0.221c-0.191,0.017-0.355-0.039-0.493-0.168
		c-0.139-0.13-0.217-0.29-0.233-0.48c-0.018-0.052-0.043-0.281-0.078-0.688c-0.034-0.406-0.069-0.912-0.104-1.518
		c-0.448-0.172-0.891-0.423-1.322-0.752c-0.434-0.329-0.822-0.748-1.168-1.259c-0.347-0.51-0.623-1.124-0.83-1.842
		s-0.312-1.544-0.312-2.478c0-0.744,0.039-1.314,0.117-1.713c0.077-0.398,0.202-0.77,0.376-1.116c0.018-0.069,0.09-0.234,0.22-0.493
		s0.294-0.548,0.493-0.869c0.199-0.32,0.42-0.631,0.662-0.934c0.242-0.302,0.484-0.522,0.727-0.662
		c0.086-0.052,0.165-0.091,0.233-0.117c0.069-0.026,0.146-0.056,0.233-0.091c-0.018-0.294-0.025-0.522-0.025-0.688
		c0-0.165-0.009-0.264-0.026-0.299c0-0.19,0.069-0.359,0.208-0.506c0.138-0.146,0.311-0.22,0.519-0.22
		c0.19,0,0.359,0.064,0.506,0.194c0.147,0.129,0.222,0.29,0.222,0.48l0.051,0.778c0.276,0.035,0.484,0.069,0.622,0.104
		c0.053,0.018,0.156,0.056,0.312,0.117c0.156,0.061,0.32,0.134,0.493,0.221c0.174,0.087,0.342,0.182,0.506,0.285
		c0.164,0.104,0.29,0.217,0.376,0.337c0.035,0.035,0.079,0.13,0.131,0.286c0.051,0.156,0.078,0.406,0.078,0.752
		c0,0.191-0.07,0.359-0.209,0.505c-0.138,0.148-0.312,0.221-0.519,0.221c-0.189,0-0.358-0.082-0.506-0.247
		c-0.146-0.164-0.221-0.394-0.221-0.688c-0.104-0.069-0.242-0.143-0.414-0.221c-0.174-0.077-0.364-0.142-0.571-0.194
		c0.034,0.623,0.061,1.307,0.078,2.05c0.018,0.744,0.025,1.445,0.025,2.102c0,0.346,0.009,0.744,0.026,1.193
		c0.018,0.45,0.043,0.934,0.077,1.454c0.035,0.519,0.078,1.046,0.13,1.582c0.052,0.537,0.112,1.056,0.182,1.557
		c0.276,0,0.531-0.047,0.766-0.142c0.233-0.095,0.433-0.199,0.597-0.312c0.165-0.113,0.299-0.22,0.402-0.325L264,73.205
		c0.14-0.172,0.321-0.259,0.546-0.259C264.718,72.946,264.874,72.998,265.014,73.102z M258.448,68.977
		c0,0.657,0.057,1.241,0.169,1.751s0.268,0.952,0.466,1.323c0.199,0.373,0.421,0.688,0.662,0.947
		c0.242,0.259,0.493,0.467,0.753,0.623c-0.035-0.467-0.069-0.942-0.104-1.427c-0.034-0.484-0.064-0.96-0.09-1.427
		c-0.026-0.467-0.043-0.908-0.053-1.323c-0.008-0.416-0.013-0.778-0.013-1.09c0-0.606-0.009-1.232-0.025-1.881
		c-0.018-0.649-0.044-1.275-0.078-1.881c-0.19,0.207-0.411,0.519-0.661,0.934c-0.251,0.415-0.473,0.821-0.662,1.219
		c-0.139,0.259-0.234,0.545-0.286,0.856C258.475,67.912,258.448,68.371,258.448,68.977z"/>
</g>
</svg>
