<?xml version="1.0" encoding="utf-8"?>
<!-- Generator: Adobe Illustrator 16.0.0, SVG Export Plug-In . SVG Version: 6.00 Build 0)  -->
<!DOCTYPE svg PUBLIC "-//W3C//DTD SVG 1.1//EN" "http://www.w3.org/Graphics/SVG/1.1/DTD/svg11.dtd">
<svg version="1.1" id="Layer_1" xmlns="http://www.w3.org/2000/svg" xmlns:xlink="http://www.w3.org/1999/xlink" x="0px" y="0px"
	 width="300px" height="250px" viewBox="0 0 300 250" enable-background="new 0 0 300 250" xml:space="preserve">
<path fill="#1F622C" d="M201.694,113H97.473c-7.717,0-13.973-6.256-13.973-13.973V88.363c0-7.717,6.256-13.973,13.973-13.973
	h104.222c7.717,0,13.973,6.256,13.973,13.973v10.664C215.667,106.744,209.411,113,201.694,113z"/>
<g>
	<path fill="#FFFFFF" d="M110.352,86.716c0.432,0.122,0.9,0.332,1.404,0.631c0.502,0.299,0.971,0.689,1.402,1.17
		c0.432,0.482,0.791,1.061,1.078,1.735c0.289,0.675,0.432,1.444,0.432,2.308c0,1.14-0.113,2.103-0.34,2.889
		s-0.518,1.431-0.871,1.934c-0.355,0.504-0.748,0.892-1.18,1.162c-0.432,0.271-0.857,0.468-1.277,0.59
		c-0.199,0.056-0.502,0.094-0.904,0.116c-0.404,0.022-0.834,0.033-1.287,0.033c-0.289,0-0.572-0.003-0.855-0.009
		c-0.281-0.005-0.539-0.011-0.771-0.016c-0.232-0.006-0.43-0.015-0.59-0.025s-0.268-0.017-0.324-0.017
		c-0.121,0-0.223-0.05-0.307-0.149c-0.082-0.1-0.125-0.232-0.125-0.398c-0.01-0.033-0.029-0.183-0.057-0.448
		c-0.029-0.266-0.062-0.595-0.1-0.987c-0.039-0.394-0.082-0.828-0.125-1.304c-0.045-0.476-0.086-0.943-0.125-1.403
		c-0.039-0.459-0.072-0.882-0.1-1.27s-0.041-0.691-0.041-0.913c0-0.276-0.008-0.62-0.025-1.029
		c-0.016-0.409-0.041-0.839-0.074-1.286c-0.033-0.449-0.072-0.892-0.117-1.328c-0.043-0.438-0.088-0.833-0.133-1.188
		c-0.021-0.022-0.043-0.059-0.066-0.107c-0.021-0.051-0.043-0.125-0.066-0.225c0-0.089,0.018-0.166,0.051-0.232
		c0-0.022-0.004-0.053-0.008-0.092c-0.006-0.038-0.016-0.091-0.025-0.157c0-0.11,0.039-0.21,0.115-0.299
		c0.078-0.089,0.193-0.144,0.35-0.166c0.242,0,0.393,0.116,0.447,0.349c0.332-0.089,0.65-0.158,0.955-0.207
		c0.305-0.051,0.639-0.075,1.004-0.075c0.344,0,0.729,0.03,1.154,0.091C109.275,86.453,109.777,86.561,110.352,86.716z
		 M110.75,98.237c0.621-0.177,1.123-0.468,1.512-0.871c0.387-0.404,0.691-0.872,0.912-1.403c0.223-0.531,0.371-1.093,0.449-1.685
		c0.076-0.593,0.115-1.165,0.115-1.719c0-0.73-0.123-1.381-0.373-1.951c-0.248-0.569-0.557-1.062-0.922-1.477
		c-0.365-0.416-0.758-0.75-1.178-1.005c-0.422-0.255-0.803-0.426-1.146-0.515c-0.531-0.144-0.986-0.243-1.369-0.299
		c-0.381-0.056-0.732-0.083-1.055-0.083c-0.32,0-0.621,0.024-0.904,0.075c-0.281,0.049-0.584,0.113-0.904,0.19
		c0.043,0.376,0.086,0.794,0.125,1.253c0.037,0.46,0.074,0.914,0.107,1.361c0.033,0.449,0.059,0.869,0.074,1.262
		c0.018,0.394,0.025,0.717,0.025,0.972c0,0.188,0.01,0.44,0.033,0.755c0.021,0.316,0.047,0.667,0.074,1.055s0.061,0.789,0.1,1.203
		c0.039,0.416,0.078,0.814,0.117,1.195c0.037,0.383,0.074,0.729,0.107,1.038s0.061,0.548,0.082,0.714
		c0.322,0.022,0.662,0.036,1.021,0.041c0.359,0.006,0.717,0.009,1.07,0.009c0.443,0,0.836-0.009,1.18-0.024
		C110.346,98.312,110.596,98.281,110.75,98.237z"/>
	<path fill="#FFFFFF" d="M120.977,89.322c0.232,0,0.502,0.113,0.807,0.341c0.303,0.227,0.592,0.547,0.863,0.963
		c0.27,0.414,0.502,0.915,0.697,1.502c0.193,0.587,0.289,1.245,0.289,1.976c0,0.741-0.127,1.428-0.381,2.059
		c-0.256,0.631-0.572,1.179-0.955,1.644c-0.381,0.465-0.797,0.827-1.244,1.088c-0.449,0.26-0.861,0.39-1.238,0.39
		c-0.432,0-0.857-0.083-1.277-0.249c-0.422-0.166-0.797-0.406-1.129-0.723c-0.332-0.314-0.604-0.705-0.814-1.17
		c-0.209-0.465-0.314-1.002-0.314-1.61c0-0.388,0.049-0.813,0.148-1.278s0.236-0.933,0.408-1.402
		c0.17-0.471,0.375-0.925,0.613-1.361c0.238-0.438,0.496-0.828,0.771-1.171c0.277-0.343,0.57-0.617,0.881-0.821
		c0.309-0.205,0.625-0.308,0.945-0.308c0.123,0,0.23,0.014,0.324,0.042c0.094,0.027,0.18,0.063,0.258,0.107
		c0.055,0,0.109-0.003,0.166-0.008C120.85,89.325,120.91,89.322,120.977,89.322z M119.814,98.354c0.211,0,0.479-0.103,0.807-0.308
		c0.326-0.204,0.645-0.492,0.953-0.863c0.311-0.37,0.576-0.815,0.797-1.336c0.223-0.521,0.332-1.102,0.332-1.743
		c0-0.62-0.074-1.165-0.223-1.636c-0.15-0.47-0.322-0.868-0.516-1.195c-0.193-0.326-0.387-0.572-0.58-0.738
		c-0.195-0.166-0.336-0.26-0.424-0.282c-0.189,0-0.357,0.014-0.506,0.042c-0.15,0.027-0.252,0.047-0.309,0.058
		c-0.133,0-0.254-0.056-0.365-0.166c-0.275,0.11-0.564,0.359-0.863,0.747s-0.574,0.838-0.83,1.354
		c-0.254,0.514-0.465,1.062-0.631,1.643c-0.166,0.582-0.248,1.115-0.248,1.603c0,0.509,0.088,0.943,0.266,1.304
		c0.176,0.359,0.398,0.649,0.664,0.871s0.547,0.385,0.846,0.49C119.283,98.301,119.561,98.354,119.814,98.354z"/>
	<path fill="#FFFFFF" d="M133.312,96.942c0,0.155,0.02,0.315,0.059,0.481c0.037,0.166,0.084,0.323,0.141,0.474
		c0.055,0.148,0.109,0.284,0.166,0.406c0.055,0.122,0.1,0.216,0.133,0.282s0.049,0.144,0.049,0.232c0,0.177-0.076,0.31-0.232,0.398
		c-0.043,0.022-0.082,0.039-0.115,0.05s-0.072,0.017-0.117,0.017c-0.176,0-0.309-0.083-0.398-0.249
		c-0.01-0.011-0.049-0.08-0.115-0.207c-0.066-0.128-0.137-0.291-0.207-0.49c-0.072-0.199-0.139-0.421-0.199-0.664
		c-0.062-0.243-0.092-0.487-0.092-0.73c0-0.056-0.004-0.119-0.008-0.191c-0.006-0.071-0.016-0.151-0.025-0.24
		c-0.012-0.155-0.023-0.324-0.033-0.506c-0.012-0.184-0.018-0.401-0.018-0.656c0-0.166-0.01-0.34-0.033-0.523
		c-0.021-0.182-0.043-0.384-0.066-0.605c-0.033-0.276-0.062-0.572-0.09-0.889c-0.029-0.314-0.043-0.649-0.043-1.004
		c0-0.222-0.047-0.462-0.141-0.723c-0.094-0.26-0.23-0.5-0.406-0.722c-0.178-0.222-0.396-0.404-0.656-0.548
		s-0.562-0.216-0.904-0.216c-0.432,0-0.816,0.08-1.154,0.241c-0.338,0.16-0.629,0.362-0.871,0.605
		c-0.244,0.243-0.451,0.506-0.623,0.789c-0.172,0.281-0.307,0.547-0.406,0.797c-0.1,0.248-0.174,0.462-0.225,0.639
		c-0.049,0.177-0.074,0.276-0.074,0.299c-0.033,0.1-0.078,0.177-0.133,0.232v0.299c0,0.266,0.039,0.57,0.115,0.913
		c0.078,0.343,0.166,0.708,0.266,1.096c0.123,0.498,0.242,1.019,0.357,1.561c0.117,0.542,0.174,1.096,0.174,1.66
		c0,0.133-0.043,0.243-0.133,0.332c-0.088,0.089-0.199,0.133-0.332,0.133c-0.121,0-0.229-0.044-0.322-0.133
		c-0.096-0.089-0.143-0.199-0.143-0.332c0-0.509-0.053-1.019-0.156-1.527c-0.105-0.509-0.219-0.996-0.342-1.461
		c-0.109-0.409-0.207-0.806-0.289-1.187c-0.084-0.383-0.125-0.733-0.125-1.055s-0.023-0.725-0.066-1.212
		c-0.045-0.487-0.098-0.96-0.158-1.419c-0.061-0.46-0.115-0.858-0.166-1.195c-0.049-0.338-0.074-0.518-0.074-0.54
		c0-0.11,0.039-0.21,0.115-0.299c0.078-0.089,0.193-0.144,0.35-0.166c0.121,0,0.225,0.036,0.307,0.108
		c0.084,0.071,0.135,0.168,0.158,0.29c0,0.022,0.01,0.091,0.033,0.208c0.021,0.115,0.043,0.271,0.066,0.465
		c0.021,0.193,0.049,0.412,0.082,0.655s0.066,0.498,0.1,0.764c0.166-0.31,0.363-0.614,0.59-0.913s0.492-0.564,0.797-0.797
		s0.645-0.421,1.021-0.564c0.375-0.144,0.797-0.216,1.262-0.216c0.453,0,0.865,0.091,1.236,0.274
		c0.371,0.182,0.689,0.423,0.955,0.722s0.473,0.637,0.623,1.013c0.148,0.376,0.223,0.753,0.223,1.129
		c0,0.332,0.014,0.647,0.043,0.946c0.027,0.299,0.057,0.575,0.09,0.83c0.023,0.222,0.045,0.438,0.066,0.647
		c0.023,0.21,0.033,0.409,0.033,0.598c0,0.442,0.018,0.797,0.051,1.062c0.01,0.1,0.02,0.191,0.025,0.273
		C133.309,96.769,133.312,96.854,133.312,96.942z"/>
	<path fill="#FFFFFF" d="M142.061,94.253c0.1,0.687,0.217,1.301,0.35,1.843s0.256,1.002,0.373,1.378
		c0.115,0.376,0.215,0.667,0.299,0.871c0.082,0.205,0.125,0.313,0.125,0.324c0.01,0.033,0.02,0.063,0.023,0.092
		c0.006,0.027,0.01,0.058,0.01,0.091c0,0.199-0.09,0.343-0.266,0.432c-0.09,0.022-0.156,0.033-0.199,0.033
		c-0.211,0-0.35-0.089-0.416-0.266c-0.021-0.044-0.125-0.308-0.307-0.788c-0.184-0.482-0.373-1.154-0.572-2.018
		c-0.178,0.432-0.385,0.83-0.623,1.195s-0.492,0.681-0.764,0.946s-0.553,0.474-0.848,0.622c-0.293,0.15-0.582,0.225-0.871,0.225
		c-1.129,0-1.965-0.388-2.506-1.162c-0.543-0.774-0.814-1.965-0.814-3.569c0-0.664,0.1-1.253,0.299-1.769
		c0.199-0.514,0.457-0.965,0.771-1.353c0.316-0.388,0.67-0.714,1.062-0.979c0.395-0.266,0.779-0.481,1.154-0.647
		c0.377-0.166,0.725-0.285,1.047-0.356c0.32-0.072,0.574-0.108,0.764-0.108c0.332,0,0.619,0.063,0.863,0.19
		c0.242,0.128,0.445,0.271,0.605,0.432c0.16,0.161,0.279,0.311,0.357,0.449c0.076,0.138,0.115,0.213,0.115,0.224
		c0.033,0.056,0.051,0.116,0.051,0.183c0,0.11-0.051,0.227-0.15,0.349c0.1,0.521,0.15,1.206,0.15,2.059
		c0,0.177-0.01,0.354-0.025,0.531C142.102,93.882,142.084,94.064,142.061,94.253z M138.375,98.304c0.232,0,0.488-0.107,0.764-0.324
		c0.277-0.215,0.545-0.506,0.805-0.871c0.262-0.365,0.496-0.794,0.707-1.287c0.209-0.492,0.365-1.015,0.465-1.568
		c-0.078-0.531-0.139-1.09-0.184-1.677c-0.043-0.587-0.072-1.212-0.082-1.876c-0.123-0.1-0.184-0.222-0.184-0.365
		c-0.076-0.033-0.158-0.061-0.24-0.083c-0.084-0.022-0.174-0.033-0.273-0.033c-0.145,0-0.35,0.03-0.615,0.091
		c-0.266,0.062-0.553,0.161-0.863,0.299c-0.309,0.139-0.623,0.318-0.938,0.54c-0.316,0.222-0.604,0.492-0.863,0.813
		s-0.473,0.691-0.639,1.112s-0.25,0.896-0.25,1.428c0,0.841,0.07,1.511,0.207,2.009c0.139,0.498,0.322,0.88,0.549,1.146
		s0.48,0.44,0.764,0.522C137.785,98.263,138.076,98.304,138.375,98.304z"/>
	<path fill="#FFFFFF" d="M150.08,90.269c0.1,0.022,0.182,0.083,0.248,0.183s0.094,0.227,0.084,0.382
		c-0.057,0.232-0.244,0.349-0.564,0.349c0-0.011-0.205-0.05-0.615-0.116c-0.408-0.066-0.957-0.105-1.643-0.116
		c0.033,0.631,0.049,1.151,0.049,1.561c0,0.21,0.014,0.509,0.041,0.896c0.029,0.388,0.062,0.811,0.1,1.271
		c0.039,0.459,0.082,0.93,0.125,1.41c0.045,0.482,0.09,0.919,0.133,1.312c0.045,0.393,0.08,0.719,0.107,0.979
		c0.029,0.261,0.043,0.396,0.043,0.407c0,0.122-0.043,0.224-0.125,0.308c-0.084,0.082-0.197,0.135-0.34,0.157
		c-0.123,0-0.227-0.039-0.316-0.116c-0.088-0.077-0.139-0.177-0.148-0.299c0-0.033-0.018-0.183-0.051-0.448
		s-0.068-0.595-0.107-0.987c-0.039-0.394-0.08-0.828-0.125-1.304c-0.043-0.476-0.086-0.943-0.125-1.403
		c-0.037-0.459-0.07-0.882-0.1-1.27c-0.027-0.388-0.041-0.691-0.041-0.913c0-0.421-0.016-0.93-0.049-1.527
		c-0.289,0.022-0.57,0.05-0.848,0.083c-0.275,0.033-0.523,0.063-0.738,0.092c-0.217,0.027-0.393,0.052-0.531,0.074
		s-0.219,0.033-0.24,0.033c-0.111,0-0.211-0.039-0.299-0.116c-0.09-0.077-0.145-0.193-0.166-0.349c0-0.11,0.035-0.207,0.107-0.291
		c0.072-0.082,0.168-0.135,0.291-0.157c0.01,0,0.086-0.014,0.223-0.042c0.139-0.027,0.316-0.055,0.531-0.082
		c0.217-0.028,0.463-0.056,0.74-0.084c0.275-0.027,0.564-0.052,0.863-0.074c-0.023-0.31-0.047-0.617-0.076-0.922
		c-0.027-0.304-0.055-0.598-0.082-0.879c-0.027-0.283-0.059-0.546-0.092-0.789s-0.066-0.454-0.1-0.631
		c0-0.11,0.039-0.21,0.117-0.299c0.076-0.089,0.193-0.144,0.348-0.166c0.111,0,0.207,0.033,0.291,0.1
		c0.082,0.066,0.135,0.16,0.158,0.282c0.076,0.343,0.148,0.813,0.215,1.411s0.127,1.212,0.184,1.843c0.375,0,0.717,0.011,1.02,0.033
		c0.305,0.022,0.564,0.05,0.781,0.083c0.215,0.033,0.387,0.063,0.514,0.092C150,90.255,150.068,90.269,150.08,90.269z"/>
	<path fill="#FFFFFF" d="M158.348,98.171c0.121,0,0.223,0.039,0.307,0.116c0.082,0.077,0.135,0.193,0.158,0.349
		c0,0.122-0.037,0.225-0.109,0.307c-0.07,0.084-0.168,0.136-0.289,0.158c-0.023,0-0.123,0.014-0.299,0.041
		c-0.178,0.028-0.389,0.059-0.631,0.092c-0.244,0.033-0.498,0.061-0.764,0.083s-0.492,0.033-0.682,0.033
		c-1.471,0-2.6-0.39-3.387-1.171c-0.785-0.779-1.217-1.878-1.295-3.295c-0.021-0.72,0.041-1.351,0.191-1.893
		c0.148-0.542,0.348-1.007,0.598-1.395c0.248-0.388,0.529-0.708,0.838-0.963c0.311-0.255,0.611-0.454,0.904-0.598
		c0.295-0.144,0.561-0.246,0.797-0.307c0.238-0.062,0.414-0.092,0.523-0.092c0.289,0,0.596,0.072,0.922,0.216
		s0.631,0.362,0.912,0.655c0.283,0.294,0.523,0.667,0.723,1.121s0.322,0.99,0.365,1.61c0.066,0.089,0.1,0.188,0.1,0.299
		s-0.033,0.205-0.1,0.282c-0.055,0.222-0.205,0.332-0.447,0.332c-0.111,0-0.205-0.033-0.283-0.1c-0.299,0.066-0.607,0.16-0.93,0.282
		c-0.287,0.1-0.57,0.188-0.846,0.266c-0.277,0.077-0.525,0.116-0.748,0.116c-0.121,0-0.285,0.017-0.49,0.05
		c-0.203,0.033-0.428,0.077-0.672,0.133c-0.242,0.056-0.49,0.113-0.738,0.175c-0.25,0.061-0.473,0.118-0.672,0.174
		c0.043,0.687,0.201,1.236,0.473,1.652c0.271,0.414,0.592,0.735,0.963,0.963c0.371,0.227,0.764,0.376,1.178,0.447
		c0.416,0.072,0.789,0.108,1.121,0.108c0.178,0,0.393-0.011,0.648-0.033c0.254-0.022,0.498-0.05,0.73-0.083s0.438-0.061,0.613-0.083
		l0.25-0.033L158.348,98.171z M155.209,90.567c-0.1,0-0.295,0.053-0.59,0.158c-0.293,0.104-0.598,0.293-0.912,0.564
		c-0.316,0.271-0.609,0.646-0.881,1.129c-0.27,0.48-0.439,1.098-0.506,1.851c0.189-0.044,0.402-0.094,0.639-0.149
		c0.238-0.056,0.477-0.107,0.715-0.158c0.238-0.049,0.465-0.091,0.68-0.124c0.217-0.033,0.391-0.05,0.523-0.05
		c0.156,0,0.352-0.036,0.59-0.107c0.238-0.072,0.473-0.147,0.705-0.225c0.189-0.066,0.365-0.125,0.531-0.174
		c0.166-0.051,0.326-0.098,0.482-0.142c-0.045-0.442-0.139-0.824-0.283-1.146c-0.143-0.321-0.309-0.587-0.498-0.797
		c-0.188-0.21-0.387-0.368-0.598-0.473C155.598,90.62,155.398,90.567,155.209,90.567z"/>
	<path fill="#FFFFFF" d="M174.268,92.344c0,0.21,0.014,0.509,0.043,0.896c0.027,0.388,0.061,0.811,0.1,1.271
		c0.037,0.459,0.08,0.93,0.123,1.41c0.045,0.482,0.09,0.919,0.133,1.312c0.045,0.393,0.08,0.719,0.109,0.979
		c0.027,0.261,0.041,0.396,0.041,0.407c0,0.21-0.117,0.371-0.35,0.481c-0.076,0.044-0.16,0.066-0.248,0.066
		c-0.166,0-0.299-0.066-0.398-0.199c-0.023-0.033-0.123-0.183-0.299-0.448c-0.178-0.266-0.393-0.595-0.648-0.987
		c-0.254-0.394-0.539-0.828-0.854-1.304c-0.316-0.476-0.617-0.94-0.906-1.395c-0.287-0.454-0.553-0.874-0.797-1.262
		c-0.242-0.388-0.426-0.691-0.547-0.913c-0.178-0.31-0.406-0.7-0.689-1.17c-0.281-0.471-0.58-0.955-0.896-1.453
		c-0.314-0.498-0.629-0.985-0.938-1.461c-0.311-0.476-0.582-0.874-0.814-1.195c0.045,0.365,0.09,0.78,0.133,1.245
		c0.045,0.465,0.084,0.93,0.117,1.395s0.059,0.902,0.074,1.312c0.018,0.409,0.025,0.747,0.025,1.013c0,0.21,0.014,0.509,0.041,0.896
		s0.061,0.811,0.1,1.271c0.039,0.459,0.08,0.93,0.125,1.41c0.043,0.482,0.088,0.919,0.133,1.312c0.043,0.393,0.08,0.719,0.107,0.979
		c0.027,0.261,0.041,0.396,0.041,0.407c0,0.122-0.041,0.227-0.123,0.315c-0.084,0.089-0.197,0.139-0.342,0.149
		c-0.121,0-0.227-0.039-0.314-0.116c-0.09-0.077-0.139-0.177-0.15-0.299c0-0.033-0.014-0.183-0.041-0.448s-0.064-0.595-0.107-0.987
		c-0.045-0.394-0.09-0.828-0.133-1.304c-0.045-0.476-0.086-0.943-0.125-1.403c-0.039-0.459-0.072-0.882-0.1-1.27
		s-0.041-0.691-0.041-0.913c0-0.332-0.014-0.758-0.041-1.278c-0.029-0.521-0.064-1.055-0.109-1.602
		c-0.043-0.549-0.094-1.071-0.148-1.569c-0.057-0.498-0.111-0.896-0.166-1.195c0-0.11,0.039-0.21,0.115-0.299
		c0.078-0.089,0.193-0.144,0.35-0.166c0.088,0,0.168,0.017,0.24,0.05s0.135,0.072,0.191,0.116c0.088-0.056,0.182-0.083,0.281-0.083
		c0.156,0,0.283,0.061,0.383,0.183c0.154,0.199,0.334,0.451,0.539,0.755c0.205,0.305,0.424,0.634,0.656,0.988
		s0.467,0.72,0.705,1.096s0.467,0.741,0.689,1.096c0.221,0.354,0.42,0.687,0.598,0.996c0.176,0.31,0.326,0.57,0.447,0.78
		c0.123,0.222,0.305,0.525,0.549,0.913c0.242,0.388,0.514,0.813,0.812,1.278s0.607,0.938,0.922,1.419
		c0.316,0.482,0.6,0.916,0.855,1.304c-0.045-0.398-0.09-0.83-0.133-1.295c-0.045-0.465-0.086-0.919-0.125-1.361
		s-0.068-0.853-0.092-1.229c-0.021-0.376-0.033-0.675-0.033-0.896c0-0.332-0.014-0.758-0.041-1.278s-0.064-1.055-0.107-1.602
		c-0.045-0.549-0.094-1.071-0.15-1.569c-0.055-0.498-0.109-0.896-0.166-1.195c0-0.11,0.039-0.21,0.117-0.299
		c0.076-0.089,0.193-0.144,0.348-0.166c0.111,0,0.211,0.033,0.299,0.1c0.09,0.066,0.145,0.155,0.166,0.266
		c0.057,0.31,0.111,0.722,0.166,1.237c0.057,0.514,0.105,1.054,0.15,1.618c0.043,0.564,0.08,1.109,0.107,1.636
		C174.254,91.616,174.268,92.034,174.268,92.344z"/>
	<path fill="#FFFFFF" d="M181.639,89.322c0.232,0,0.502,0.113,0.807,0.341c0.303,0.227,0.592,0.547,0.863,0.963
		c0.27,0.414,0.502,0.915,0.697,1.502c0.193,0.587,0.289,1.245,0.289,1.976c0,0.741-0.127,1.428-0.381,2.059
		c-0.256,0.631-0.572,1.179-0.955,1.644c-0.381,0.465-0.797,0.827-1.244,1.088c-0.449,0.26-0.861,0.39-1.238,0.39
		c-0.432,0-0.857-0.083-1.277-0.249c-0.422-0.166-0.797-0.406-1.129-0.723c-0.332-0.314-0.604-0.705-0.814-1.17
		c-0.209-0.465-0.314-1.002-0.314-1.61c0-0.388,0.049-0.813,0.148-1.278s0.236-0.933,0.408-1.402
		c0.17-0.471,0.375-0.925,0.613-1.361c0.238-0.438,0.496-0.828,0.771-1.171c0.277-0.343,0.57-0.617,0.881-0.821
		c0.309-0.205,0.625-0.308,0.945-0.308c0.123,0,0.23,0.014,0.324,0.042c0.094,0.027,0.18,0.063,0.258,0.107
		c0.055,0,0.109-0.003,0.166-0.008C181.512,89.325,181.572,89.322,181.639,89.322z M180.477,98.354c0.211,0,0.479-0.103,0.807-0.308
		c0.326-0.204,0.645-0.492,0.953-0.863c0.311-0.37,0.576-0.815,0.797-1.336c0.223-0.521,0.332-1.102,0.332-1.743
		c0-0.62-0.074-1.165-0.223-1.636c-0.15-0.47-0.322-0.868-0.516-1.195c-0.193-0.326-0.387-0.572-0.58-0.738
		c-0.195-0.166-0.336-0.26-0.424-0.282c-0.189,0-0.357,0.014-0.506,0.042c-0.15,0.027-0.252,0.047-0.309,0.058
		c-0.133,0-0.254-0.056-0.365-0.166c-0.275,0.11-0.564,0.359-0.863,0.747s-0.574,0.838-0.83,1.354
		c-0.254,0.514-0.465,1.062-0.631,1.643c-0.166,0.582-0.248,1.115-0.248,1.603c0,0.509,0.088,0.943,0.266,1.304
		c0.176,0.359,0.398,0.649,0.664,0.871s0.547,0.385,0.846,0.49C179.945,98.301,180.223,98.354,180.477,98.354z"/>
	<path fill="#FFFFFF" d="M197.76,89.804c0.232,0.077,0.342,0.271,0.332,0.581c-0.012,0.022-0.057,0.186-0.133,0.489
		c-0.078,0.305-0.18,0.673-0.307,1.104c-0.129,0.432-0.266,0.888-0.416,1.37c-0.148,0.48-0.297,0.91-0.439,1.286
		c-0.145,0.365-0.293,0.797-0.449,1.295c-0.154,0.498-0.299,0.974-0.432,1.428s-0.246,0.839-0.34,1.153
		c-0.094,0.316-0.141,0.479-0.141,0.49c-0.057,0.232-0.244,0.343-0.564,0.332c-0.232-0.077-0.344-0.271-0.332-0.581l0.082-0.249
		c-0.021-0.033-0.133-0.199-0.332-0.498s-0.439-0.72-0.721-1.262c-0.283-0.542-0.547-1.106-0.789-1.693
		c-0.41-0.985-0.758-1.976-1.047-2.972c-0.121,0.421-0.254,0.86-0.398,1.319c-0.143,0.46-0.287,0.872-0.432,1.237
		c-0.133,0.365-0.279,0.797-0.439,1.295s-0.307,0.974-0.439,1.428s-0.244,0.839-0.332,1.153c-0.09,0.316-0.133,0.479-0.133,0.49
		c-0.078,0.232-0.271,0.343-0.582,0.332c-0.221-0.077-0.326-0.271-0.314-0.581l0.066-0.249c-0.023-0.033-0.156-0.24-0.398-0.623
		c-0.244-0.381-0.537-0.921-0.881-1.618c-0.342-0.697-0.697-1.55-1.062-2.557c-0.375-1.007-0.703-2.158-0.979-3.453
		c0-0.243,0.154-0.398,0.465-0.465c0.242,0,0.393,0.122,0.447,0.365c0.199,0.896,0.488,1.909,0.863,3.038
		c0.123,0.376,0.311,0.863,0.564,1.461c0.244,0.608,0.482,1.135,0.715,1.577s0.432,0.803,0.598,1.079
		c0.143-0.476,0.305-0.99,0.48-1.544c0.178-0.554,0.344-1.04,0.498-1.461c0.145-0.365,0.291-0.786,0.441-1.262
		c0.148-0.476,0.283-0.933,0.406-1.37c0.121-0.437,0.227-0.811,0.314-1.12c0.09-0.31,0.139-0.481,0.15-0.515l0.115-0.149
		l0.166-0.083h0.166c0.023,0,0.043,0.003,0.059,0.008c0.018,0.006,0.059,0.02,0.125,0.042c0.01,0.011,0.021,0.02,0.033,0.024
		c0.01,0.006,0.043,0.036,0.1,0.092l0.1,0.183c0.188,0.886,0.406,1.704,0.656,2.457c0.248,0.753,0.5,1.434,0.754,2.042
		c0.256,0.608,0.498,1.135,0.73,1.577s0.432,0.803,0.598,1.079c0.145-0.476,0.305-0.99,0.482-1.544
		c0.176-0.554,0.342-1.04,0.498-1.461c0.133-0.365,0.273-0.786,0.424-1.262c0.148-0.476,0.283-0.927,0.406-1.353
		c0.121-0.427,0.225-0.789,0.307-1.088c0.084-0.299,0.125-0.454,0.125-0.465c0.021-0.1,0.08-0.183,0.174-0.249
		S197.594,89.793,197.76,89.804z"/>
</g>
</svg>
