<?xml version="1.0" encoding="utf-8"?>
<!-- Generator: Adobe Illustrator 16.0.0, SVG Export Plug-In . SVG Version: 6.00 Build 0)  -->
<!DOCTYPE svg PUBLIC "-//W3C//DTD SVG 1.1//EN" "http://www.w3.org/Graphics/SVG/1.1/DTD/svg11.dtd">
<svg version="1.1" id="Layer_1" xmlns="http://www.w3.org/2000/svg" xmlns:xlink="http://www.w3.org/1999/xlink" x="0px" y="0px"
	 width="300px" height="250px" viewBox="0 0 300 250" enable-background="new 0 0 300 250" xml:space="preserve">
<g>
	<path fill="#3A1337" d="M131.259,37.031c0.646,0.271,1.192,0.568,1.641,0.891c0.448,0.323,0.828,0.651,1.141,0.984
		c0.604,0.667,1.026,1.339,1.266,2.016c0.239,0.677,0.359,1.287,0.359,1.828v0.375l-0.062,0.344c-0.042,0.5-0.115,1.016-0.219,1.547
		c-0.104,0.531-0.323,1.052-0.656,1.562c-0.333,0.511-0.818,0.99-1.453,1.438c-0.636,0.448-1.516,0.828-2.641,1.141
		c-0.271,0.083-0.662,0.151-1.172,0.203c-0.511,0.052-1.073,0.104-1.688,0.156c-0.615,0.052-1.25,0.094-1.906,0.125
		s-1.266,0.052-1.828,0.062c-0.562,0.01-1.047,0.021-1.453,0.031c-0.406,0.01-0.672,0.016-0.797,0.016
		c-0.229,0-0.433-0.089-0.609-0.266c-0.177-0.177-0.266-0.432-0.266-0.766c0-0.062-0.026-0.317-0.078-0.766
		c-0.052-0.448-0.109-1.01-0.172-1.688c-0.062-0.677-0.136-1.432-0.219-2.266c-0.083-0.833-0.162-1.672-0.234-2.516
		c-0.073-0.844-0.141-1.646-0.203-2.406c-0.062-0.76-0.104-1.411-0.125-1.953v-0.312c0-0.521-0.021-1.167-0.062-1.938
		c-0.042-0.771-0.089-1.578-0.141-2.422c-0.052-0.844-0.115-1.677-0.188-2.5c-0.073-0.823-0.151-1.567-0.234-2.234
		c-0.062-0.042-0.115-0.109-0.156-0.203c-0.042-0.094-0.083-0.234-0.125-0.422c0-0.188,0.042-0.333,0.125-0.438
		c-0.042-0.104-0.073-0.26-0.094-0.469c0-0.208,0.073-0.396,0.219-0.562c0.146-0.167,0.364-0.271,0.656-0.312
		c0.458,0,0.739,0.219,0.844,0.656c0.625-0.167,1.229-0.297,1.812-0.391c0.583-0.094,1.208-0.141,1.875-0.141
		c0.646,0,1.37,0.058,2.172,0.172c0.802,0.115,1.745,0.318,2.828,0.609c0.708,0.188,1.333,0.5,1.875,0.938
		c0.542,0.438,0.995,0.927,1.359,1.469c0.364,0.542,0.641,1.109,0.828,1.703s0.281,1.151,0.281,1.672c0,0.062,0,0.13,0,0.203
		c0,0.073-0.011,0.141-0.031,0.203l-0.031,0.312c-0.042,0.333-0.089,0.688-0.141,1.062c-0.052,0.375-0.162,0.755-0.328,1.141
		c-0.167,0.386-0.406,0.761-0.719,1.125C132.196,36.412,131.779,36.74,131.259,37.031z M128.978,27.906
		c-1-0.271-1.859-0.458-2.578-0.562c-0.719-0.104-1.37-0.156-1.953-0.156c-0.604,0-1.177,0.047-1.719,0.141
		c-0.542,0.094-1.115,0.214-1.719,0.359c0.083,0.646,0.161,1.359,0.234,2.141c0.073,0.781,0.135,1.562,0.188,2.344
		c0.052,0.781,0.099,1.531,0.141,2.25c0.042,0.719,0.062,1.339,0.062,1.859h1.312c0.396,0.021,0.792,0.037,1.188,0.047
		c0.396,0.011,0.802,0.016,1.219,0.016c0.125,0,0.26,0,0.406,0c0.146,0,0.333-0.021,0.562-0.062c0.104,0,0.203-0.005,0.297-0.016
		c0.094-0.01,0.192-0.016,0.297-0.016c0.083,0,0.161,0.005,0.234,0.016c0.073,0.011,0.161,0.016,0.266,0.016
		c0.333-0.042,0.651-0.078,0.953-0.109c0.302-0.031,0.567-0.088,0.797-0.172c0.625-0.167,1.114-0.37,1.469-0.609
		c0.354-0.239,0.625-0.51,0.812-0.812c0.188-0.302,0.312-0.62,0.375-0.953c0.062-0.333,0.114-0.688,0.156-1.062L132.009,32
		c0-0.312-0.058-0.677-0.172-1.094c-0.115-0.417-0.297-0.823-0.547-1.219c-0.25-0.396-0.568-0.755-0.953-1.078
		C129.951,28.287,129.498,28.052,128.978,27.906z M133.915,42.719c0-0.354-0.089-0.766-0.266-1.234
		c-0.177-0.469-0.474-0.932-0.891-1.391c-0.229-0.229-0.5-0.458-0.812-0.688c-0.312-0.229-0.683-0.442-1.109-0.641
		c-0.427-0.198-0.922-0.364-1.484-0.5c-0.562-0.135-1.198-0.213-1.906-0.234c-0.333,0.021-0.672,0.037-1.016,0.047
		c-0.344,0.011-0.693,0.016-1.047,0.016c-0.417,0-0.833-0.005-1.25-0.016c-0.417-0.01-0.833-0.026-1.25-0.047h-1.188
		c0.042,0.708,0.104,1.542,0.188,2.5c0.083,0.958,0.172,1.922,0.266,2.891s0.182,1.865,0.266,2.688
		c0.083,0.823,0.146,1.453,0.188,1.891c0.688-0.021,1.422-0.047,2.203-0.078s1.526-0.067,2.234-0.109
		c0.708-0.042,1.344-0.094,1.906-0.156s0.969-0.125,1.219-0.188c0.833-0.25,1.489-0.521,1.969-0.812
		c0.479-0.292,0.838-0.609,1.078-0.953c0.239-0.344,0.396-0.713,0.469-1.109c0.073-0.396,0.141-0.833,0.203-1.312l0.031-0.344
		V42.719z"/>
	<path fill="#3A1337" d="M153.259,41.531c0.458,0.104,0.688,0.448,0.688,1.031c-0.104,0.417-0.245,0.891-0.422,1.422
		s-0.411,1.068-0.703,1.609c0.125,1,0.239,1.865,0.344,2.594c0.104,0.729,0.167,1.135,0.188,1.219c0,0.229-0.073,0.422-0.219,0.578
		s-0.364,0.255-0.656,0.297c-0.229,0-0.422-0.068-0.578-0.203c-0.156-0.136-0.255-0.318-0.297-0.547
		c0-0.042-0.026-0.224-0.078-0.547s-0.109-0.734-0.172-1.234c-0.646,0.729-1.417,1.333-2.312,1.812
		c-0.896,0.479-1.938,0.719-3.125,0.719c-0.854,0-1.636-0.172-2.344-0.516c-0.708-0.344-1.312-0.797-1.812-1.359
		s-0.886-1.192-1.156-1.891c-0.271-0.698-0.406-1.411-0.406-2.141c0-0.625-0.026-1.219-0.078-1.781
		c-0.052-0.562-0.109-1.083-0.172-1.562c-0.042-0.417-0.083-0.817-0.125-1.203c-0.042-0.385-0.062-0.766-0.062-1.141
		c0-0.417-0.011-0.792-0.031-1.125c-0.021-0.333-0.052-0.625-0.094-0.875c-0.021-0.188-0.037-0.359-0.047-0.516
		c-0.011-0.156-0.016-0.317-0.016-0.484c0-0.292-0.037-0.594-0.109-0.906c-0.073-0.312-0.156-0.609-0.25-0.891
		s-0.193-0.536-0.297-0.766c-0.104-0.229-0.188-0.406-0.25-0.531c-0.083-0.104-0.125-0.239-0.125-0.406
		c0-0.354,0.156-0.614,0.469-0.781c0.125-0.062,0.26-0.094,0.406-0.094c0.354,0,0.614,0.146,0.781,0.438
		c0,0.021,0.062,0.151,0.188,0.391c0.125,0.24,0.255,0.547,0.391,0.922c0.135,0.375,0.26,0.792,0.375,1.25
		c0.114,0.458,0.172,0.917,0.172,1.375c0,0.104,0.005,0.229,0.016,0.375c0.01,0.146,0.026,0.302,0.047,0.469
		c0.042,0.271,0.073,0.578,0.094,0.922c0.021,0.344,0.031,0.755,0.031,1.234c0,0.312,0.021,0.641,0.062,0.984
		c0.042,0.344,0.083,0.724,0.125,1.141c0.042,0.542,0.094,1.104,0.156,1.688c0.062,0.583,0.094,1.208,0.094,1.875
		c0,0.438,0.088,0.896,0.266,1.375c0.177,0.479,0.432,0.927,0.766,1.344c0.333,0.417,0.745,0.761,1.234,1.031
		c0.489,0.271,1.057,0.406,1.703,0.406c0.646,0,1.229-0.094,1.75-0.281c0.521-0.188,0.989-0.438,1.406-0.75
		c0.417-0.312,0.786-0.661,1.109-1.047c0.323-0.385,0.599-0.786,0.828-1.203c-0.104-0.771-0.193-1.542-0.266-2.312
		c-0.073-0.771-0.13-1.469-0.172-2.094c-0.042-0.729-0.12-1.562-0.234-2.5c-0.115-0.938-0.229-1.823-0.344-2.656
		c-0.115-0.833-0.219-1.547-0.312-2.141s-0.141-0.911-0.141-0.953c0-0.208,0.073-0.396,0.219-0.562
		c0.146-0.167,0.364-0.271,0.656-0.312c0.208,0,0.391,0.068,0.547,0.203c0.156,0.136,0.255,0.308,0.297,0.516
		c0,0.062,0.047,0.386,0.141,0.969c0.094,0.583,0.203,1.292,0.328,2.125c0.125,0.833,0.245,1.724,0.359,2.672
		c0.114,0.948,0.192,1.797,0.234,2.547c0,0.167,0.005,0.339,0.016,0.516c0.011,0.177,0.026,0.37,0.047,0.578
		c0.104-0.104,0.219-0.188,0.344-0.25S153.029,41.511,153.259,41.531z"/>
	<path fill="#3A1337" d="M171.665,31.438c0.292,0.167,0.438,0.417,0.438,0.75c0,0.188-0.042,0.333-0.125,0.438l-0.25,0.438
		c-0.167,0.312-0.375,0.703-0.625,1.172s-0.521,0.979-0.812,1.531c-0.292,0.552-0.562,1.089-0.812,1.609
		c-0.208,0.438-0.344,0.797-0.406,1.078s-0.114,0.578-0.156,0.891c-0.042,0.208-0.078,0.427-0.109,0.656
		c-0.031,0.229-0.083,0.495-0.156,0.797c-0.073,0.302-0.172,0.641-0.297,1.016s-0.292,0.802-0.5,1.281
		c-0.458,1.042-0.75,1.901-0.875,2.578c-0.125,0.677-0.229,1.349-0.312,2.016l-0.062,0.844c0,0.146-0.031,0.281-0.094,0.406
		c-0.042,0.229-0.083,0.463-0.125,0.703c-0.042,0.239-0.094,0.505-0.156,0.797c-0.167,0.708-0.317,1.286-0.453,1.734
		c-0.136,0.448-0.276,0.88-0.422,1.297c-0.167,0.479-0.339,1.01-0.516,1.594c-0.177,0.583-0.37,1.385-0.578,2.406
		c-0.188,0.938-0.354,1.807-0.5,2.609c-0.146,0.802-0.261,1.495-0.344,2.078c-0.083,0.583-0.146,1.042-0.188,1.375l-0.062,0.5
		c-0.042,0.229-0.146,0.411-0.312,0.547c-0.167,0.135-0.386,0.203-0.656,0.203c-0.521-0.062-0.781-0.386-0.781-0.969
		c0-0.021,0.026-0.203,0.078-0.547s0.12-0.812,0.203-1.406s0.198-1.292,0.344-2.094c0.146-0.802,0.312-1.683,0.5-2.641
		c0.104-0.542,0.208-1.021,0.312-1.438c0.104-0.417,0.203-0.792,0.297-1.125c0.094-0.333,0.188-0.636,0.281-0.906
		c0.094-0.271,0.183-0.531,0.266-0.781c0.146-0.396,0.281-0.802,0.406-1.219c0.125-0.417,0.261-0.948,0.406-1.594
		c0.062-0.25,0.109-0.484,0.141-0.703s0.067-0.432,0.109-0.641c-0.208-0.292-0.495-0.703-0.859-1.234s-0.714-1.088-1.047-1.672
		c-0.188-0.333-0.458-0.766-0.812-1.297s-0.724-1.078-1.109-1.641s-0.761-1.099-1.125-1.609c-0.364-0.51-0.651-0.922-0.859-1.234
		l-0.25-0.375c-0.125-0.167-0.286-0.489-0.484-0.969c-0.198-0.479-0.495-1.219-0.891-2.219c-0.167-0.396-0.333-0.802-0.5-1.219
		c-0.167-0.417-0.328-0.817-0.484-1.203c-0.156-0.385-0.308-0.729-0.453-1.031c-0.146-0.302-0.271-0.536-0.375-0.703
		c-0.083-0.208-0.125-0.354-0.125-0.438c0-0.333,0.146-0.583,0.438-0.75c0.104-0.083,0.25-0.125,0.438-0.125
		c0.354,0,0.604,0.136,0.75,0.406c0.229,0.396,0.521,1.005,0.875,1.828c0.354,0.823,0.708,1.693,1.062,2.609
		c0.125,0.292,0.245,0.589,0.359,0.891c0.114,0.302,0.229,0.583,0.344,0.844c0.114,0.261,0.214,0.495,0.297,0.703
		c0.083,0.208,0.146,0.344,0.188,0.406l0.25,0.344c0.208,0.312,0.495,0.729,0.859,1.25c0.364,0.521,0.745,1.073,1.141,1.656
		c0.396,0.583,0.771,1.146,1.125,1.688c0.354,0.542,0.636,0.979,0.844,1.312c0.104,0.208,0.224,0.412,0.359,0.609
		c0.136,0.198,0.266,0.401,0.391,0.609c0.104-0.5,0.234-1.047,0.391-1.641s0.401-1.286,0.734-2.078
		c0.354-0.875,0.589-1.557,0.703-2.047c0.114-0.489,0.203-0.922,0.266-1.297c0.042-0.354,0.104-0.719,0.188-1.094
		s0.25-0.833,0.5-1.375c0.25-0.521,0.521-1.062,0.812-1.625s0.567-1.078,0.828-1.547s0.479-0.859,0.656-1.172
		s0.276-0.489,0.297-0.531c0.167-0.292,0.417-0.438,0.75-0.438C171.415,31.312,171.561,31.354,171.665,31.438z"/>
	<path fill="#3A1337" d="M197.04,40.406c0.188,1.292,0.406,2.448,0.656,3.469c0.25,1.021,0.484,1.886,0.703,2.594
		c0.219,0.708,0.406,1.255,0.562,1.641c0.156,0.386,0.234,0.589,0.234,0.609c0.021,0.062,0.036,0.12,0.047,0.172
		c0.011,0.052,0.016,0.109,0.016,0.172c0,0.375-0.167,0.646-0.5,0.812c-0.167,0.042-0.292,0.062-0.375,0.062
		c-0.396,0-0.656-0.167-0.781-0.5c-0.042-0.083-0.234-0.578-0.578-1.484s-0.703-2.172-1.078-3.797
		c-0.333,0.812-0.724,1.562-1.172,2.25s-0.927,1.281-1.438,1.781s-1.042,0.891-1.594,1.172s-1.099,0.422-1.641,0.422
		c-2.125,0-3.698-0.729-4.719-2.188c-1.021-1.458-1.531-3.698-1.531-6.719c0-1.25,0.188-2.359,0.562-3.328s0.859-1.817,1.453-2.547
		c0.594-0.729,1.261-1.344,2-1.844s1.464-0.906,2.172-1.219s1.364-0.536,1.969-0.672c0.604-0.135,1.083-0.203,1.438-0.203
		c0.625,0,1.167,0.12,1.625,0.359c0.458,0.24,0.839,0.511,1.141,0.812c0.302,0.302,0.526,0.583,0.672,0.844
		c0.146,0.261,0.219,0.401,0.219,0.422c0.062,0.104,0.094,0.219,0.094,0.344c0,0.208-0.094,0.427-0.281,0.656
		c0.188,0.979,0.281,2.271,0.281,3.875c0,0.333-0.016,0.667-0.047,1C197.118,39.708,197.082,40.052,197.04,40.406z M190.103,48.031
		c0.438,0,0.917-0.203,1.438-0.609s1.026-0.953,1.516-1.641s0.933-1.495,1.328-2.422c0.396-0.927,0.688-1.911,0.875-2.953
		c-0.146-1-0.261-2.052-0.344-3.156c-0.083-1.104-0.136-2.281-0.156-3.531c-0.229-0.188-0.344-0.417-0.344-0.688
		c-0.146-0.062-0.297-0.114-0.453-0.156c-0.156-0.042-0.328-0.062-0.516-0.062c-0.271,0-0.656,0.058-1.156,0.172
		c-0.5,0.115-1.042,0.302-1.625,0.562c-0.583,0.261-1.172,0.599-1.766,1.016c-0.594,0.417-1.136,0.927-1.625,1.531
		c-0.489,0.604-0.891,1.302-1.203,2.094c-0.312,0.792-0.469,1.688-0.469,2.688c0,1.583,0.13,2.844,0.391,3.781
		s0.604,1.656,1.031,2.156s0.906,0.828,1.438,0.984S189.54,48.031,190.103,48.031z"/>
	<path fill="#3A1337" d="M220.759,31.438c2.083,0.625,3.625,1.808,4.625,3.547c1,1.74,1.5,4.12,1.5,7.141
		c0,2.646-0.906,4.636-2.719,5.969c-0.792,0.604-1.661,1.021-2.609,1.25s-1.849,0.344-2.703,0.344c-0.812,0-1.5-0.083-2.062-0.25
		c-0.125-0.042-0.25-0.089-0.375-0.141c-0.125-0.052-0.239-0.099-0.344-0.141c0,0.458-0.292,0.739-0.875,0.844
		c-0.208,0-0.391-0.068-0.547-0.203c-0.156-0.136-0.255-0.318-0.297-0.547c-0.021-0.042-0.058-0.229-0.109-0.562
		c-0.052-0.333-0.12-0.771-0.203-1.312c-0.25-0.333-0.433-0.625-0.547-0.875s-0.183-0.385-0.203-0.406
		c-0.021-0.062-0.036-0.12-0.047-0.172c-0.011-0.052-0.016-0.109-0.016-0.172c0-0.25,0.094-0.458,0.281-0.625
		c-0.083-0.458-0.136-0.989-0.156-1.594c-0.021-0.604-0.062-1.302-0.125-2.094c-0.104-1.188-0.214-2.338-0.328-3.453
		c-0.114-1.114-0.172-2.067-0.172-2.859c0-1-0.031-2.062-0.094-3.188s-0.13-2.172-0.203-3.141s-0.141-1.776-0.203-2.422
		c-0.062-0.646-0.094-0.989-0.094-1.031c0-0.229,0.078-0.422,0.234-0.578s0.37-0.255,0.641-0.297c0.229,0,0.427,0.078,0.594,0.234
		s0.261,0.349,0.281,0.578c0,0.062,0.031,0.417,0.094,1.062c0.062,0.646,0.13,1.448,0.203,2.406
		c0.073,0.958,0.141,2.005,0.203,3.141c0.062,1.136,0.094,2.214,0.094,3.234v0.5c0.333-0.688,0.719-1.317,1.156-1.891
		c0.438-0.573,0.927-1.057,1.469-1.453c0.854-0.646,1.75-0.969,2.688-0.969c0.167,0,0.328,0.011,0.484,0.031
		C220.431,31.365,220.592,31.396,220.759,31.438z M223.134,46.688c1.333-1.021,2-2.542,2-4.562c0-1.667-0.151-3.042-0.453-4.125
		c-0.302-1.083-0.688-1.958-1.156-2.625c-0.469-0.667-0.989-1.167-1.562-1.5c-0.573-0.333-1.141-0.583-1.703-0.75
		c-0.083-0.042-0.167-0.062-0.25-0.062s-0.167,0-0.25,0c-0.292,0-0.578,0.062-0.859,0.188s-0.526,0.271-0.734,0.438
		c-0.375,0.292-0.755,0.677-1.141,1.156c-0.386,0.479-0.729,1.047-1.031,1.703s-0.547,1.386-0.734,2.188
		c-0.188,0.802-0.281,1.662-0.281,2.578c0.104,0.875,0.219,1.729,0.344,2.562c0.125,0.833,0.25,1.615,0.375,2.344
		c0.229,0.167,0.344,0.438,0.344,0.812c0.167,0.167,0.354,0.312,0.562,0.438s0.438,0.219,0.688,0.281
		c0.375,0.125,0.896,0.188,1.562,0.188s1.386-0.088,2.156-0.266C221.779,47.495,222.488,47.167,223.134,46.688z"/>
	<path fill="#3A1337" d="M242.79,40.406c0.188,1.292,0.406,2.448,0.656,3.469c0.25,1.021,0.484,1.886,0.703,2.594
		c0.219,0.708,0.406,1.255,0.562,1.641c0.156,0.386,0.234,0.589,0.234,0.609c0.021,0.062,0.036,0.12,0.047,0.172
		c0.011,0.052,0.016,0.109,0.016,0.172c0,0.375-0.167,0.646-0.5,0.812c-0.167,0.042-0.292,0.062-0.375,0.062
		c-0.396,0-0.656-0.167-0.781-0.5c-0.042-0.083-0.234-0.578-0.578-1.484s-0.703-2.172-1.078-3.797
		c-0.333,0.812-0.724,1.562-1.172,2.25s-0.927,1.281-1.438,1.781s-1.042,0.891-1.594,1.172s-1.099,0.422-1.641,0.422
		c-2.125,0-3.698-0.729-4.719-2.188c-1.021-1.458-1.531-3.698-1.531-6.719c0-1.25,0.188-2.359,0.562-3.328s0.859-1.817,1.453-2.547
		c0.594-0.729,1.261-1.344,2-1.844s1.464-0.906,2.172-1.219s1.364-0.536,1.969-0.672c0.604-0.135,1.083-0.203,1.438-0.203
		c0.625,0,1.167,0.12,1.625,0.359c0.458,0.24,0.839,0.511,1.141,0.812c0.302,0.302,0.526,0.583,0.672,0.844
		c0.146,0.261,0.219,0.401,0.219,0.422c0.062,0.104,0.094,0.219,0.094,0.344c0,0.208-0.094,0.427-0.281,0.656
		c0.188,0.979,0.281,2.271,0.281,3.875c0,0.333-0.016,0.667-0.047,1C242.868,39.708,242.832,40.052,242.79,40.406z M235.853,48.031
		c0.438,0,0.917-0.203,1.438-0.609s1.026-0.953,1.516-1.641s0.933-1.495,1.328-2.422c0.396-0.927,0.688-1.911,0.875-2.953
		c-0.146-1-0.261-2.052-0.344-3.156c-0.083-1.104-0.136-2.281-0.156-3.531c-0.229-0.188-0.344-0.417-0.344-0.688
		c-0.146-0.062-0.297-0.114-0.453-0.156c-0.156-0.042-0.328-0.062-0.516-0.062c-0.271,0-0.656,0.058-1.156,0.172
		c-0.5,0.115-1.042,0.302-1.625,0.562c-0.583,0.261-1.172,0.599-1.766,1.016c-0.594,0.417-1.136,0.927-1.625,1.531
		c-0.489,0.604-0.891,1.302-1.203,2.094c-0.312,0.792-0.469,1.688-0.469,2.688c0,1.583,0.13,2.844,0.391,3.781
		s0.604,1.656,1.031,2.156s0.906,0.828,1.438,0.984S235.29,48.031,235.853,48.031z"/>
	<path fill="#3A1337" d="M260.384,37.125c0,0.479,0.021,1.078,0.062,1.797s0.099,1.5,0.172,2.344s0.151,1.74,0.234,2.688
		c0.083,0.948,0.177,1.901,0.281,2.859c0.083,0.938,0.172,1.849,0.266,2.734s0.172,1.719,0.234,2.5s0.114,1.495,0.156,2.141
		c0.042,0.646,0.062,1.188,0.062,1.625c0,0.75-0.146,1.495-0.438,2.234c-0.292,0.739-0.719,1.401-1.281,1.984
		c-0.562,0.583-1.255,1.057-2.078,1.422c-0.823,0.364-1.776,0.547-2.859,0.547c-3.083,0-5.292-1.688-6.625-5.062
		c-0.042-0.083-0.062-0.198-0.062-0.344c0-0.375,0.177-0.646,0.531-0.812c0.062-0.021,0.12-0.037,0.172-0.047
		c0.052-0.011,0.109-0.016,0.172-0.016c0.375,0,0.646,0.198,0.812,0.594c0.104,0.271,0.266,0.63,0.484,1.078
		c0.219,0.448,0.516,0.88,0.891,1.297c0.375,0.417,0.859,0.781,1.453,1.094s1.317,0.469,2.172,0.469
		c0.896,0,1.656-0.146,2.281-0.438c0.625-0.292,1.13-0.662,1.516-1.109c0.386-0.448,0.667-0.933,0.844-1.453
		c0.177-0.521,0.266-1,0.266-1.438c0-0.417-0.021-0.943-0.062-1.578c-0.042-0.636-0.094-1.339-0.156-2.109
		c-0.062-0.771-0.136-1.589-0.219-2.453s-0.167-1.734-0.25-2.609c-0.396,0.625-0.828,1.177-1.297,1.656
		c-0.469,0.479-0.948,0.891-1.438,1.234s-0.969,0.604-1.438,0.781c-0.469,0.177-0.901,0.266-1.297,0.266
		c-0.812,0-1.62-0.151-2.422-0.453c-0.802-0.302-1.516-0.75-2.141-1.344s-1.136-1.333-1.531-2.219
		c-0.396-0.885-0.594-1.901-0.594-3.047c0-0.729,0.094-1.531,0.281-2.406s0.442-1.75,0.766-2.625s0.708-1.729,1.156-2.562
		c0.448-0.833,0.933-1.567,1.453-2.203c0.521-0.635,1.073-1.146,1.656-1.531c0.583-0.385,1.177-0.578,1.781-0.578
		c0.438,0,0.802,0.094,1.094,0.281c0.104-0.021,0.208-0.031,0.312-0.031s0.219,0,0.344,0c0.375,0,0.792,0.146,1.25,0.438
		c0.458,0.292,0.896,0.698,1.312,1.219c0.042-0.25,0.109-0.479,0.203-0.688c0.094-0.208,0.308-0.323,0.641-0.344l0.812-0.062
		l0.125,0.812c0,0.042,0,0.078,0,0.109s-0.011,0.12-0.031,0.266c0,0.125-0.005,0.406-0.016,0.844S260.384,36.062,260.384,37.125z
		 M258.728,44.562c0.062-0.188,0.198-0.333,0.406-0.438c-0.146-1.438-0.266-2.771-0.359-4c-0.094-1.229-0.141-2.229-0.141-3V36.75
		c-0.208-0.104-0.354-0.239-0.438-0.406c-0.438-0.812-0.87-1.396-1.297-1.75c-0.427-0.354-0.703-0.542-0.828-0.562
		c-0.354,0-0.672,0.021-0.953,0.062c-0.281,0.042-0.474,0.073-0.578,0.094c-0.271,0-0.489-0.104-0.656-0.312
		c-0.521,0.208-1.067,0.677-1.641,1.406c-0.573,0.729-1.099,1.578-1.578,2.547s-0.875,2-1.188,3.094s-0.469,2.099-0.469,3.016
		c0,0.979,0.167,1.802,0.5,2.469c0.333,0.667,0.75,1.214,1.25,1.641c0.5,0.427,1.036,0.734,1.609,0.922s1.099,0.281,1.578,0.281
		c0.312,0,0.683-0.109,1.109-0.328s0.864-0.531,1.312-0.938s0.88-0.896,1.297-1.469C258.082,45.943,258.436,45.292,258.728,44.562z"
		/>
</g>
</svg>
