<?xml version="1.0" encoding="utf-8"?>
<!-- Generator: Adobe Illustrator 16.0.0, SVG Export Plug-In . SVG Version: 6.00 Build 0)  -->
<!DOCTYPE svg PUBLIC "-//W3C//DTD SVG 1.1//EN" "http://www.w3.org/Graphics/SVG/1.1/DTD/svg11.dtd">
<svg version="1.1" id="Layer_1" xmlns="http://www.w3.org/2000/svg" xmlns:xlink="http://www.w3.org/1999/xlink" x="0px" y="0px"
	 width="300px" height="250px" viewBox="0 0 300 250" enable-background="new 0 0 300 250" xml:space="preserve">
<g>
	<path fill="#006633" stroke="#006633" stroke-miterlimit="10" d="M50.098,25.174c0.781,0.211,1.481,0.557,2.1,1.037
		c0.618,0.48,1.139,1.025,1.562,1.636c0.423,0.61,0.749,1.245,0.977,1.904c0.228,0.659,0.342,1.274,0.342,1.843l-0.024,0.367
		c-0.017,0.439-0.049,0.907-0.098,1.403c-0.049,0.497-0.195,0.985-0.439,1.465c-0.244,0.48-0.631,0.928-1.16,1.343
		c-0.529,0.415-1.266,0.753-2.209,1.014c-0.472,0.146-0.899,0.248-1.282,0.305c-0.383,0.057-0.753,0.086-1.111,0.086
		c-0.521,0-1.038-0.058-1.55-0.172c-0.513-0.113-1.135-0.268-1.868-0.463c-0.667-0.163-1.237-0.428-1.709-0.794
		c-0.472-0.366-0.863-0.732-1.172-1.099c-0.31-0.366-0.537-0.691-0.684-0.977s-0.228-0.443-0.244-0.477
		c-0.049-0.064-0.073-0.154-0.073-0.268c0-0.277,0.138-0.488,0.415-0.635c0.13-0.033,0.22-0.049,0.269-0.049
		c0.13,0,0.256,0.036,0.378,0.109s0.208,0.176,0.256,0.305l0.171,0.318c0.114,0.228,0.293,0.484,0.537,0.769
		c0.244,0.285,0.553,0.569,0.928,0.854c0.374,0.285,0.822,0.5,1.343,0.646c0.684,0.18,1.249,0.318,1.697,0.416
		c0.447,0.098,0.883,0.146,1.306,0.146c0.553,0,1.229-0.105,2.026-0.318c0.7-0.211,1.245-0.455,1.636-0.732
		c0.391-0.275,0.675-0.586,0.854-0.928c0.179-0.342,0.289-0.707,0.33-1.098c0.041-0.391,0.069-0.798,0.085-1.221l0.024-0.439
		c0-0.342-0.085-0.766-0.256-1.27c-0.171-0.505-0.419-1.002-0.745-1.49c-0.326-0.488-0.737-0.936-1.233-1.342
		c-0.497-0.407-1.07-0.691-1.721-0.855c-0.439-0.129-0.908-0.219-1.404-0.268c-0.497-0.049-0.989-0.098-1.477-0.146
		c-0.57-0.049-1.127-0.105-1.672-0.172c-0.545-0.064-1.038-0.183-1.477-0.354s-0.802-0.406-1.086-0.708
		c-0.285-0.301-0.452-0.712-0.5-1.233c0-0.064-0.004-0.121-0.012-0.17c-0.008-0.049-0.012-0.098-0.012-0.146
		c0-0.635,0.126-1.176,0.378-1.624c0.252-0.447,0.562-0.825,0.928-1.136c0.366-0.309,0.749-0.561,1.147-0.756
		c0.398-0.195,0.745-0.358,1.038-0.488c0.374-0.18,0.826-0.306,1.355-0.379c0.529-0.073,1.103-0.109,1.721-0.109
		c0.553,0,1.111,0.032,1.672,0.098c0.562,0.064,1.111,0.162,1.648,0.293c0.358,0.081,0.529,0.35,0.513,0.805
		c-0.033,0.164-0.122,0.293-0.269,0.391s-0.334,0.139-0.562,0.123c-0.472-0.131-0.973-0.221-1.501-0.27
		c-0.529-0.049-1.038-0.072-1.526-0.072c-0.521,0-0.997,0.028-1.428,0.085c-0.432,0.058-0.793,0.151-1.086,0.28
		c-0.342,0.146-0.676,0.306-1.001,0.477c-0.326,0.171-0.61,0.371-0.854,0.598c-0.244,0.229-0.436,0.497-0.574,0.807
		c-0.139,0.309-0.208,0.676-0.208,1.098c0.032,0.424,0.354,0.709,0.964,0.855s1.444,0.26,2.502,0.342
		c0.521,0.049,1.045,0.102,1.575,0.158C49.076,24.949,49.593,25.043,50.098,25.174z"/>
	<path fill="#006633" stroke="#006633" stroke-miterlimit="10" d="M69.824,19.217c0.179,0.016,0.325,0.094,0.439,0.231
		c0.114,0.139,0.163,0.313,0.146,0.524c-0.017,0.18-0.09,0.322-0.22,0.428c-0.13,0.105-0.31,0.158-0.537,0.158l-0.464-0.049
		c-0.326-0.031-0.781-0.072-1.367-0.121s-1.29-0.09-2.112-0.123c-0.822-0.031-1.738-0.049-2.747-0.049c-0.13,0-0.252,0-0.366,0
		c-0.114,0-0.236,0.009-0.366,0.025c0.065,0.537,0.134,1.159,0.208,1.867s0.134,1.42,0.183,2.137
		c0.049,0.716,0.089,1.396,0.122,2.038c0.032,0.644,0.049,1.168,0.049,1.575c0,0.309,0.02,0.748,0.061,1.318
		c0.041,0.569,0.089,1.191,0.146,1.867c0.057,0.676,0.118,1.367,0.183,2.075c0.065,0.708,0.13,1.351,0.195,1.929
		c0.065,0.578,0.118,1.059,0.159,1.44c0.041,0.383,0.061,0.582,0.061,0.599c0,0.179-0.061,0.329-0.183,0.451s-0.289,0.199-0.5,0.232
		c-0.179,0-0.334-0.058-0.464-0.172c-0.13-0.113-0.204-0.26-0.22-0.439c0-0.049-0.024-0.268-0.073-0.658S62.056,35.627,62,35.049
		c-0.057-0.578-0.118-1.217-0.183-1.916c-0.065-0.7-0.126-1.388-0.183-2.063c-0.057-0.675-0.106-1.298-0.146-1.868
		c-0.041-0.568-0.061-1.017-0.061-1.342c0-0.439-0.017-0.993-0.049-1.66c-0.033-0.668-0.078-1.359-0.134-2.076
		c-0.057-0.715-0.118-1.416-0.183-2.1c-0.065-0.684-0.13-1.27-0.195-1.758c-0.879,0.033-1.742,0.07-2.588,0.11
		c-0.847,0.041-1.599,0.085-2.258,0.134s-1.196,0.09-1.611,0.123c-0.415,0.032-0.63,0.049-0.647,0.049
		c-0.179,0.016-0.333-0.041-0.464-0.172c-0.13-0.129-0.203-0.301-0.22-0.512c0-0.18,0.057-0.334,0.171-0.465
		c0.114-0.129,0.261-0.203,0.439-0.219c0.017,0,0.244-0.017,0.684-0.049c0.439-0.033,1.018-0.074,1.733-0.123
		s1.526-0.098,2.429-0.146s1.819-0.089,2.747-0.121c0.032,0,0.065-0.004,0.098-0.013c0.032-0.008,0.098-0.004,0.195,0.013
		c0.228,0,0.459-0.004,0.696-0.013c0.236-0.008,0.468-0.013,0.696-0.013c1.042,0,1.978,0.018,2.808,0.049
		c0.83,0.033,1.542,0.074,2.136,0.123c0.594,0.049,1.054,0.094,1.379,0.134C69.612,19.196,69.792,19.217,69.824,19.217z"/>
	<path fill="#006633" stroke="#006633" stroke-miterlimit="10" d="M79.761,27.785c0.081,0.311,0.224,0.75,0.427,1.318
		c0.203,0.57,0.427,1.193,0.671,1.868c0.244,0.676,0.5,1.363,0.769,2.063c0.269,0.699,0.508,1.338,0.72,1.916
		c0.211,0.578,0.391,1.05,0.537,1.416s0.22,0.558,0.22,0.574c0.032,0.064,0.049,0.146,0.049,0.244c0,0.309-0.146,0.52-0.439,0.635
		c-0.049,0.031-0.13,0.049-0.244,0.049c-0.13,0-0.256-0.037-0.378-0.11s-0.208-0.183-0.256-0.329
		c-0.017-0.049-0.114-0.297-0.293-0.745c-0.179-0.447-0.395-0.997-0.647-1.647c-0.252-0.651-0.533-1.363-0.842-2.137
		c-0.31-0.773-0.61-1.51-0.903-2.209c-0.326-0.049-0.7-0.105-1.123-0.172c-0.358-0.031-0.793-0.068-1.306-0.109
		s-1.079-0.061-1.697-0.061c-0.423,0-0.859,0.012-1.306,0.036c-0.448,0.024-0.883,0.054-1.306,0.085
		c-0.293,0.701-0.61,1.449-0.952,2.246c-0.342,0.799-0.667,1.539-0.977,2.223c-0.31,0.684-0.57,1.266-0.781,1.745
		c-0.212,0.48-0.326,0.745-0.342,0.794c-0.13,0.26-0.342,0.391-0.635,0.391c-0.114,0-0.204-0.018-0.269-0.049
		c-0.277-0.131-0.415-0.342-0.415-0.635c0-0.082,0.024-0.172,0.073-0.27c0-0.016,0.089-0.223,0.269-0.622
		c0.179-0.398,0.403-0.903,0.671-1.514s0.565-1.286,0.891-2.026c0.325-0.74,0.635-1.453,0.928-2.137
		c-0.456,0.049-0.83,0.094-1.123,0.135s-0.464,0.061-0.513,0.061c-0.179,0-0.33-0.057-0.452-0.17
		c-0.122-0.114-0.2-0.285-0.232-0.514c0-0.178,0.053-0.329,0.159-0.451c0.105-0.122,0.248-0.199,0.427-0.232
		c0.032,0,0.264-0.027,0.696-0.085c0.431-0.057,0.972-0.118,1.624-0.183c0.13-0.293,0.24-0.562,0.33-0.807
		c0.089-0.244,0.167-0.455,0.232-0.635c0.146-0.439,0.362-1.021,0.647-1.745c0.285-0.724,0.59-1.481,0.916-2.271
		c0.325-0.789,0.655-1.555,0.989-2.295c0.333-0.74,0.623-1.355,0.867-1.844c0.032-0.26,0.163-0.447,0.391-0.561
		c0.065-0.033,0.171-0.049,0.317-0.049c0.13,0,0.244,0.023,0.342,0.072c0.211,0.115,0.333,0.302,0.366,0.562
		c0.211,0.488,0.459,1.106,0.745,1.855c0.285,0.748,0.569,1.518,0.854,2.307c0.285,0.789,0.541,1.547,0.769,2.271
		C79.451,26.765,79.63,27.346,79.761,27.785z M75.024,28.982c0.879,0,1.636,0.028,2.271,0.085c0.635,0.058,1.139,0.11,1.514,0.159
		c-0.082-0.229-0.151-0.432-0.208-0.611c-0.057-0.178-0.11-0.333-0.159-0.463c-0.098-0.391-0.236-0.867-0.415-1.429
		c-0.179-0.562-0.378-1.155-0.598-1.782s-0.444-1.253-0.671-1.88c-0.228-0.626-0.448-1.2-0.659-1.722
		c-0.244,0.521-0.5,1.096-0.769,1.722c-0.269,0.627-0.529,1.253-0.781,1.88c-0.252,0.627-0.488,1.225-0.708,1.795
		c-0.22,0.569-0.395,1.049-0.525,1.439c-0.033,0.131-0.078,0.266-0.134,0.403c-0.057,0.139-0.118,0.298-0.183,0.476
		C73.649,29.006,74.324,28.982,75.024,28.982z"/>
	<path fill="#006633" stroke="#006633" stroke-miterlimit="10" d="M96.436,33.205c0.846,1.025,1.473,1.881,1.88,2.564
		c0.407,0.684,0.618,1.041,0.635,1.074c0.049,0.098,0.073,0.203,0.073,0.316c0,0.131-0.029,0.248-0.085,0.354
		c-0.057,0.105-0.151,0.19-0.281,0.257c-0.098,0.049-0.204,0.072-0.317,0.072c-0.277,0-0.472-0.121-0.586-0.365
		c-0.017,0-0.216-0.326-0.598-0.977c-0.383-0.651-0.973-1.465-1.77-2.441c-0.407-0.488-0.838-0.977-1.294-1.465
		c-0.456-0.488-0.879-0.928-1.27-1.318s-0.716-0.717-0.977-0.977l-0.415-0.367c-0.065-0.064-0.122-0.146-0.171-0.244h-1.001
		c-0.375,0-0.741,0-1.099,0c-0.358,0-0.725-0.008-1.099-0.023c-0.212-0.017-0.419-0.025-0.623-0.025c-0.204,0-0.403,0-0.598,0
		c0.049,0.717,0.11,1.486,0.183,2.308c0.073,0.822,0.146,1.591,0.22,2.308c0.073,0.716,0.138,1.318,0.195,1.807
		c0.057,0.488,0.085,0.748,0.085,0.781c0,0.179-0.061,0.334-0.183,0.463c-0.122,0.131-0.289,0.203-0.5,0.221
		c-0.179,0-0.33-0.058-0.452-0.172c-0.122-0.113-0.2-0.26-0.232-0.439c0-0.049-0.021-0.268-0.061-0.658
		c-0.041-0.391-0.094-0.875-0.159-1.453c-0.065-0.578-0.13-1.217-0.195-1.916c-0.065-0.7-0.126-1.388-0.183-2.063
		c-0.057-0.675-0.106-1.298-0.146-1.868c-0.041-0.568-0.061-1.017-0.061-1.342c0-0.407-0.012-0.904-0.037-1.49
		s-0.061-1.203-0.11-1.855c-0.049-0.65-0.102-1.297-0.159-1.94c-0.057-0.643-0.118-1.225-0.183-1.745
		c-0.033-0.033-0.057-0.078-0.073-0.135c-0.017-0.057-0.041-0.15-0.073-0.281c0-0.064,0.016-0.146,0.049-0.244
		c-0.017-0.08-0.029-0.17-0.037-0.268c-0.008-0.098-0.029-0.212-0.061-0.342c0-0.163,0.057-0.31,0.171-0.439
		c0.114-0.131,0.285-0.212,0.513-0.244c0.163,0,0.309,0.057,0.439,0.17c0.13,0.115,0.22,0.285,0.269,0.514
		c0.569-0.146,1.115-0.27,1.636-0.367c0.521-0.098,1.09-0.146,1.709-0.146c0.569,0,1.196,0.054,1.88,0.159
		c0.684,0.106,1.505,0.28,2.466,0.524c0.602,0.164,1.139,0.432,1.611,0.807c0.472,0.374,0.862,0.797,1.172,1.27
		c0.309,0.472,0.545,0.964,0.708,1.477c0.163,0.513,0.244,0.988,0.244,1.428c0,0.146-0.008,0.262-0.024,0.342L97.437,25.1
		c-0.033,0.342-0.09,0.713-0.171,1.111c-0.082,0.398-0.236,0.793-0.464,1.184c-0.228,0.391-0.57,0.762-1.025,1.111
		c-0.456,0.35-1.074,0.631-1.855,0.842c-0.13,0.049-0.273,0.086-0.427,0.11c-0.155,0.024-0.322,0.054-0.5,0.085
		c0.211,0.195,0.456,0.432,0.732,0.709c0.276,0.276,0.565,0.573,0.867,0.891c0.301,0.317,0.61,0.651,0.928,1.001
		C95.837,32.494,96.143,32.848,96.436,33.205z M88.11,28.299c0.342,0.016,0.691,0.023,1.05,0.023c0.358,0,0.708,0,1.05,0
		c0.667,0,1.29-0.016,1.868-0.049c0.578-0.031,1.07-0.105,1.477-0.219c0.569-0.163,1.013-0.354,1.331-0.574s0.557-0.459,0.72-0.721
		c0.163-0.26,0.272-0.545,0.33-0.854c0.057-0.31,0.102-0.627,0.134-0.953l0.049-0.488c0-0.275-0.053-0.598-0.159-0.964
		c-0.106-0.366-0.273-0.728-0.5-1.087c-0.228-0.357-0.513-0.684-0.854-0.977s-0.741-0.504-1.196-0.635
		c-0.879-0.227-1.636-0.391-2.271-0.488s-1.213-0.146-1.733-0.146c-0.57,0-1.095,0.049-1.575,0.146
		c-0.48,0.098-1.005,0.213-1.575,0.342c0.065,0.555,0.126,1.16,0.183,1.819c0.057,0.659,0.105,1.306,0.146,1.94
		c0.041,0.635,0.073,1.238,0.098,1.807c0.024,0.57,0.037,1.034,0.037,1.393c0,0.081,0,0.179,0,0.293
		c0,0.113,0.008,0.236,0.024,0.365c0.228,0,0.456,0,0.684,0C87.654,28.273,87.882,28.282,88.11,28.299z"/>
	<path fill="#006633" stroke="#006633" stroke-miterlimit="10" d="M109.766,27.785c0.504,0.213,0.932,0.444,1.282,0.696
		c0.35,0.253,0.647,0.509,0.891,0.769c0.472,0.521,0.801,1.047,0.989,1.575c0.187,0.529,0.281,1.005,0.281,1.429v0.293l-0.049,0.268
		c-0.033,0.391-0.09,0.794-0.171,1.209c-0.082,0.415-0.252,0.822-0.513,1.221c-0.261,0.398-0.639,0.773-1.135,1.123
		c-0.497,0.35-1.184,0.646-2.063,0.891c-0.212,0.065-0.517,0.118-0.916,0.159c-0.399,0.04-0.838,0.081-1.318,0.122
		c-0.48,0.041-0.977,0.073-1.489,0.098s-0.989,0.041-1.428,0.049s-0.818,0.016-1.135,0.024c-0.317,0.008-0.525,0.013-0.623,0.013
		c-0.179,0-0.338-0.07-0.476-0.208c-0.139-0.139-0.208-0.337-0.208-0.599c0-0.049-0.021-0.248-0.061-0.598
		c-0.041-0.35-0.085-0.789-0.134-1.318s-0.106-1.119-0.171-1.77c-0.065-0.651-0.126-1.307-0.183-1.966
		c-0.057-0.659-0.11-1.286-0.159-1.88s-0.082-1.103-0.098-1.525v-0.244c0-0.407-0.017-0.912-0.049-1.514
		c-0.033-0.603-0.069-1.233-0.11-1.893c-0.041-0.659-0.09-1.311-0.146-1.953c-0.057-0.643-0.118-1.225-0.183-1.746
		c-0.049-0.031-0.09-0.085-0.122-0.158c-0.033-0.073-0.065-0.184-0.098-0.33c0-0.146,0.032-0.26,0.098-0.342
		c-0.033-0.08-0.057-0.203-0.073-0.365c0-0.163,0.057-0.31,0.171-0.439c0.114-0.131,0.285-0.212,0.513-0.244
		c0.358,0,0.578,0.17,0.659,0.512c0.488-0.129,0.96-0.231,1.416-0.305c0.456-0.073,0.944-0.109,1.465-0.109
		c0.504,0,1.07,0.045,1.697,0.134c0.626,0.09,1.363,0.249,2.209,0.476c0.553,0.146,1.042,0.391,1.465,0.732
		c0.423,0.342,0.777,0.725,1.062,1.148c0.285,0.423,0.5,0.866,0.647,1.33s0.22,0.899,0.22,1.307c0,0.049,0,0.102,0,0.158
		s-0.008,0.109-0.024,0.158l-0.024,0.244c-0.033,0.262-0.069,0.537-0.11,0.83c-0.041,0.293-0.126,0.591-0.256,0.892
		c-0.13,0.302-0.317,0.595-0.562,0.879C110.498,27.302,110.172,27.559,109.766,27.785z M107.983,20.656
		c-0.781-0.211-1.453-0.357-2.014-0.439c-0.562-0.08-1.07-0.121-1.526-0.121c-0.472,0-0.92,0.036-1.343,0.109
		c-0.423,0.073-0.871,0.167-1.343,0.281c0.065,0.504,0.126,1.062,0.183,1.672c0.057,0.61,0.105,1.221,0.146,1.831
		c0.041,0.61,0.077,1.196,0.11,1.758c0.032,0.562,0.049,1.046,0.049,1.452h1.025c0.309,0.018,0.618,0.029,0.928,0.037
		c0.309,0.008,0.626,0.012,0.952,0.012c0.098,0,0.203,0,0.317,0c0.114,0,0.26-0.016,0.439-0.049c0.081,0,0.159-0.004,0.232-0.012
		s0.15-0.012,0.232-0.012c0.065,0,0.126,0.004,0.183,0.012c0.057,0.008,0.126,0.012,0.208,0.012c0.26-0.031,0.508-0.061,0.745-0.085
		c0.236-0.024,0.443-0.069,0.623-0.134c0.488-0.131,0.871-0.289,1.147-0.477c0.276-0.188,0.488-0.398,0.635-0.635
		s0.244-0.484,0.293-0.744c0.049-0.261,0.089-0.537,0.122-0.83l0.024-0.439c0-0.244-0.045-0.529-0.134-0.855
		c-0.09-0.324-0.232-0.643-0.427-0.951c-0.195-0.31-0.444-0.59-0.745-0.843C108.744,20.954,108.39,20.771,107.983,20.656z
		 M111.841,32.229c0-0.275-0.069-0.598-0.208-0.964c-0.139-0.366-0.371-0.728-0.696-1.087c-0.179-0.178-0.391-0.357-0.635-0.537
		c-0.244-0.178-0.533-0.346-0.867-0.5c-0.334-0.154-0.72-0.285-1.16-0.391s-0.936-0.166-1.489-0.184
		c-0.261,0.018-0.525,0.029-0.793,0.037s-0.542,0.012-0.818,0.012c-0.326,0-0.651-0.004-0.977-0.012
		c-0.326-0.008-0.651-0.02-0.977-0.037h-0.928c0.032,0.555,0.081,1.205,0.146,1.953c0.065,0.75,0.134,1.502,0.208,2.259
		s0.142,1.457,0.208,2.1c0.065,0.644,0.114,1.136,0.146,1.478c0.537-0.017,1.111-0.037,1.721-0.062s1.192-0.053,1.746-0.085
		c0.553-0.033,1.05-0.074,1.489-0.123s0.757-0.098,0.952-0.146c0.651-0.195,1.164-0.406,1.538-0.635
		c0.374-0.227,0.655-0.476,0.842-0.744c0.187-0.269,0.309-0.557,0.366-0.867c0.057-0.309,0.11-0.65,0.159-1.025l0.024-0.268V32.229z
		"/>
	<path fill="#006633" stroke="#006633" stroke-miterlimit="10" d="M128.369,19.412c0.098,0.455,0.191,1.062,0.281,1.818
		c0.089,0.757,0.167,1.547,0.232,2.368c0.065,0.822,0.118,1.616,0.159,2.38c0.041,0.766,0.061,1.385,0.061,1.855
		c0,0.098,0.016,0.387,0.049,0.867c0.032,0.48,0.049,1.029,0.049,1.648c0,0.602-0.024,1.217-0.073,1.843
		c-0.049,0.627-0.146,1.177-0.293,1.647c-0.261,0.863-0.635,1.547-1.123,2.051c-0.488,0.506-1.034,0.888-1.636,1.148
		c-0.603,0.26-1.217,0.431-1.843,0.512c-0.627,0.082-1.201,0.146-1.721,0.195c-0.082,0.017-0.151,0.025-0.208,0.025
		c-0.057,0-0.126,0-0.208,0c-0.732,0-1.534-0.155-2.405-0.465c-0.871-0.309-1.672-0.812-2.405-1.514
		c-0.684-0.684-1.164-1.473-1.44-2.367c-0.277-0.896-0.432-1.872-0.464-2.93l-0.073-2.613c-0.017-0.504-0.045-1.143-0.085-1.916
		c-0.041-0.773-0.094-1.562-0.159-2.368c-0.065-0.806-0.139-1.575-0.22-2.308c-0.082-0.732-0.171-1.318-0.269-1.758
		c0-0.357,0.228-0.586,0.684-0.684c0.163,0,0.309,0.049,0.439,0.146c0.13,0.098,0.211,0.236,0.244,0.416
		c0.098,0.472,0.187,1.086,0.269,1.843c0.081,0.757,0.154,1.546,0.22,2.368c0.065,0.822,0.118,1.615,0.159,2.381
		c0.041,0.765,0.069,1.383,0.085,1.855l0.073,2.686v0.439c0,1.562,0.504,2.84,1.514,3.832c0.293,0.277,0.602,0.514,0.928,0.709
		c0.325,0.195,0.659,0.357,1.001,0.488c0.342,0.13,0.675,0.228,1.001,0.293c0.325,0.064,0.626,0.098,0.903,0.098h0.293
		c0.618-0.049,1.2-0.118,1.746-0.208c0.545-0.089,1.038-0.239,1.477-0.452c0.439-0.211,0.822-0.496,1.147-0.854
		c0.325-0.358,0.578-0.838,0.757-1.441c0.13-0.406,0.215-0.891,0.256-1.452c0.041-0.562,0.061-1.118,0.061-1.673
		c0-0.65-0.017-1.216-0.049-1.696c-0.033-0.479-0.049-0.736-0.049-0.769c-0.017-0.488-0.049-1.115-0.098-1.881
		c-0.049-0.764-0.102-1.55-0.159-2.355c-0.057-0.806-0.126-1.578-0.208-2.319c-0.082-0.74-0.171-1.331-0.269-1.771
		c0-0.357,0.228-0.586,0.684-0.684c0.163,0,0.309,0.049,0.439,0.146C128.255,19.094,128.336,19.232,128.369,19.412z"/>
	<path fill="#006633" stroke="#006633" stroke-miterlimit="10" d="M143.799,34.426c0.13-0.129,0.293-0.195,0.488-0.195
		s0.35,0.058,0.464,0.172c0.146,0.146,0.22,0.316,0.22,0.512c0,0.18-0.065,0.334-0.195,0.465c-0.017,0.016-0.143,0.13-0.378,0.342
		c-0.236,0.211-0.562,0.439-0.977,0.684s-0.916,0.468-1.501,0.671c-0.586,0.204-1.245,0.306-1.978,0.306
		c-0.863,0-1.787-0.167-2.771-0.501c-0.985-0.333-1.904-0.874-2.759-1.624c-0.854-0.748-1.562-1.721-2.124-2.917
		s-0.842-2.665-0.842-4.407c0-0.537,0.016-1.004,0.049-1.403c0.032-0.398,0.085-0.757,0.159-1.074s0.163-0.606,0.269-0.866
		c0.105-0.261,0.232-0.514,0.378-0.758c0.016-0.031,0.134-0.231,0.354-0.598s0.492-0.785,0.818-1.258
		c0.325-0.471,0.696-0.932,1.111-1.379s0.826-0.77,1.233-0.965c0.472-0.211,0.944-0.365,1.416-0.463
		c0.472-0.098,0.919-0.146,1.343-0.146c0.456,0,0.854,0.049,1.196,0.146c0.163,0.032,0.374,0.094,0.635,0.183
		c0.26,0.09,0.525,0.191,0.793,0.306c0.269,0.113,0.517,0.236,0.745,0.365c0.228,0.131,0.391,0.253,0.488,0.367
		c0.13,0.179,0.215,0.395,0.256,0.646c0.041,0.252,0.061,0.492,0.061,0.721c0,0.179-0.065,0.338-0.195,0.476
		c-0.13,0.139-0.293,0.208-0.488,0.208c-0.179,0-0.338-0.069-0.476-0.208c-0.139-0.138-0.208-0.297-0.208-0.476
		c0-0.082,0-0.172,0-0.27s-0.008-0.178-0.024-0.244c-0.163-0.08-0.436-0.207-0.818-0.378c-0.383-0.171-0.745-0.297-1.086-0.378
		c-0.13-0.033-0.265-0.057-0.403-0.074c-0.139-0.016-0.289-0.023-0.452-0.023c-0.342,0-0.704,0.036-1.086,0.109
		c-0.383,0.073-0.745,0.199-1.086,0.379c-0.228,0.098-0.476,0.285-0.745,0.561c-0.269,0.277-0.537,0.591-0.806,0.94
		c-0.269,0.351-0.525,0.712-0.769,1.087c-0.244,0.374-0.448,0.716-0.61,1.025c-0.114,0.211-0.216,0.423-0.305,0.635
		c-0.09,0.211-0.163,0.447-0.22,0.707c-0.057,0.262-0.098,0.562-0.122,0.904s-0.037,0.74-0.037,1.195
		c0,1.107,0.13,2.072,0.391,2.894c0.26,0.822,0.598,1.534,1.013,2.136c0.415,0.604,0.887,1.1,1.416,1.49
		c0.529,0.391,1.058,0.703,1.587,0.939c0.529,0.236,1.033,0.398,1.514,0.488c0.48,0.09,0.883,0.135,1.208,0.135
		c0.586,0,1.115-0.082,1.587-0.244c0.472-0.163,0.875-0.342,1.208-0.537c0.333-0.195,0.598-0.383,0.793-0.562L143.799,34.426z"/>
	<path fill="#006633" stroke="#006633" stroke-miterlimit="10" d="M156.348,29.592c0.146,0.244,0.383,0.582,0.708,1.014
		s0.679,0.896,1.062,1.392c0.383,0.497,0.781,1.005,1.197,1.526c0.414,0.521,0.789,0.996,1.123,1.428
		c0.333,0.432,0.609,0.781,0.83,1.05c0.219,0.269,0.329,0.411,0.329,0.427c0.114,0.115,0.171,0.253,0.171,0.416
		c0,0.228-0.09,0.406-0.269,0.537c-0.13,0.098-0.269,0.146-0.415,0.146c-0.244,0-0.424-0.082-0.537-0.244
		c-0.033-0.033-0.167-0.191-0.402-0.477c-0.236-0.285-0.525-0.643-0.867-1.074s-0.717-0.907-1.123-1.428
		c-0.407-0.521-0.802-1.033-1.184-1.539c-0.383-0.504-0.732-0.972-1.051-1.403c-0.316-0.431-0.557-0.776-0.72-1.038
		c-0.228-0.373-0.484-0.785-0.769-1.232c-0.285-0.447-0.578-0.891-0.879-1.33c-0.302-0.439-0.604-0.859-0.904-1.258
		s-0.59-0.744-0.866-1.037c-0.472,0.537-0.915,1.058-1.331,1.562c-0.415,0.504-0.786,0.956-1.111,1.354
		c-0.326,0.399-0.586,0.72-0.781,0.964l-0.293,0.391c-0.065,0.082-0.146,0.146-0.244,0.195c0.049,0.717,0.114,1.47,0.195,2.259
		c0.081,0.79,0.154,1.526,0.22,2.21c0.065,0.684,0.122,1.253,0.171,1.709c0.049,0.455,0.073,0.699,0.073,0.732
		c0,0.179-0.057,0.334-0.171,0.463c-0.114,0.131-0.285,0.203-0.513,0.221c-0.179,0-0.33-0.058-0.452-0.172
		c-0.122-0.113-0.191-0.26-0.208-0.439c-0.017-0.049-0.045-0.268-0.085-0.658c-0.041-0.391-0.09-0.875-0.146-1.453
		c-0.057-0.578-0.118-1.217-0.183-1.916c-0.065-0.7-0.126-1.388-0.183-2.063c-0.057-0.675-0.106-1.298-0.146-1.868
		c-0.041-0.568-0.061-1.017-0.061-1.342c0-0.488-0.021-1.115-0.061-1.881c-0.041-0.764-0.094-1.55-0.159-2.355
		c-0.065-0.806-0.139-1.574-0.22-2.307c-0.082-0.732-0.163-1.318-0.244-1.758c0-0.163,0.057-0.31,0.171-0.439
		c0.114-0.131,0.285-0.212,0.513-0.244c0.163,0,0.305,0.049,0.427,0.146s0.199,0.228,0.232,0.391
		c0.098,0.455,0.187,1.062,0.269,1.818c0.081,0.757,0.154,1.551,0.22,2.381c0.065,0.83,0.118,1.631,0.159,2.404
		c0.041,0.773,0.061,1.388,0.061,1.844v0.391c0.228-0.293,0.504-0.639,0.83-1.038c0.325-0.398,0.671-0.817,1.038-1.257
		s0.752-0.892,1.16-1.355c0.406-0.464,0.806-0.907,1.196-1.33c0.586-0.635,1.127-1.197,1.624-1.686
		c0.496-0.488,0.928-0.898,1.293-1.232c0.367-0.334,0.655-0.59,0.867-0.77c0.211-0.178,0.325-0.275,0.342-0.293
		c0.113-0.098,0.26-0.146,0.439-0.146c0.211,0,0.391,0.082,0.537,0.244c0.098,0.131,0.146,0.277,0.146,0.439
		c0,0.213-0.082,0.383-0.244,0.514c-0.017,0.016-0.398,0.357-1.147,1.025c-0.749,0.667-1.701,1.611-2.856,2.832
		c-0.082,0.081-0.154,0.162-0.22,0.244c-0.065,0.081-0.139,0.162-0.22,0.244c0.309,0.309,0.631,0.68,0.965,1.11
		c0.333,0.432,0.658,0.884,0.977,1.354c0.316,0.473,0.622,0.94,0.915,1.404S156.104,29.201,156.348,29.592z"/>
	<path fill="#006633" stroke="#006633" stroke-miterlimit="10" d="M170.508,25.174c0.781,0.211,1.48,0.557,2.1,1.037
		c0.618,0.48,1.139,1.025,1.562,1.636c0.423,0.61,0.748,1.245,0.977,1.904c0.228,0.659,0.342,1.274,0.342,1.843l-0.024,0.367
		c-0.017,0.439-0.049,0.907-0.098,1.403c-0.049,0.497-0.195,0.985-0.439,1.465c-0.244,0.48-0.631,0.928-1.159,1.343
		c-0.529,0.415-1.266,0.753-2.21,1.014c-0.472,0.146-0.899,0.248-1.282,0.305s-0.752,0.086-1.11,0.086
		c-0.521,0-1.038-0.058-1.55-0.172c-0.514-0.113-1.136-0.268-1.868-0.463c-0.667-0.163-1.237-0.428-1.709-0.794
		s-0.862-0.732-1.172-1.099s-0.537-0.691-0.684-0.977s-0.228-0.443-0.244-0.477c-0.049-0.064-0.073-0.154-0.073-0.268
		c0-0.277,0.139-0.488,0.415-0.635c0.13-0.033,0.22-0.049,0.269-0.049c0.13,0,0.256,0.036,0.379,0.109
		c0.121,0.073,0.207,0.176,0.256,0.305l0.171,0.318c0.114,0.228,0.293,0.484,0.537,0.769c0.244,0.285,0.554,0.569,0.928,0.854
		s0.821,0.5,1.343,0.646c0.684,0.18,1.249,0.318,1.697,0.416c0.447,0.098,0.883,0.146,1.306,0.146c0.554,0,1.229-0.105,2.026-0.318
		c0.699-0.211,1.245-0.455,1.636-0.732c0.391-0.275,0.675-0.586,0.854-0.928c0.179-0.342,0.289-0.707,0.33-1.098
		c0.04-0.391,0.068-0.798,0.085-1.221l0.024-0.439c0-0.342-0.086-0.766-0.256-1.27c-0.172-0.505-0.42-1.002-0.745-1.49
		s-0.737-0.936-1.233-1.342c-0.496-0.407-1.07-0.691-1.721-0.855c-0.439-0.129-0.908-0.219-1.404-0.268s-0.988-0.098-1.477-0.146
		c-0.57-0.049-1.127-0.105-1.672-0.172c-0.546-0.064-1.038-0.183-1.478-0.354s-0.802-0.406-1.087-0.708
		c-0.285-0.301-0.451-0.712-0.5-1.233c0-0.064-0.004-0.121-0.012-0.17c-0.009-0.049-0.013-0.098-0.013-0.146
		c0-0.635,0.126-1.176,0.378-1.624c0.252-0.447,0.562-0.825,0.928-1.136c0.367-0.309,0.749-0.561,1.148-0.756
		c0.398-0.195,0.744-0.358,1.037-0.488c0.374-0.18,0.826-0.306,1.355-0.379c0.528-0.073,1.102-0.109,1.721-0.109
		c0.553,0,1.111,0.032,1.672,0.098c0.562,0.064,1.111,0.162,1.648,0.293c0.357,0.081,0.529,0.35,0.513,0.805
		c-0.032,0.164-0.122,0.293-0.269,0.391s-0.334,0.139-0.562,0.123c-0.472-0.131-0.973-0.221-1.501-0.27
		c-0.529-0.049-1.038-0.072-1.526-0.072c-0.521,0-0.997,0.028-1.429,0.085c-0.432,0.058-0.793,0.151-1.086,0.28
		c-0.342,0.146-0.676,0.306-1.001,0.477s-0.61,0.371-0.854,0.598c-0.244,0.229-0.436,0.497-0.574,0.807
		c-0.139,0.309-0.207,0.676-0.207,1.098c0.032,0.424,0.354,0.709,0.965,0.855c0.609,0.146,1.443,0.26,2.502,0.342
		c0.521,0.049,1.045,0.102,1.574,0.158S170.003,25.043,170.508,25.174z"/>
	<path fill="#FFFFFF" d="M187.134,22.707c-0.276,0-0.509-0.093-0.696-0.28c-0.188-0.187-0.28-0.419-0.28-0.696
		c0-0.275,0.093-0.504,0.28-0.684c0.188-0.178,0.42-0.268,0.696-0.268c0.261,0,0.483,0.09,0.671,0.268
		c0.188,0.18,0.281,0.408,0.281,0.684c0,0.277-0.094,0.51-0.281,0.696C187.617,22.614,187.395,22.707,187.134,22.707z
		 M187.451,23.732c0.179,0,0.33,0.054,0.451,0.159c0.123,0.106,0.199,0.24,0.232,0.403c0,0.049,0.037,0.301,0.109,0.756
		c0.074,0.457,0.159,1.01,0.257,1.66c0.098,0.652,0.19,1.348,0.28,2.088s0.15,1.404,0.184,1.99c0.032,0.569,0.09,1.236,0.171,2.002
		c0.081,0.765,0.171,1.493,0.269,2.185c0.098,0.692,0.184,1.286,0.256,1.782c0.074,0.496,0.11,0.761,0.11,0.793
		c0,0.18-0.058,0.33-0.171,0.452c-0.114,0.122-0.285,0.199-0.513,0.231c-0.179,0-0.329-0.053-0.452-0.158
		c-0.121-0.105-0.199-0.248-0.231-0.428c0-0.049-0.036-0.316-0.11-0.805c-0.072-0.488-0.158-1.078-0.256-1.771
		c-0.098-0.691-0.188-1.42-0.269-2.185c-0.081-0.766-0.139-1.441-0.171-2.027c-0.033-0.568-0.094-1.221-0.184-1.953
		s-0.179-1.424-0.268-2.074c-0.09-0.651-0.172-1.209-0.244-1.673c-0.074-0.464-0.11-0.712-0.11-0.745
		c0-0.162,0.049-0.309,0.146-0.439c0.098-0.129,0.235-0.211,0.415-0.244H187.451z"/>
	<path fill="#FFFFFF" d="M198.657,28.957c2.881,1.4,4.321,2.873,4.321,4.42c0,0.472-0.105,0.936-0.317,1.391
		c-0.212,0.457-0.464,0.875-0.757,1.258s-0.598,0.717-0.916,1.001c-0.316,0.284-0.582,0.483-0.793,0.599
		c-0.195,0.113-0.451,0.223-0.77,0.329c-0.316,0.105-0.643,0.199-0.977,0.28c-0.334,0.082-0.65,0.146-0.951,0.195
		c-0.302,0.049-0.55,0.074-0.745,0.074c-0.423,0-0.875-0.07-1.354-0.208c-0.48-0.139-0.94-0.366-1.38-0.684
		s-0.835-0.736-1.185-1.257c-0.35-0.521-0.622-1.164-0.817-1.93c0-0.357,0.228-0.586,0.684-0.684c0.146,0,0.284,0.045,0.415,0.135
		c0.13,0.09,0.211,0.216,0.244,0.379c0.179,0.684,0.436,1.217,0.77,1.599c0.333,0.383,0.675,0.671,1.025,0.866
		c0.35,0.195,0.675,0.314,0.977,0.354c0.301,0.041,0.508,0.062,0.622,0.062c0.146,0,0.35-0.021,0.61-0.062
		c0.26-0.04,0.525-0.098,0.793-0.171c0.27-0.073,0.529-0.15,0.781-0.232c0.252-0.08,0.443-0.162,0.574-0.244
		c0.146-0.08,0.342-0.231,0.586-0.451s0.477-0.472,0.695-0.757c0.221-0.284,0.411-0.59,0.574-0.915
		c0.162-0.326,0.244-0.635,0.244-0.928c0-0.163-0.049-0.354-0.146-0.574s-0.273-0.464-0.525-0.732s-0.609-0.557-1.074-0.867
		c-0.463-0.309-1.062-0.643-1.794-1c-0.472-0.229-0.964-0.465-1.478-0.709c-0.512-0.244-0.988-0.467-1.428-0.671
		c-0.439-0.203-0.806-0.378-1.099-0.524l-0.439-0.195l-0.391-0.172v-0.439c0-0.748,0.187-1.403,0.562-1.965
		c0.374-0.562,0.83-1.033,1.367-1.416s1.103-0.672,1.697-0.867c0.594-0.195,1.118-0.293,1.574-0.293
		c0.472,0,0.871,0.058,1.196,0.172c0.325,0.113,0.594,0.24,0.806,0.378c0.211,0.139,0.37,0.269,0.477,0.391
		c0.105,0.122,0.166,0.2,0.183,0.231c0.081,0.115,0.122,0.236,0.122,0.367c0,0.244-0.105,0.432-0.317,0.561
		c-0.13,0.082-0.253,0.123-0.366,0.123c-0.244,0-0.432-0.105-0.562-0.318c-0.017,0-0.054-0.027-0.11-0.085
		c-0.057-0.057-0.146-0.118-0.268-0.183c-0.123-0.065-0.277-0.127-0.465-0.184s-0.419-0.086-0.695-0.086
		c-0.277,0-0.61,0.058-1.001,0.172c-0.391,0.113-0.781,0.289-1.172,0.524c-0.391,0.236-0.741,0.524-1.05,0.866
		c-0.31,0.342-0.505,0.741-0.586,1.197c0.211,0.098,0.472,0.215,0.781,0.354c0.309,0.139,0.646,0.293,1.014,0.464
		c0.365,0.171,0.744,0.351,1.135,0.537C197.949,28.62,198.315,28.795,198.657,28.957z"/>
	<path fill="#FFFFFF" d="M222.852,26.297c0,0.521,0.028,1.146,0.086,1.879c0.057,0.732,0.134,1.498,0.231,2.295
		c0.098,0.799,0.199,1.592,0.306,2.381c0.105,0.789,0.203,1.506,0.293,2.148c0.089,0.643,0.166,1.168,0.231,1.574
		c0.065,0.408,0.098,0.627,0.098,0.66c0,0.162-0.058,0.309-0.171,0.439c-0.114,0.129-0.285,0.211-0.513,0.244
		c-0.163,0-0.31-0.054-0.439-0.159c-0.13-0.106-0.212-0.249-0.244-0.427c0-0.033-0.021-0.188-0.062-0.465
		c-0.041-0.275-0.094-0.643-0.158-1.098c-0.668,0.684-1.384,1.18-2.148,1.488c-0.766,0.31-1.489,0.465-2.173,0.465
		c-0.554,0-1.001-0.09-1.343-0.27c-0.488-0.227-0.957-0.532-1.404-0.915c-0.447-0.382-0.842-0.821-1.184-1.318
		c-0.342-0.496-0.615-1.046-0.818-1.647c-0.203-0.603-0.305-1.237-0.305-1.904c0-0.537,0.073-1.1,0.22-1.686
		c0.163-0.617,0.427-1.252,0.794-1.904c0.365-0.65,0.785-1.261,1.257-1.83c0.472-0.57,0.984-1.087,1.538-1.551
		c0.553-0.464,1.106-0.826,1.66-1.086c0.586-0.277,1.123-0.416,1.611-0.416c0.195,0,0.383,0.021,0.562,0.062
		c0.179,0.041,0.382,0.118,0.61,0.231c-0.033-0.602-0.069-1.188-0.109-1.758c-0.041-0.568-0.082-1.078-0.123-1.525
		s-0.072-0.81-0.098-1.086c-0.023-0.277-0.036-0.432-0.036-0.465c0-0.178,0.062-0.329,0.183-0.451
		c0.123-0.122,0.289-0.199,0.501-0.232c0.179,0,0.329,0.062,0.452,0.184c0.121,0.122,0.199,0.273,0.231,0.451
		c0,0.049,0.024,0.326,0.073,0.83c0.049,0.506,0.102,1.132,0.158,1.881c0.057,0.748,0.11,1.566,0.159,2.453
		S222.852,25.499,222.852,26.297z M221.899,34.426c0.081-0.113,0.203-0.195,0.366-0.244c-0.098-0.635-0.191-1.313-0.281-2.038
		c-0.09-0.724-0.17-1.44-0.244-2.148c-0.072-0.708-0.134-1.384-0.183-2.026s-0.073-1.2-0.073-1.672c0-0.114,0-0.229,0-0.342
		c0-0.114-0.008-0.236-0.024-0.367c-0.261-0.08-0.415-0.268-0.464-0.561c0-0.033-0.021-0.086-0.061-0.159
		c-0.041-0.073-0.127-0.142-0.257-0.208c-0.13-0.064-0.285-0.098-0.464-0.098c-0.18,0-0.358,0.029-0.537,0.086
		c-0.18,0.057-0.342,0.118-0.488,0.184c-0.456,0.211-0.92,0.521-1.392,0.928c-0.472,0.406-0.915,0.862-1.331,1.367
		c-0.414,0.504-0.781,1.037-1.098,1.599c-0.318,0.562-0.55,1.103-0.696,1.624c-0.114,0.439-0.171,0.887-0.171,1.342
		c0,0.57,0.094,1.1,0.281,1.588c0.187,0.488,0.422,0.928,0.707,1.318s0.599,0.72,0.94,0.988s0.667,0.477,0.977,0.623
		c0.195,0.098,0.447,0.146,0.757,0.146c0.537,0,1.151-0.15,1.844-0.452C220.699,35.603,221.33,35.109,221.899,34.426z"/>
	<path fill="#FFFFFF" d="M233.252,23.172c0.342,0,0.736,0.166,1.184,0.5s0.871,0.806,1.27,1.416s0.74,1.348,1.025,2.209
		c0.285,0.863,0.428,1.832,0.428,2.906c0,1.09-0.188,2.1-0.562,3.027s-0.843,1.732-1.403,2.416c-0.562,0.684-1.172,1.217-1.832,1.6
		c-0.658,0.383-1.266,0.574-1.818,0.574c-0.635,0-1.262-0.123-1.88-0.367s-1.172-0.598-1.66-1.062s-0.888-1.038-1.196-1.722
		c-0.31-0.684-0.464-1.473-0.464-2.367c0-0.57,0.073-1.197,0.22-1.881s0.346-1.371,0.598-2.062s0.554-1.359,0.904-2.002
		c0.35-0.643,0.728-1.217,1.135-1.721c0.406-0.505,0.838-0.908,1.294-1.209s0.919-0.451,1.392-0.451c0.179,0,0.338,0.02,0.477,0.061
		c0.138,0.041,0.264,0.094,0.378,0.158c0.081,0,0.163-0.004,0.244-0.012S233.154,23.172,233.252,23.172z M231.543,36.453
		c0.309,0,0.703-0.15,1.184-0.452c0.48-0.301,0.948-0.724,1.404-1.27c0.455-0.545,0.846-1.2,1.172-1.966
		c0.325-0.764,0.488-1.619,0.488-2.562c0-0.912-0.109-1.713-0.33-2.405c-0.219-0.691-0.472-1.277-0.756-1.758
		c-0.285-0.479-0.57-0.843-0.855-1.087s-0.492-0.382-0.622-0.414c-0.276,0-0.524,0.02-0.745,0.061
		c-0.219,0.041-0.37,0.069-0.451,0.086c-0.195,0-0.375-0.082-0.537-0.244c-0.407,0.162-0.83,0.529-1.27,1.098
		c-0.439,0.57-0.847,1.233-1.221,1.99c-0.375,0.757-0.684,1.562-0.928,2.417s-0.366,1.64-0.366,2.356
		c0,0.748,0.13,1.387,0.391,1.916s0.586,0.957,0.977,1.281c0.391,0.326,0.806,0.566,1.245,0.721S231.168,36.453,231.543,36.453z"/>
	<path fill="#FFFFFF" d="M240.015,22.707c-0.276,0-0.509-0.093-0.696-0.28c-0.188-0.187-0.28-0.419-0.28-0.696
		c0-0.275,0.093-0.504,0.28-0.684c0.188-0.178,0.42-0.268,0.696-0.268c0.261,0,0.483,0.09,0.671,0.268
		c0.188,0.18,0.281,0.408,0.281,0.684c0,0.277-0.094,0.51-0.281,0.696C240.498,22.614,240.275,22.707,240.015,22.707z
		 M240.332,23.732c0.179,0,0.33,0.054,0.451,0.159c0.123,0.106,0.199,0.24,0.232,0.403c0,0.049,0.037,0.301,0.109,0.756
		c0.074,0.457,0.159,1.01,0.257,1.66c0.098,0.652,0.19,1.348,0.28,2.088s0.15,1.404,0.184,1.99c0.032,0.569,0.09,1.236,0.171,2.002
		c0.081,0.765,0.171,1.493,0.269,2.185c0.098,0.692,0.184,1.286,0.256,1.782c0.074,0.496,0.11,0.761,0.11,0.793
		c0,0.18-0.058,0.33-0.171,0.452c-0.114,0.122-0.285,0.199-0.513,0.231c-0.179,0-0.329-0.053-0.452-0.158
		c-0.121-0.105-0.199-0.248-0.231-0.428c0-0.049-0.036-0.316-0.11-0.805c-0.072-0.488-0.158-1.078-0.256-1.771
		c-0.098-0.691-0.188-1.42-0.269-2.185c-0.081-0.766-0.139-1.441-0.171-2.027c-0.033-0.568-0.094-1.221-0.184-1.953
		s-0.179-1.424-0.268-2.074c-0.09-0.651-0.172-1.209-0.244-1.673c-0.074-0.464-0.11-0.712-0.11-0.745
		c0-0.162,0.049-0.309,0.146-0.439c0.098-0.129,0.235-0.211,0.415-0.244H240.332z"/>
	<path fill="#FFFFFF" d="M257.373,34.377c0,0.229,0.028,0.465,0.086,0.709c0.057,0.244,0.125,0.476,0.207,0.695
		c0.081,0.22,0.162,0.42,0.244,0.598c0.081,0.18,0.146,0.318,0.195,0.416s0.073,0.211,0.073,0.342c0,0.26-0.114,0.455-0.342,0.586
		c-0.065,0.031-0.122,0.057-0.171,0.072c-0.049,0.017-0.105,0.025-0.171,0.025c-0.261,0-0.456-0.123-0.586-0.367
		c-0.017-0.016-0.073-0.117-0.171-0.305s-0.199-0.428-0.305-0.721c-0.106-0.293-0.204-0.617-0.293-0.977
		c-0.09-0.357-0.135-0.715-0.135-1.074c0-0.08-0.004-0.174-0.012-0.28c-0.009-0.105-0.021-0.224-0.037-0.354
		c-0.017-0.227-0.033-0.476-0.049-0.744c-0.017-0.269-0.024-0.59-0.024-0.965c0-0.244-0.017-0.5-0.049-0.769
		s-0.065-0.565-0.098-0.892c-0.049-0.406-0.094-0.842-0.134-1.306c-0.041-0.464-0.062-0.956-0.062-1.478
		c0-0.324-0.069-0.679-0.208-1.062c-0.139-0.382-0.338-0.736-0.598-1.062c-0.261-0.326-0.582-0.594-0.965-0.807
		c-0.383-0.211-0.826-0.316-1.33-0.316c-0.635,0-1.201,0.117-1.697,0.354s-0.924,0.533-1.281,0.891
		c-0.358,0.359-0.664,0.745-0.916,1.16s-0.451,0.806-0.598,1.172s-0.256,0.68-0.33,0.939c-0.072,0.262-0.109,0.408-0.109,0.439
		c-0.049,0.146-0.114,0.262-0.195,0.342v0.439c0,0.391,0.057,0.839,0.171,1.344c0.114,0.504,0.244,1.041,0.391,1.611
		c0.179,0.732,0.354,1.497,0.524,2.295c0.172,0.797,0.257,1.611,0.257,2.441c0,0.195-0.065,0.357-0.195,0.488
		c-0.13,0.129-0.293,0.195-0.488,0.195c-0.179,0-0.338-0.066-0.476-0.195c-0.139-0.131-0.208-0.293-0.208-0.488
		c0-0.749-0.077-1.498-0.231-2.246c-0.155-0.749-0.322-1.465-0.501-2.148c-0.163-0.603-0.306-1.185-0.427-1.746
		c-0.123-0.562-0.184-1.078-0.184-1.551c0-0.471-0.033-1.065-0.098-1.781c-0.065-0.717-0.143-1.412-0.232-2.088
		s-0.17-1.262-0.244-1.758c-0.072-0.496-0.109-0.761-0.109-0.793c0-0.163,0.057-0.31,0.171-0.439
		c0.114-0.131,0.284-0.212,0.513-0.244c0.179,0,0.33,0.053,0.451,0.158c0.123,0.105,0.199,0.248,0.232,0.428
		c0,0.032,0.016,0.134,0.049,0.305c0.032,0.171,0.064,0.398,0.098,0.684c0.032,0.285,0.073,0.606,0.122,0.965
		c0.049,0.357,0.098,0.732,0.146,1.123c0.244-0.456,0.532-0.904,0.866-1.344s0.725-0.83,1.172-1.172s0.948-0.617,1.502-0.83
		c0.553-0.211,1.172-0.316,1.855-0.316c0.667,0,1.273,0.134,1.818,0.402s1.014,0.623,1.404,1.062s0.695,0.936,0.916,1.488
		c0.219,0.555,0.329,1.107,0.329,1.66c0,0.488,0.021,0.953,0.062,1.393c0.04,0.439,0.085,0.846,0.134,1.221
		c0.032,0.325,0.065,0.643,0.098,0.951c0.032,0.311,0.049,0.604,0.049,0.879c0,0.652,0.024,1.172,0.073,1.562
		c0.016,0.146,0.028,0.281,0.037,0.403C257.369,34.121,257.373,34.248,257.373,34.377z"/>
	<path fill="#FFFFFF" d="M270.312,27.859c0,0.374,0.016,0.842,0.049,1.403c0.032,0.562,0.077,1.172,0.135,1.831
		c0.057,0.659,0.117,1.359,0.183,2.1s0.138,1.485,0.22,2.234c0.064,0.732,0.135,1.444,0.207,2.136
		c0.074,0.691,0.135,1.343,0.184,1.953s0.09,1.167,0.122,1.673c0.032,0.504,0.049,0.928,0.049,1.27c0,0.586-0.114,1.167-0.342,1.745
		c-0.228,0.577-0.562,1.095-1.001,1.55c-0.439,0.456-0.98,0.826-1.623,1.111c-0.644,0.285-1.389,0.428-2.234,0.428
		c-2.409,0-4.135-1.318-5.176-3.955c-0.033-0.066-0.049-0.155-0.049-0.27c0-0.293,0.139-0.504,0.415-0.635
		c0.049-0.016,0.093-0.028,0.134-0.036c0.041-0.009,0.086-0.013,0.135-0.013c0.293,0,0.504,0.154,0.635,0.465
		c0.081,0.211,0.207,0.492,0.379,0.842c0.17,0.35,0.402,0.688,0.695,1.014c0.293,0.324,0.672,0.609,1.135,0.854
		c0.465,0.244,1.029,0.367,1.697,0.367c0.699,0,1.294-0.115,1.782-0.342c0.488-0.229,0.883-0.518,1.185-0.867
		c0.301-0.35,0.52-0.729,0.658-1.135c0.139-0.408,0.208-0.781,0.208-1.123c0-0.326-0.017-0.737-0.049-1.233
		c-0.032-0.497-0.073-1.046-0.122-1.647c-0.049-0.604-0.105-1.242-0.171-1.917s-0.13-1.354-0.195-2.038
		c-0.31,0.488-0.647,0.92-1.013,1.293c-0.367,0.375-0.741,0.696-1.123,0.965c-0.383,0.269-0.758,0.472-1.123,0.61
		c-0.367,0.138-0.705,0.208-1.014,0.208c-0.635,0-1.266-0.119-1.893-0.354c-0.627-0.236-1.184-0.586-1.672-1.05
		s-0.887-1.041-1.196-1.733c-0.31-0.691-0.464-1.485-0.464-2.38c0-0.57,0.073-1.197,0.22-1.881s0.346-1.367,0.599-2.051
		c0.252-0.684,0.553-1.35,0.902-2.002c0.35-0.65,0.729-1.225,1.136-1.721s0.838-0.895,1.294-1.196
		c0.455-0.301,0.92-0.452,1.392-0.452c0.342,0,0.626,0.074,0.854,0.221c0.081-0.017,0.162-0.025,0.244-0.025
		c0.081,0,0.171,0,0.269,0c0.293,0,0.618,0.115,0.977,0.342c0.358,0.229,0.7,0.546,1.025,0.953c0.032-0.195,0.085-0.375,0.159-0.537
		c0.072-0.163,0.239-0.252,0.5-0.27l0.635-0.049l0.098,0.635c0,0.033,0,0.062,0,0.086s-0.008,0.094-0.024,0.207
		c0,0.098-0.005,0.318-0.013,0.66S270.312,27.029,270.312,27.859z M269.019,33.67c0.049-0.146,0.154-0.261,0.317-0.342
		c-0.114-1.123-0.207-2.165-0.281-3.125c-0.072-0.961-0.109-1.742-0.109-2.344v-0.293c-0.163-0.082-0.277-0.188-0.342-0.318
		c-0.342-0.635-0.68-1.09-1.014-1.367c-0.334-0.275-0.549-0.422-0.646-0.439c-0.277,0-0.525,0.018-0.744,0.049
		c-0.221,0.033-0.371,0.058-0.452,0.074c-0.212,0-0.383-0.082-0.513-0.244c-0.407,0.162-0.834,0.529-1.281,1.098
		c-0.448,0.57-0.859,1.233-1.233,1.99s-0.684,1.562-0.928,2.417s-0.366,1.64-0.366,2.356c0,0.765,0.13,1.408,0.391,1.928
		c0.26,0.521,0.586,0.949,0.977,1.282c0.391,0.334,0.81,0.573,1.258,0.72c0.447,0.146,0.857,0.221,1.232,0.221
		c0.244,0,0.533-0.086,0.867-0.257c0.333-0.171,0.675-0.415,1.025-0.732c0.35-0.317,0.688-0.7,1.013-1.147
		S268.791,34.239,269.019,33.67z"/>
	<path fill="#FFFFFF" d="M66.064,54.562c0.146,0.033,0.269,0.123,0.366,0.27s0.138,0.334,0.122,0.561
		c-0.082,0.342-0.358,0.514-0.83,0.514c0-0.017-0.301-0.074-0.903-0.172c-0.603-0.098-1.408-0.154-2.417-0.17
		c0.049,0.928,0.073,1.692,0.073,2.295c0,0.309,0.02,0.748,0.061,1.318c0.041,0.569,0.089,1.191,0.146,1.867
		c0.057,0.676,0.118,1.367,0.183,2.075c0.065,0.708,0.13,1.351,0.195,1.929c0.065,0.578,0.118,1.059,0.159,1.44
		c0.041,0.383,0.061,0.582,0.061,0.599c0,0.179-0.061,0.329-0.183,0.451s-0.289,0.199-0.5,0.232c-0.179,0-0.334-0.058-0.464-0.172
		c-0.13-0.113-0.204-0.26-0.22-0.439c0-0.049-0.024-0.268-0.073-0.658s-0.102-0.875-0.159-1.453
		c-0.057-0.578-0.118-1.217-0.183-1.916c-0.065-0.7-0.126-1.388-0.183-2.063c-0.057-0.675-0.106-1.298-0.146-1.868
		c-0.041-0.568-0.061-1.017-0.061-1.342c0-0.619-0.024-1.367-0.073-2.246c-0.423,0.032-0.838,0.072-1.245,0.121
		c-0.407,0.049-0.769,0.094-1.086,0.135s-0.578,0.078-0.781,0.109c-0.204,0.033-0.322,0.049-0.354,0.049
		c-0.163,0-0.31-0.057-0.439-0.17c-0.13-0.114-0.212-0.285-0.244-0.514c0-0.162,0.053-0.305,0.159-0.427
		c0.105-0.122,0.248-0.199,0.427-0.231c0.016,0,0.126-0.021,0.33-0.062c0.203-0.04,0.464-0.081,0.781-0.122s0.679-0.081,1.086-0.122
		c0.407-0.04,0.83-0.077,1.27-0.11c-0.033-0.455-0.069-0.906-0.11-1.354c-0.041-0.447-0.082-0.879-0.122-1.294
		c-0.041-0.415-0.085-0.801-0.134-1.16c-0.049-0.357-0.098-0.666-0.146-0.928c0-0.162,0.057-0.309,0.171-0.439
		c0.114-0.129,0.285-0.211,0.513-0.244c0.163,0,0.305,0.049,0.427,0.146s0.199,0.236,0.232,0.416
		c0.114,0.504,0.22,1.195,0.317,2.074s0.187,1.783,0.269,2.711c0.553,0,1.054,0.016,1.501,0.049c0.447,0.032,0.83,0.072,1.147,0.121
		s0.569,0.094,0.757,0.135C65.946,54.543,66.048,54.562,66.064,54.562z"/>
	<path fill="#FFFFFF" d="M79.541,64.646c0,0.211,0.028,0.436,0.085,0.671c0.057,0.236,0.122,0.456,0.195,0.659
		s0.15,0.391,0.232,0.562c0.081,0.171,0.146,0.298,0.195,0.378c0.032,0.066,0.057,0.123,0.073,0.172
		c0.016,0.049,0.024,0.105,0.024,0.17c0,0.261-0.122,0.456-0.366,0.586c-0.082,0.065-0.188,0.098-0.317,0.098
		c-0.277,0-0.48-0.113-0.61-0.342c0-0.016-0.049-0.113-0.146-0.293c-0.098-0.178-0.2-0.41-0.305-0.695
		c-0.106-0.285-0.204-0.598-0.293-0.939c-0.09-0.342-0.134-0.684-0.134-1.025c0-0.082-0.004-0.172-0.012-0.27
		c-0.008-0.098-0.021-0.211-0.037-0.342c-0.017-0.211-0.033-0.447-0.049-0.707c-0.017-0.261-0.024-0.57-0.024-0.928
		c0-0.229-0.017-0.473-0.049-0.732c-0.033-0.261-0.065-0.537-0.098-0.83c-0.049-0.391-0.094-0.807-0.134-1.246
		c-0.041-0.439-0.061-0.91-0.061-1.416c0-0.309-0.065-0.643-0.195-1c-0.13-0.358-0.326-0.688-0.586-0.989
		c-0.261-0.301-0.578-0.554-0.952-0.757c-0.375-0.203-0.806-0.305-1.294-0.305c-0.619,0-1.168,0.109-1.648,0.329
		c-0.48,0.22-0.899,0.497-1.257,0.83c-0.358,0.334-0.659,0.7-0.903,1.099s-0.439,0.77-0.586,1.111
		c0.081,0.895,0.187,1.848,0.317,2.855c0.13,1.01,0.264,1.949,0.403,2.82c0.138,0.871,0.256,1.6,0.354,2.186
		s0.146,0.902,0.146,0.951c0,0.163-0.057,0.31-0.171,0.439c-0.114,0.131-0.285,0.212-0.513,0.244c-0.179,0-0.33-0.053-0.452-0.158
		s-0.2-0.24-0.232-0.402c0-0.049-0.037-0.293-0.11-0.732s-0.163-0.993-0.269-1.66c-0.106-0.668-0.224-1.412-0.354-2.234
		c-0.13-0.822-0.252-1.648-0.366-2.479c-0.358-0.08-0.529-0.35-0.513-0.805c0.065-0.358,0.187-0.773,0.366-1.246
		c-0.033-0.357-0.057-0.695-0.073-1.013c-0.017-0.317-0.024-0.614-0.024-0.892c0-0.781-0.024-1.611-0.073-2.49
		s-0.102-1.696-0.159-2.453c-0.057-0.757-0.114-1.387-0.171-1.893c-0.057-0.504-0.085-0.772-0.085-0.805
		c0-0.18,0.061-0.33,0.183-0.452s0.289-0.199,0.5-0.231c0.179,0,0.333,0.057,0.464,0.17c0.13,0.115,0.203,0.262,0.22,0.439
		c0,0.049,0.024,0.314,0.073,0.794c0.049,0.48,0.105,1.079,0.171,1.794c0.065,0.717,0.122,1.502,0.171,2.356
		s0.073,1.673,0.073,2.454c0.504-0.635,1.127-1.176,1.868-1.624c0.74-0.447,1.624-0.671,2.649-0.671c0.651,0,1.249,0.13,1.794,0.391
		c0.545,0.26,1.009,0.598,1.392,1.013c0.382,0.415,0.679,0.888,0.891,1.416c0.211,0.529,0.317,1.062,0.317,1.599
		c0,0.473,0.02,0.912,0.061,1.318c0.041,0.408,0.085,0.799,0.134,1.172c0.032,0.311,0.065,0.607,0.098,0.892
		c0.032,0.285,0.049,0.565,0.049,0.843c0,0.635,0.024,1.131,0.073,1.488c0.016,0.146,0.028,0.277,0.037,0.391
		C79.537,64.395,79.541,64.516,79.541,64.646z"/>
	<path fill="#FFFFFF" d="M92.358,66.184c0.179,0,0.33,0.058,0.452,0.172c0.122,0.113,0.199,0.285,0.232,0.512
		c0,0.18-0.053,0.33-0.159,0.452c-0.106,0.122-0.249,0.199-0.427,0.231c-0.033,0-0.179,0.021-0.439,0.062
		c-0.261,0.04-0.57,0.085-0.928,0.134c-0.358,0.049-0.732,0.09-1.123,0.123c-0.391,0.031-0.725,0.049-1.001,0.049
		c-2.165,0-3.825-0.574-4.98-1.722c-1.156-1.147-1.791-2.763-1.904-4.847c-0.033-1.057,0.061-1.984,0.281-2.783
		c0.22-0.797,0.513-1.48,0.879-2.051c0.366-0.568,0.777-1.041,1.233-1.416c0.456-0.373,0.899-0.666,1.331-0.879
		c0.431-0.211,0.822-0.361,1.172-0.451c0.35-0.09,0.606-0.135,0.769-0.135c0.423,0,0.875,0.106,1.355,0.318
		c0.48,0.211,0.928,0.533,1.343,0.964c0.415,0.432,0.769,0.981,1.062,1.647c0.293,0.668,0.472,1.457,0.537,2.369
		c0.098,0.13,0.146,0.276,0.146,0.439c0,0.162-0.049,0.301-0.146,0.414c-0.082,0.326-0.301,0.488-0.659,0.488
		c-0.163,0-0.301-0.049-0.415-0.146c-0.439,0.098-0.896,0.236-1.367,0.416c-0.423,0.146-0.838,0.276-1.245,0.391
		c-0.407,0.113-0.773,0.17-1.099,0.17c-0.179,0-0.419,0.025-0.72,0.074c-0.301,0.049-0.631,0.113-0.989,0.195
		c-0.358,0.081-0.72,0.166-1.086,0.256s-0.696,0.176-0.989,0.256c0.065,1.01,0.297,1.819,0.696,2.43
		c0.398,0.61,0.871,1.082,1.416,1.416c0.545,0.334,1.123,0.554,1.733,0.659c0.61,0.106,1.16,0.159,1.648,0.159
		c0.26,0,0.578-0.017,0.952-0.049c0.374-0.033,0.732-0.074,1.074-0.123s0.643-0.089,0.903-0.121l0.366-0.049L92.358,66.184z
		 M87.744,55.002c-0.146,0-0.436,0.078-0.867,0.232c-0.432,0.154-0.879,0.432-1.343,0.83s-0.896,0.952-1.294,1.66
		c-0.399,0.708-0.647,1.615-0.745,2.723c0.276-0.065,0.59-0.139,0.94-0.221c0.35-0.08,0.7-0.158,1.05-0.231
		c0.35-0.073,0.684-0.134,1.001-0.183s0.574-0.074,0.769-0.074c0.228,0,0.517-0.053,0.867-0.158c0.35-0.105,0.696-0.215,1.038-0.33
		c0.276-0.098,0.537-0.183,0.781-0.256s0.48-0.143,0.708-0.207c-0.065-0.651-0.204-1.213-0.415-1.686
		c-0.212-0.471-0.456-0.861-0.732-1.172c-0.277-0.309-0.57-0.541-0.879-0.695C88.313,55.08,88.021,55.002,87.744,55.002z"/>
	<path fill="#FFFFFF" d="M95.386,52.707c-0.277,0-0.509-0.093-0.696-0.28c-0.188-0.187-0.281-0.419-0.281-0.696
		c0-0.275,0.093-0.504,0.281-0.684c0.187-0.178,0.419-0.268,0.696-0.268c0.26,0,0.484,0.09,0.671,0.268
		c0.187,0.18,0.281,0.408,0.281,0.684c0,0.277-0.094,0.51-0.281,0.696C95.87,52.614,95.646,52.707,95.386,52.707z M95.703,53.732
		c0.179,0,0.33,0.054,0.452,0.159c0.122,0.106,0.199,0.24,0.232,0.403c0,0.049,0.037,0.301,0.11,0.756
		c0.073,0.457,0.159,1.01,0.256,1.66c0.098,0.652,0.191,1.348,0.281,2.088c0.089,0.74,0.15,1.404,0.183,1.99
		c0.032,0.569,0.089,1.236,0.171,2.002c0.081,0.765,0.171,1.493,0.269,2.185c0.098,0.692,0.183,1.286,0.256,1.782
		s0.11,0.761,0.11,0.793c0,0.18-0.057,0.33-0.171,0.452c-0.114,0.122-0.285,0.199-0.513,0.231c-0.179,0-0.33-0.053-0.452-0.158
		s-0.2-0.248-0.232-0.428c0-0.049-0.037-0.316-0.11-0.805s-0.159-1.078-0.256-1.771c-0.098-0.691-0.188-1.42-0.269-2.185
		c-0.082-0.766-0.139-1.441-0.171-2.027c-0.033-0.568-0.094-1.221-0.183-1.953c-0.09-0.732-0.179-1.424-0.269-2.074
		c-0.09-0.651-0.171-1.209-0.244-1.673s-0.11-0.712-0.11-0.745c0-0.162,0.049-0.309,0.146-0.439
		c0.098-0.129,0.236-0.211,0.415-0.244H95.703z"/>
	<path fill="#FFFFFF" d="M107.788,53.367c0.358,0,0.659,0.028,0.903,0.085c0.244,0.058,0.443,0.122,0.598,0.195
		c0.154,0.073,0.276,0.151,0.366,0.231c0.089,0.082,0.15,0.146,0.183,0.195c0.081,0.115,0.122,0.236,0.122,0.367
		c0,0.26-0.098,0.447-0.293,0.561c-0.098,0.082-0.228,0.123-0.391,0.123c-0.195,0-0.366-0.074-0.513-0.221
		c-0.033-0.016-0.118-0.049-0.256-0.098c-0.139-0.049-0.378-0.072-0.72-0.072c-0.195,0-0.545,0.121-1.05,0.365
		c-0.505,0.244-1.018,0.644-1.538,1.197c-0.521,0.553-0.989,1.273-1.404,2.16s-0.623,1.974-0.623,3.26
		c0.049,0.211,0.098,0.427,0.146,0.646s0.105,0.443,0.171,0.672c0.179,0.732,0.358,1.497,0.537,2.295
		c0.179,0.797,0.269,1.611,0.269,2.441c0,0.195-0.069,0.357-0.208,0.488c-0.139,0.129-0.297,0.195-0.476,0.195
		c-0.195,0-0.358-0.066-0.488-0.195c-0.13-0.131-0.195-0.293-0.195-0.488c0-0.749-0.082-1.498-0.244-2.246
		c-0.163-0.749-0.334-1.465-0.513-2.148c-0.163-0.603-0.305-1.185-0.427-1.746s-0.183-1.078-0.183-1.551
		c0-0.471-0.033-1.065-0.098-1.781c-0.065-0.717-0.143-1.412-0.232-2.088c-0.09-0.676-0.167-1.262-0.232-1.758
		c-0.065-0.496-0.098-0.761-0.098-0.793c0-0.163,0.057-0.31,0.171-0.439c0.114-0.131,0.285-0.212,0.513-0.244
		c0.163,0,0.305,0.053,0.427,0.158s0.199,0.248,0.232,0.428c0,0.032,0.02,0.166,0.061,0.402c0.041,0.236,0.085,0.533,0.134,0.891
		c0.049,0.359,0.102,0.766,0.159,1.221c0.057,0.457,0.11,0.918,0.159,1.387c0.325-0.68,0.712-1.276,1.16-1.789
		c0.447-0.513,0.907-0.939,1.379-1.281c0.472-0.342,0.928-0.599,1.367-0.77S107.479,53.367,107.788,53.367z"/>
	<path fill="#FFFFFF" d="M127.368,54.49c0.472,0.293,0.923,0.65,1.355,1.074c0.431,0.423,0.81,0.895,1.135,1.416
		c0.325,0.521,0.582,1.074,0.769,1.66c0.187,0.586,0.281,1.188,0.281,1.807c0,0.602-0.09,1.164-0.269,1.684
		c-0.179,0.521-0.436,1.043-0.769,1.562c-0.334,0.521-0.72,1.01-1.16,1.465c-0.439,0.457-0.924,0.863-1.453,1.221
		c-0.529,0.359-1.062,0.635-1.599,0.83c-0.537,0.212-1.058,0.318-1.562,0.318c-0.521,0-1.018-0.131-1.489-0.391v0.586
		c0,0.895,0.028,1.847,0.085,2.855c0.057,1.01,0.118,1.945,0.183,2.809c0.065,0.861,0.126,1.582,0.183,2.16
		c0.057,0.578,0.085,0.883,0.085,0.916c0,0.178-0.057,0.333-0.171,0.463c-0.114,0.131-0.285,0.203-0.513,0.221
		c-0.179,0-0.33-0.058-0.452-0.172c-0.122-0.113-0.2-0.26-0.232-0.439c0-0.016-0.029-0.312-0.085-0.891
		c-0.057-0.578-0.118-1.303-0.183-2.173c-0.065-0.871-0.126-1.819-0.183-2.845c-0.057-1.025-0.085-1.994-0.085-2.904
		c0-0.586-0.037-1.303-0.11-2.148c-0.073-0.847-0.163-1.729-0.269-2.649c-0.106-0.919-0.224-1.835-0.354-2.747
		c-0.13-0.91-0.252-1.732-0.366-2.465c-0.114-0.732-0.208-1.331-0.281-1.795s-0.11-0.712-0.11-0.744
		c0-0.375,0.228-0.603,0.684-0.684c0.179,0,0.33,0.049,0.452,0.146s0.199,0.236,0.232,0.414l0.073,0.465
		c0.586-0.554,1.229-0.957,1.929-1.209c0.7-0.252,1.383-0.379,2.051-0.379C126.033,53.928,126.766,54.115,127.368,54.49z
		 M129.346,61.717c0.081-0.212,0.134-0.424,0.159-0.635c0.024-0.212,0.037-0.424,0.037-0.635c0-0.521-0.085-1.025-0.256-1.514
		s-0.395-0.94-0.671-1.355c-0.277-0.415-0.586-0.789-0.928-1.123s-0.684-0.605-1.025-0.818c-0.407-0.227-0.896-0.342-1.465-0.342
		c-0.505,0-1.034,0.098-1.587,0.293c-0.554,0.195-1.05,0.506-1.489,0.928c-0.163,0.131-0.317,0.195-0.464,0.195
		c-0.098,0-0.195-0.023-0.293-0.072c0.081,0.504,0.171,1.086,0.269,1.745s0.195,1.354,0.293,2.087s0.195,1.482,0.293,2.246
		c0.098,0.766,0.179,1.498,0.244,2.197c0.228,0.098,0.366,0.285,0.415,0.562c0,0.016,0.02,0.072,0.061,0.17
		c0.041,0.098,0.142,0.195,0.305,0.293c0.26,0.146,0.545,0.221,0.854,0.221c0.195,0,0.386-0.025,0.574-0.074
		c0.187-0.049,0.362-0.098,0.525-0.146c0.439-0.162,0.875-0.395,1.306-0.695c0.431-0.301,0.834-0.643,1.208-1.025
		c0.374-0.383,0.704-0.789,0.989-1.221C128.983,62.566,129.199,62.14,129.346,61.717z"/>
	<path fill="#FFFFFF" d="M143.213,60.422c0.146,1.01,0.317,1.913,0.513,2.711c0.195,0.797,0.378,1.473,0.549,2.025
		c0.171,0.555,0.317,0.981,0.439,1.282c0.122,0.302,0.183,0.46,0.183,0.476c0.016,0.049,0.028,0.094,0.037,0.135
		c0.008,0.041,0.012,0.086,0.012,0.135c0,0.293-0.13,0.504-0.391,0.635c-0.13,0.031-0.228,0.049-0.293,0.049
		c-0.31,0-0.513-0.131-0.61-0.391c-0.033-0.066-0.183-0.452-0.452-1.16s-0.549-1.697-0.842-2.967
		c-0.261,0.635-0.566,1.221-0.916,1.758c-0.35,0.537-0.725,1.002-1.123,1.393c-0.399,0.391-0.814,0.695-1.245,0.915
		c-0.432,0.22-0.859,0.329-1.282,0.329c-1.66,0-2.889-0.568-3.687-1.709c-0.798-1.139-1.196-2.889-1.196-5.248
		c0-0.977,0.146-1.844,0.439-2.601s0.671-1.42,1.135-1.989c0.464-0.57,0.984-1.051,1.562-1.441c0.578-0.391,1.143-0.707,1.697-0.951
		c0.553-0.244,1.066-0.42,1.538-0.525c0.472-0.105,0.846-0.158,1.123-0.158c0.488,0,0.911,0.094,1.27,0.28
		c0.358,0.188,0.655,0.399,0.891,0.635c0.236,0.236,0.411,0.456,0.525,0.659c0.114,0.203,0.171,0.313,0.171,0.33
		c0.049,0.081,0.073,0.17,0.073,0.268c0,0.164-0.073,0.334-0.22,0.514c0.146,0.765,0.22,1.773,0.22,3.027
		c0,0.26-0.012,0.521-0.037,0.781C143.274,59.877,143.245,60.146,143.213,60.422z M137.793,66.379c0.342,0,0.716-0.158,1.123-0.476
		c0.407-0.317,0.801-0.745,1.184-1.282c0.382-0.537,0.728-1.167,1.038-1.892c0.309-0.724,0.537-1.493,0.684-2.308
		c-0.114-0.781-0.204-1.603-0.269-2.465c-0.065-0.863-0.106-1.783-0.122-2.76c-0.179-0.146-0.269-0.324-0.269-0.537
		c-0.114-0.049-0.232-0.089-0.354-0.121c-0.122-0.033-0.256-0.049-0.403-0.049c-0.212,0-0.513,0.045-0.903,0.134
		c-0.391,0.09-0.814,0.236-1.27,0.439c-0.456,0.204-0.916,0.468-1.379,0.794c-0.464,0.325-0.887,0.725-1.27,1.195
		c-0.383,0.473-0.696,1.018-0.94,1.637c-0.244,0.618-0.366,1.318-0.366,2.1c0,1.236,0.102,2.221,0.305,2.953
		c0.203,0.732,0.472,1.295,0.806,1.686c0.333,0.391,0.708,0.646,1.123,0.769S137.354,66.379,137.793,66.379z"/>
	<path fill="#FFFFFF" d="M153.979,53.367c0.358,0,0.659,0.028,0.903,0.085c0.244,0.058,0.443,0.122,0.598,0.195
		s0.277,0.151,0.367,0.231c0.089,0.082,0.15,0.146,0.183,0.195c0.081,0.115,0.122,0.236,0.122,0.367c0,0.26-0.098,0.447-0.293,0.561
		c-0.098,0.082-0.229,0.123-0.391,0.123c-0.195,0-0.366-0.074-0.513-0.221c-0.032-0.016-0.118-0.049-0.257-0.098
		s-0.378-0.072-0.72-0.072c-0.195,0-0.546,0.121-1.05,0.365c-0.505,0.244-1.018,0.644-1.538,1.197
		c-0.521,0.553-0.989,1.273-1.404,2.16s-0.623,1.974-0.623,3.26c0.049,0.211,0.098,0.427,0.146,0.646s0.105,0.443,0.171,0.672
		c0.179,0.732,0.358,1.497,0.537,2.295c0.179,0.797,0.269,1.611,0.269,2.441c0,0.195-0.069,0.357-0.208,0.488
		c-0.139,0.129-0.297,0.195-0.476,0.195c-0.195,0-0.358-0.066-0.488-0.195c-0.13-0.131-0.195-0.293-0.195-0.488
		c0-0.749-0.082-1.498-0.244-2.246c-0.163-0.749-0.334-1.465-0.513-2.148c-0.163-0.603-0.305-1.185-0.427-1.746
		s-0.183-1.078-0.183-1.551c0-0.471-0.033-1.065-0.098-1.781c-0.065-0.717-0.143-1.412-0.232-2.088
		c-0.09-0.676-0.167-1.262-0.232-1.758c-0.065-0.496-0.098-0.761-0.098-0.793c0-0.163,0.057-0.31,0.171-0.439
		c0.114-0.131,0.285-0.212,0.513-0.244c0.163,0,0.305,0.053,0.427,0.158s0.199,0.248,0.232,0.428c0,0.032,0.02,0.166,0.061,0.402
		c0.041,0.236,0.085,0.533,0.134,0.891c0.049,0.359,0.102,0.766,0.159,1.221c0.057,0.457,0.11,0.918,0.159,1.387
		c0.325-0.68,0.712-1.276,1.16-1.789c0.447-0.513,0.908-0.939,1.379-1.281s0.928-0.599,1.367-0.77S153.67,53.367,153.979,53.367z"/>
	<path fill="#FFFFFF" d="M165.82,54.562c0.146,0.033,0.269,0.123,0.366,0.27s0.138,0.334,0.122,0.561
		c-0.082,0.342-0.358,0.514-0.83,0.514c0-0.017-0.301-0.074-0.903-0.172s-1.408-0.154-2.417-0.17
		c0.049,0.928,0.073,1.692,0.073,2.295c0,0.309,0.021,0.748,0.062,1.318c0.04,0.569,0.089,1.191,0.146,1.867
		c0.057,0.676,0.117,1.367,0.183,2.075s0.13,1.351,0.195,1.929s0.118,1.059,0.159,1.44c0.04,0.383,0.061,0.582,0.061,0.599
		c0,0.179-0.061,0.329-0.184,0.451c-0.121,0.122-0.289,0.199-0.5,0.232c-0.18,0-0.334-0.058-0.464-0.172
		c-0.13-0.113-0.204-0.26-0.22-0.439c0-0.049-0.024-0.268-0.073-0.658s-0.103-0.875-0.159-1.453s-0.117-1.217-0.183-1.916
		c-0.065-0.7-0.126-1.388-0.183-2.063c-0.058-0.675-0.106-1.298-0.146-1.868c-0.041-0.568-0.062-1.017-0.062-1.342
		c0-0.619-0.024-1.367-0.073-2.246c-0.424,0.032-0.838,0.072-1.245,0.121s-0.769,0.094-1.087,0.135
		c-0.316,0.041-0.578,0.078-0.781,0.109c-0.203,0.033-0.321,0.049-0.354,0.049c-0.163,0-0.31-0.057-0.439-0.17
		c-0.131-0.114-0.212-0.285-0.244-0.514c0-0.162,0.053-0.305,0.158-0.427s0.248-0.199,0.428-0.231c0.016,0,0.126-0.021,0.33-0.062
		c0.203-0.04,0.463-0.081,0.781-0.122c0.316-0.041,0.679-0.081,1.086-0.122c0.406-0.04,0.83-0.077,1.27-0.11
		c-0.033-0.455-0.069-0.906-0.109-1.354c-0.041-0.447-0.082-0.879-0.123-1.294s-0.085-0.801-0.134-1.16
		c-0.049-0.357-0.098-0.666-0.146-0.928c0-0.162,0.057-0.309,0.171-0.439c0.113-0.129,0.285-0.211,0.513-0.244
		c0.163,0,0.306,0.049,0.427,0.146c0.123,0.098,0.199,0.236,0.232,0.416c0.113,0.504,0.22,1.195,0.317,2.074
		s0.187,1.783,0.269,2.711c0.553,0,1.054,0.016,1.502,0.049c0.447,0.032,0.83,0.072,1.146,0.121c0.318,0.049,0.57,0.094,0.758,0.135
		C165.702,54.543,165.804,54.562,165.82,54.562z"/>
	<path fill="#FFFFFF" d="M184.424,54.562c0.146,0.033,0.269,0.123,0.366,0.27s0.138,0.334,0.122,0.561
		c-0.082,0.342-0.358,0.514-0.83,0.514c0-0.017-0.301-0.074-0.903-0.172s-1.408-0.154-2.417-0.17
		c0.049,0.928,0.073,1.692,0.073,2.295c0,0.309,0.021,0.748,0.062,1.318c0.04,0.569,0.089,1.191,0.146,1.867
		c0.057,0.676,0.117,1.367,0.183,2.075s0.13,1.351,0.195,1.929s0.118,1.059,0.159,1.44c0.04,0.383,0.061,0.582,0.061,0.599
		c0,0.179-0.061,0.329-0.184,0.451c-0.121,0.122-0.289,0.199-0.5,0.232c-0.18,0-0.334-0.058-0.464-0.172
		c-0.13-0.113-0.204-0.26-0.22-0.439c0-0.049-0.024-0.268-0.073-0.658s-0.103-0.875-0.159-1.453s-0.117-1.217-0.183-1.916
		c-0.065-0.7-0.126-1.388-0.183-2.063c-0.058-0.675-0.106-1.298-0.146-1.868c-0.041-0.568-0.062-1.017-0.062-1.342
		c0-0.619-0.024-1.367-0.073-2.246c-0.424,0.032-0.838,0.072-1.245,0.121s-0.769,0.094-1.087,0.135
		c-0.316,0.041-0.578,0.078-0.781,0.109c-0.203,0.033-0.321,0.049-0.354,0.049c-0.163,0-0.31-0.057-0.439-0.17
		c-0.131-0.114-0.212-0.285-0.244-0.514c0-0.162,0.053-0.305,0.158-0.427s0.248-0.199,0.428-0.231c0.016,0,0.126-0.021,0.33-0.062
		c0.203-0.04,0.463-0.081,0.781-0.122c0.316-0.041,0.679-0.081,1.086-0.122c0.406-0.04,0.83-0.077,1.27-0.11
		c-0.033-0.455-0.069-0.906-0.109-1.354c-0.041-0.447-0.082-0.879-0.123-1.294s-0.085-0.801-0.134-1.16
		c-0.049-0.357-0.098-0.666-0.146-0.928c0-0.162,0.057-0.309,0.171-0.439c0.113-0.129,0.285-0.211,0.513-0.244
		c0.163,0,0.306,0.049,0.427,0.146c0.123,0.098,0.199,0.236,0.232,0.416c0.113,0.504,0.22,1.195,0.317,2.074
		s0.187,1.783,0.269,2.711c0.553,0,1.054,0.016,1.502,0.049c0.447,0.032,0.83,0.072,1.146,0.121c0.318,0.049,0.57,0.094,0.758,0.135
		C184.306,54.543,184.407,54.562,184.424,54.562z"/>
	<path fill="#FFFFFF" d="M193.213,53.172c0.342,0,0.736,0.166,1.184,0.5s0.871,0.806,1.27,1.416s0.74,1.348,1.025,2.209
		c0.285,0.863,0.428,1.832,0.428,2.906c0,1.09-0.188,2.1-0.562,3.027s-0.843,1.732-1.403,2.416c-0.562,0.684-1.172,1.217-1.832,1.6
		c-0.658,0.383-1.266,0.574-1.818,0.574c-0.635,0-1.262-0.123-1.88-0.367s-1.172-0.598-1.66-1.062s-0.888-1.038-1.196-1.722
		c-0.31-0.684-0.464-1.473-0.464-2.367c0-0.57,0.073-1.197,0.22-1.881s0.346-1.371,0.598-2.062s0.554-1.359,0.904-2.002
		c0.35-0.643,0.728-1.217,1.135-1.721c0.406-0.505,0.838-0.908,1.294-1.209s0.919-0.451,1.392-0.451c0.179,0,0.338,0.02,0.477,0.061
		c0.138,0.041,0.264,0.094,0.378,0.158c0.081,0,0.163-0.004,0.244-0.012S193.115,53.172,193.213,53.172z M191.504,66.453
		c0.309,0,0.703-0.15,1.184-0.452c0.48-0.301,0.948-0.724,1.404-1.27c0.455-0.545,0.846-1.2,1.172-1.966
		c0.325-0.764,0.488-1.619,0.488-2.562c0-0.912-0.109-1.713-0.33-2.405c-0.219-0.691-0.472-1.277-0.756-1.758
		c-0.285-0.479-0.57-0.843-0.855-1.087s-0.492-0.382-0.622-0.414c-0.276,0-0.524,0.02-0.745,0.061
		c-0.219,0.041-0.37,0.069-0.451,0.086c-0.195,0-0.375-0.082-0.537-0.244c-0.407,0.162-0.83,0.529-1.27,1.098
		c-0.439,0.57-0.847,1.233-1.221,1.99c-0.375,0.757-0.684,1.562-0.928,2.417s-0.366,1.64-0.366,2.356
		c0,0.748,0.13,1.387,0.391,1.916s0.586,0.957,0.977,1.281c0.391,0.326,0.806,0.566,1.245,0.721S191.129,66.453,191.504,66.453z"/>
	<path fill="#FFFFFF" d="M213.818,58.957c2.881,1.4,4.321,2.873,4.321,4.42c0,0.472-0.106,0.936-0.317,1.391
		c-0.212,0.457-0.464,0.875-0.757,1.258s-0.599,0.717-0.915,1.001c-0.318,0.284-0.582,0.483-0.794,0.599
		c-0.195,0.113-0.452,0.223-0.769,0.329c-0.318,0.105-0.644,0.199-0.977,0.28c-0.334,0.082-0.652,0.146-0.953,0.195
		s-0.549,0.074-0.744,0.074c-0.424,0-0.875-0.07-1.355-0.208c-0.48-0.139-0.939-0.366-1.379-0.684s-0.834-0.736-1.184-1.257
		c-0.351-0.521-0.623-1.164-0.818-1.93c0-0.357,0.228-0.586,0.684-0.684c0.146,0,0.285,0.045,0.415,0.135s0.212,0.216,0.244,0.379
		c0.179,0.684,0.435,1.217,0.769,1.599c0.334,0.383,0.676,0.671,1.025,0.866s0.676,0.314,0.977,0.354
		c0.301,0.041,0.509,0.062,0.623,0.062c0.146,0,0.35-0.021,0.61-0.062c0.261-0.04,0.524-0.098,0.794-0.171
		c0.268-0.073,0.528-0.15,0.781-0.232c0.252-0.08,0.443-0.162,0.573-0.244c0.146-0.08,0.342-0.231,0.586-0.451
		s0.476-0.472,0.696-0.757c0.219-0.284,0.41-0.59,0.573-0.915c0.163-0.326,0.244-0.635,0.244-0.928c0-0.163-0.049-0.354-0.146-0.574
		s-0.272-0.464-0.524-0.732c-0.253-0.269-0.611-0.557-1.074-0.867c-0.465-0.309-1.062-0.643-1.795-1
		c-0.473-0.229-0.965-0.465-1.477-0.709c-0.514-0.244-0.989-0.467-1.429-0.671c-0.439-0.203-0.806-0.378-1.099-0.524l-0.439-0.195
		l-0.391-0.172v-0.439c0-0.748,0.188-1.403,0.562-1.965s0.83-1.033,1.367-1.416s1.103-0.672,1.696-0.867s1.119-0.293,1.575-0.293
		c0.472,0,0.87,0.058,1.196,0.172c0.325,0.113,0.594,0.24,0.806,0.378c0.212,0.139,0.37,0.269,0.476,0.391s0.167,0.2,0.184,0.231
		c0.081,0.115,0.122,0.236,0.122,0.367c0,0.244-0.106,0.432-0.317,0.561c-0.131,0.082-0.252,0.123-0.366,0.123
		c-0.244,0-0.432-0.105-0.562-0.318c-0.017,0-0.053-0.027-0.109-0.085c-0.058-0.057-0.146-0.118-0.27-0.183
		c-0.121-0.065-0.276-0.127-0.463-0.184c-0.188-0.057-0.42-0.086-0.696-0.086s-0.61,0.058-1.001,0.172
		c-0.391,0.113-0.781,0.289-1.172,0.524c-0.391,0.236-0.74,0.524-1.05,0.866s-0.505,0.741-0.586,1.197
		c0.212,0.098,0.472,0.215,0.781,0.354s0.647,0.293,1.013,0.464c0.367,0.171,0.745,0.351,1.136,0.537
		C213.11,58.62,213.477,58.795,213.818,58.957z"/>
	<path fill="#FFFFFF" d="M230.298,60.422c0.146,1.01,0.317,1.913,0.513,2.711c0.195,0.797,0.379,1.473,0.549,2.025
		c0.172,0.555,0.318,0.981,0.439,1.282c0.123,0.302,0.184,0.46,0.184,0.476c0.016,0.049,0.028,0.094,0.037,0.135
		c0.008,0.041,0.012,0.086,0.012,0.135c0,0.293-0.131,0.504-0.391,0.635c-0.131,0.031-0.229,0.049-0.293,0.049
		c-0.31,0-0.513-0.131-0.61-0.391c-0.032-0.066-0.183-0.452-0.452-1.16c-0.268-0.708-0.549-1.697-0.842-2.967
		c-0.261,0.635-0.566,1.221-0.916,1.758s-0.725,1.002-1.123,1.393s-0.813,0.695-1.244,0.915c-0.432,0.22-0.859,0.329-1.282,0.329
		c-1.66,0-2.89-0.568-3.687-1.709c-0.798-1.139-1.196-2.889-1.196-5.248c0-0.977,0.146-1.844,0.439-2.601s0.671-1.42,1.136-1.989
		c0.463-0.57,0.984-1.051,1.562-1.441c0.577-0.391,1.143-0.707,1.696-0.951s1.065-0.42,1.538-0.525
		c0.472-0.105,0.846-0.158,1.123-0.158c0.488,0,0.911,0.094,1.27,0.28c0.357,0.188,0.654,0.399,0.891,0.635
		c0.236,0.236,0.411,0.456,0.525,0.659c0.113,0.203,0.171,0.313,0.171,0.33c0.049,0.081,0.073,0.17,0.073,0.268
		c0,0.164-0.073,0.334-0.22,0.514c0.146,0.765,0.22,1.773,0.22,3.027c0,0.26-0.012,0.521-0.037,0.781
		C230.359,59.877,230.33,60.146,230.298,60.422z M224.878,66.379c0.342,0,0.716-0.158,1.123-0.476s0.802-0.745,1.185-1.282
		c0.382-0.537,0.728-1.167,1.037-1.892c0.309-0.724,0.537-1.493,0.684-2.308c-0.114-0.781-0.203-1.603-0.269-2.465
		c-0.065-0.863-0.106-1.783-0.122-2.76c-0.18-0.146-0.269-0.324-0.269-0.537c-0.114-0.049-0.231-0.089-0.354-0.121
		c-0.121-0.033-0.256-0.049-0.402-0.049c-0.212,0-0.513,0.045-0.903,0.134c-0.391,0.09-0.813,0.236-1.27,0.439
		c-0.456,0.204-0.915,0.468-1.38,0.794c-0.463,0.325-0.887,0.725-1.27,1.195c-0.383,0.473-0.695,1.018-0.939,1.637
		c-0.244,0.618-0.366,1.318-0.366,2.1c0,1.236,0.102,2.221,0.306,2.953c0.203,0.732,0.471,1.295,0.805,1.686
		s0.709,0.646,1.123,0.769C224.012,66.318,224.438,66.379,224.878,66.379z"/>
	<path fill="#FFFFFF" d="M243.066,53.879c0.146,0.049,0.269,0.143,0.366,0.281s0.138,0.33,0.122,0.574
		c-0.017,0.032-0.086,0.272-0.207,0.72c-0.123,0.448-0.273,0.989-0.452,1.624s-0.378,1.306-0.599,2.014
		c-0.219,0.708-0.436,1.339-0.646,1.893c-0.212,0.537-0.436,1.172-0.672,1.904s-0.451,1.432-0.646,2.1
		c-0.195,0.667-0.358,1.232-0.488,1.696c-0.131,0.464-0.195,0.704-0.195,0.72c-0.114,0.342-0.398,0.505-0.854,0.488
		c-0.325-0.113-0.48-0.398-0.464-0.854l0.098-0.367c-0.033-0.049-0.229-0.354-0.586-0.915c-0.358-0.562-0.789-1.354-1.294-2.38
		s-1.03-2.279-1.575-3.76c-0.545-1.481-1.021-3.174-1.428-5.078c0-0.146,0.057-0.285,0.171-0.416
		c0.114-0.129,0.284-0.219,0.513-0.268c0.357,0,0.578,0.179,0.659,0.537c0.293,1.318,0.622,2.531,0.989,3.637
		c0.365,1.107,0.736,2.104,1.11,2.991c0.374,0.888,0.732,1.656,1.074,2.308c0.342,0.65,0.635,1.18,0.879,1.586
		c0.212-0.699,0.443-1.456,0.696-2.27c0.252-0.814,0.492-1.53,0.72-2.148c0.212-0.537,0.427-1.156,0.647-1.855
		c0.219-0.7,0.418-1.363,0.598-1.99c0.179-0.627,0.325-1.16,0.439-1.6c0.113-0.439,0.171-0.666,0.171-0.684
		c0.049-0.146,0.142-0.268,0.28-0.365S242.822,53.863,243.066,53.879z"/>
	<path fill="#FFFFFF" d="M255.835,66.184c0.179,0,0.329,0.058,0.452,0.172c0.121,0.113,0.199,0.285,0.231,0.512
		c0,0.18-0.054,0.33-0.159,0.452s-0.248,0.199-0.427,0.231c-0.032,0-0.179,0.021-0.439,0.062c-0.261,0.04-0.569,0.085-0.928,0.134
		s-0.732,0.09-1.123,0.123c-0.391,0.031-0.725,0.049-1.001,0.049c-2.165,0-3.825-0.574-4.98-1.722
		c-1.156-1.147-1.791-2.763-1.904-4.847c-0.033-1.057,0.061-1.984,0.281-2.783c0.219-0.797,0.512-1.48,0.879-2.051
		c0.365-0.568,0.776-1.041,1.232-1.416c0.455-0.373,0.898-0.666,1.33-0.879c0.432-0.211,0.822-0.361,1.172-0.451
		s0.606-0.135,0.77-0.135c0.423,0,0.875,0.106,1.355,0.318c0.479,0.211,0.928,0.533,1.342,0.964c0.416,0.432,0.77,0.981,1.062,1.647
		c0.293,0.668,0.472,1.457,0.537,2.369c0.098,0.13,0.146,0.276,0.146,0.439c0,0.162-0.049,0.301-0.146,0.414
		c-0.082,0.326-0.301,0.488-0.659,0.488c-0.163,0-0.302-0.049-0.415-0.146c-0.439,0.098-0.896,0.236-1.367,0.416
		c-0.424,0.146-0.838,0.276-1.245,0.391c-0.407,0.113-0.773,0.17-1.099,0.17c-0.18,0-0.42,0.025-0.721,0.074
		s-0.631,0.113-0.988,0.195c-0.358,0.081-0.721,0.166-1.086,0.256c-0.367,0.09-0.696,0.176-0.989,0.256
		c0.065,1.01,0.297,1.819,0.696,2.43c0.398,0.61,0.87,1.082,1.416,1.416c0.545,0.334,1.123,0.554,1.732,0.659
		c0.611,0.106,1.16,0.159,1.648,0.159c0.26,0,0.578-0.017,0.952-0.049c0.374-0.033,0.732-0.074,1.074-0.123s0.643-0.089,0.903-0.121
		l0.366-0.049L255.835,66.184z M251.221,55.002c-0.146,0-0.436,0.078-0.867,0.232s-0.879,0.432-1.342,0.83
		c-0.465,0.398-0.896,0.952-1.295,1.66s-0.646,1.615-0.744,2.723c0.276-0.065,0.59-0.139,0.939-0.221
		c0.35-0.08,0.7-0.158,1.051-0.231c0.35-0.073,0.684-0.134,1-0.183c0.318-0.049,0.574-0.074,0.77-0.074
		c0.228,0,0.517-0.053,0.867-0.158c0.35-0.105,0.695-0.215,1.037-0.33c0.276-0.098,0.537-0.183,0.781-0.256s0.48-0.143,0.708-0.207
		c-0.065-0.651-0.204-1.213-0.415-1.686c-0.212-0.471-0.456-0.861-0.732-1.172c-0.277-0.309-0.57-0.541-0.879-0.695
		C251.79,55.08,251.497,55.002,251.221,55.002z"/>
	<path fill="#243770" d="M70.078,89.596c0-2.564,0.838-4.711,2.514-6.438s3.859-2.59,6.551-2.59c2.717,0,4.93,0.863,6.64,2.59
		s2.564,3.89,2.564,6.488c0,2.648-0.87,4.834-2.609,6.557s-3.95,2.584-6.633,2.584c-1.709,0-3.282-0.408-4.716-1.226
		s-2.512-1.955-3.231-3.415S70.078,91.17,70.078,89.596z M72.985,89.607c0,1.938,0.567,3.563,1.701,4.875
		c1.134,1.312,2.624,1.969,4.469,1.969c1.828,0,3.331-0.672,4.507-2.013s1.765-2.943,1.765-4.806c0-1.879-0.599-3.467-1.796-4.767
		s-2.702-1.948-4.513-1.948c-1.803,0-3.275,0.639-4.418,1.916C73.556,86.112,72.985,87.703,72.985,89.607z"/>
	<path fill="#243770" d="M94.821,83.057v8.836c0,1.371,0.07,2.319,0.209,2.844c0.14,0.525,0.489,0.972,1.047,1.34
		s1.278,0.553,2.158,0.553c1.049,0,1.854-0.159,2.412-0.477s0.929-0.744,1.111-1.282s0.273-1.487,0.273-2.851v-8.963h-2.044v-2.209
		h6.906v2.209h-2.209v9.23c0,1.244-0.053,2.146-0.159,2.71s-0.392,1.151-0.857,1.765s-1.122,1.104-1.968,1.473
		s-1.875,0.553-3.085,0.553c-1.337,0-2.45-0.172-3.339-0.515s-1.557-0.802-2.006-1.378c-0.449-0.575-0.747-1.188-0.895-1.84
		c-0.148-0.652-0.222-1.664-0.222-3.035v-8.963h-2.184v-2.209h6.944v2.209H94.821z"/>
	<path fill="#243770" d="M109.979,96.299V83.057h-2.425v-2.209h7.173c1.498,0,2.687,0.117,3.567,0.35s1.608,0.724,2.184,1.473
		s0.863,1.682,0.863,2.799c0,2.336-1.213,3.805-3.64,4.404l3.12,6.426h2.158v2.209h-3.825l-4.021-8.252h-2.488v6.043h2.26v2.209
		h-7.351v-2.209H109.979z M112.645,88.047h2.082c1.007,0,1.75-0.066,2.228-0.197s0.87-0.398,1.174-0.8s0.457-0.941,0.457-1.618
		c0-0.576-0.154-1.062-0.463-1.461c-0.309-0.397-0.69-0.648-1.143-0.755s-1.145-0.159-2.076-0.159h-2.26V88.047z"/>
	<path fill="#243770" d="M132.17,96.299V83.057h-2.222v-2.209h6.31c1.854,0,3.242,0.132,4.164,0.395
		c0.922,0.262,1.695,0.856,2.317,1.783s0.933,2.021,0.933,3.281c0,1.008-0.205,1.911-0.616,2.711s-0.918,1.391-1.523,1.771
		s-1.287,0.637-2.044,0.768s-1.902,0.197-3.434,0.197h-1.219v4.545h2.285v2.209h-7.173v-2.209H132.17z M134.836,89.621h1.523
		c1.735,0,2.937-0.248,3.605-0.743s1.003-1.369,1.003-2.622c0-0.795-0.178-1.455-0.533-1.98c-0.355-0.524-0.795-0.858-1.32-1.002
		c-0.525-0.145-1.401-0.217-2.628-0.217h-1.65V89.621z"/>
	<path fill="#243770" d="M146.986,96.299V83.057h-2.285v-2.209h7.223v2.209h-2.17v13.242h5.409v-6.006h2.488v8.215h-12.95v-2.209
		H146.986z"/>
	<path fill="#243770" d="M170.199,92.299h-6.361l-1.352,4h2.146v2.209h-6.957v-2.209h2.137l4.82-13.457H162.5v-1.994h9.025v1.994
		h-2.207l4.941,13.457h1.977v2.209h-6.92v-2.209h2.197L170.199,92.299z M169.534,90.23l-2.351-7.389h-0.24l-2.447,7.389H169.534z"/>
	<path fill="#243770" d="M178.686,96.299V83.057h-2.525v-2.209h6.027l7.746,13.727V83.057h-2.5v-2.209h7.248v2.209h-2.602v15.629
		h-2.736l-8.475-15.072v12.686h2.527v2.209h-7.236v-2.209H178.686z"/>
	<path fill="#243770" d="M197.729,96.299V83.057h-2.285v-2.209h14.676v5.32h-2.184v-3.111h-7.541v5.256h6.564v2.209h-6.564v5.777
		h7.541v-3.213h2.184v5.422h-14.676v-2.209H197.729z"/>
	<path fill="#243770" d="M217.115,96.299V83.057h-3.645v4.508h-2.184v-6.717h14.309v6.717h-2.184v-4.508h-3.631v13.242h2.297v2.209
		h-7.223v-2.209H217.115z"/>
	<path fill="#243770" d="M226.039,98.508v-3.123h3.123v3.123H226.039z"/>
	<path fill="#243770" d="M233.631,98.508v-3.123h3.123v3.123H233.631z"/>
	<path fill="#243770" d="M241.223,98.508v-3.123h3.123v3.123H241.223z"/>
</g>
</svg>
