<?xml version="1.0" encoding="utf-8"?>
<!-- Generator: Adobe Illustrator 16.0.0, SVG Export Plug-In . SVG Version: 6.00 Build 0)  -->
<!DOCTYPE svg PUBLIC "-//W3C//DTD SVG 1.1//EN" "http://www.w3.org/Graphics/SVG/1.1/DTD/svg11.dtd">
<svg version="1.1" id="Layer_1" xmlns="http://www.w3.org/2000/svg" xmlns:xlink="http://www.w3.org/1999/xlink" x="0px" y="0px"
	 width="300px" height="250px" viewBox="0 0 300 250" enable-background="new 0 0 300 250" xml:space="preserve">
<g>
	<path fill="#4B4A9A" stroke="#936037" stroke-width="0.1" stroke-miterlimit="10" d="M78.854,139.114v-13.241h-2.285v-2.209h14.676
		v5.319h-2.184v-3.11h-7.541v5.256h6.563v2.209h-6.563v5.776h7.541v-3.212h2.184v5.421H76.569v-2.209H78.854z"/>
	<path fill="#4B4A9A" stroke="#936037" stroke-width="0.1" stroke-miterlimit="10" d="M100.176,141.501l-5.934-15.628h-2.185v-2.209
		h6.97v2.209h-2.041l4.498,11.857l4.377-11.857h-2.061v-2.209h6.779v2.209h-2.145l-5.811,15.628H100.176z"/>
	<path fill="#4B4A9A" stroke="#936037" stroke-width="0.1" stroke-miterlimit="10" d="M113.513,139.114v-13.241h-2.285v-2.209
		h14.676v5.319h-2.184v-3.11h-7.541v5.256h6.563v2.209h-6.563v5.776h7.541v-3.212h2.184v5.421h-14.676v-2.209H113.513z"/>
	<path fill="#4B4A9A" stroke="#936037" stroke-width="0.1" stroke-miterlimit="10" d="M129.521,139.114v-13.241h-2.425v-2.209h7.173
		c1.498,0,2.688,0.116,3.567,0.349s1.608,0.724,2.184,1.473c0.575,0.749,0.863,1.682,0.863,2.799c0,2.336-1.214,3.804-3.64,4.404
		l3.119,6.425h2.158v2.209h-3.824l-4.021-8.252h-2.488v6.043h2.26v2.209h-7.351v-2.209H129.521z M132.188,130.862h2.082
		c1.008,0,1.75-0.065,2.229-0.196c0.478-0.132,0.869-0.398,1.174-0.801c0.305-0.401,0.457-0.941,0.457-1.618
		c0-0.575-0.154-1.062-0.463-1.46c-0.31-0.398-0.69-0.649-1.143-0.756c-0.453-0.105-1.145-0.158-2.076-0.158h-2.26V130.862z"/>
	<path fill="#4B4A9A" stroke="#936037" stroke-width="0.1" stroke-miterlimit="10" d="M149.098,139.114v-5.827l-5.256-7.414h-2.158
		v-2.209h7.262v2.209h-2.225l3.9,5.459l3.562-5.459h-2.217v-2.209H159v2.209h-2.336l-4.9,7.414v5.827h2.412v2.209h-7.452v-2.209
		H149.098z"/>
	<path fill="#4B4A9A" stroke="#936037" stroke-width="0.1" stroke-miterlimit="10" d="M172.682,139.114v-13.241h-2.172v-2.209h5.879
		c1.616,0,2.828,0.097,3.637,0.292s1.521,0.688,2.139,1.479c0.618,0.792,0.928,1.72,0.928,2.787c0,0.821-0.185,1.562-0.553,2.222
		s-0.908,1.16-1.619,1.498c0.982,0.338,1.738,0.899,2.267,1.682c0.528,0.783,0.794,1.678,0.794,2.686
		c0,0.871-0.197,1.663-0.591,2.374s-0.916,1.261-1.567,1.65c-0.652,0.39-1.365,0.651-2.14,0.787s-1.83,0.203-3.167,0.203h-6.006
		v-2.209H172.682z M175.348,131.015h1.662c1.27,0,2.156-0.222,2.66-0.667c0.504-0.443,0.756-1.098,0.756-1.961
		c0-1.676-1.139-2.514-3.416-2.514h-1.662V131.015z M175.348,139.114h1.002c1.312,0,2.273-0.065,2.883-0.196
		c0.609-0.132,1.105-0.44,1.491-0.928c0.386-0.486,0.577-1.11,0.577-1.872c0-0.694-0.184-1.276-0.552-1.745
		c-0.368-0.471-0.843-0.783-1.422-0.939c-0.579-0.157-1.398-0.235-2.456-0.235h-1.523V139.114z"/>
	<path fill="#4B4A9A" stroke="#936037" stroke-width="0.1" stroke-miterlimit="10" d="M197.406,135.115h-6.362l-1.351,3.999h2.145
		v2.209h-6.957v-2.209h2.137l4.822-13.457h-2.135v-1.993h9.027v1.993h-2.208l4.942,13.457h1.975v2.209h-6.918v-2.209h2.195
		L197.406,135.115z M196.74,133.046l-2.35-7.389h-0.242l-2.445,7.389H196.74z"/>
	<path fill="#4B4A9A" stroke="#936037" stroke-width="0.1" stroke-miterlimit="10" d="M215.643,132.805h6.424
		c0.008,0.229,0.012,0.432,0.012,0.609c0,2.48-0.812,4.465-2.438,5.954s-3.77,2.234-6.436,2.234c-3.191,0-5.569-0.907-7.135-2.724
		c-1.566-1.814-2.35-3.963-2.35-6.442c0-2.599,0.801-4.757,2.4-6.475c1.6-1.718,3.77-2.577,6.512-2.577
		c2.463,0,4.528,0.749,6.195,2.247v-1.968h2.248v5.802h-2.248c-0.423-0.974-1.174-1.839-2.253-2.597
		c-1.079-0.757-2.312-1.136-3.7-1.136c-1.93,0-3.453,0.651-4.57,1.955s-1.676,2.874-1.676,4.71c0,2.107,0.637,3.779,1.91,5.015
		s2.808,1.854,4.602,1.854c1.405,0,2.658-0.392,3.758-1.175c1.101-0.782,1.744-1.809,1.93-3.078h-3.186V132.805z"/>
</g>
</svg>
