<?xml version="1.0" encoding="utf-8"?>
<!-- Generator: Adobe Illustrator 16.0.0, SVG Export Plug-In . SVG Version: 6.00 Build 0)  -->
<!DOCTYPE svg PUBLIC "-//W3C//DTD SVG 1.1//EN" "http://www.w3.org/Graphics/SVG/1.1/DTD/svg11.dtd">
<svg version="1.1" id="Layer_1" xmlns="http://www.w3.org/2000/svg" xmlns:xlink="http://www.w3.org/1999/xlink" x="0px" y="0px"
	 width="300px" height="250px" viewBox="0 0 300 250" enable-background="new 0 0 300 250" xml:space="preserve">
<g>
	<path fill="#E3A600" stroke="#925F36" stroke-width="0.1" stroke-miterlimit="10" d="M88.026,184.289c0,0.4-0.16,0.801-0.46,1.181
		c-2.22,2.79-12.21,4.91-24.21,4.91c-11.06,0-20.41-1.8-23.54-4.271c-0.48-0.38-0.811-0.77-0.98-1.18l-0.14-0.641
		c0-3.359,11.04-6.08,24.66-6.08C76.986,178.209,88.026,180.93,88.026,184.289z"/>
	<path fill="#AF8019" stroke="#925F36" stroke-width="0.1" stroke-miterlimit="10" d="M88.696,187.289
		c0,3.361-11.05,6.091-24.67,6.091s-24.67-2.729-24.67-6.091l-0.521-2.359c0.17,0.41,0.5,0.8,0.98,1.18
		c3.13,2.471,12.48,4.271,23.54,4.271c12,0,21.99-2.12,24.21-4.91c0.3-0.38,0.46-0.78,0.46-1.181l0.521,2.351L88.696,187.289z"/>
</g>
</svg>
