<?xml version="1.0" encoding="utf-8"?>
<!-- Generator: Adobe Illustrator 16.0.0, SVG Export Plug-In . SVG Version: 6.00 Build 0)  -->
<!DOCTYPE svg PUBLIC "-//W3C//DTD SVG 1.1//EN" "http://www.w3.org/Graphics/SVG/1.1/DTD/svg11.dtd">
<svg version="1.1" id="Layer_1" xmlns="http://www.w3.org/2000/svg" xmlns:xlink="http://www.w3.org/1999/xlink" x="0px" y="0px"
	 width="300px" height="250px" viewBox="0 0 300 250" enable-background="new 0 0 300 250" xml:space="preserve">
<g>
	<path fill="#FFFFFF" d="M85.908,99.691c-0.152,0-0.297-0.051-0.432-0.152c-0.137-0.102-0.221-0.237-0.254-0.406
		c0-0.034-0.061-0.224-0.178-0.571c-0.119-0.347-0.31-0.719-0.572-1.117c-0.262-0.397-0.621-0.757-1.078-1.079
		c-0.457-0.321-1.025-0.482-1.701-0.482c-0.594,0-1.135,0.246-1.625,0.736c-0.238,0.254-0.428,0.542-0.572,0.863
		c-0.144,0.322-0.215,0.652-0.215,0.99l0.102,3.859c0.49-0.034,1.002-0.067,1.535-0.102c0.533-0.034,1.08-0.067,1.639-0.102
		c0.186,0,0.346,0.068,0.482,0.203c0.135,0.136,0.211,0.305,0.229,0.508c0,0.187-0.068,0.352-0.203,0.495
		c-0.137,0.144-0.297,0.216-0.482,0.216c-0.543,0.034-1.076,0.068-1.6,0.102c-0.525,0.034-1.033,0.068-1.523,0.102
		c0.066,0.931,0.182,1.951,0.342,3.06c0.161,1.109,0.318,2.154,0.471,3.136c0.152,0.982,0.287,1.807,0.406,2.476
		c0.117,0.669,0.178,1.028,0.178,1.079c0,0.39-0.238,0.626-0.711,0.711c-0.391,0-0.627-0.195-0.711-0.584
		c0-0.051-0.03-0.237-0.09-0.559c-0.059-0.321-0.135-0.74-0.229-1.257c-0.093-0.516-0.189-1.1-0.291-1.752
		c-0.102-0.651-0.203-1.333-0.305-2.044s-0.195-1.422-0.279-2.133c-0.086-0.711-0.152-1.379-0.203-2.006
		c-0.729,0.068-1.32,0.127-1.777,0.178s-0.721,0.085-0.787,0.102c-0.17,0-0.322-0.059-0.457-0.178
		c-0.137-0.118-0.221-0.296-0.254-0.533c0-0.186,0.059-0.343,0.178-0.47c0.117-0.127,0.27-0.207,0.457-0.241
		c0.016,0,0.258-0.025,0.723-0.076c0.466-0.051,1.08-0.118,1.842-0.203v-0.33l-0.102-3.707c0-0.491,0.105-0.981,0.316-1.473
		c0.212-0.491,0.504-0.931,0.877-1.32c0.371-0.372,0.782-0.66,1.23-0.863c0.449-0.203,0.918-0.305,1.41-0.305
		c0.777,0,1.455,0.157,2.031,0.47c0.574,0.313,1.062,0.698,1.459,1.155c0.398,0.457,0.715,0.948,0.953,1.473
		c0.236,0.525,0.396,0.999,0.482,1.422c0,0.373-0.178,0.601-0.533,0.686L85.908,99.691z"/>
	<path fill="#FFFFFF" d="M93.018,99.234c0.355,0,0.766,0.174,1.23,0.521c0.466,0.347,0.906,0.838,1.32,1.473
		c0.415,0.635,0.771,1.401,1.066,2.298c0.297,0.897,0.445,1.904,0.445,3.021c0,1.134-0.195,2.184-0.584,3.148
		c-0.391,0.965-0.877,1.803-1.461,2.514s-1.219,1.266-1.904,1.663s-1.316,0.597-1.891,0.597c-0.66,0-1.312-0.127-1.955-0.381
		c-0.645-0.254-1.219-0.622-1.727-1.104s-0.924-1.079-1.244-1.79c-0.322-0.711-0.482-1.532-0.482-2.463
		c0-0.592,0.076-1.244,0.229-1.955s0.359-1.426,0.621-2.146c0.263-0.719,0.576-1.413,0.939-2.082
		c0.364-0.668,0.758-1.265,1.182-1.79c0.422-0.524,0.871-0.943,1.346-1.257c0.473-0.313,0.955-0.47,1.447-0.47
		c0.186,0,0.351,0.021,0.494,0.063c0.145,0.042,0.275,0.098,0.395,0.165c0.084,0,0.168-0.004,0.254-0.013
		C92.822,99.238,92.916,99.234,93.018,99.234z M91.24,113.046c0.32,0,0.731-0.156,1.23-0.47c0.5-0.313,0.986-0.753,1.461-1.32
		c0.473-0.567,0.879-1.248,1.219-2.044c0.338-0.795,0.508-1.684,0.508-2.666c0-0.948-0.115-1.781-0.344-2.501
		c-0.229-0.719-0.49-1.329-0.787-1.828c-0.296-0.499-0.592-0.876-0.889-1.13c-0.296-0.254-0.512-0.397-0.646-0.432
		c-0.289,0-0.547,0.021-0.775,0.063c-0.229,0.042-0.385,0.072-0.469,0.089c-0.203,0-0.391-0.084-0.559-0.254
		c-0.424,0.169-0.863,0.55-1.32,1.143c-0.457,0.593-0.881,1.282-1.27,2.069c-0.391,0.787-0.711,1.625-0.965,2.514
		s-0.381,1.706-0.381,2.45c0,0.779,0.135,1.443,0.406,1.993c0.27,0.55,0.609,0.995,1.016,1.333c0.406,0.339,0.838,0.588,1.295,0.749
		C90.428,112.966,90.85,113.046,91.24,113.046z"/>
	<path fill="#FFFFFF" d="M106.729,99.437c0.371,0,0.686,0.03,0.939,0.089c0.254,0.06,0.461,0.127,0.621,0.203
		c0.161,0.076,0.288,0.157,0.381,0.241c0.094,0.085,0.156,0.152,0.191,0.203c0.084,0.119,0.127,0.246,0.127,0.381
		c0,0.271-0.102,0.466-0.305,0.584c-0.102,0.085-0.238,0.127-0.406,0.127c-0.203,0-0.381-0.076-0.533-0.229
		c-0.035-0.017-0.123-0.051-0.268-0.102c-0.144-0.051-0.393-0.076-0.748-0.076c-0.203,0-0.568,0.127-1.092,0.381
		c-0.525,0.254-1.059,0.669-1.6,1.244c-0.543,0.576-1.029,1.325-1.461,2.247c-0.432,0.923-0.646,2.053-0.646,3.39
		c0.051,0.22,0.102,0.444,0.152,0.673s0.109,0.461,0.178,0.698c0.186,0.762,0.371,1.558,0.559,2.387
		c0.186,0.83,0.279,1.676,0.279,2.539c0,0.203-0.072,0.372-0.217,0.508c-0.144,0.135-0.309,0.203-0.494,0.203
		c-0.203,0-0.373-0.068-0.508-0.203c-0.137-0.136-0.203-0.305-0.203-0.508c0-0.778-0.086-1.557-0.254-2.336
		c-0.17-0.778-0.348-1.523-0.533-2.234c-0.17-0.626-0.318-1.231-0.445-1.815s-0.189-1.121-0.189-1.612
		c0-0.491-0.035-1.108-0.102-1.854c-0.068-0.745-0.148-1.468-0.242-2.171c-0.093-0.702-0.174-1.312-0.24-1.828
		c-0.068-0.516-0.102-0.791-0.102-0.825c0-0.169,0.059-0.321,0.178-0.457c0.117-0.135,0.295-0.22,0.533-0.254
		c0.168,0,0.316,0.055,0.443,0.165c0.127,0.11,0.207,0.258,0.242,0.444c0,0.034,0.021,0.174,0.062,0.419
		c0.043,0.246,0.09,0.555,0.141,0.927c0.051,0.373,0.105,0.796,0.164,1.27c0.06,0.474,0.115,0.955,0.166,1.441
		c0.338-0.707,0.74-1.327,1.205-1.86c0.466-0.533,0.943-0.978,1.436-1.333c0.49-0.355,0.965-0.622,1.422-0.8
		S106.406,99.437,106.729,99.437z"/>
</g>
</svg>
