<?xml version="1.0" encoding="utf-8"?>
<!-- Generator: Adobe Illustrator 16.0.0, SVG Export Plug-In . SVG Version: 6.00 Build 0)  -->
<!DOCTYPE svg PUBLIC "-//W3C//DTD SVG 1.1//EN" "http://www.w3.org/Graphics/SVG/1.1/DTD/svg11.dtd">
<svg version="1.1" id="Layer_1" xmlns="http://www.w3.org/2000/svg" xmlns:xlink="http://www.w3.org/1999/xlink" x="0px" y="0px"
	 width="300px" height="250px" viewBox="0 0 300 250" enable-background="new 0 0 300 250" xml:space="preserve">
<g>
	<path fill="#FFFFFF" d="M43.71,187.219c0.266,0,0.488,0.09,0.668,0.27s0.27,0.402,0.27,0.668s-0.09,0.484-0.27,0.656
		s-0.402,0.258-0.668,0.258c-0.25,0-0.465-0.086-0.645-0.258s-0.27-0.391-0.27-0.656s0.09-0.488,0.27-0.668
		S43.46,187.219,43.71,187.219z"/>
	<path fill="#FFFFFF" d="M46.757,187.219c0.266,0,0.488,0.09,0.668,0.27s0.27,0.402,0.27,0.668s-0.09,0.484-0.27,0.656
		s-0.402,0.258-0.668,0.258c-0.25,0-0.465-0.086-0.645-0.258s-0.27-0.391-0.27-0.656s0.09-0.488,0.27-0.668
		S46.507,187.219,46.757,187.219z"/>
	<path fill="#FFFFFF" d="M49.804,187.219c0.266,0,0.488,0.09,0.668,0.27s0.27,0.402,0.27,0.668s-0.09,0.484-0.27,0.656
		s-0.402,0.258-0.668,0.258c-0.25,0-0.465-0.086-0.645-0.258s-0.27-0.391-0.27-0.656s0.09-0.488,0.27-0.668
		S49.554,187.219,49.804,187.219z"/>
	<path fill="#FFFFFF" d="M61.944,181.898c0.141,0.969,0.305,1.836,0.492,2.602s0.363,1.414,0.527,1.945s0.305,0.941,0.422,1.23
		s0.176,0.441,0.176,0.457c0.016,0.047,0.027,0.09,0.035,0.129s0.012,0.082,0.012,0.129c0,0.281-0.125,0.484-0.375,0.609
		c-0.125,0.031-0.219,0.047-0.281,0.047c-0.297,0-0.492-0.125-0.586-0.375c-0.031-0.062-0.176-0.434-0.434-1.113
		s-0.527-1.629-0.809-2.848c-0.25,0.609-0.543,1.172-0.879,1.688s-0.695,0.961-1.078,1.336s-0.781,0.668-1.195,0.879
		s-0.824,0.316-1.23,0.316c-1.594,0-2.773-0.547-3.539-1.641s-1.148-2.773-1.148-5.039c0-0.938,0.141-1.77,0.422-2.496
		s0.645-1.363,1.09-1.91s0.945-1.008,1.5-1.383s1.098-0.68,1.629-0.914s1.023-0.402,1.477-0.504s0.812-0.152,1.078-0.152
		c0.469,0,0.875,0.09,1.219,0.27s0.629,0.383,0.855,0.609s0.395,0.438,0.504,0.633s0.164,0.301,0.164,0.316
		c0.047,0.078,0.07,0.164,0.07,0.258c0,0.156-0.07,0.32-0.211,0.492c0.141,0.734,0.211,1.703,0.211,2.906
		c0,0.25-0.012,0.5-0.035,0.75S61.976,181.633,61.944,181.898z M56.741,187.617c0.328,0,0.688-0.152,1.078-0.457
		s0.77-0.715,1.137-1.23s0.699-1.121,0.996-1.816s0.516-1.434,0.656-2.215c-0.109-0.75-0.195-1.539-0.258-2.367
		s-0.102-1.711-0.117-2.648c-0.172-0.141-0.258-0.312-0.258-0.516c-0.109-0.047-0.223-0.086-0.34-0.117s-0.246-0.047-0.387-0.047
		c-0.203,0-0.492,0.043-0.867,0.129s-0.781,0.227-1.219,0.422s-0.879,0.449-1.324,0.762s-0.852,0.695-1.219,1.148
		s-0.668,0.977-0.902,1.57s-0.352,1.266-0.352,2.016c0,1.188,0.098,2.133,0.293,2.836s0.453,1.242,0.773,1.617
		s0.68,0.621,1.078,0.738S56.319,187.617,56.741,187.617z"/>
	<path fill="#FFFFFF" d="M77.038,185.695c0,0.219,0.027,0.445,0.082,0.68s0.121,0.457,0.199,0.668s0.156,0.402,0.234,0.574
		s0.141,0.305,0.188,0.398s0.07,0.203,0.07,0.328c0,0.25-0.109,0.438-0.328,0.562c-0.062,0.031-0.117,0.055-0.164,0.07
		S77.218,189,77.155,189c-0.25,0-0.438-0.117-0.562-0.352c-0.016-0.016-0.07-0.113-0.164-0.293s-0.191-0.41-0.293-0.691
		s-0.195-0.594-0.281-0.938s-0.129-0.688-0.129-1.031c0-0.078-0.004-0.168-0.012-0.27s-0.02-0.215-0.035-0.34
		c-0.016-0.219-0.031-0.457-0.047-0.715s-0.023-0.566-0.023-0.926c0-0.234-0.016-0.48-0.047-0.738s-0.062-0.543-0.094-0.855
		c-0.047-0.391-0.09-0.809-0.129-1.254s-0.059-0.918-0.059-1.418c0-0.312-0.066-0.652-0.199-1.02s-0.324-0.707-0.574-1.02
		s-0.559-0.57-0.926-0.773s-0.793-0.305-1.277-0.305c-0.609,0-1.152,0.113-1.629,0.34s-0.887,0.512-1.23,0.855
		s-0.637,0.715-0.879,1.113s-0.434,0.773-0.574,1.125s-0.246,0.652-0.316,0.902s-0.105,0.391-0.105,0.422
		c-0.047,0.141-0.109,0.25-0.188,0.328v0.422c0,0.375,0.055,0.805,0.164,1.289s0.234,1,0.375,1.547
		c0.172,0.703,0.34,1.438,0.504,2.203s0.246,1.547,0.246,2.344c0,0.188-0.062,0.344-0.188,0.469s-0.281,0.188-0.469,0.188
		c-0.172,0-0.324-0.062-0.457-0.188s-0.199-0.281-0.199-0.469c0-0.719-0.074-1.438-0.223-2.156s-0.309-1.406-0.48-2.062
		c-0.156-0.578-0.293-1.137-0.41-1.676s-0.176-1.035-0.176-1.488s-0.031-1.023-0.094-1.711s-0.137-1.355-0.223-2.004
		s-0.164-1.211-0.234-1.688s-0.105-0.73-0.105-0.762c0-0.156,0.055-0.297,0.164-0.422s0.273-0.203,0.492-0.234
		c0.172,0,0.316,0.051,0.434,0.152s0.191,0.238,0.223,0.41c0,0.031,0.016,0.129,0.047,0.293s0.062,0.383,0.094,0.656
		s0.07,0.582,0.117,0.926s0.094,0.703,0.141,1.078c0.234-0.438,0.512-0.867,0.832-1.289s0.695-0.797,1.125-1.125
		s0.91-0.594,1.441-0.797s1.125-0.305,1.781-0.305c0.641,0,1.223,0.129,1.746,0.387s0.973,0.598,1.348,1.02s0.668,0.898,0.879,1.43
		s0.316,1.062,0.316,1.594c0,0.469,0.02,0.914,0.059,1.336s0.082,0.812,0.129,1.172c0.031,0.312,0.062,0.617,0.094,0.914
		s0.047,0.578,0.047,0.844c0,0.625,0.023,1.125,0.07,1.5c0.016,0.141,0.027,0.27,0.035,0.387S77.038,185.57,77.038,185.695z"/>
	<path fill="#FFFFFF" d="M88.827,177.938c0,0.5,0.027,1.102,0.082,1.805s0.129,1.438,0.223,2.203s0.191,1.527,0.293,2.285
		s0.195,1.445,0.281,2.062s0.16,1.121,0.223,1.512s0.094,0.602,0.094,0.633c0,0.156-0.055,0.297-0.164,0.422
		s-0.273,0.203-0.492,0.234c-0.156,0-0.297-0.051-0.422-0.152s-0.203-0.238-0.234-0.41c0-0.031-0.02-0.18-0.059-0.445
		s-0.09-0.617-0.152-1.055c-0.641,0.656-1.328,1.133-2.062,1.43s-1.43,0.445-2.086,0.445c-0.531,0-0.961-0.086-1.289-0.258
		c-0.469-0.219-0.918-0.512-1.348-0.879s-0.809-0.789-1.137-1.266s-0.59-1.004-0.785-1.582s-0.293-1.188-0.293-1.828
		c0-0.516,0.07-1.055,0.211-1.617c0.156-0.594,0.41-1.203,0.762-1.828s0.754-1.211,1.207-1.758s0.945-1.043,1.477-1.488
		s1.062-0.793,1.594-1.043c0.562-0.266,1.078-0.398,1.547-0.398c0.188,0,0.367,0.02,0.539,0.059s0.367,0.113,0.586,0.223
		c-0.031-0.578-0.066-1.141-0.105-1.688s-0.078-1.035-0.117-1.465s-0.07-0.777-0.094-1.043s-0.035-0.414-0.035-0.445
		c0-0.172,0.059-0.316,0.176-0.434s0.277-0.191,0.48-0.223c0.172,0,0.316,0.059,0.434,0.176s0.191,0.262,0.223,0.434
		c0,0.047,0.023,0.312,0.07,0.797s0.098,1.086,0.152,1.805s0.105,1.504,0.152,2.355S88.827,177.172,88.827,177.938z M87.913,185.742
		c0.078-0.109,0.195-0.188,0.352-0.234c-0.094-0.609-0.184-1.262-0.27-1.957s-0.164-1.383-0.234-2.062s-0.129-1.328-0.176-1.945
		s-0.07-1.152-0.07-1.605c0-0.109,0-0.219,0-0.328s-0.008-0.227-0.023-0.352c-0.25-0.078-0.398-0.258-0.445-0.539
		c0-0.031-0.02-0.082-0.059-0.152s-0.121-0.137-0.246-0.199s-0.273-0.094-0.445-0.094s-0.344,0.027-0.516,0.082
		s-0.328,0.113-0.469,0.176c-0.438,0.203-0.883,0.5-1.336,0.891s-0.879,0.828-1.277,1.312s-0.75,0.996-1.055,1.535
		s-0.527,1.059-0.668,1.559c-0.109,0.422-0.164,0.852-0.164,1.289c0,0.547,0.09,1.055,0.27,1.523s0.406,0.891,0.68,1.266
		s0.574,0.691,0.902,0.949s0.641,0.457,0.938,0.598c0.188,0.094,0.43,0.141,0.727,0.141c0.516,0,1.105-0.145,1.77-0.434
		S87.366,186.398,87.913,185.742z"/>
	<path fill="#FFFFFF" d="M112.007,185.695c0,0.219,0.027,0.445,0.082,0.68s0.121,0.457,0.199,0.668s0.156,0.402,0.234,0.574
		s0.141,0.305,0.188,0.398s0.07,0.203,0.07,0.328c0,0.25-0.109,0.438-0.328,0.562c-0.062,0.031-0.117,0.055-0.164,0.07
		S112.187,189,112.124,189c-0.25,0-0.438-0.117-0.562-0.352c-0.016-0.016-0.07-0.113-0.164-0.293s-0.191-0.41-0.293-0.691
		s-0.195-0.594-0.281-0.938s-0.129-0.688-0.129-1.031c0-0.078-0.004-0.168-0.012-0.27s-0.02-0.215-0.035-0.34
		c-0.016-0.219-0.031-0.457-0.047-0.715s-0.023-0.566-0.023-0.926c0-0.234-0.016-0.48-0.047-0.738s-0.062-0.543-0.094-0.855
		c-0.047-0.391-0.09-0.809-0.129-1.254s-0.059-0.918-0.059-1.418c0-0.312-0.066-0.652-0.199-1.02s-0.324-0.707-0.574-1.02
		s-0.559-0.57-0.926-0.773s-0.793-0.305-1.277-0.305c-0.609,0-1.152,0.113-1.629,0.34s-0.887,0.512-1.23,0.855
		s-0.637,0.715-0.879,1.113s-0.434,0.773-0.574,1.125s-0.246,0.652-0.316,0.902s-0.105,0.391-0.105,0.422
		c-0.047,0.141-0.109,0.25-0.188,0.328v0.422c0,0.375,0.055,0.805,0.164,1.289s0.234,1,0.375,1.547
		c0.172,0.703,0.34,1.438,0.504,2.203s0.246,1.547,0.246,2.344c0,0.188-0.062,0.344-0.188,0.469s-0.281,0.188-0.469,0.188
		c-0.172,0-0.324-0.062-0.457-0.188s-0.199-0.281-0.199-0.469c0-0.719-0.074-1.438-0.223-2.156s-0.309-1.406-0.48-2.062
		c-0.156-0.578-0.293-1.137-0.41-1.676s-0.176-1.035-0.176-1.488s-0.031-1.023-0.094-1.711s-0.137-1.355-0.223-2.004
		s-0.164-1.211-0.234-1.688s-0.105-0.73-0.105-0.762c0-0.156,0.055-0.297,0.164-0.422s0.273-0.203,0.492-0.234
		c0.172,0,0.316,0.051,0.434,0.152s0.191,0.238,0.223,0.41c0,0.031,0.016,0.129,0.047,0.293s0.062,0.383,0.094,0.656
		s0.07,0.582,0.117,0.926s0.094,0.703,0.141,1.078c0.234-0.438,0.512-0.867,0.832-1.289s0.695-0.797,1.125-1.125
		s0.91-0.594,1.441-0.797s1.125-0.305,1.781-0.305c0.641,0,1.223,0.129,1.746,0.387s0.973,0.598,1.348,1.02s0.668,0.898,0.879,1.43
		s0.316,1.062,0.316,1.594c0,0.469,0.02,0.914,0.059,1.336s0.082,0.812,0.129,1.172c0.031,0.312,0.062,0.617,0.094,0.914
		s0.047,0.578,0.047,0.844c0,0.625,0.023,1.125,0.07,1.5c0.016,0.141,0.027,0.27,0.035,0.387S112.007,185.57,112.007,185.695z"/>
	<path fill="#FFFFFF" d="M121.101,174.938c0.328,0,0.707,0.16,1.137,0.48s0.836,0.773,1.219,1.359s0.711,1.293,0.984,2.121
		s0.41,1.758,0.41,2.789c0,1.047-0.18,2.016-0.539,2.906s-0.809,1.664-1.348,2.32s-1.125,1.168-1.758,1.535S119.991,189,119.46,189
		c-0.609,0-1.211-0.117-1.805-0.352s-1.125-0.574-1.594-1.02s-0.852-0.996-1.148-1.652s-0.445-1.414-0.445-2.273
		c0-0.547,0.07-1.148,0.211-1.805s0.332-1.316,0.574-1.98s0.531-1.305,0.867-1.922s0.699-1.168,1.09-1.652s0.805-0.871,1.242-1.16
		s0.883-0.434,1.336-0.434c0.172,0,0.324,0.02,0.457,0.059s0.254,0.09,0.363,0.152c0.078,0,0.156-0.004,0.234-0.012
		S121.007,174.938,121.101,174.938z M119.46,187.688c0.297,0,0.676-0.145,1.137-0.434s0.91-0.695,1.348-1.219
		s0.812-1.152,1.125-1.887s0.469-1.555,0.469-2.461c0-0.875-0.105-1.645-0.316-2.309s-0.453-1.227-0.727-1.688
		s-0.547-0.809-0.82-1.043s-0.473-0.367-0.598-0.398c-0.266,0-0.504,0.02-0.715,0.059s-0.355,0.066-0.434,0.082
		c-0.188,0-0.359-0.078-0.516-0.234c-0.391,0.156-0.797,0.508-1.219,1.055s-0.812,1.184-1.172,1.91s-0.656,1.5-0.891,2.32
		s-0.352,1.574-0.352,2.262c0,0.719,0.125,1.332,0.375,1.84s0.562,0.918,0.938,1.23s0.773,0.543,1.195,0.691
		S119.101,187.688,119.46,187.688z"/>
	<path fill="#FFFFFF" d="M143.858,175.617c0.328,0.109,0.484,0.383,0.469,0.82c-0.016,0.031-0.078,0.262-0.188,0.691
		s-0.254,0.949-0.434,1.559s-0.375,1.254-0.586,1.934s-0.418,1.285-0.621,1.816c-0.203,0.516-0.414,1.125-0.633,1.828
		s-0.422,1.375-0.609,2.016s-0.348,1.184-0.48,1.629s-0.199,0.676-0.199,0.691c-0.078,0.328-0.344,0.484-0.797,0.469
		c-0.328-0.109-0.484-0.383-0.469-0.82l0.117-0.352c-0.031-0.047-0.188-0.281-0.469-0.703s-0.621-1.016-1.02-1.781
		s-0.77-1.562-1.113-2.391c-0.578-1.391-1.07-2.789-1.477-4.195c-0.172,0.594-0.359,1.215-0.562,1.863s-0.406,1.23-0.609,1.746
		c-0.188,0.516-0.395,1.125-0.621,1.828s-0.434,1.375-0.621,2.016s-0.344,1.184-0.469,1.629s-0.188,0.676-0.188,0.691
		c-0.109,0.328-0.383,0.484-0.82,0.469c-0.312-0.109-0.461-0.383-0.445-0.82l0.094-0.352c-0.031-0.047-0.219-0.34-0.562-0.879
		s-0.758-1.301-1.242-2.285s-0.984-2.188-1.5-3.609c-0.531-1.422-0.992-3.047-1.383-4.875c0-0.344,0.219-0.562,0.656-0.656
		c0.344,0,0.555,0.172,0.633,0.516c0.281,1.266,0.688,2.695,1.219,4.289c0.172,0.531,0.438,1.219,0.797,2.062
		c0.344,0.859,0.68,1.602,1.008,2.227s0.609,1.133,0.844,1.523c0.203-0.672,0.43-1.398,0.68-2.18s0.484-1.469,0.703-2.062
		c0.203-0.516,0.41-1.109,0.621-1.781s0.402-1.316,0.574-1.934s0.32-1.145,0.445-1.582s0.195-0.68,0.211-0.727l0.164-0.211
		l0.234-0.117h0.234c0.031,0,0.059,0.004,0.082,0.012s0.082,0.027,0.176,0.059c0.016,0.016,0.031,0.027,0.047,0.035
		s0.062,0.051,0.141,0.129l0.141,0.258c0.266,1.25,0.574,2.406,0.926,3.469s0.707,2.023,1.066,2.883s0.703,1.602,1.031,2.227
		s0.609,1.133,0.844,1.523c0.203-0.672,0.43-1.398,0.68-2.18s0.484-1.469,0.703-2.062c0.188-0.516,0.387-1.109,0.598-1.781
		s0.402-1.309,0.574-1.91s0.316-1.113,0.434-1.535s0.176-0.641,0.176-0.656c0.031-0.141,0.113-0.258,0.246-0.352
		S143.624,175.602,143.858,175.617z"/>
	<path fill="#E84E1B" d="M160.076,186.299v-5.826l-5.256-7.414h-2.158v-2.209h7.262v2.209h-2.225l3.9,5.459l3.562-5.459h-2.217
		v-2.209h7.033v2.209h-2.336l-4.9,7.414v5.826h2.412v2.209h-7.452v-2.209H160.076z"/>
	<path fill="#E84E1B" d="M169.064,179.596c0-2.564,0.838-4.709,2.514-6.436s3.859-2.59,6.551-2.59c2.717,0,4.93,0.863,6.64,2.59
		s2.564,3.889,2.564,6.486c0,2.649-0.87,4.836-2.608,6.558c-1.74,1.722-3.951,2.583-6.634,2.583c-1.71,0-3.282-0.408-4.716-1.225
		c-1.436-0.816-2.512-1.955-3.231-3.415S169.064,181.17,169.064,179.596z M171.972,179.609c0,1.938,0.567,3.562,1.701,4.875
		c1.134,1.312,2.624,1.967,4.469,1.967c1.828,0,3.331-0.67,4.507-2.012s1.765-2.943,1.765-4.805c0-1.879-0.599-3.469-1.796-4.768
		c-1.198-1.299-2.703-1.949-4.514-1.949c-1.803,0-3.275,0.64-4.418,1.918C172.543,176.113,171.972,177.705,171.972,179.609z"/>
	<path fill="#E84E1B" d="M193.808,173.059v8.836c0,1.371,0.069,2.318,0.21,2.844c0.139,0.524,0.488,0.971,1.047,1.339
		s1.277,0.552,2.158,0.552c1.049,0,1.854-0.158,2.412-0.476s0.929-0.745,1.111-1.282c0.182-0.537,0.272-1.487,0.272-2.85v-8.963
		h-2.044v-2.209h6.906v2.209h-2.209v9.229c0,1.244-0.053,2.148-0.158,2.711c-0.106,0.562-0.393,1.15-0.857,1.765
		s-1.121,1.104-1.968,1.473s-1.874,0.552-3.085,0.552c-1.338,0-2.45-0.171-3.339-0.514s-1.558-0.802-2.006-1.377
		c-0.448-0.576-0.747-1.189-0.896-1.842c-0.147-0.651-0.222-1.662-0.222-3.033v-8.963h-2.184v-2.209h6.944v2.209H193.808z"/>
	<path fill="#FFFFFF" d="M221.844,187.195c0.109-0.062,0.234-0.094,0.375-0.094c0.234,0,0.414,0.094,0.539,0.281
		c0.078,0.125,0.117,0.25,0.117,0.375c0,0.203-0.102,0.383-0.305,0.539l-0.164,0.117c-0.125,0.078-0.289,0.156-0.492,0.234
		s-0.434,0.152-0.691,0.223s-0.535,0.105-0.832,0.105c-0.375,0-0.828-0.113-1.359-0.34s-1.051-0.609-1.559-1.148
		s-0.957-1.25-1.348-2.133s-0.633-1.973-0.727-3.27c-0.016-0.094-0.023-0.184-0.023-0.27s0-0.176,0-0.27
		c0-1.016,0.184-1.93,0.551-2.742s0.809-1.504,1.324-2.074s1.051-1.016,1.605-1.336s1.027-0.496,1.418-0.527
		c0.078-0.016,0.16-0.023,0.246-0.023s0.168,0,0.246,0c0.453,0,0.848,0.043,1.184,0.129s0.566,0.16,0.691,0.223
		c0.172,0.031,0.352,0.152,0.539,0.363s0.281,0.613,0.281,1.207c0,0.188-0.066,0.344-0.199,0.469s-0.285,0.188-0.457,0.188
		c-0.188,0-0.344-0.062-0.469-0.188s-0.188-0.281-0.188-0.469c0-0.125-0.016-0.25-0.047-0.375c-0.094-0.031-0.258-0.078-0.492-0.141
		s-0.516-0.094-0.844-0.094c-0.062,0-0.121,0-0.176,0s-0.121,0.008-0.199,0.023c-0.25,0.031-0.582,0.172-0.996,0.422
		s-0.82,0.605-1.219,1.066s-0.746,1.02-1.043,1.676s-0.445,1.398-0.445,2.227c0,0.078,0,0.148,0,0.211s0.008,0.133,0.023,0.211
		c0.062,1.062,0.242,1.953,0.539,2.672s0.637,1.301,1.02,1.746s0.766,0.766,1.148,0.961s0.707,0.293,0.973,0.293
		c0.188,0,0.367-0.023,0.539-0.07s0.328-0.098,0.469-0.152s0.25-0.113,0.328-0.176L221.844,187.195z"/>
	<path fill="#FFFFFF" d="M235.016,181.898c0.141,0.969,0.305,1.836,0.492,2.602s0.363,1.414,0.527,1.945s0.305,0.941,0.422,1.23
		s0.176,0.441,0.176,0.457c0.016,0.047,0.027,0.09,0.035,0.129s0.012,0.082,0.012,0.129c0,0.281-0.125,0.484-0.375,0.609
		c-0.125,0.031-0.219,0.047-0.281,0.047c-0.297,0-0.492-0.125-0.586-0.375c-0.031-0.062-0.176-0.434-0.434-1.113
		s-0.527-1.629-0.809-2.848c-0.25,0.609-0.543,1.172-0.879,1.688s-0.695,0.961-1.078,1.336s-0.781,0.668-1.195,0.879
		s-0.824,0.316-1.23,0.316c-1.594,0-2.773-0.547-3.539-1.641s-1.148-2.773-1.148-5.039c0-0.938,0.141-1.77,0.422-2.496
		s0.645-1.363,1.09-1.91s0.945-1.008,1.5-1.383s1.098-0.68,1.629-0.914s1.023-0.402,1.477-0.504s0.812-0.152,1.078-0.152
		c0.469,0,0.875,0.09,1.219,0.27s0.629,0.383,0.855,0.609s0.395,0.438,0.504,0.633s0.164,0.301,0.164,0.316
		c0.047,0.078,0.07,0.164,0.07,0.258c0,0.156-0.07,0.32-0.211,0.492c0.141,0.734,0.211,1.703,0.211,2.906
		c0,0.25-0.012,0.5-0.035,0.75S235.047,181.633,235.016,181.898z M229.812,187.617c0.328,0,0.688-0.152,1.078-0.457
		s0.77-0.715,1.137-1.23s0.699-1.121,0.996-1.816s0.516-1.434,0.656-2.215c-0.109-0.75-0.195-1.539-0.258-2.367
		s-0.102-1.711-0.117-2.648c-0.172-0.141-0.258-0.312-0.258-0.516c-0.109-0.047-0.223-0.086-0.34-0.117s-0.246-0.047-0.387-0.047
		c-0.203,0-0.492,0.043-0.867,0.129s-0.781,0.227-1.219,0.422s-0.879,0.449-1.324,0.762s-0.852,0.695-1.219,1.148
		s-0.668,0.977-0.902,1.57s-0.352,1.266-0.352,2.016c0,1.188,0.098,2.133,0.293,2.836s0.453,1.242,0.773,1.617
		s0.68,0.621,1.078,0.738S229.391,187.617,229.812,187.617z"/>
	<path fill="#FFFFFF" d="M250.109,185.695c0,0.219,0.027,0.445,0.082,0.68s0.121,0.457,0.199,0.668s0.156,0.402,0.234,0.574
		s0.141,0.305,0.188,0.398s0.07,0.203,0.07,0.328c0,0.25-0.109,0.438-0.328,0.562c-0.062,0.031-0.117,0.055-0.164,0.07
		S250.289,189,250.227,189c-0.25,0-0.438-0.117-0.562-0.352c-0.016-0.016-0.07-0.113-0.164-0.293s-0.191-0.41-0.293-0.691
		s-0.195-0.594-0.281-0.938s-0.129-0.688-0.129-1.031c0-0.078-0.004-0.168-0.012-0.27s-0.02-0.215-0.035-0.34
		c-0.016-0.219-0.031-0.457-0.047-0.715s-0.023-0.566-0.023-0.926c0-0.234-0.016-0.48-0.047-0.738s-0.062-0.543-0.094-0.855
		c-0.047-0.391-0.09-0.809-0.129-1.254s-0.059-0.918-0.059-1.418c0-0.312-0.066-0.652-0.199-1.02s-0.324-0.707-0.574-1.02
		s-0.559-0.57-0.926-0.773s-0.793-0.305-1.277-0.305c-0.609,0-1.152,0.113-1.629,0.34s-0.887,0.512-1.23,0.855
		s-0.637,0.715-0.879,1.113s-0.434,0.773-0.574,1.125s-0.246,0.652-0.316,0.902s-0.105,0.391-0.105,0.422
		c-0.047,0.141-0.109,0.25-0.188,0.328v0.422c0,0.375,0.055,0.805,0.164,1.289s0.234,1,0.375,1.547
		c0.172,0.703,0.34,1.438,0.504,2.203s0.246,1.547,0.246,2.344c0,0.188-0.062,0.344-0.188,0.469s-0.281,0.188-0.469,0.188
		c-0.172,0-0.324-0.062-0.457-0.188s-0.199-0.281-0.199-0.469c0-0.719-0.074-1.438-0.223-2.156s-0.309-1.406-0.48-2.062
		c-0.156-0.578-0.293-1.137-0.41-1.676s-0.176-1.035-0.176-1.488s-0.031-1.023-0.094-1.711s-0.137-1.355-0.223-2.004
		s-0.164-1.211-0.234-1.688s-0.105-0.73-0.105-0.762c0-0.156,0.055-0.297,0.164-0.422s0.273-0.203,0.492-0.234
		c0.172,0,0.316,0.051,0.434,0.152s0.191,0.238,0.223,0.41c0,0.031,0.016,0.129,0.047,0.293s0.062,0.383,0.094,0.656
		s0.07,0.582,0.117,0.926s0.094,0.703,0.141,1.078c0.234-0.438,0.512-0.867,0.832-1.289s0.695-0.797,1.125-1.125
		s0.91-0.594,1.441-0.797s1.125-0.305,1.781-0.305c0.641,0,1.223,0.129,1.746,0.387s0.973,0.598,1.348,1.02s0.668,0.898,0.879,1.43
		s0.316,1.062,0.316,1.594c0,0.469,0.02,0.914,0.059,1.336s0.082,0.812,0.129,1.172c0.031,0.312,0.062,0.617,0.094,0.914
		s0.047,0.578,0.047,0.844c0,0.625,0.023,1.125,0.07,1.5c0.016,0.141,0.027,0.27,0.035,0.387S250.109,185.57,250.109,185.695z"/>
	<path fill="#FFFFFF" d="M110.559,206.738c0,0.5,0.027,1.102,0.082,1.805s0.129,1.438,0.223,2.203s0.191,1.527,0.293,2.285
		s0.195,1.445,0.281,2.062s0.16,1.121,0.223,1.512s0.094,0.602,0.094,0.633c0,0.156-0.055,0.297-0.164,0.422
		s-0.273,0.203-0.492,0.234c-0.156,0-0.297-0.051-0.422-0.152s-0.203-0.238-0.234-0.41c0-0.031-0.02-0.18-0.059-0.445
		s-0.09-0.617-0.152-1.055c-0.641,0.656-1.328,1.133-2.062,1.43s-1.43,0.445-2.086,0.445c-0.531,0-0.961-0.086-1.289-0.258
		c-0.469-0.219-0.918-0.512-1.348-0.879s-0.809-0.789-1.137-1.266s-0.59-1.004-0.785-1.582s-0.293-1.188-0.293-1.828
		c0-0.516,0.07-1.055,0.211-1.617c0.156-0.594,0.41-1.203,0.762-1.828s0.754-1.211,1.207-1.758s0.945-1.043,1.477-1.488
		s1.062-0.793,1.594-1.043c0.562-0.266,1.078-0.398,1.547-0.398c0.188,0,0.367,0.02,0.539,0.059s0.367,0.113,0.586,0.223
		c-0.031-0.578-0.066-1.141-0.105-1.688s-0.078-1.035-0.117-1.465s-0.07-0.777-0.094-1.043s-0.035-0.414-0.035-0.445
		c0-0.172,0.059-0.316,0.176-0.434s0.277-0.191,0.48-0.223c0.172,0,0.316,0.059,0.434,0.176s0.191,0.262,0.223,0.434
		c0,0.047,0.023,0.312,0.07,0.797s0.098,1.086,0.152,1.805s0.105,1.504,0.152,2.355S110.559,205.973,110.559,206.738z
		 M109.645,214.543c0.078-0.109,0.195-0.188,0.352-0.234c-0.094-0.609-0.184-1.262-0.27-1.957s-0.164-1.383-0.234-2.062
		s-0.129-1.328-0.176-1.945s-0.07-1.152-0.07-1.605c0-0.109,0-0.219,0-0.328s-0.008-0.227-0.023-0.352
		c-0.25-0.078-0.398-0.258-0.445-0.539c0-0.031-0.02-0.082-0.059-0.152s-0.121-0.137-0.246-0.199s-0.273-0.094-0.445-0.094
		s-0.344,0.027-0.516,0.082s-0.328,0.113-0.469,0.176c-0.438,0.203-0.883,0.5-1.336,0.891s-0.879,0.828-1.277,1.312
		s-0.75,0.996-1.055,1.535s-0.527,1.059-0.668,1.559c-0.109,0.422-0.164,0.852-0.164,1.289c0,0.547,0.09,1.055,0.27,1.523
		s0.406,0.891,0.68,1.266s0.574,0.691,0.902,0.949s0.641,0.457,0.938,0.598c0.188,0.094,0.43,0.141,0.727,0.141
		c0.516,0,1.105-0.145,1.77-0.434S109.098,215.199,109.645,214.543z"/>
	<path fill="#FFFFFF" d="M120.543,203.738c0.328,0,0.707,0.16,1.137,0.48s0.836,0.773,1.219,1.359s0.711,1.293,0.984,2.121
		s0.41,1.758,0.41,2.789c0,1.047-0.18,2.016-0.539,2.906s-0.809,1.664-1.348,2.32s-1.125,1.168-1.758,1.535
		s-1.215,0.551-1.746,0.551c-0.609,0-1.211-0.117-1.805-0.352s-1.125-0.574-1.594-1.02s-0.852-0.996-1.148-1.652
		s-0.445-1.414-0.445-2.273c0-0.547,0.07-1.148,0.211-1.805s0.332-1.316,0.574-1.98s0.531-1.305,0.867-1.922s0.699-1.168,1.09-1.652
		s0.805-0.871,1.242-1.16s0.883-0.434,1.336-0.434c0.172,0,0.324,0.02,0.457,0.059s0.254,0.09,0.363,0.152
		c0.078,0,0.156-0.004,0.234-0.012S120.449,203.738,120.543,203.738z M118.902,216.488c0.297,0,0.676-0.145,1.137-0.434
		s0.91-0.695,1.348-1.219s0.812-1.152,1.125-1.887s0.469-1.555,0.469-2.461c0-0.875-0.105-1.645-0.316-2.309
		s-0.453-1.227-0.727-1.688s-0.547-0.809-0.82-1.043s-0.473-0.367-0.598-0.398c-0.266,0-0.504,0.02-0.715,0.059
		s-0.355,0.066-0.434,0.082c-0.188,0-0.359-0.078-0.516-0.234c-0.391,0.156-0.797,0.508-1.219,1.055s-0.812,1.184-1.172,1.91
		s-0.656,1.5-0.891,2.32s-0.352,1.574-0.352,2.262c0,0.719,0.125,1.332,0.375,1.84s0.562,0.918,0.938,1.23s0.773,0.543,1.195,0.691
		S118.543,216.488,118.902,216.488z"/>
	<path fill="#FFFFFF" d="M145.434,203.973c0.219,0.125,0.328,0.312,0.328,0.562c0,0.141-0.031,0.25-0.094,0.328l-0.188,0.328
		c-0.125,0.234-0.281,0.527-0.469,0.879s-0.391,0.734-0.609,1.148s-0.422,0.816-0.609,1.207c-0.156,0.328-0.258,0.598-0.305,0.809
		s-0.086,0.434-0.117,0.668c-0.031,0.156-0.059,0.32-0.082,0.492s-0.062,0.371-0.117,0.598s-0.129,0.48-0.223,0.762
		s-0.219,0.602-0.375,0.961c-0.344,0.781-0.562,1.426-0.656,1.934s-0.172,1.012-0.234,1.512l-0.047,0.633
		c0,0.109-0.023,0.211-0.07,0.305c-0.031,0.172-0.062,0.348-0.094,0.527s-0.07,0.379-0.117,0.598
		c-0.125,0.531-0.238,0.965-0.34,1.301s-0.207,0.66-0.316,0.973c-0.125,0.359-0.254,0.758-0.387,1.195s-0.277,1.039-0.434,1.805
		c-0.141,0.703-0.266,1.355-0.375,1.957s-0.195,1.121-0.258,1.559s-0.109,0.781-0.141,1.031l-0.047,0.375
		c-0.031,0.172-0.109,0.309-0.234,0.41s-0.289,0.152-0.492,0.152c-0.391-0.047-0.586-0.289-0.586-0.727
		c0-0.016,0.02-0.152,0.059-0.41s0.09-0.609,0.152-1.055s0.148-0.969,0.258-1.57s0.234-1.262,0.375-1.98
		c0.078-0.406,0.156-0.766,0.234-1.078s0.152-0.594,0.223-0.844s0.141-0.477,0.211-0.68s0.137-0.398,0.199-0.586
		c0.109-0.297,0.211-0.602,0.305-0.914s0.195-0.711,0.305-1.195c0.047-0.188,0.082-0.363,0.105-0.527s0.051-0.324,0.082-0.48
		c-0.156-0.219-0.371-0.527-0.645-0.926s-0.535-0.816-0.785-1.254c-0.141-0.25-0.344-0.574-0.609-0.973s-0.543-0.809-0.832-1.23
		s-0.57-0.824-0.844-1.207s-0.488-0.691-0.645-0.926l-0.188-0.281c-0.094-0.125-0.215-0.367-0.363-0.727s-0.371-0.914-0.668-1.664
		c-0.125-0.297-0.25-0.602-0.375-0.914s-0.246-0.613-0.363-0.902s-0.23-0.547-0.34-0.773s-0.203-0.402-0.281-0.527
		c-0.062-0.156-0.094-0.266-0.094-0.328c0-0.25,0.109-0.438,0.328-0.562c0.078-0.062,0.188-0.094,0.328-0.094
		c0.266,0,0.453,0.102,0.562,0.305c0.172,0.297,0.391,0.754,0.656,1.371s0.531,1.27,0.797,1.957c0.094,0.219,0.184,0.441,0.27,0.668
		s0.172,0.438,0.258,0.633s0.16,0.371,0.223,0.527s0.109,0.258,0.141,0.305l0.188,0.258c0.156,0.234,0.371,0.547,0.645,0.938
		s0.559,0.805,0.855,1.242s0.578,0.859,0.844,1.266s0.477,0.734,0.633,0.984c0.078,0.156,0.168,0.309,0.27,0.457
		s0.199,0.301,0.293,0.457c0.078-0.375,0.176-0.785,0.293-1.23s0.301-0.965,0.551-1.559c0.266-0.656,0.441-1.168,0.527-1.535
		s0.152-0.691,0.199-0.973c0.031-0.266,0.078-0.539,0.141-0.82s0.188-0.625,0.375-1.031c0.188-0.391,0.391-0.797,0.609-1.219
		s0.426-0.809,0.621-1.16s0.359-0.645,0.492-0.879s0.207-0.367,0.223-0.398c0.125-0.219,0.312-0.328,0.562-0.328
		C145.246,203.879,145.355,203.91,145.434,203.973z"/>
	<path fill="#FFFFFF" d="M153.004,203.738c0.328,0,0.707,0.16,1.137,0.48s0.836,0.773,1.219,1.359s0.711,1.293,0.984,2.121
		s0.41,1.758,0.41,2.789c0,1.047-0.18,2.016-0.539,2.906s-0.809,1.664-1.348,2.32s-1.125,1.168-1.758,1.535
		s-1.215,0.551-1.746,0.551c-0.609,0-1.211-0.117-1.805-0.352s-1.125-0.574-1.594-1.02s-0.852-0.996-1.148-1.652
		s-0.445-1.414-0.445-2.273c0-0.547,0.07-1.148,0.211-1.805s0.332-1.316,0.574-1.98s0.531-1.305,0.867-1.922s0.699-1.168,1.09-1.652
		s0.805-0.871,1.242-1.16s0.883-0.434,1.336-0.434c0.172,0,0.324,0.02,0.457,0.059s0.254,0.09,0.363,0.152
		c0.078,0,0.156-0.004,0.234-0.012S152.91,203.738,153.004,203.738z M151.363,216.488c0.297,0,0.676-0.145,1.137-0.434
		s0.91-0.695,1.348-1.219s0.812-1.152,1.125-1.887s0.469-1.555,0.469-2.461c0-0.875-0.105-1.645-0.316-2.309
		s-0.453-1.227-0.727-1.688s-0.547-0.809-0.82-1.043s-0.473-0.367-0.598-0.398c-0.266,0-0.504,0.02-0.715,0.059
		s-0.355,0.066-0.434,0.082c-0.188,0-0.359-0.078-0.516-0.234c-0.391,0.156-0.797,0.508-1.219,1.055s-0.812,1.184-1.172,1.91
		s-0.656,1.5-0.891,2.32s-0.352,1.574-0.352,2.262c0,0.719,0.125,1.332,0.375,1.84s0.562,0.918,0.938,1.23s0.773,0.543,1.195,0.691
		S151.004,216.488,151.363,216.488z"/>
	<path fill="#FFFFFF" d="M169.715,211.543c0.344,0.078,0.516,0.336,0.516,0.773c-0.078,0.312-0.184,0.668-0.316,1.066
		s-0.309,0.801-0.527,1.207c0.094,0.75,0.18,1.398,0.258,1.945s0.125,0.852,0.141,0.914c0,0.172-0.055,0.316-0.164,0.434
		s-0.273,0.191-0.492,0.223c-0.172,0-0.316-0.051-0.434-0.152s-0.191-0.238-0.223-0.41c0-0.031-0.02-0.168-0.059-0.41
		s-0.082-0.551-0.129-0.926c-0.484,0.547-1.062,1-1.734,1.359s-1.453,0.539-2.344,0.539c-0.641,0-1.227-0.129-1.758-0.387
		s-0.984-0.598-1.359-1.02s-0.664-0.895-0.867-1.418s-0.305-1.059-0.305-1.605c0-0.469-0.02-0.914-0.059-1.336
		s-0.082-0.812-0.129-1.172c-0.031-0.312-0.062-0.613-0.094-0.902s-0.047-0.574-0.047-0.855c0-0.312-0.008-0.594-0.023-0.844
		s-0.039-0.469-0.07-0.656c-0.016-0.141-0.027-0.27-0.035-0.387s-0.012-0.238-0.012-0.363c0-0.219-0.027-0.445-0.082-0.68
		s-0.117-0.457-0.188-0.668s-0.145-0.402-0.223-0.574s-0.141-0.305-0.188-0.398c-0.062-0.078-0.094-0.18-0.094-0.305
		c0-0.266,0.117-0.461,0.352-0.586c0.094-0.047,0.195-0.07,0.305-0.07c0.266,0,0.461,0.109,0.586,0.328
		c0,0.016,0.047,0.113,0.141,0.293s0.191,0.41,0.293,0.691s0.195,0.594,0.281,0.938s0.129,0.688,0.129,1.031
		c0,0.078,0.004,0.172,0.012,0.281s0.02,0.227,0.035,0.352c0.031,0.203,0.055,0.434,0.07,0.691s0.023,0.566,0.023,0.926
		c0,0.234,0.016,0.48,0.047,0.738s0.062,0.543,0.094,0.855c0.031,0.406,0.07,0.828,0.117,1.266s0.07,0.906,0.07,1.406
		c0,0.328,0.066,0.672,0.199,1.031s0.324,0.695,0.574,1.008s0.559,0.57,0.926,0.773s0.793,0.305,1.277,0.305s0.922-0.07,1.312-0.211
		s0.742-0.328,1.055-0.562s0.59-0.496,0.832-0.785s0.449-0.59,0.621-0.902c-0.078-0.578-0.145-1.156-0.199-1.734
		s-0.098-1.102-0.129-1.57c-0.031-0.547-0.09-1.172-0.176-1.875s-0.172-1.367-0.258-1.992s-0.164-1.16-0.234-1.605
		s-0.105-0.684-0.105-0.715c0-0.156,0.055-0.297,0.164-0.422s0.273-0.203,0.492-0.234c0.156,0,0.293,0.051,0.41,0.152
		s0.191,0.23,0.223,0.387c0,0.047,0.035,0.289,0.105,0.727s0.152,0.969,0.246,1.594s0.184,1.293,0.27,2.004s0.145,1.348,0.176,1.91
		c0,0.125,0.004,0.254,0.012,0.387s0.02,0.277,0.035,0.434c0.078-0.078,0.164-0.141,0.258-0.188S169.543,211.527,169.715,211.543z"
		/>
	<path fill="#FFFFFF" d="M179.254,203.926c0.344,0,0.633,0.027,0.867,0.082s0.426,0.117,0.574,0.188s0.266,0.145,0.352,0.223
		s0.145,0.141,0.176,0.188c0.078,0.109,0.117,0.227,0.117,0.352c0,0.25-0.094,0.43-0.281,0.539
		c-0.094,0.078-0.219,0.117-0.375,0.117c-0.188,0-0.352-0.07-0.492-0.211c-0.031-0.016-0.113-0.047-0.246-0.094
		s-0.363-0.07-0.691-0.07c-0.188,0-0.523,0.117-1.008,0.352s-0.977,0.617-1.477,1.148s-0.949,1.223-1.348,2.074
		s-0.598,1.895-0.598,3.129c0.047,0.203,0.094,0.41,0.141,0.621s0.102,0.426,0.164,0.645c0.172,0.703,0.344,1.438,0.516,2.203
		s0.258,1.547,0.258,2.344c0,0.188-0.066,0.344-0.199,0.469s-0.285,0.188-0.457,0.188c-0.188,0-0.344-0.062-0.469-0.188
		s-0.188-0.281-0.188-0.469c0-0.719-0.078-1.438-0.234-2.156s-0.32-1.406-0.492-2.062c-0.156-0.578-0.293-1.137-0.41-1.676
		s-0.176-1.035-0.176-1.488s-0.031-1.023-0.094-1.711s-0.137-1.355-0.223-2.004s-0.16-1.211-0.223-1.688s-0.094-0.73-0.094-0.762
		c0-0.156,0.055-0.297,0.164-0.422s0.273-0.203,0.492-0.234c0.156,0,0.293,0.051,0.41,0.152s0.191,0.238,0.223,0.41
		c0,0.031,0.02,0.16,0.059,0.387s0.082,0.512,0.129,0.855s0.098,0.734,0.152,1.172s0.105,0.881,0.152,1.33
		c0.312-0.652,0.684-1.225,1.113-1.717s0.871-0.902,1.324-1.23s0.891-0.574,1.312-0.738S178.957,203.926,179.254,203.926z"/>
	<path fill="#FFFFFF" d="M188.324,209.293c2.766,1.344,4.148,2.758,4.148,4.242c0,0.453-0.102,0.898-0.305,1.336
		s-0.445,0.84-0.727,1.207s-0.574,0.688-0.879,0.961s-0.559,0.465-0.762,0.574c-0.188,0.109-0.434,0.215-0.738,0.316
		s-0.617,0.191-0.938,0.27s-0.625,0.141-0.914,0.188s-0.527,0.07-0.715,0.07c-0.406,0-0.84-0.066-1.301-0.199
		s-0.902-0.352-1.324-0.656s-0.801-0.707-1.137-1.207s-0.598-1.117-0.785-1.852c0-0.344,0.219-0.562,0.656-0.656
		c0.141,0,0.273,0.043,0.398,0.129s0.203,0.207,0.234,0.363c0.172,0.656,0.418,1.168,0.738,1.535s0.648,0.645,0.984,0.832
		s0.648,0.301,0.938,0.34s0.488,0.059,0.598,0.059c0.141,0,0.336-0.02,0.586-0.059s0.504-0.094,0.762-0.164s0.508-0.145,0.75-0.223
		s0.426-0.156,0.551-0.234c0.141-0.078,0.328-0.223,0.562-0.434s0.457-0.453,0.668-0.727s0.395-0.566,0.551-0.879
		s0.234-0.609,0.234-0.891c0-0.156-0.047-0.34-0.141-0.551s-0.262-0.445-0.504-0.703s-0.586-0.535-1.031-0.832
		s-1.02-0.617-1.723-0.961c-0.453-0.219-0.926-0.445-1.418-0.68s-0.949-0.449-1.371-0.645s-0.773-0.363-1.055-0.504l-0.422-0.188
		l-0.375-0.164v-0.422c0-0.719,0.18-1.348,0.539-1.887s0.797-0.992,1.312-1.359s1.059-0.645,1.629-0.832s1.074-0.281,1.512-0.281
		c0.453,0,0.836,0.055,1.148,0.164s0.57,0.23,0.773,0.363s0.355,0.258,0.457,0.375s0.16,0.191,0.176,0.223
		c0.078,0.109,0.117,0.227,0.117,0.352c0,0.234-0.102,0.414-0.305,0.539c-0.125,0.078-0.242,0.117-0.352,0.117
		c-0.234,0-0.414-0.102-0.539-0.305c-0.016,0-0.051-0.027-0.105-0.082s-0.141-0.113-0.258-0.176s-0.266-0.121-0.445-0.176
		s-0.402-0.082-0.668-0.082s-0.586,0.055-0.961,0.164s-0.75,0.277-1.125,0.504s-0.711,0.504-1.008,0.832s-0.484,0.711-0.562,1.148
		c0.203,0.094,0.453,0.207,0.75,0.34s0.621,0.281,0.973,0.445s0.715,0.336,1.09,0.516S187.996,209.137,188.324,209.293z"/>
</g>
</svg>
