<?xml version="1.0" encoding="utf-8"?>
<!-- Generator: Adobe Illustrator 16.0.0, SVG Export Plug-In . SVG Version: 6.00 Build 0)  -->
<!DOCTYPE svg PUBLIC "-//W3C//DTD SVG 1.1//EN" "http://www.w3.org/Graphics/SVG/1.1/DTD/svg11.dtd">
<svg version="1.1" id="Layer_1" xmlns="http://www.w3.org/2000/svg" xmlns:xlink="http://www.w3.org/1999/xlink" x="0px" y="0px"
	 width="300px" height="250px" viewBox="0 0 300 250" enable-background="new 0 0 300 250" xml:space="preserve">
<g>
	<path fill="#FFFFFF" d="M131.113,156.525c0.355,0,0.766,0.174,1.231,0.521c0.466,0.347,0.905,0.838,1.32,1.473
		s0.771,1.4,1.066,2.297c0.296,0.898,0.444,1.904,0.444,3.021c0,1.135-0.195,2.184-0.584,3.148c-0.39,0.965-0.876,1.803-1.46,2.514
		s-1.219,1.266-1.904,1.664c-0.686,0.396-1.316,0.596-1.892,0.596c-0.66,0-1.312-0.127-1.955-0.381
		c-0.644-0.254-1.219-0.621-1.727-1.104s-0.923-1.08-1.244-1.791c-0.322-0.711-0.482-1.531-0.482-2.463
		c0-0.592,0.076-1.244,0.229-1.955s0.359-1.426,0.622-2.145c0.263-0.72,0.575-1.414,0.939-2.082
		c0.364-0.669,0.757-1.266,1.181-1.791c0.423-0.523,0.871-0.943,1.346-1.256c0.474-0.313,0.956-0.471,1.447-0.471
		c0.186,0,0.352,0.021,0.495,0.064c0.144,0.042,0.274,0.098,0.394,0.164c0.084,0,0.169-0.004,0.254-0.012
		C130.918,156.53,131.012,156.525,131.113,156.525z M129.336,170.338c0.321,0,0.732-0.156,1.231-0.469
		c0.499-0.313,0.985-0.754,1.46-1.32c0.474-0.567,0.88-1.248,1.219-2.045c0.338-0.795,0.508-1.684,0.508-2.666
		c0-0.947-0.114-1.781-0.343-2.5c-0.229-0.72-0.491-1.329-0.787-1.828c-0.296-0.5-0.593-0.877-0.889-1.131s-0.513-0.396-0.647-0.432
		c-0.288,0-0.546,0.021-0.774,0.064c-0.229,0.042-0.386,0.072-0.47,0.088c-0.203,0-0.39-0.084-0.559-0.254
		c-0.424,0.17-0.863,0.551-1.32,1.143c-0.457,0.594-0.881,1.283-1.27,2.07c-0.39,0.787-0.711,1.625-0.965,2.514
		s-0.381,1.705-0.381,2.449c0,0.779,0.135,1.443,0.406,1.994c0.271,0.55,0.609,0.994,1.016,1.332c0.406,0.34,0.838,0.589,1.295,0.75
		C128.523,170.258,128.946,170.338,129.336,170.338z"/>
	<path fill="#FFFFFF" d="M147.617,156.982c-0.152,0-0.297-0.051-0.432-0.152c-0.136-0.102-0.221-0.236-0.254-0.406
		c0-0.033-0.06-0.224-0.178-0.57c-0.119-0.348-0.309-0.72-0.571-1.117c-0.263-0.398-0.622-0.758-1.079-1.08
		c-0.457-0.32-1.024-0.482-1.701-0.482c-0.593,0-1.135,0.246-1.625,0.736c-0.237,0.254-0.428,0.543-0.571,0.863
		c-0.144,0.322-0.216,0.652-0.216,0.99l0.102,3.859c0.49-0.033,1.003-0.066,1.536-0.102c0.533-0.033,1.079-0.066,1.638-0.102
		c0.186,0,0.347,0.068,0.482,0.203c0.135,0.137,0.211,0.305,0.229,0.508c0,0.188-0.068,0.352-0.203,0.496
		c-0.136,0.144-0.297,0.215-0.482,0.215c-0.542,0.035-1.075,0.068-1.6,0.102c-0.525,0.035-1.033,0.068-1.523,0.102
		c0.067,0.932,0.182,1.951,0.343,3.061c0.161,1.108,0.317,2.154,0.47,3.135c0.152,0.982,0.287,1.808,0.406,2.477
		c0.118,0.668,0.178,1.027,0.178,1.078c0,0.391-0.237,0.627-0.711,0.711c-0.39,0-0.627-0.194-0.711-0.584
		c0-0.051-0.029-0.236-0.089-0.559c-0.06-0.32-0.136-0.74-0.229-1.256c-0.093-0.517-0.19-1.101-0.292-1.752
		c-0.102-0.652-0.203-1.334-0.305-2.045s-0.195-1.422-0.279-2.133c-0.085-0.711-0.152-1.379-0.203-2.006
		c-0.729,0.068-1.32,0.127-1.777,0.178s-0.72,0.086-0.787,0.102c-0.17,0-0.322-0.059-0.457-0.178
		c-0.136-0.117-0.221-0.295-0.254-0.533c0-0.186,0.059-0.342,0.178-0.469c0.118-0.127,0.271-0.207,0.457-0.242
		c0.017,0,0.258-0.025,0.724-0.076s1.079-0.117,1.841-0.203v-0.33l-0.102-3.707c0-0.49,0.105-0.98,0.317-1.473
		c0.212-0.49,0.503-0.93,0.876-1.32c0.372-0.371,0.783-0.66,1.231-0.863s0.918-0.305,1.409-0.305c0.778,0,1.455,0.157,2.031,0.471
		c0.575,0.312,1.062,0.697,1.46,1.154s0.715,0.949,0.952,1.473c0.236,0.525,0.397,1,0.482,1.422c0,0.373-0.178,0.602-0.533,0.686
		L147.617,156.982z"/>
	<path fill="#FFFFFF" d="M163.309,169.805c0.118-0.066,0.254-0.102,0.406-0.102c0.254,0,0.448,0.102,0.584,0.305
		c0.084,0.137,0.127,0.271,0.127,0.406c0,0.221-0.11,0.416-0.33,0.584l-0.178,0.127c-0.136,0.086-0.313,0.17-0.533,0.254
		c-0.221,0.085-0.47,0.166-0.749,0.242s-0.58,0.113-0.901,0.113c-0.406,0-0.897-0.123-1.473-0.367
		c-0.576-0.246-1.139-0.66-1.688-1.244s-1.037-1.354-1.46-2.311c-0.424-0.957-0.686-2.137-0.787-3.543
		c-0.018-0.102-0.025-0.198-0.025-0.291c0-0.094,0-0.191,0-0.293c0-1.1,0.199-2.09,0.597-2.971c0.397-0.879,0.876-1.629,1.435-2.246
		c0.559-0.618,1.139-1.101,1.739-1.447c0.601-0.348,1.112-0.537,1.536-0.572c0.084-0.016,0.174-0.025,0.267-0.025s0.182,0,0.267,0
		c0.49,0,0.918,0.047,1.282,0.141c0.364,0.093,0.613,0.174,0.749,0.24c0.186,0.035,0.381,0.166,0.584,0.395s0.305,0.664,0.305,1.307
		c0,0.203-0.072,0.373-0.216,0.508c-0.144,0.137-0.31,0.203-0.495,0.203c-0.203,0-0.373-0.066-0.508-0.203
		c-0.136-0.135-0.203-0.305-0.203-0.508c0-0.135-0.018-0.27-0.051-0.406c-0.102-0.033-0.279-0.084-0.533-0.152
		c-0.254-0.066-0.559-0.102-0.914-0.102c-0.068,0-0.131,0-0.19,0s-0.132,0.01-0.216,0.025c-0.271,0.035-0.631,0.188-1.079,0.457
		c-0.448,0.271-0.889,0.656-1.32,1.156c-0.432,0.499-0.809,1.104-1.13,1.814c-0.322,0.711-0.482,1.516-0.482,2.412
		c0,0.086,0,0.162,0,0.229c0,0.068,0.008,0.145,0.025,0.229c0.067,1.152,0.262,2.117,0.584,2.895
		c0.321,0.779,0.689,1.41,1.104,1.893s0.829,0.829,1.244,1.041c0.415,0.211,0.766,0.316,1.054,0.316
		c0.203,0,0.397-0.025,0.584-0.076c0.186-0.051,0.355-0.105,0.508-0.164c0.152-0.06,0.271-0.123,0.355-0.191L163.309,169.805z"/>
	<path fill="#FFFFFF" d="M174.049,156.525c0.355,0,0.766,0.174,1.231,0.521c0.466,0.347,0.905,0.838,1.32,1.473
		s0.771,1.4,1.066,2.297c0.296,0.898,0.444,1.904,0.444,3.021c0,1.135-0.195,2.184-0.584,3.148c-0.39,0.965-0.876,1.803-1.46,2.514
		s-1.219,1.266-1.904,1.664c-0.686,0.396-1.316,0.596-1.892,0.596c-0.66,0-1.312-0.127-1.955-0.381
		c-0.644-0.254-1.219-0.621-1.727-1.104s-0.923-1.08-1.244-1.791c-0.322-0.711-0.482-1.531-0.482-2.463
		c0-0.592,0.076-1.244,0.229-1.955s0.359-1.426,0.622-2.145c0.263-0.72,0.575-1.414,0.939-2.082
		c0.364-0.669,0.757-1.266,1.181-1.791c0.423-0.523,0.871-0.943,1.346-1.256c0.474-0.313,0.956-0.471,1.447-0.471
		c0.186,0,0.352,0.021,0.495,0.064c0.144,0.042,0.274,0.098,0.394,0.164c0.084,0,0.169-0.004,0.254-0.012
		C173.854,156.53,173.947,156.525,174.049,156.525z M172.271,170.338c0.321,0,0.732-0.156,1.231-0.469
		c0.499-0.313,0.985-0.754,1.46-1.32c0.474-0.567,0.88-1.248,1.219-2.045c0.338-0.795,0.508-1.684,0.508-2.666
		c0-0.947-0.114-1.781-0.343-2.5c-0.229-0.72-0.491-1.329-0.787-1.828c-0.296-0.5-0.593-0.877-0.889-1.131s-0.513-0.396-0.647-0.432
		c-0.288,0-0.546,0.021-0.774,0.064c-0.229,0.042-0.386,0.072-0.47,0.088c-0.203,0-0.39-0.084-0.559-0.254
		c-0.424,0.17-0.863,0.551-1.32,1.143c-0.457,0.594-0.881,1.283-1.27,2.07c-0.39,0.787-0.711,1.625-0.965,2.514
		s-0.381,1.705-0.381,2.449c0,0.779,0.135,1.443,0.406,1.994c0.271,0.55,0.609,0.994,1.016,1.332c0.406,0.34,0.838,0.589,1.295,0.75
		C171.459,170.258,171.882,170.338,172.271,170.338z"/>
	<path fill="#FFFFFF" d="M190.553,156.982c-0.152,0-0.297-0.051-0.432-0.152c-0.136-0.102-0.221-0.236-0.254-0.406
		c0-0.033-0.06-0.224-0.178-0.57c-0.119-0.348-0.309-0.72-0.571-1.117c-0.263-0.398-0.622-0.758-1.079-1.08
		c-0.457-0.32-1.024-0.482-1.701-0.482c-0.593,0-1.135,0.246-1.625,0.736c-0.237,0.254-0.428,0.543-0.571,0.863
		c-0.144,0.322-0.216,0.652-0.216,0.99l0.102,3.859c0.49-0.033,1.003-0.066,1.536-0.102c0.533-0.033,1.079-0.066,1.638-0.102
		c0.186,0,0.347,0.068,0.482,0.203c0.135,0.137,0.211,0.305,0.229,0.508c0,0.188-0.068,0.352-0.203,0.496
		c-0.136,0.144-0.297,0.215-0.482,0.215c-0.542,0.035-1.075,0.068-1.6,0.102c-0.525,0.035-1.033,0.068-1.523,0.102
		c0.067,0.932,0.182,1.951,0.343,3.061c0.161,1.108,0.317,2.154,0.47,3.135c0.152,0.982,0.287,1.808,0.406,2.477
		c0.118,0.668,0.178,1.027,0.178,1.078c0,0.391-0.237,0.627-0.711,0.711c-0.39,0-0.627-0.194-0.711-0.584
		c0-0.051-0.029-0.236-0.089-0.559c-0.06-0.32-0.136-0.74-0.229-1.256c-0.093-0.517-0.19-1.101-0.292-1.752
		c-0.102-0.652-0.203-1.334-0.305-2.045s-0.195-1.422-0.279-2.133c-0.085-0.711-0.152-1.379-0.203-2.006
		c-0.729,0.068-1.32,0.127-1.777,0.178s-0.72,0.086-0.787,0.102c-0.17,0-0.322-0.059-0.457-0.178
		c-0.136-0.117-0.221-0.295-0.254-0.533c0-0.186,0.059-0.342,0.178-0.469c0.118-0.127,0.271-0.207,0.457-0.242
		c0.017,0,0.258-0.025,0.724-0.076s1.079-0.117,1.841-0.203v-0.33l-0.102-3.707c0-0.49,0.105-0.98,0.317-1.473
		c0.212-0.49,0.503-0.93,0.876-1.32c0.372-0.371,0.783-0.66,1.231-0.863s0.918-0.305,1.409-0.305c0.778,0,1.455,0.157,2.031,0.471
		c0.575,0.312,1.062,0.697,1.46,1.154s0.715,0.949,0.952,1.473c0.236,0.525,0.397,1,0.482,1.422c0,0.373-0.178,0.602-0.533,0.686
		L190.553,156.982z"/>
	<path fill="#FFFFFF" d="M200.963,156.982c-0.152,0-0.297-0.051-0.432-0.152c-0.136-0.102-0.221-0.236-0.254-0.406
		c0-0.033-0.06-0.224-0.178-0.57c-0.119-0.348-0.309-0.72-0.571-1.117c-0.263-0.398-0.622-0.758-1.079-1.08
		c-0.457-0.32-1.024-0.482-1.701-0.482c-0.593,0-1.135,0.246-1.625,0.736c-0.237,0.254-0.428,0.543-0.571,0.863
		c-0.144,0.322-0.216,0.652-0.216,0.99l0.102,3.859c0.49-0.033,1.003-0.066,1.536-0.102c0.533-0.033,1.079-0.066,1.638-0.102
		c0.186,0,0.347,0.068,0.482,0.203c0.135,0.137,0.211,0.305,0.229,0.508c0,0.188-0.068,0.352-0.203,0.496
		c-0.136,0.144-0.297,0.215-0.482,0.215c-0.542,0.035-1.075,0.068-1.6,0.102c-0.525,0.035-1.033,0.068-1.523,0.102
		c0.067,0.932,0.182,1.951,0.343,3.061c0.161,1.108,0.317,2.154,0.47,3.135c0.152,0.982,0.287,1.808,0.406,2.477
		c0.118,0.668,0.178,1.027,0.178,1.078c0,0.391-0.237,0.627-0.711,0.711c-0.39,0-0.627-0.194-0.711-0.584
		c0-0.051-0.029-0.236-0.089-0.559c-0.06-0.32-0.136-0.74-0.229-1.256c-0.093-0.517-0.19-1.101-0.292-1.752
		c-0.102-0.652-0.203-1.334-0.305-2.045s-0.195-1.422-0.279-2.133c-0.085-0.711-0.152-1.379-0.203-2.006
		c-0.729,0.068-1.32,0.127-1.777,0.178s-0.72,0.086-0.787,0.102c-0.17,0-0.322-0.059-0.457-0.178
		c-0.136-0.117-0.221-0.295-0.254-0.533c0-0.186,0.059-0.342,0.178-0.469c0.118-0.127,0.271-0.207,0.457-0.242
		c0.017,0,0.258-0.025,0.724-0.076s1.079-0.117,1.841-0.203v-0.33l-0.102-3.707c0-0.49,0.105-0.98,0.317-1.473
		c0.212-0.49,0.503-0.93,0.876-1.32c0.372-0.371,0.783-0.66,1.231-0.863s0.918-0.305,1.409-0.305c0.778,0,1.455,0.157,2.031,0.471
		c0.575,0.312,1.062,0.697,1.46,1.154s0.715,0.949,0.952,1.473c0.236,0.525,0.397,1,0.482,1.422c0,0.373-0.178,0.602-0.533,0.686
		L200.963,156.982z"/>
	<path fill="#FFFFFF" d="M211.576,170.059c0.186,0,0.343,0.061,0.47,0.178c0.127,0.119,0.207,0.297,0.241,0.533
		c0,0.188-0.055,0.344-0.165,0.471s-0.259,0.207-0.444,0.24c-0.034,0-0.187,0.021-0.457,0.064c-0.271,0.041-0.593,0.088-0.965,0.139
		c-0.373,0.051-0.762,0.094-1.168,0.127c-0.406,0.034-0.754,0.051-1.041,0.051c-2.252,0-3.979-0.596-5.18-1.789
		c-1.202-1.193-1.862-2.873-1.98-5.041c-0.034-1.1,0.063-2.064,0.292-2.895c0.229-0.828,0.533-1.539,0.914-2.133
		c0.381-0.592,0.808-1.082,1.282-1.473c0.474-0.389,0.936-0.693,1.384-0.914c0.448-0.219,0.854-0.376,1.219-0.469
		c0.364-0.094,0.63-0.141,0.8-0.141c0.439,0,0.91,0.111,1.409,0.33c0.499,0.221,0.965,0.555,1.396,1.004
		c0.432,0.448,0.8,1.02,1.104,1.713c0.305,0.695,0.49,1.516,0.559,2.463c0.102,0.137,0.152,0.289,0.152,0.457
		c0,0.17-0.051,0.314-0.152,0.432c-0.085,0.34-0.313,0.508-0.686,0.508c-0.17,0-0.313-0.051-0.432-0.152
		c-0.457,0.102-0.932,0.246-1.422,0.432c-0.44,0.152-0.872,0.289-1.295,0.406c-0.424,0.119-0.805,0.178-1.143,0.178
		c-0.187,0-0.436,0.025-0.749,0.076s-0.656,0.119-1.028,0.203c-0.373,0.086-0.749,0.174-1.13,0.268
		c-0.381,0.093-0.724,0.182-1.028,0.266c0.067,1.051,0.309,1.893,0.724,2.527s0.905,1.125,1.473,1.473
		c0.567,0.347,1.168,0.575,1.803,0.686c0.635,0.109,1.206,0.164,1.714,0.164c0.271,0,0.601-0.016,0.99-0.051
		c0.389-0.033,0.762-0.076,1.117-0.127s0.668-0.092,0.939-0.127l0.381-0.051L211.576,170.059z M206.777,158.43
		c-0.152,0-0.453,0.081-0.901,0.242c-0.448,0.16-0.914,0.448-1.396,0.863c-0.482,0.414-0.931,0.99-1.346,1.727
		s-0.673,1.68-0.774,2.83c0.287-0.066,0.613-0.143,0.978-0.229c0.364-0.084,0.728-0.164,1.092-0.24s0.711-0.141,1.041-0.191
		s0.597-0.076,0.8-0.076c0.236,0,0.537-0.055,0.901-0.164c0.364-0.11,0.724-0.225,1.079-0.344c0.287-0.102,0.559-0.189,0.812-0.266
		s0.499-0.148,0.736-0.217c-0.068-0.676-0.212-1.26-0.432-1.752c-0.221-0.49-0.475-0.896-0.762-1.219
		c-0.288-0.32-0.593-0.562-0.914-0.723C207.369,158.511,207.064,158.43,206.777,158.43z"/>
	<path fill="#FFFFFF" d="M224.398,170.059c0.186,0,0.343,0.061,0.47,0.178c0.127,0.119,0.207,0.297,0.241,0.533
		c0,0.188-0.055,0.344-0.165,0.471s-0.259,0.207-0.444,0.24c-0.034,0-0.187,0.021-0.457,0.064c-0.271,0.041-0.593,0.088-0.965,0.139
		c-0.373,0.051-0.762,0.094-1.168,0.127c-0.406,0.034-0.754,0.051-1.041,0.051c-2.252,0-3.979-0.596-5.18-1.789
		c-1.202-1.193-1.862-2.873-1.98-5.041c-0.034-1.1,0.063-2.064,0.292-2.895c0.229-0.828,0.533-1.539,0.914-2.133
		c0.381-0.592,0.808-1.082,1.282-1.473c0.474-0.389,0.936-0.693,1.384-0.914c0.448-0.219,0.854-0.376,1.219-0.469
		c0.364-0.094,0.63-0.141,0.8-0.141c0.439,0,0.91,0.111,1.409,0.33c0.499,0.221,0.965,0.555,1.396,1.004
		c0.432,0.448,0.8,1.02,1.104,1.713c0.305,0.695,0.49,1.516,0.559,2.463c0.102,0.137,0.152,0.289,0.152,0.457
		c0,0.17-0.051,0.314-0.152,0.432c-0.085,0.34-0.313,0.508-0.686,0.508c-0.17,0-0.313-0.051-0.432-0.152
		c-0.457,0.102-0.932,0.246-1.422,0.432c-0.44,0.152-0.872,0.289-1.295,0.406c-0.424,0.119-0.805,0.178-1.143,0.178
		c-0.187,0-0.436,0.025-0.749,0.076s-0.656,0.119-1.028,0.203c-0.373,0.086-0.749,0.174-1.13,0.268
		c-0.381,0.093-0.724,0.182-1.028,0.266c0.067,1.051,0.309,1.893,0.724,2.527s0.905,1.125,1.473,1.473
		c0.567,0.347,1.168,0.575,1.803,0.686c0.635,0.109,1.206,0.164,1.714,0.164c0.271,0,0.601-0.016,0.99-0.051
		c0.389-0.033,0.762-0.076,1.117-0.127s0.668-0.092,0.939-0.127l0.381-0.051L224.398,170.059z M219.6,158.43
		c-0.152,0-0.453,0.081-0.901,0.242c-0.448,0.16-0.914,0.448-1.396,0.863c-0.482,0.414-0.931,0.99-1.346,1.727
		s-0.673,1.68-0.774,2.83c0.287-0.066,0.613-0.143,0.978-0.229c0.364-0.084,0.728-0.164,1.092-0.24s0.711-0.141,1.041-0.191
		s0.597-0.076,0.8-0.076c0.236,0,0.537-0.055,0.901-0.164c0.364-0.11,0.724-0.225,1.079-0.344c0.287-0.102,0.559-0.189,0.812-0.266
		s0.499-0.148,0.736-0.217c-0.068-0.676-0.212-1.26-0.432-1.752c-0.221-0.49-0.475-0.896-0.762-1.219
		c-0.288-0.32-0.593-0.562-0.914-0.723C220.191,158.511,219.887,158.43,219.6,158.43z"/>
	<path fill="#FFFFFF" d="M241.943,162.543c2.996,1.457,4.494,2.988,4.494,4.596c0,0.492-0.11,0.975-0.33,1.447
		c-0.221,0.475-0.482,0.91-0.787,1.309c-0.305,0.397-0.622,0.744-0.952,1.041c-0.33,0.295-0.605,0.503-0.825,0.621
		c-0.203,0.119-0.47,0.232-0.8,0.344c-0.33,0.109-0.669,0.207-1.016,0.291c-0.347,0.085-0.677,0.152-0.99,0.203
		s-0.571,0.076-0.774,0.076c-0.44,0-0.91-0.072-1.409-0.215c-0.499-0.145-0.978-0.381-1.435-0.711s-0.867-0.766-1.231-1.309
		c-0.364-0.541-0.647-1.209-0.851-2.006c0-0.371,0.236-0.609,0.711-0.711c0.152,0,0.296,0.047,0.432,0.141
		c0.135,0.093,0.22,0.225,0.254,0.393c0.186,0.711,0.453,1.266,0.8,1.664c0.347,0.397,0.702,0.697,1.066,0.9
		s0.702,0.326,1.016,0.369c0.313,0.042,0.528,0.062,0.647,0.062c0.152,0,0.363-0.021,0.635-0.062
		c0.271-0.043,0.546-0.102,0.825-0.178s0.55-0.156,0.812-0.242c0.263-0.084,0.461-0.168,0.597-0.254
		c0.152-0.084,0.355-0.24,0.609-0.469s0.495-0.491,0.724-0.787c0.229-0.297,0.427-0.613,0.597-0.953
		c0.169-0.338,0.254-0.66,0.254-0.965c0-0.168-0.051-0.367-0.152-0.596s-0.283-0.482-0.546-0.762s-0.635-0.58-1.117-0.902
		c-0.482-0.32-1.104-0.668-1.866-1.041c-0.491-0.236-1.003-0.482-1.536-0.736s-1.028-0.486-1.485-0.697
		c-0.457-0.212-0.838-0.395-1.143-0.547l-0.457-0.203l-0.406-0.178v-0.457c0-0.777,0.194-1.459,0.584-2.043
		c0.389-0.584,0.863-1.075,1.422-1.473c0.559-0.398,1.146-0.699,1.765-0.902s1.163-0.305,1.638-0.305
		c0.49,0,0.905,0.061,1.244,0.178c0.338,0.119,0.617,0.25,0.838,0.395c0.22,0.144,0.385,0.279,0.495,0.406s0.173,0.207,0.19,0.24
		c0.084,0.119,0.127,0.246,0.127,0.381c0,0.254-0.11,0.449-0.33,0.584c-0.136,0.086-0.263,0.127-0.381,0.127
		c-0.254,0-0.449-0.109-0.584-0.33c-0.018,0-0.055-0.029-0.114-0.088c-0.06-0.06-0.152-0.123-0.279-0.191
		c-0.127-0.066-0.288-0.131-0.482-0.189c-0.194-0.06-0.437-0.09-0.724-0.09c-0.288,0-0.635,0.061-1.041,0.178
		c-0.406,0.119-0.812,0.301-1.219,0.547c-0.406,0.245-0.771,0.545-1.092,0.9c-0.322,0.355-0.525,0.771-0.609,1.244
		c0.22,0.102,0.49,0.225,0.812,0.369c0.321,0.144,0.673,0.305,1.054,0.482s0.774,0.363,1.181,0.559
		C241.207,162.192,241.588,162.375,241.943,162.543z"/>
	<path fill="#FFFFFF" d="M255.553,156.525c0.355,0,0.766,0.174,1.231,0.521c0.466,0.347,0.905,0.838,1.32,1.473
		s0.771,1.4,1.066,2.297c0.296,0.898,0.444,1.904,0.444,3.021c0,1.135-0.195,2.184-0.584,3.148c-0.39,0.965-0.876,1.803-1.46,2.514
		s-1.219,1.266-1.904,1.664c-0.686,0.396-1.316,0.596-1.892,0.596c-0.66,0-1.312-0.127-1.955-0.381
		c-0.644-0.254-1.219-0.621-1.727-1.104s-0.923-1.08-1.244-1.791c-0.322-0.711-0.482-1.531-0.482-2.463
		c0-0.592,0.076-1.244,0.229-1.955s0.359-1.426,0.622-2.145c0.263-0.72,0.575-1.414,0.939-2.082
		c0.364-0.669,0.757-1.266,1.181-1.791c0.423-0.523,0.871-0.943,1.346-1.256c0.474-0.313,0.956-0.471,1.447-0.471
		c0.186,0,0.352,0.021,0.495,0.064c0.144,0.042,0.274,0.098,0.394,0.164c0.084,0,0.169-0.004,0.254-0.012
		C255.357,156.53,255.451,156.525,255.553,156.525z M253.775,170.338c0.321,0,0.732-0.156,1.231-0.469
		c0.499-0.313,0.985-0.754,1.46-1.32c0.474-0.567,0.88-1.248,1.219-2.045c0.338-0.795,0.508-1.684,0.508-2.666
		c0-0.947-0.114-1.781-0.343-2.5c-0.229-0.72-0.491-1.329-0.787-1.828c-0.296-0.5-0.593-0.877-0.889-1.131s-0.513-0.396-0.647-0.432
		c-0.288,0-0.546,0.021-0.774,0.064c-0.229,0.042-0.386,0.072-0.47,0.088c-0.203,0-0.39-0.084-0.559-0.254
		c-0.424,0.17-0.863,0.551-1.32,1.143c-0.457,0.594-0.881,1.283-1.27,2.07c-0.39,0.787-0.711,1.625-0.965,2.514
		s-0.381,1.705-0.381,2.449c0,0.779,0.135,1.443,0.406,1.994c0.271,0.55,0.609,0.994,1.016,1.332c0.406,0.34,0.838,0.589,1.295,0.75
		C252.963,170.258,253.386,170.338,253.775,170.338z"/>
	<path fill="#FFFFFF" d="M264.109,159.852c0,0.543,0.033,1.193,0.102,1.955c0.067,0.762,0.148,1.559,0.241,2.387
		c0.093,0.83,0.194,1.655,0.305,2.477c0.11,0.82,0.216,1.565,0.317,2.234c0.102,0.668,0.186,1.215,0.254,1.637
		c0.067,0.424,0.102,0.652,0.102,0.686c0,0.39-0.237,0.627-0.711,0.711c-0.187,0-0.343-0.055-0.47-0.164
		c-0.127-0.111-0.208-0.259-0.241-0.445c-0.018-0.051-0.06-0.295-0.127-0.736c-0.068-0.439-0.148-0.99-0.241-1.65
		s-0.194-1.4-0.305-2.221c-0.11-0.821-0.216-1.65-0.317-2.488s-0.182-1.639-0.241-2.4s-0.089-1.422-0.089-1.98
		c0-0.812-0.025-1.676-0.076-2.59s-0.102-1.764-0.152-2.551s-0.102-1.443-0.152-1.969c-0.051-0.523-0.076-0.803-0.076-0.838
		c0-0.186,0.059-0.342,0.178-0.469c0.118-0.127,0.296-0.207,0.533-0.242c0.186,0,0.343,0.064,0.47,0.191s0.207,0.283,0.241,0.469
		c0,0.051,0.025,0.34,0.076,0.863c0.051,0.525,0.102,1.182,0.152,1.969s0.102,1.637,0.152,2.551S264.109,159.023,264.109,159.852z"
		/>
	<path fill="#FFFFFF" d="M277.998,159.775c0,0.543,0.029,1.193,0.089,1.955s0.14,1.559,0.241,2.387
		c0.102,0.83,0.207,1.655,0.317,2.477c0.11,0.82,0.212,1.565,0.305,2.234c0.093,0.668,0.173,1.215,0.241,1.637
		c0.067,0.424,0.102,0.652,0.102,0.686c0,0.17-0.06,0.322-0.178,0.457c-0.119,0.136-0.297,0.221-0.533,0.254
		c-0.17,0-0.322-0.055-0.457-0.164c-0.136-0.111-0.221-0.259-0.254-0.445c0-0.033-0.021-0.193-0.063-0.482
		c-0.042-0.287-0.098-0.668-0.165-1.143c-0.694,0.711-1.439,1.229-2.234,1.549c-0.796,0.322-1.549,0.482-2.26,0.482
		c-0.576,0-1.041-0.093-1.396-0.279c-0.508-0.236-0.994-0.554-1.46-0.951c-0.466-0.398-0.876-0.855-1.231-1.371
		c-0.355-0.517-0.639-1.088-0.851-1.715c-0.212-0.625-0.317-1.285-0.317-1.98c0-0.559,0.076-1.143,0.229-1.752
		c0.169-0.643,0.444-1.303,0.825-1.98c0.381-0.676,0.816-1.311,1.308-1.904c0.49-0.592,1.023-1.129,1.6-1.611
		c0.575-0.482,1.15-0.859,1.727-1.131c0.609-0.287,1.168-0.432,1.676-0.432c0.203,0,0.397,0.021,0.584,0.064
		c0.186,0.042,0.397,0.123,0.635,0.24c-0.034-0.625-0.072-1.234-0.114-1.828c-0.042-0.592-0.085-1.121-0.127-1.586
		c-0.042-0.466-0.076-0.842-0.102-1.131c-0.025-0.287-0.038-0.447-0.038-0.482c0-0.186,0.063-0.342,0.19-0.469
		s0.3-0.207,0.521-0.242c0.186,0,0.343,0.064,0.47,0.191s0.207,0.283,0.241,0.469c0,0.051,0.025,0.34,0.076,0.863
		c0.051,0.525,0.105,1.178,0.165,1.955c0.06,0.779,0.114,1.63,0.165,2.553C277.973,158.07,277.998,158.947,277.998,159.775z
		 M277.008,168.23c0.084-0.117,0.211-0.203,0.381-0.254c-0.102-0.66-0.199-1.366-0.292-2.119c-0.093-0.754-0.178-1.498-0.254-2.234
		s-0.14-1.439-0.19-2.107c-0.051-0.669-0.076-1.248-0.076-1.74c0-0.117,0-0.236,0-0.355c0-0.117-0.009-0.244-0.025-0.381
		c-0.271-0.084-0.432-0.279-0.482-0.584c0-0.033-0.021-0.088-0.063-0.164s-0.132-0.148-0.267-0.217
		c-0.136-0.066-0.297-0.102-0.482-0.102c-0.187,0-0.373,0.03-0.559,0.09c-0.187,0.059-0.355,0.123-0.508,0.189
		c-0.475,0.221-0.957,0.543-1.447,0.965c-0.491,0.424-0.952,0.898-1.384,1.422c-0.432,0.525-0.812,1.08-1.143,1.664
		s-0.571,1.146-0.724,1.688c-0.119,0.457-0.178,0.924-0.178,1.396c0,0.594,0.098,1.143,0.292,1.65s0.44,0.965,0.736,1.371
		s0.622,0.75,0.978,1.029s0.693,0.494,1.016,0.646c0.203,0.102,0.465,0.152,0.787,0.152c0.559,0,1.197-0.156,1.917-0.469
		C275.76,169.454,276.415,168.941,277.008,168.23z"/>
</g>
</svg>
