<?xml version="1.0" encoding="utf-8"?>
<!-- Generator: Adobe Illustrator 16.0.0, SVG Export Plug-In . SVG Version: 6.00 Build 0)  -->
<!DOCTYPE svg PUBLIC "-//W3C//DTD SVG 1.1//EN" "http://www.w3.org/Graphics/SVG/1.1/DTD/svg11.dtd">
<svg version="1.1" id="Layer_1" xmlns="http://www.w3.org/2000/svg" xmlns:xlink="http://www.w3.org/1999/xlink" x="0px" y="0px"
	 width="300px" height="250px" viewBox="0 0 300 250" enable-background="new 0 0 300 250" xml:space="preserve">
<path fill="#F18A58" d="M123.397,61.344c0-2.564,0.838-4.71,2.514-6.437s3.859-2.59,6.551-2.59c2.717,0,4.93,0.863,6.64,2.59
	s2.564,3.89,2.564,6.487c0,2.648-0.87,4.835-2.609,6.557c-1.739,1.723-3.95,2.584-6.633,2.584c-1.709,0-3.282-0.408-4.716-1.225
	c-1.435-0.817-2.512-1.955-3.231-3.416C123.757,64.436,123.397,62.918,123.397,61.344z M126.304,61.356
	c0,1.938,0.567,3.563,1.701,4.875s2.624,1.968,4.469,1.968c1.828,0,3.331-0.671,4.507-2.012c1.176-1.342,1.765-2.943,1.765-4.806
	c0-1.879-0.599-3.468-1.796-4.767c-1.198-1.3-2.702-1.949-4.513-1.949c-1.803,0-3.275,0.639-4.418,1.917
	S126.304,59.452,126.304,61.356z"/>
<path fill="#F18A58" d="M145.601,68.047V54.806h-2.526v-2.209h6.028l7.747,13.727V54.806h-2.502v-2.209h7.25v2.209h-2.604v15.628
	h-2.736l-8.473-15.072v12.686h2.526v2.209h-7.236v-2.209H145.601z"/>
<path fill="#F18A58" d="M164.645,68.047V54.806h-2.285v-2.209h14.676v5.319h-2.184v-3.11h-7.541v5.256h6.562v2.209h-6.562v5.776
	h7.541v-3.212h2.184v5.421h-14.676v-2.209H164.645z"/>
</svg>
