<?xml version="1.0" encoding="utf-8"?>
<!-- Generator: Adobe Illustrator 16.0.0, SVG Export Plug-In . SVG Version: 6.00 Build 0)  -->
<!DOCTYPE svg PUBLIC "-//W3C//DTD SVG 1.1//EN" "http://www.w3.org/Graphics/SVG/1.1/DTD/svg11.dtd">
<svg version="1.1" id="Layer_1" xmlns="http://www.w3.org/2000/svg" xmlns:xlink="http://www.w3.org/1999/xlink" x="0px" y="0px"
	 width="300px" height="250px" viewBox="0 0 300 250" enable-background="new 0 0 300 250" xml:space="preserve">
<g>
	<path fill="#E3A600" stroke="#925F36" stroke-width="0.1" stroke-miterlimit="10" d="M88.362,211.538c0,0.399-0.16,0.8-0.46,1.18
		c-2.22,2.79-12.21,4.91-24.21,4.91c-11.061,0-20.41-1.8-23.54-4.271c-0.48-0.379-0.81-0.77-0.98-1.18l-0.14-0.64
		c0-3.36,11.04-6.08,24.66-6.08C77.322,205.458,88.362,208.178,88.362,211.538z"/>
	<path fill="#AF8019" stroke="#925F36" stroke-width="0.1" stroke-miterlimit="10" d="M89.032,214.538c0,3.36-11.05,6.09-24.67,6.09
		s-24.67-2.729-24.67-6.09l-0.521-2.36c0.171,0.41,0.5,0.801,0.98,1.18c3.13,2.471,12.479,4.271,23.54,4.271
		c12,0,21.99-2.12,24.21-4.91c0.3-0.38,0.46-0.78,0.46-1.18l0.52,2.35L89.032,214.538z"/>
</g>
<g>
	<path fill="#E3A600" stroke="#925F36" stroke-width="0.1" stroke-miterlimit="10" d="M91.695,205.753c0,0.399-0.159,0.8-0.46,1.181
		c-2.22,2.789-12.21,4.91-24.21,4.91c-11.06,0-20.41-1.801-23.54-4.271c-0.479-0.379-0.81-0.77-0.979-1.18l-0.141-0.64
		c0-3.36,11.04-6.08,24.66-6.08C80.655,199.673,91.695,202.393,91.695,205.753z"/>
	<path fill="#AF8019" stroke="#925F36" stroke-width="0.1" stroke-miterlimit="10" d="M92.365,208.753
		c0,3.36-11.05,6.091-24.67,6.091s-24.67-2.73-24.67-6.091l-0.52-2.36c0.17,0.41,0.5,0.801,0.979,1.18
		c3.13,2.471,12.48,4.271,23.54,4.271c12,0,21.99-2.121,24.21-4.91c0.301-0.381,0.46-0.781,0.46-1.181l0.521,2.351L92.365,208.753z"
		/>
</g>
<g>
	<path fill="#E3A600" stroke="#925F36" stroke-width="0.1" stroke-miterlimit="10" d="M83.694,199.11c0,0.4-0.16,0.8-0.46,1.181
		c-2.221,2.789-12.21,4.91-24.21,4.91c-11.061,0-20.41-1.801-23.54-4.271c-0.48-0.38-0.811-0.771-0.98-1.181l-0.14-0.64
		c0-3.36,11.04-6.079,24.66-6.079C72.654,193.031,83.694,195.75,83.694,199.11z"/>
	<path fill="#AF8019" stroke="#925F36" stroke-width="0.1" stroke-miterlimit="10" d="M84.364,202.11
		c0,3.36-11.051,6.091-24.67,6.091c-13.62,0-24.67-2.73-24.67-6.091l-0.521-2.36c0.17,0.41,0.5,0.801,0.98,1.181
		c3.13,2.47,12.479,4.271,23.54,4.271c12,0,21.989-2.121,24.21-4.91c0.3-0.381,0.46-0.78,0.46-1.181l0.52,2.351L84.364,202.11z"/>
</g>
<g>
	<path fill="#E3A600" stroke="#925F36" stroke-width="0.1" stroke-miterlimit="10" d="M93.362,195.699c0,0.4-0.16,0.8-0.46,1.18
		c-2.22,2.791-12.21,4.91-24.21,4.91c-11.061,0-20.41-1.8-23.54-4.27c-0.48-0.381-0.81-0.771-0.98-1.18l-0.14-0.641
		c0-3.359,11.04-6.08,24.66-6.08C82.322,189.619,93.362,192.34,93.362,195.699z"/>
	<path fill="#AF8019" stroke="#925F36" stroke-width="0.1" stroke-miterlimit="10" d="M94.032,198.699
		c0,3.359-11.05,6.09-24.67,6.09s-24.67-2.73-24.67-6.09l-0.521-2.359c0.171,0.409,0.5,0.799,0.98,1.18
		c3.13,2.47,12.479,4.27,23.54,4.27c12,0,21.99-2.119,24.21-4.91c0.3-0.38,0.46-0.779,0.46-1.18l0.52,2.35L94.032,198.699z"/>
</g>
<g>
	<path fill="#E3A600" stroke="#925F36" stroke-width="0.1" stroke-miterlimit="10" d="M84.359,190.814c0,0.4-0.16,0.801-0.46,1.181
		c-2.221,2.79-12.211,4.909-24.211,4.909c-11.06,0-20.409-1.799-23.539-4.27c-0.48-0.38-0.811-0.77-0.98-1.18l-0.14-0.641
		c0-3.359,11.04-6.08,24.659-6.08C73.319,184.734,84.359,187.455,84.359,190.814z"/>
	<path fill="#AF8019" stroke="#925F36" stroke-width="0.1" stroke-miterlimit="10" d="M85.029,193.814c0,3.36-11.05,6.09-24.67,6.09
		s-24.671-2.729-24.671-6.09l-0.52-2.359c0.17,0.41,0.5,0.8,0.98,1.18c3.13,2.471,12.479,4.27,23.539,4.27
		c12,0,21.99-2.119,24.211-4.909c0.3-0.38,0.46-0.78,0.46-1.181l0.52,2.351L85.029,193.814z"/>
</g>
</svg>
