<?xml version="1.0" encoding="utf-8"?>
<!-- Generator: Adobe Illustrator 16.0.0, SVG Export Plug-In . SVG Version: 6.00 Build 0)  -->
<!DOCTYPE svg PUBLIC "-//W3C//DTD SVG 1.1//EN" "http://www.w3.org/Graphics/SVG/1.1/DTD/svg11.dtd">
<svg version="1.1" id="Layer_1" xmlns="http://www.w3.org/2000/svg" xmlns:xlink="http://www.w3.org/1999/xlink" x="0px" y="0px"
	 width="300px" height="250px" viewBox="0 0 300 250" enable-background="new 0 0 300 250" xml:space="preserve">
<polygon fill="#9E6019" points="117.49,186.18 109.45,250 46.83,250 36.82,186.18 "/>
<polygon fill="#8C4816" points="71.68,250 48.83,250 39.32,191.06 "/>
<path fill="#422918" d="M117.483,186.189c0,3.758-18.06,6.814-40.331,6.814c-22.271,0-40.33-3.057-40.33-6.814l1.111-1.594
	l2.296-3.29c0,0,0.482,0.131,1.345-0.849c0.848-0.979,0.965-1.944,1.462-2.076c0.482-0.117,2.193,0.979,2.193,0.979h1.58
	l2.076-0.979c2.062-0.731,2.676,0,2.676,0l1.346,0.365l1.579-0.117l2.559-0.57h2.442l1.945,0.57l2.193,0.117l1.711-0.688
	c2.062-0.774,2.793,0,2.793,0c1.097-0.044,2.325-0.351,2.325-0.351c1.828-0.176,2.676,0,2.676,0l2.808-0.073l1.213-0.717
	c0,0,0.98,0.132,2.077,0.497c1.097,0.366,0.117,0.6,1.097,0.366c0.205-0.059,0.292-0.073,0.322-0.073c0,0,0,0.015,0.015,0
	c0.103-0.029,0.292-0.088,0.629-0.176c1.594-0.482,1.594-0.482,1.594-0.482s1.696-0.132,3.042-0.132s2.808,1.097,2.808,1.097
	l1.828,0.132c0,0,0-0.979,1.828-0.132c1.828,0.863,0.483,1.097,1.828,0.863c1.331-0.249,2.193-0.614,2.193-0.614
	c1.331-0.731,2.676-0.849,2.676-0.849s1.462-0.497,2.193,0.6c0.731,1.097-0.848,0.498,0.731,1.097
	c1.579,0.614,1.579,0.614,1.579,0.614s0.98,0.483,1.959,0.614c0.965,0.117,0.965,0.117,0.965,0.117
	c0.979,0.234,1.433,0.336,1.623,0.395l3.495,0.702l1.462,0.482v1.053h0.015l2.427,0.176c0,0,0.512,1.082,0.848,1.346
	C116.723,184.873,117.483,186.189,117.483,186.189z"/>
</svg>
