<?xml version="1.0" encoding="utf-8"?>
<!-- Generator: Adobe Illustrator 16.0.0, SVG Export Plug-In . SVG Version: 6.00 Build 0)  -->
<!DOCTYPE svg PUBLIC "-//W3C//DTD SVG 1.1//EN" "http://www.w3.org/Graphics/SVG/1.1/DTD/svg11.dtd">
<svg version="1.1" id="Layer_1" xmlns="http://www.w3.org/2000/svg" xmlns:xlink="http://www.w3.org/1999/xlink" x="0px" y="0px"
	 width="300px" height="250px" viewBox="0 0 300 250" enable-background="new 0 0 300 250" xml:space="preserve">
<g>
	<path fill="#683B11" d="M71.623,109.401c0,0,0.928,0.925,2.428,2.647c1.507,1.719,3.556,4.27,5.753,7.547
		c2.171,3.283,4.552,7.303,6.082,12.167c0.749,2.427,1.303,5.079,1.239,7.888c-0.07,2.795-0.8,5.743-2.321,8.301
		c-0.74,1.114-1.48,2.229-2.217,3.339l-0.536,0.808c-0.169,0.268-0.271,0.519-0.406,0.779c-0.255,0.513-0.509,1.023-0.763,1.532
		c-0.488,1.035-0.866,2.188-1.301,3.248c-0.297,1.132-0.743,2.188-0.982,3.301c-0.287,1.1-0.581,2.174-0.784,3.258
		c-0.113,0.539-0.226,1.072-0.336,1.6c-0.084,0.534-0.167,1.063-0.249,1.584c-0.188,1.041-0.291,2.07-0.402,3.068
		c-0.157,0.995-0.171,1.97-0.261,2.906c-0.045,0.941-0.088,1.844-0.128,2.702c-0.021,0.861,0.002,1.679-0.028,2.456
		c0.015,1.546,0.061,2.902,0.118,4.024c0.04,0.561,0.075,1.062,0.105,1.497c0.049,0.429,0.089,0.799,0.111,1.104
		c0.091,0.593,0.14,0.908,0.14,0.908l-0.456,0.205c0,0-0.179-0.292-0.516-0.838c-0.303-0.555-0.708-1.394-1.135-2.489
		c-0.208-0.55-0.416-1.163-0.648-1.836c-0.191-0.682-0.398-1.419-0.62-2.207c-0.371-1.591-0.74-3.411-0.943-5.428
		c-0.192-2.016-0.334-4.227-0.167-6.572c0.038-0.587,0.076-1.182,0.115-1.784c0.088-0.6,0.176-1.206,0.266-1.82
		c0.129-1.236,0.495-2.465,0.797-3.726c0.147-0.631,0.38-1.247,0.607-1.87c0.22-0.624,0.462-1.245,0.703-1.869
		c0.271-0.614,0.583-1.219,0.889-1.825c0.33-0.604,0.566-1.216,0.98-1.817c0.382-0.598,0.766-1.199,1.151-1.802
		c0.196-0.29,0.379-0.619,0.579-0.88l0.602-0.76c0.78-0.981,1.563-1.967,2.346-2.952c1.256-1.841,1.982-4.033,2.2-6.331
		c0.192-2.302-0.074-4.674-0.584-6.935c-0.51-2.268-1.279-4.426-2.104-6.442c-0.831-2.017-1.752-3.881-2.666-5.572
		c-1.829-3.387-3.643-6.063-4.926-7.922c-1.293-1.856-2.104-2.86-2.104-2.86L71.623,109.401z"/>
</g>
<path fill="#0A7E35" d="M86.271,145.443c0,0,6.399-18.122,28.198-13.591C114.469,131.853,108.997,149.706,86.271,145.443z"/>
<path fill="#3FAA35" d="M61.01,119.245c0,0,13.958-4.115,20.853,11.27C81.862,130.515,68.479,135.08,61.01,119.245z"/>
</svg>
