<?xml version="1.0" encoding="utf-8"?>
<!-- Generator: Adobe Illustrator 16.0.0, SVG Export Plug-In . SVG Version: 6.00 Build 0)  -->
<!DOCTYPE svg PUBLIC "-//W3C//DTD SVG 1.1//EN" "http://www.w3.org/Graphics/SVG/1.1/DTD/svg11.dtd">
<svg version="1.1" id="Layer_1" xmlns="http://www.w3.org/2000/svg" xmlns:xlink="http://www.w3.org/1999/xlink" x="0px" y="0px"
	 width="300px" height="250px" viewBox="0 0 300 250" enable-background="new 0 0 300 250" xml:space="preserve">
<g>
	<path fill="#076B30" stroke="#076B30" stroke-miterlimit="10" d="M33.37,37.26c0.812,0.22,1.54,0.58,2.184,1.079
		c0.644,0.5,1.185,1.066,1.625,1.701c0.44,0.635,0.778,1.294,1.016,1.98c0.238,0.686,0.355,1.325,0.355,1.918l-0.025,0.381
		c-0.017,0.457-0.051,0.943-0.102,1.459c-0.051,0.518-0.203,1.025-0.457,1.523c-0.254,0.5-0.656,0.965-1.206,1.396
		c-0.551,0.432-1.316,0.783-2.298,1.055c-0.491,0.152-0.936,0.258-1.333,0.316c-0.398,0.06-0.783,0.09-1.155,0.09
		c-0.542,0-1.079-0.061-1.612-0.178c-0.533-0.119-1.181-0.279-1.942-0.482c-0.694-0.17-1.286-0.445-1.777-0.826
		c-0.491-0.381-0.897-0.762-1.219-1.143c-0.322-0.381-0.559-0.719-0.711-1.016c-0.152-0.295-0.237-0.461-0.254-0.494
		c-0.051-0.068-0.076-0.161-0.076-0.279c0-0.288,0.144-0.508,0.432-0.66c0.136-0.034,0.229-0.051,0.279-0.051
		c0.136,0,0.267,0.037,0.394,0.113c0.127,0.076,0.216,0.183,0.267,0.318l0.178,0.33c0.118,0.236,0.305,0.504,0.559,0.799
		c0.254,0.297,0.575,0.594,0.965,0.889c0.39,0.297,0.854,0.521,1.396,0.674c0.711,0.186,1.299,0.33,1.765,0.432
		c0.465,0.102,0.918,0.152,1.358,0.152c0.575,0,1.278-0.11,2.107-0.33c0.728-0.221,1.295-0.475,1.701-0.762
		c0.406-0.288,0.702-0.609,0.889-0.965s0.3-0.736,0.343-1.143c0.042-0.406,0.072-0.83,0.089-1.27l0.025-0.457
		c0-0.355-0.089-0.796-0.267-1.32c-0.178-0.525-0.436-1.041-0.774-1.549c-0.339-0.508-0.767-0.974-1.282-1.397
		c-0.517-0.423-1.113-0.719-1.79-0.889c-0.457-0.135-0.944-0.229-1.46-0.279c-0.517-0.051-1.028-0.102-1.536-0.152
		c-0.593-0.051-1.173-0.11-1.739-0.178c-0.567-0.067-1.079-0.19-1.536-0.368c-0.457-0.178-0.834-0.423-1.13-0.736
		c-0.297-0.313-0.47-0.74-0.521-1.282c0-0.067-0.005-0.127-0.013-0.178c-0.009-0.051-0.013-0.102-0.013-0.152
		c0-0.66,0.131-1.223,0.394-1.688c0.262-0.465,0.584-0.859,0.965-1.181c0.381-0.321,0.778-0.584,1.193-0.787
		c0.414-0.203,0.774-0.372,1.079-0.508c0.39-0.186,0.858-0.317,1.409-0.394c0.55-0.076,1.146-0.114,1.79-0.114
		c0.575,0,1.155,0.034,1.739,0.102c0.584,0.068,1.155,0.169,1.714,0.305c0.372,0.085,0.55,0.364,0.533,0.838
		c-0.034,0.169-0.127,0.305-0.279,0.406s-0.347,0.144-0.584,0.127c-0.491-0.135-1.012-0.229-1.562-0.279
		c-0.551-0.051-1.079-0.076-1.587-0.076c-0.542,0-1.037,0.03-1.485,0.089c-0.449,0.06-0.825,0.157-1.13,0.292
		c-0.355,0.152-0.702,0.317-1.041,0.495c-0.339,0.178-0.635,0.385-0.889,0.622c-0.254,0.237-0.453,0.517-0.597,0.838
		c-0.145,0.322-0.216,0.703-0.216,1.143c0.034,0.44,0.368,0.736,1.003,0.889c0.635,0.153,1.502,0.271,2.603,0.354
		c0.542,0.051,1.087,0.106,1.638,0.165C32.308,37.027,32.846,37.125,33.37,37.26z"/>
	<path fill="#076B30" stroke="#076B30" stroke-miterlimit="10" d="M53.886,31.064c0.187,0.017,0.339,0.098,0.457,0.241
		c0.118,0.144,0.169,0.326,0.152,0.546c-0.017,0.187-0.093,0.334-0.229,0.444c-0.136,0.11-0.321,0.165-0.559,0.165l-0.482-0.051
		c-0.339-0.034-0.812-0.076-1.422-0.127c-0.61-0.051-1.342-0.093-2.196-0.127c-0.855-0.034-1.807-0.051-2.856-0.051
		c-0.136,0-0.263,0-0.381,0c-0.118,0-0.245,0.009-0.381,0.025c0.067,0.559,0.14,1.206,0.216,1.942
		c0.076,0.736,0.14,1.477,0.19,2.222c0.051,0.745,0.093,1.452,0.127,2.12c0.034,0.669,0.051,1.215,0.051,1.638
		c0,0.322,0.021,0.779,0.063,1.372c0.042,0.592,0.093,1.24,0.152,1.941c0.059,0.703,0.123,1.422,0.19,2.158s0.136,1.406,0.203,2.006
		c0.067,0.602,0.122,1.102,0.165,1.498c0.042,0.398,0.063,0.605,0.063,0.623c0,0.186-0.063,0.342-0.19,0.469
		c-0.127,0.127-0.301,0.207-0.521,0.242c-0.187,0-0.347-0.061-0.482-0.178c-0.136-0.119-0.212-0.271-0.229-0.457
		c0-0.051-0.025-0.279-0.076-0.686c-0.051-0.407-0.106-0.91-0.165-1.512c-0.06-0.6-0.123-1.265-0.19-1.992
		c-0.067-0.729-0.132-1.443-0.19-2.146c-0.06-0.701-0.11-1.35-0.152-1.941c-0.043-0.593-0.063-1.058-0.063-1.397
		c0-0.457-0.017-1.032-0.051-1.727c-0.034-0.694-0.081-1.413-0.14-2.158c-0.06-0.745-0.123-1.473-0.19-2.184
		s-0.136-1.32-0.203-1.828c-0.914,0.034-1.812,0.072-2.691,0.114c-0.88,0.042-1.663,0.089-2.349,0.14
		c-0.686,0.051-1.244,0.093-1.676,0.127c-0.432,0.034-0.656,0.051-0.673,0.051c-0.187,0.017-0.347-0.042-0.482-0.178
		c-0.136-0.135-0.212-0.313-0.229-0.533c0-0.186,0.06-0.347,0.178-0.482c0.118-0.135,0.271-0.211,0.457-0.229
		c0.017,0,0.254-0.017,0.711-0.051c0.457-0.034,1.058-0.076,1.803-0.127c0.745-0.051,1.587-0.102,2.526-0.152
		s1.892-0.093,2.856-0.127c0.034,0,0.067-0.004,0.102-0.013c0.034-0.008,0.102-0.004,0.203,0.013c0.237,0,0.478-0.004,0.724-0.013
		c0.245-0.008,0.486-0.013,0.724-0.013c1.083,0,2.057,0.017,2.92,0.051c0.863,0.034,1.604,0.076,2.222,0.127
		c0.617,0.051,1.096,0.098,1.435,0.14C53.666,31.043,53.852,31.064,53.886,31.064z"/>
	<path fill="#076B30" stroke="#076B30" stroke-miterlimit="10" d="M64.22,39.977c0.085,0.322,0.232,0.779,0.444,1.372
		c0.211,0.592,0.444,1.24,0.698,1.941c0.254,0.703,0.521,1.418,0.8,2.146c0.279,0.728,0.529,1.393,0.749,1.992
		c0.22,0.603,0.406,1.092,0.559,1.473c0.153,0.381,0.229,0.58,0.229,0.598c0.034,0.067,0.051,0.152,0.051,0.254
		c0,0.32-0.152,0.541-0.457,0.66c-0.051,0.033-0.136,0.051-0.254,0.051c-0.136,0-0.267-0.039-0.394-0.115
		c-0.127-0.076-0.216-0.189-0.267-0.342c-0.017-0.051-0.118-0.309-0.305-0.775c-0.187-0.465-0.411-1.036-0.673-1.713
		c-0.263-0.678-0.555-1.418-0.876-2.223c-0.321-0.803-0.635-1.569-0.939-2.297c-0.339-0.051-0.728-0.11-1.168-0.178
		c-0.372-0.034-0.825-0.072-1.358-0.115c-0.533-0.041-1.121-0.062-1.765-0.062c-0.44,0-0.894,0.012-1.358,0.037
		c-0.466,0.025-0.918,0.056-1.358,0.09c-0.305,0.728-0.635,1.506-0.99,2.336c-0.355,0.829-0.694,1.6-1.016,2.311
		c-0.322,0.711-0.593,1.316-0.812,1.814c-0.22,0.5-0.339,0.775-0.355,0.826c-0.136,0.27-0.355,0.406-0.66,0.406
		c-0.118,0-0.212-0.018-0.279-0.051c-0.288-0.137-0.432-0.355-0.432-0.66c0-0.085,0.025-0.178,0.076-0.279
		c0-0.018,0.093-0.232,0.279-0.648c0.187-0.414,0.419-0.939,0.698-1.574c0.279-0.635,0.588-1.336,0.927-2.107
		c0.339-0.77,0.66-1.51,0.965-2.221c-0.474,0.051-0.863,0.098-1.168,0.139c-0.305,0.043-0.482,0.064-0.533,0.064
		c-0.187,0-0.343-0.06-0.47-0.178c-0.127-0.119-0.207-0.297-0.241-0.533c0-0.187,0.055-0.344,0.165-0.471
		c0.109-0.127,0.258-0.207,0.444-0.24c0.034,0,0.274-0.029,0.724-0.09c0.448-0.059,1.012-0.122,1.688-0.189
		c0.136-0.305,0.249-0.584,0.343-0.838c0.093-0.254,0.174-0.474,0.241-0.66c0.152-0.457,0.376-1.062,0.673-1.815
		c0.296-0.753,0.613-1.54,0.952-2.361c0.339-0.821,0.681-1.616,1.028-2.387c0.347-0.771,0.647-1.409,0.901-1.917
		c0.034-0.271,0.169-0.465,0.406-0.584c0.067-0.034,0.178-0.051,0.33-0.051c0.136,0,0.254,0.025,0.355,0.076
		c0.22,0.119,0.347,0.313,0.381,0.584c0.22,0.508,0.478,1.151,0.774,1.93c0.296,0.779,0.592,1.579,0.889,2.399
		c0.296,0.821,0.562,1.608,0.8,2.361C63.898,38.915,64.084,39.52,64.22,39.977z M59.294,41.221c0.914,0,1.701,0.029,2.361,0.088
		c0.66,0.061,1.185,0.115,1.574,0.166c-0.085-0.237-0.157-0.449-0.216-0.635c-0.06-0.187-0.114-0.347-0.165-0.483
		c-0.102-0.406-0.245-0.901-0.432-1.485s-0.394-1.202-0.622-1.854c-0.229-0.651-0.461-1.303-0.698-1.955
		c-0.237-0.651-0.466-1.248-0.686-1.79c-0.254,0.542-0.521,1.139-0.8,1.79c-0.279,0.652-0.551,1.304-0.812,1.955
		c-0.263,0.652-0.508,1.274-0.736,1.866c-0.229,0.593-0.41,1.092-0.546,1.498c-0.034,0.136-0.081,0.275-0.14,0.419
		c-0.06,0.144-0.123,0.309-0.19,0.496C57.863,41.247,58.566,41.221,59.294,41.221z"/>
	<path fill="#076B30" stroke="#076B30" stroke-miterlimit="10" d="M81.562,45.614c0.88,1.066,1.532,1.955,1.955,2.666
		c0.423,0.711,0.644,1.083,0.66,1.117c0.051,0.102,0.076,0.211,0.076,0.33c0,0.135-0.03,0.258-0.089,0.367
		c-0.06,0.11-0.156,0.199-0.292,0.268c-0.102,0.051-0.212,0.076-0.33,0.076c-0.288,0-0.491-0.127-0.609-0.381
		c-0.017,0-0.225-0.339-0.622-1.016c-0.398-0.678-1.012-1.523-1.841-2.539c-0.423-0.508-0.872-1.016-1.346-1.523
		s-0.914-0.965-1.32-1.371c-0.406-0.406-0.745-0.745-1.016-1.016l-0.432-0.381c-0.067-0.068-0.127-0.152-0.178-0.254h-1.041
		c-0.39,0-0.771,0-1.143,0s-0.753-0.009-1.143-0.025c-0.22-0.018-0.437-0.025-0.647-0.025c-0.212,0-0.419,0-0.622,0
		c0.051,0.744,0.114,1.545,0.19,2.398c0.076,0.855,0.152,1.655,0.229,2.4c0.076,0.744,0.144,1.371,0.203,1.879
		s0.089,0.778,0.089,0.812c0,0.186-0.063,0.347-0.19,0.482c-0.127,0.135-0.301,0.211-0.521,0.229c-0.187,0-0.343-0.061-0.47-0.178
		c-0.127-0.119-0.207-0.271-0.241-0.457c0-0.051-0.021-0.279-0.063-0.686c-0.043-0.406-0.098-0.91-0.165-1.512
		c-0.067-0.6-0.136-1.265-0.203-1.992c-0.067-0.729-0.132-1.443-0.19-2.146c-0.06-0.701-0.11-1.35-0.152-1.941
		c-0.043-0.593-0.063-1.058-0.063-1.397c0-0.423-0.013-0.939-0.038-1.549s-0.063-1.252-0.114-1.93
		c-0.051-0.677-0.106-1.35-0.165-2.019c-0.06-0.668-0.123-1.273-0.19-1.815c-0.034-0.034-0.06-0.08-0.076-0.14
		c-0.017-0.059-0.042-0.156-0.076-0.292c0-0.067,0.017-0.152,0.051-0.254c-0.017-0.084-0.03-0.178-0.038-0.279
		c-0.009-0.102-0.029-0.22-0.063-0.355c0-0.169,0.06-0.321,0.178-0.457c0.118-0.135,0.296-0.22,0.533-0.254
		c0.169,0,0.321,0.06,0.457,0.178c0.136,0.119,0.229,0.296,0.279,0.533c0.593-0.152,1.159-0.279,1.701-0.381
		c0.542-0.102,1.134-0.152,1.777-0.152c0.593,0,1.244,0.055,1.955,0.165c0.711,0.11,1.565,0.292,2.564,0.546
		c0.626,0.169,1.185,0.449,1.676,0.838c0.491,0.39,0.897,0.83,1.219,1.32c0.321,0.491,0.567,1.003,0.736,1.536
		c0.169,0.533,0.254,1.028,0.254,1.485c0,0.152-0.009,0.271-0.025,0.355l-0.025,0.305c-0.034,0.355-0.093,0.741-0.178,1.155
		c-0.085,0.415-0.245,0.825-0.482,1.231c-0.237,0.406-0.593,0.792-1.066,1.155c-0.474,0.365-1.117,0.656-1.93,0.876
		c-0.136,0.051-0.284,0.088-0.444,0.113c-0.161,0.025-0.334,0.056-0.521,0.09c0.22,0.203,0.474,0.448,0.762,0.736
		c0.288,0.287,0.588,0.596,0.901,0.926c0.312,0.33,0.635,0.678,0.965,1.041C80.939,44.874,81.257,45.241,81.562,45.614z
		 M72.903,40.51c0.355,0.017,0.72,0.025,1.092,0.025s0.736,0,1.092,0c0.694,0,1.341-0.017,1.942-0.051
		c0.601-0.034,1.113-0.11,1.536-0.229c0.593-0.169,1.054-0.368,1.384-0.597c0.33-0.229,0.58-0.478,0.749-0.749
		c0.169-0.271,0.283-0.567,0.343-0.889c0.059-0.321,0.105-0.651,0.14-0.99l0.051-0.508c0-0.288-0.056-0.622-0.165-1.003
		c-0.11-0.381-0.283-0.757-0.521-1.13c-0.237-0.372-0.533-0.711-0.889-1.016c-0.356-0.305-0.771-0.524-1.244-0.66
		c-0.914-0.237-1.701-0.406-2.361-0.508c-0.66-0.102-1.261-0.152-1.803-0.152c-0.593,0-1.139,0.051-1.638,0.152
		c-0.5,0.102-1.045,0.22-1.638,0.355c0.067,0.576,0.131,1.206,0.19,1.892s0.109,1.358,0.152,2.019
		c0.042,0.66,0.076,1.287,0.102,1.879c0.025,0.593,0.038,1.075,0.038,1.447c0,0.085,0,0.187,0,0.305
		c0,0.119,0.009,0.246,0.025,0.381c0.237,0,0.474,0,0.711,0C72.428,40.483,72.666,40.493,72.903,40.51z"/>
	<path fill="#076B30" stroke="#076B30" stroke-miterlimit="10" d="M95.425,39.977c0.524,0.22,0.969,0.461,1.333,0.724
		c0.363,0.263,0.673,0.529,0.927,0.8c0.491,0.541,0.833,1.088,1.028,1.637c0.194,0.551,0.292,1.046,0.292,1.486v0.305l-0.051,0.279
		c-0.034,0.406-0.093,0.824-0.178,1.256c-0.085,0.432-0.263,0.855-0.533,1.27c-0.271,0.416-0.665,0.805-1.181,1.168
		c-0.517,0.365-1.231,0.674-2.146,0.928c-0.22,0.066-0.538,0.122-0.952,0.164c-0.415,0.043-0.872,0.085-1.371,0.127
		c-0.5,0.043-1.016,0.076-1.549,0.102s-1.028,0.043-1.485,0.051c-0.457,0.009-0.851,0.018-1.181,0.025
		c-0.33,0.009-0.546,0.014-0.647,0.014c-0.187,0-0.352-0.072-0.495-0.217c-0.145-0.144-0.216-0.351-0.216-0.621
		c0-0.051-0.021-0.258-0.063-0.623c-0.043-0.363-0.089-0.82-0.14-1.371c-0.051-0.549-0.11-1.163-0.178-1.84
		c-0.067-0.678-0.132-1.359-0.19-2.045c-0.06-0.686-0.114-1.336-0.165-1.955c-0.051-0.617-0.085-1.146-0.102-1.586v-0.254
		c0-0.423-0.017-0.948-0.051-1.574c-0.034-0.626-0.072-1.282-0.114-1.968c-0.043-0.686-0.094-1.362-0.152-2.031
		c-0.06-0.668-0.123-1.273-0.19-1.815c-0.051-0.034-0.093-0.089-0.127-0.165c-0.034-0.076-0.067-0.19-0.102-0.343
		c0-0.152,0.034-0.271,0.102-0.355c-0.034-0.084-0.06-0.211-0.076-0.381c0-0.169,0.06-0.321,0.178-0.457
		c0.118-0.135,0.296-0.22,0.533-0.254c0.372,0,0.601,0.178,0.686,0.533c0.508-0.135,0.999-0.241,1.473-0.317
		c0.474-0.076,0.981-0.114,1.523-0.114c0.524,0,1.112,0.047,1.765,0.14c0.651,0.093,1.418,0.258,2.298,0.495
		c0.575,0.152,1.083,0.406,1.523,0.762c0.44,0.356,0.808,0.753,1.104,1.193c0.296,0.44,0.521,0.901,0.673,1.384
		c0.152,0.483,0.229,0.936,0.229,1.358c0,0.051,0,0.106,0,0.165c0,0.06-0.009,0.114-0.025,0.165l-0.025,0.254
		c-0.034,0.271-0.072,0.559-0.114,0.863c-0.043,0.305-0.131,0.614-0.267,0.927c-0.136,0.313-0.33,0.618-0.584,0.914
		C96.187,39.473,95.848,39.74,95.425,39.977z M93.571,32.562c-0.812-0.22-1.511-0.372-2.095-0.457
		c-0.584-0.084-1.113-0.127-1.587-0.127c-0.491,0-0.956,0.038-1.396,0.114c-0.44,0.076-0.905,0.174-1.396,0.292
		c0.067,0.525,0.131,1.104,0.19,1.739c0.059,0.635,0.109,1.27,0.152,1.904c0.042,0.635,0.08,1.244,0.114,1.828
		c0.034,0.584,0.051,1.088,0.051,1.511h1.066c0.321,0.017,0.644,0.03,0.965,0.038c0.321,0.009,0.651,0.013,0.99,0.013
		c0.102,0,0.212,0,0.33,0s0.271-0.017,0.457-0.051c0.085,0,0.165-0.004,0.241-0.013c0.076-0.008,0.156-0.013,0.241-0.013
		c0.067,0,0.131,0.004,0.19,0.013c0.059,0.009,0.131,0.013,0.216,0.013c0.271-0.034,0.528-0.063,0.774-0.089
		c0.245-0.025,0.461-0.072,0.647-0.14c0.508-0.135,0.905-0.3,1.193-0.495c0.288-0.194,0.508-0.415,0.66-0.66
		c0.152-0.245,0.254-0.503,0.305-0.774c0.051-0.271,0.093-0.559,0.127-0.863l0.025-0.457c0-0.254-0.047-0.55-0.14-0.889
		c-0.094-0.338-0.241-0.668-0.444-0.99c-0.203-0.321-0.462-0.613-0.774-0.876C94.362,32.872,93.994,32.681,93.571,32.562z
		 M97.583,44.598c0-0.288-0.072-0.623-0.216-1.004c-0.145-0.381-0.385-0.757-0.724-1.129c-0.187-0.187-0.406-0.373-0.66-0.559
		c-0.254-0.188-0.555-0.359-0.901-0.521c-0.348-0.16-0.749-0.295-1.206-0.406c-0.457-0.109-0.974-0.173-1.549-0.19
		c-0.271,0.017-0.546,0.03-0.825,0.038c-0.279,0.01-0.562,0.014-0.851,0.014c-0.339,0-0.677-0.004-1.016-0.014
		c-0.339-0.008-0.677-0.021-1.016-0.038h-0.965c0.034,0.576,0.085,1.252,0.152,2.032c0.067,0.778,0.14,1.561,0.216,2.348
		s0.148,1.516,0.216,2.184c0.067,0.67,0.118,1.182,0.152,1.537c0.559-0.018,1.155-0.039,1.79-0.064
		c0.635-0.025,1.24-0.055,1.815-0.088c0.575-0.034,1.092-0.076,1.549-0.127c0.457-0.051,0.787-0.102,0.99-0.152
		c0.677-0.203,1.21-0.424,1.6-0.66c0.39-0.237,0.681-0.496,0.876-0.775c0.194-0.279,0.321-0.579,0.381-0.9
		c0.059-0.322,0.114-0.678,0.165-1.066l0.025-0.279v-0.181H97.583z"/>
	<path fill="#076B30" stroke="#076B30" stroke-miterlimit="10" d="M114.772,31.268c0.102,0.474,0.198,1.104,0.292,1.892
		c0.093,0.787,0.174,1.608,0.241,2.463c0.067,0.855,0.122,1.68,0.165,2.476c0.042,0.796,0.063,1.439,0.063,1.93
		c0,0.102,0.017,0.402,0.051,0.901c0.034,0.5,0.051,1.071,0.051,1.715c0,0.626-0.025,1.266-0.076,1.916
		c-0.051,0.652-0.152,1.224-0.305,1.715c-0.271,0.896-0.66,1.607-1.168,2.133c-0.508,0.524-1.075,0.922-1.701,1.193
		c-0.626,0.271-1.266,0.447-1.917,0.533c-0.652,0.084-1.248,0.152-1.79,0.203c-0.085,0.016-0.157,0.025-0.216,0.025
		c-0.06,0-0.131,0-0.216,0c-0.762,0-1.596-0.162-2.501-0.482c-0.906-0.322-1.739-0.847-2.501-1.574
		c-0.711-0.711-1.21-1.532-1.498-2.463c-0.288-0.932-0.448-1.947-0.482-3.047l-0.076-2.717c-0.017-0.524-0.047-1.189-0.089-1.993
		c-0.043-0.804-0.098-1.625-0.165-2.463s-0.144-1.638-0.229-2.399c-0.085-0.761-0.178-1.371-0.279-1.828
		c0-0.372,0.237-0.609,0.711-0.711c0.169,0,0.321,0.051,0.457,0.152c0.136,0.101,0.22,0.246,0.254,0.432
		c0.102,0.491,0.194,1.13,0.279,1.917s0.161,1.608,0.229,2.463c0.067,0.855,0.122,1.68,0.165,2.476
		c0.042,0.796,0.072,1.439,0.089,1.93l0.076,2.793v0.457c0,1.625,0.524,2.953,1.574,3.986c0.305,0.287,0.626,0.533,0.965,0.736
		c0.339,0.203,0.686,0.372,1.041,0.508c0.355,0.135,0.702,0.236,1.041,0.305c0.339,0.067,0.651,0.102,0.939,0.102h0.305
		c0.644-0.051,1.248-0.123,1.815-0.217c0.566-0.092,1.079-0.249,1.536-0.469c0.457-0.221,0.854-0.517,1.193-0.889
		c0.339-0.373,0.601-0.872,0.787-1.498c0.136-0.424,0.224-0.928,0.267-1.512c0.042-0.584,0.063-1.163,0.063-1.738
		c0-0.678-0.017-1.266-0.051-1.766c-0.034-0.499-0.051-0.765-0.051-0.799c-0.017-0.508-0.051-1.159-0.102-1.955
		c-0.051-0.795-0.106-1.612-0.165-2.45c-0.06-0.838-0.131-1.642-0.216-2.412c-0.085-0.771-0.178-1.384-0.279-1.841
		c0-0.372,0.237-0.609,0.711-0.711c0.169,0,0.321,0.051,0.457,0.152C114.652,30.939,114.738,31.082,114.772,31.268z"/>
	<path fill="#076B30" stroke="#076B30" stroke-miterlimit="10" d="M130.819,46.883c0.136-0.136,0.305-0.203,0.508-0.203
		c0.203,0,0.364,0.059,0.482,0.178c0.152,0.152,0.229,0.33,0.229,0.533c0,0.186-0.067,0.347-0.203,0.482
		c-0.017,0.017-0.148,0.135-0.394,0.355s-0.584,0.457-1.016,0.711c-0.432,0.254-0.952,0.486-1.562,0.697
		c-0.609,0.213-1.295,0.318-2.057,0.318c-0.897,0-1.858-0.174-2.882-0.521c-1.024-0.346-1.98-0.909-2.869-1.688
		c-0.889-0.779-1.625-1.791-2.209-3.035s-0.876-2.771-0.876-4.583c0-0.559,0.017-1.045,0.051-1.46s0.089-0.787,0.165-1.117
		s0.169-0.63,0.279-0.901c0.109-0.271,0.241-0.533,0.394-0.787c0.017-0.034,0.14-0.241,0.368-0.622
		c0.228-0.381,0.512-0.816,0.851-1.308c0.339-0.491,0.724-0.969,1.155-1.435c0.432-0.465,0.859-0.8,1.282-1.003
		c0.491-0.22,0.981-0.381,1.473-0.482c0.492-0.101,0.956-0.152,1.396-0.152c0.474,0,0.889,0.051,1.244,0.152
		c0.169,0.034,0.39,0.098,0.66,0.19c0.271,0.093,0.546,0.199,0.825,0.317c0.279,0.119,0.537,0.246,0.774,0.381
		c0.237,0.136,0.406,0.263,0.508,0.381c0.136,0.187,0.224,0.411,0.267,0.673c0.042,0.263,0.063,0.512,0.063,0.749
		c0,0.187-0.067,0.352-0.203,0.495c-0.136,0.144-0.305,0.216-0.508,0.216c-0.187,0-0.352-0.072-0.495-0.216
		c-0.145-0.144-0.216-0.309-0.216-0.495c0-0.084,0-0.178,0-0.279c0-0.101-0.009-0.186-0.025-0.254
		c-0.169-0.084-0.453-0.216-0.851-0.394c-0.398-0.178-0.774-0.309-1.13-0.394c-0.136-0.034-0.275-0.059-0.419-0.076
		c-0.145-0.017-0.301-0.025-0.47-0.025c-0.355,0-0.732,0.038-1.13,0.114s-0.774,0.208-1.13,0.394
		c-0.237,0.102-0.495,0.296-0.774,0.584s-0.559,0.614-0.838,0.978c-0.279,0.364-0.546,0.741-0.8,1.13
		c-0.254,0.39-0.466,0.745-0.635,1.066c-0.118,0.22-0.225,0.44-0.317,0.66c-0.094,0.22-0.17,0.466-0.229,0.736
		c-0.06,0.271-0.102,0.584-0.127,0.939c-0.025,0.355-0.038,0.771-0.038,1.244c0,1.151,0.136,2.155,0.406,3.008
		c0.271,0.855,0.622,1.596,1.054,2.223c0.432,0.626,0.922,1.143,1.473,1.549c0.55,0.406,1.1,0.732,1.65,0.977
		c0.55,0.246,1.074,0.416,1.574,0.508c0.499,0.094,0.918,0.141,1.257,0.141c0.609,0,1.159-0.085,1.65-0.254
		c0.491-0.17,0.909-0.355,1.257-0.559c0.347-0.203,0.622-0.398,0.825-0.584L130.819,46.883z"/>
	<path fill="#076B30" stroke="#076B30" stroke-miterlimit="10" d="M143.87,41.856c0.152,0.254,0.397,0.605,0.736,1.053
		c0.339,0.449,0.706,0.932,1.104,1.447c0.397,0.518,0.812,1.046,1.244,1.588c0.432,0.541,0.82,1.037,1.168,1.484
		c0.347,0.449,0.635,0.812,0.863,1.092s0.343,0.428,0.343,0.445c0.118,0.118,0.178,0.262,0.178,0.432
		c0,0.236-0.093,0.423-0.279,0.559c-0.136,0.102-0.279,0.152-0.432,0.152c-0.254,0-0.44-0.086-0.559-0.254
		c-0.034-0.034-0.174-0.199-0.419-0.496c-0.246-0.295-0.546-0.668-0.901-1.117c-0.355-0.447-0.745-0.943-1.168-1.484
		c-0.423-0.542-0.834-1.075-1.231-1.6c-0.398-0.525-0.762-1.012-1.092-1.461c-0.33-0.447-0.58-0.808-0.749-1.078
		c-0.237-0.39-0.504-0.816-0.8-1.283c-0.297-0.465-0.602-0.926-0.914-1.383c-0.313-0.457-0.627-0.893-0.939-1.308
		c-0.313-0.415-0.613-0.774-0.901-1.079c-0.491,0.559-0.952,1.101-1.384,1.625c-0.432,0.525-0.816,0.995-1.155,1.409
		c-0.339,0.416-0.609,0.75-0.812,1.003l-0.305,0.406c-0.067,0.084-0.152,0.152-0.254,0.203c0.051,0.744,0.118,1.527,0.203,2.348
		c0.085,0.822,0.161,1.588,0.229,2.299s0.127,1.303,0.178,1.777c0.051,0.474,0.076,0.728,0.076,0.762
		c0,0.186-0.06,0.347-0.178,0.482c-0.118,0.135-0.296,0.211-0.533,0.229c-0.187,0-0.343-0.061-0.47-0.178
		c-0.127-0.119-0.199-0.271-0.216-0.457c-0.017-0.051-0.047-0.279-0.089-0.686c-0.043-0.406-0.094-0.91-0.152-1.512
		c-0.06-0.6-0.123-1.265-0.19-1.992c-0.067-0.729-0.132-1.443-0.19-2.146c-0.06-0.701-0.11-1.35-0.152-1.941
		c-0.043-0.593-0.063-1.058-0.063-1.397c0-0.508-0.021-1.159-0.063-1.955c-0.043-0.795-0.098-1.612-0.165-2.45
		s-0.144-1.638-0.229-2.399c-0.085-0.761-0.169-1.371-0.254-1.828c0-0.169,0.06-0.321,0.178-0.457
		c0.118-0.135,0.296-0.22,0.533-0.254c0.169,0,0.317,0.051,0.444,0.152s0.207,0.237,0.241,0.406
		c0.102,0.474,0.194,1.104,0.279,1.892c0.085,0.788,0.161,1.612,0.229,2.476c0.068,0.864,0.122,1.697,0.165,2.501
		c0.042,0.804,0.063,1.443,0.063,1.917v0.406c0.237-0.305,0.524-0.664,0.863-1.079c0.339-0.415,0.698-0.851,1.079-1.308
		c0.381-0.457,0.783-0.927,1.206-1.409c0.423-0.482,0.838-0.943,1.244-1.384c0.609-0.66,1.172-1.244,1.688-1.752
		c0.516-0.508,0.965-0.935,1.346-1.282c0.381-0.347,0.682-0.613,0.901-0.8c0.22-0.186,0.339-0.288,0.355-0.305
		c0.118-0.102,0.271-0.152,0.457-0.152c0.22,0,0.406,0.085,0.559,0.254c0.102,0.136,0.152,0.288,0.152,0.457
		c0,0.22-0.085,0.398-0.254,0.533c-0.017,0.017-0.415,0.373-1.193,1.066c-0.778,0.694-1.769,1.676-2.971,2.945
		c-0.085,0.085-0.161,0.169-0.229,0.254c-0.067,0.085-0.144,0.169-0.229,0.254c0.321,0.322,0.655,0.707,1.003,1.155
		c0.347,0.449,0.686,0.918,1.016,1.409c0.33,0.491,0.647,0.978,0.952,1.46C143.337,41.004,143.616,41.45,143.87,41.856z"/>
	<path fill="#076B30" stroke="#076B30" stroke-miterlimit="10" d="M158.598,37.26c0.812,0.22,1.539,0.58,2.184,1.079
		c0.644,0.5,1.185,1.066,1.625,1.701c0.439,0.635,0.777,1.294,1.016,1.98s0.355,1.325,0.355,1.918l-0.025,0.381
		c-0.018,0.457-0.051,0.943-0.102,1.459c-0.051,0.518-0.203,1.025-0.457,1.523c-0.254,0.5-0.656,0.965-1.207,1.396
		c-0.551,0.432-1.315,0.783-2.297,1.055c-0.491,0.152-0.937,0.258-1.334,0.316c-0.397,0.06-0.782,0.09-1.154,0.09
		c-0.542,0-1.079-0.061-1.612-0.178c-0.532-0.119-1.181-0.279-1.942-0.482c-0.693-0.17-1.285-0.445-1.776-0.826
		s-0.897-0.762-1.22-1.143c-0.321-0.381-0.559-0.719-0.71-1.016c-0.152-0.295-0.237-0.461-0.254-0.494
		c-0.051-0.068-0.076-0.161-0.076-0.279c0-0.288,0.144-0.508,0.432-0.66c0.136-0.034,0.229-0.051,0.279-0.051
		c0.136,0,0.267,0.037,0.394,0.113c0.127,0.076,0.217,0.183,0.268,0.318l0.178,0.33c0.117,0.236,0.305,0.504,0.559,0.799
		c0.254,0.297,0.575,0.594,0.965,0.889c0.391,0.297,0.854,0.521,1.396,0.674c0.711,0.186,1.299,0.33,1.766,0.432
		c0.465,0.102,0.918,0.152,1.357,0.152c0.574,0,1.277-0.11,2.107-0.33c0.728-0.221,1.295-0.475,1.701-0.762
		c0.405-0.288,0.701-0.609,0.889-0.965c0.187-0.356,0.3-0.736,0.343-1.143c0.042-0.406,0.071-0.83,0.089-1.27l0.025-0.457
		c0-0.355-0.09-0.796-0.268-1.32c-0.178-0.525-0.436-1.041-0.773-1.549c-0.34-0.508-0.768-0.974-1.282-1.397
		c-0.517-0.423-1.113-0.719-1.79-0.889c-0.457-0.135-0.944-0.229-1.46-0.279c-0.517-0.051-1.028-0.102-1.536-0.152
		c-0.593-0.051-1.173-0.11-1.738-0.178c-0.568-0.067-1.08-0.19-1.537-0.368c-0.457-0.178-0.834-0.423-1.129-0.736
		c-0.298-0.313-0.471-0.74-0.521-1.282c0-0.067-0.005-0.127-0.013-0.178c-0.009-0.051-0.013-0.102-0.013-0.152
		c0-0.66,0.131-1.223,0.394-1.688c0.263-0.465,0.584-0.859,0.966-1.181c0.381-0.321,0.778-0.584,1.192-0.787s0.774-0.372,1.08-0.508
		c0.389-0.186,0.857-0.317,1.408-0.394c0.551-0.076,1.146-0.114,1.79-0.114c0.575,0,1.155,0.034,1.739,0.102
		c0.584,0.068,1.154,0.169,1.714,0.305c0.372,0.085,0.55,0.364,0.532,0.838c-0.033,0.169-0.127,0.305-0.278,0.406
		s-0.347,0.144-0.584,0.127c-0.491-0.135-1.013-0.229-1.562-0.279c-0.551-0.051-1.08-0.076-1.588-0.076
		c-0.541,0-1.037,0.03-1.484,0.089c-0.449,0.06-0.825,0.157-1.131,0.292c-0.354,0.152-0.701,0.317-1.041,0.495
		c-0.338,0.178-0.635,0.385-0.889,0.622c-0.254,0.237-0.453,0.517-0.597,0.838c-0.146,0.322-0.216,0.703-0.216,1.143
		c0.033,0.44,0.367,0.736,1.003,0.889c0.635,0.153,1.502,0.271,2.603,0.354c0.543,0.051,1.088,0.106,1.639,0.165
		C157.534,37.027,158.072,37.125,158.598,37.26z"/>
</g>
</svg>
