<?xml version="1.0" encoding="utf-8"?>
<!-- Generator: Adobe Illustrator 16.0.0, SVG Export Plug-In . SVG Version: 6.00 Build 0)  -->
<!DOCTYPE svg PUBLIC "-//W3C//DTD SVG 1.1//EN" "http://www.w3.org/Graphics/SVG/1.1/DTD/svg11.dtd">
<svg version="1.1" id="Layer_1" xmlns="http://www.w3.org/2000/svg" xmlns:xlink="http://www.w3.org/1999/xlink" x="0px" y="0px"
	 width="300px" height="250px" viewBox="0 0 300 250" enable-background="new 0 0 300 250" xml:space="preserve">
<path fill="#FFFFFF" d="M61.552,20.241c0.186,0.017,0.338,0.098,0.457,0.241c0.118,0.145,0.169,0.326,0.152,0.546
	c-0.017,0.187-0.093,0.335-0.229,0.444c-0.136,0.11-0.322,0.165-0.559,0.165l-0.482-0.051c-0.339-0.034-0.812-0.076-1.422-0.127
	s-1.342-0.093-2.196-0.127c-0.855-0.034-1.807-0.051-2.856-0.051c-0.136,0-0.263,0-0.381,0c-0.119,0-0.246,0.009-0.381,0.025
	c0.067,0.559,0.14,1.206,0.216,1.942s0.14,1.477,0.19,2.222s0.093,1.452,0.127,2.12c0.034,0.669,0.051,1.215,0.051,1.638
	c0,0.321,0.021,0.778,0.063,1.371c0.042,0.593,0.093,1.24,0.152,1.942c0.059,0.703,0.123,1.422,0.19,2.158
	c0.067,0.736,0.135,1.405,0.203,2.006c0.067,0.602,0.123,1.101,0.165,1.498c0.042,0.398,0.063,0.605,0.063,0.622
	c0,0.187-0.063,0.343-0.19,0.47s-0.301,0.207-0.521,0.241c-0.187,0-0.347-0.06-0.482-0.178c-0.136-0.118-0.212-0.271-0.229-0.457
	c0-0.051-0.025-0.279-0.076-0.686s-0.106-0.909-0.165-1.511c-0.06-0.601-0.123-1.266-0.19-1.993
	c-0.068-0.728-0.131-1.442-0.19-2.146c-0.06-0.702-0.11-1.35-0.152-1.942c-0.042-0.593-0.063-1.058-0.063-1.396
	c0-0.457-0.017-1.032-0.051-1.727c-0.034-0.694-0.081-1.413-0.14-2.158c-0.06-0.745-0.123-1.473-0.19-2.184
	c-0.068-0.711-0.136-1.32-0.203-1.828c-0.914,0.034-1.812,0.072-2.691,0.114c-0.88,0.043-1.663,0.089-2.349,0.14
	s-1.244,0.093-1.676,0.127s-0.656,0.051-0.673,0.051c-0.186,0.017-0.347-0.042-0.482-0.178c-0.135-0.136-0.211-0.313-0.229-0.533
	c0-0.187,0.06-0.347,0.178-0.482c0.119-0.136,0.271-0.212,0.457-0.229c0.017,0,0.254-0.017,0.711-0.051s1.058-0.076,1.803-0.127
	s1.587-0.102,2.526-0.152s1.892-0.093,2.856-0.127c0.034,0,0.067-0.004,0.102-0.013c0.034-0.008,0.102-0.004,0.203,0.013
	c0.237,0,0.478-0.004,0.724-0.013c0.245-0.008,0.486-0.013,0.724-0.013c1.083,0,2.057,0.017,2.92,0.051s1.604,0.076,2.222,0.127
	c0.618,0.051,1.096,0.098,1.435,0.14C61.332,20.221,61.518,20.241,61.552,20.241z"/>
<path fill="#FFFFFF" d="M73.206,36.288c0,0.22,0.029,0.453,0.089,0.698c0.059,0.246,0.127,0.475,0.203,0.686
	c0.076,0.212,0.156,0.406,0.241,0.584c0.084,0.178,0.152,0.309,0.203,0.394c0.034,0.067,0.059,0.127,0.076,0.178
	c0.017,0.051,0.025,0.11,0.025,0.178c0,0.271-0.127,0.474-0.381,0.609c-0.085,0.067-0.195,0.102-0.33,0.102
	c-0.288,0-0.5-0.118-0.635-0.355c0-0.017-0.051-0.118-0.152-0.305s-0.208-0.427-0.317-0.724c-0.11-0.296-0.212-0.622-0.305-0.978
	c-0.093-0.355-0.14-0.711-0.14-1.066c0-0.085-0.004-0.178-0.013-0.279c-0.009-0.102-0.021-0.22-0.038-0.355
	c-0.017-0.22-0.034-0.466-0.051-0.736c-0.017-0.271-0.025-0.593-0.025-0.965c0-0.237-0.017-0.491-0.051-0.762
	c-0.034-0.271-0.068-0.559-0.102-0.863c-0.051-0.406-0.098-0.838-0.14-1.295c-0.042-0.457-0.063-0.948-0.063-1.473
	c0-0.321-0.068-0.669-0.203-1.041c-0.136-0.372-0.339-0.715-0.609-1.028c-0.271-0.312-0.601-0.575-0.99-0.787
	c-0.39-0.211-0.838-0.317-1.346-0.317c-0.644,0-1.215,0.114-1.714,0.343c-0.5,0.229-0.936,0.517-1.308,0.863
	c-0.373,0.348-0.686,0.729-0.939,1.143c-0.254,0.415-0.457,0.8-0.609,1.155c0.084,0.931,0.194,1.921,0.33,2.971
	c0.135,1.05,0.275,2.027,0.419,2.933c0.144,0.906,0.267,1.663,0.368,2.272s0.152,0.939,0.152,0.99c0,0.169-0.06,0.321-0.178,0.457
	c-0.119,0.136-0.296,0.22-0.533,0.254c-0.187,0-0.343-0.056-0.47-0.165c-0.127-0.11-0.208-0.25-0.241-0.419
	c0-0.051-0.038-0.305-0.114-0.762s-0.169-1.032-0.279-1.727c-0.11-0.694-0.233-1.468-0.368-2.323
	c-0.136-0.854-0.263-1.714-0.381-2.577c-0.373-0.085-0.55-0.364-0.533-0.838c0.067-0.372,0.194-0.804,0.381-1.295
	c-0.034-0.372-0.06-0.724-0.076-1.054c-0.017-0.33-0.025-0.639-0.025-0.927c0-0.812-0.025-1.676-0.076-2.59
	s-0.106-1.765-0.165-2.552c-0.06-0.787-0.119-1.443-0.178-1.968c-0.06-0.524-0.089-0.804-0.089-0.838c0-0.187,0.063-0.343,0.19-0.47
	s0.3-0.207,0.521-0.241c0.186,0,0.347,0.06,0.482,0.178c0.135,0.118,0.211,0.271,0.229,0.457c0,0.051,0.025,0.326,0.076,0.825
	c0.051,0.5,0.11,1.121,0.178,1.866c0.067,0.745,0.127,1.562,0.178,2.45s0.076,1.739,0.076,2.552c0.524-0.66,1.172-1.223,1.942-1.688
	c0.77-0.465,1.688-0.698,2.755-0.698c0.677,0,1.299,0.136,1.866,0.406c0.567,0.271,1.049,0.622,1.447,1.054
	c0.397,0.432,0.707,0.923,0.927,1.473c0.22,0.551,0.33,1.104,0.33,1.663c0,0.491,0.021,0.948,0.063,1.371
	c0.042,0.423,0.089,0.829,0.14,1.219c0.034,0.321,0.067,0.631,0.102,0.927c0.034,0.297,0.051,0.588,0.051,0.876
	c0,0.66,0.025,1.177,0.076,1.549c0.017,0.152,0.029,0.288,0.038,0.406C73.202,36.025,73.206,36.152,73.206,36.288z"/>
<path fill="#FFFFFF" d="M86.562,31.896c0.152,1.05,0.33,1.989,0.533,2.818s0.394,1.532,0.571,2.107s0.33,1.021,0.457,1.333
	c0.127,0.313,0.19,0.479,0.19,0.495c0.017,0.051,0.029,0.098,0.038,0.14c0.008,0.043,0.013,0.089,0.013,0.14
	c0,0.305-0.136,0.524-0.406,0.66c-0.136,0.034-0.237,0.051-0.305,0.051c-0.322,0-0.533-0.136-0.635-0.406
	c-0.034-0.067-0.19-0.47-0.47-1.206s-0.571-1.765-0.876-3.085c-0.271,0.66-0.588,1.27-0.952,1.828
	c-0.364,0.559-0.753,1.041-1.168,1.447c-0.415,0.406-0.847,0.724-1.295,0.952c-0.449,0.229-0.893,0.343-1.333,0.343
	c-1.727,0-3.005-0.593-3.834-1.777c-0.83-1.185-1.244-3.005-1.244-5.459c0-1.016,0.152-1.917,0.457-2.704s0.698-1.477,1.181-2.069
	s1.024-1.092,1.625-1.498c0.601-0.406,1.189-0.736,1.765-0.99c0.575-0.254,1.108-0.436,1.6-0.546
	c0.491-0.109,0.88-0.165,1.168-0.165c0.508,0,0.948,0.098,1.32,0.292c0.372,0.195,0.681,0.415,0.927,0.66
	c0.245,0.246,0.427,0.475,0.546,0.686c0.118,0.212,0.178,0.326,0.178,0.343c0.051,0.085,0.076,0.178,0.076,0.279
	c0,0.169-0.076,0.347-0.229,0.533c0.152,0.796,0.229,1.845,0.229,3.148c0,0.271-0.013,0.542-0.038,0.812
	S86.595,31.607,86.562,31.896z M80.925,38.091c0.355,0,0.745-0.165,1.168-0.495c0.423-0.33,0.833-0.774,1.231-1.333
	c0.397-0.559,0.757-1.214,1.079-1.968c0.321-0.753,0.559-1.553,0.711-2.399c-0.119-0.812-0.212-1.667-0.279-2.564
	c-0.068-0.897-0.11-1.854-0.127-2.869c-0.187-0.152-0.279-0.339-0.279-0.559c-0.119-0.051-0.241-0.093-0.368-0.127
	s-0.267-0.051-0.419-0.051c-0.22,0-0.533,0.047-0.939,0.14c-0.406,0.094-0.847,0.246-1.32,0.457
	c-0.474,0.212-0.952,0.486-1.435,0.825s-0.923,0.753-1.32,1.244c-0.398,0.491-0.724,1.058-0.978,1.701s-0.381,1.371-0.381,2.184
	c0,1.286,0.105,2.311,0.317,3.072c0.211,0.762,0.491,1.346,0.838,1.752c0.347,0.406,0.736,0.673,1.168,0.8
	S80.468,38.091,80.925,38.091z"/>
<path fill="#FFFFFF" d="M98.825,25.802c0.152,0.034,0.279,0.127,0.381,0.279s0.144,0.347,0.127,0.584
	c-0.085,0.355-0.373,0.533-0.863,0.533c0-0.017-0.313-0.076-0.939-0.178c-0.626-0.102-1.464-0.161-2.514-0.178
	c0.051,0.965,0.076,1.761,0.076,2.387c0,0.321,0.021,0.778,0.063,1.371c0.042,0.593,0.093,1.24,0.152,1.942
	c0.059,0.703,0.123,1.422,0.19,2.158c0.067,0.736,0.135,1.405,0.203,2.006c0.067,0.602,0.123,1.101,0.165,1.498
	c0.042,0.398,0.063,0.605,0.063,0.622c0,0.187-0.063,0.343-0.19,0.47s-0.301,0.207-0.521,0.241c-0.187,0-0.347-0.06-0.482-0.178
	c-0.136-0.118-0.212-0.271-0.229-0.457c0-0.051-0.025-0.279-0.076-0.686s-0.106-0.909-0.165-1.511
	c-0.06-0.601-0.123-1.266-0.19-1.993c-0.068-0.728-0.131-1.442-0.19-2.146c-0.06-0.702-0.11-1.35-0.152-1.942
	c-0.042-0.593-0.063-1.058-0.063-1.396c0-0.644-0.025-1.422-0.076-2.336c-0.44,0.034-0.872,0.076-1.295,0.127
	c-0.423,0.051-0.8,0.098-1.13,0.14c-0.33,0.043-0.601,0.08-0.812,0.114c-0.212,0.034-0.334,0.051-0.368,0.051
	c-0.169,0-0.322-0.06-0.457-0.178c-0.136-0.118-0.22-0.296-0.254-0.533c0-0.169,0.055-0.317,0.165-0.444
	c0.11-0.127,0.258-0.207,0.444-0.241c0.017,0,0.131-0.021,0.343-0.063c0.211-0.042,0.482-0.084,0.812-0.127
	c0.33-0.042,0.707-0.084,1.13-0.127c0.423-0.042,0.863-0.08,1.32-0.114c-0.034-0.474-0.072-0.943-0.114-1.409
	c-0.042-0.465-0.085-0.914-0.127-1.346c-0.042-0.432-0.089-0.834-0.14-1.206s-0.102-0.694-0.152-0.965
	c0-0.169,0.059-0.321,0.178-0.457c0.118-0.136,0.296-0.22,0.533-0.254c0.169,0,0.317,0.051,0.444,0.152s0.207,0.245,0.241,0.432
	c0.118,0.524,0.229,1.244,0.33,2.158s0.194,1.854,0.279,2.818c0.575,0,1.096,0.017,1.562,0.051c0.465,0.034,0.863,0.076,1.193,0.127
	s0.592,0.098,0.787,0.14C98.702,25.781,98.808,25.802,98.825,25.802z"/>
<path fill="#FFFFFF" d="M100.679,19.86c0.372,0.051,0.559,0.33,0.559,0.838c-0.085,0.372-0.165,0.897-0.241,1.574
	s-0.148,1.456-0.216,2.336c-0.034,0.187-0.119,0.343-0.254,0.47c-0.136,0.127-0.313,0.19-0.533,0.19
	c-0.187-0.017-0.339-0.097-0.457-0.241c-0.118-0.144-0.178-0.326-0.178-0.546c0.017-0.254,0.042-0.559,0.076-0.914
	c0.034-0.355,0.072-0.72,0.114-1.092c0.042-0.372,0.089-0.74,0.14-1.104c0.051-0.363,0.102-0.682,0.152-0.952
	c0.034-0.187,0.123-0.33,0.267-0.432C100.251,19.886,100.441,19.844,100.679,19.86z"/>
<path fill="#FFFFFF" d="M110.226,30.372c2.996,1.456,4.494,2.987,4.494,4.596c0,0.491-0.11,0.974-0.33,1.447
	c-0.22,0.474-0.482,0.91-0.787,1.308c-0.305,0.398-0.622,0.745-0.952,1.041s-0.605,0.504-0.825,0.622
	c-0.203,0.118-0.47,0.232-0.8,0.343c-0.33,0.109-0.669,0.207-1.016,0.292c-0.347,0.085-0.677,0.152-0.99,0.203
	c-0.313,0.051-0.571,0.076-0.774,0.076c-0.44,0-0.91-0.072-1.409-0.216c-0.5-0.145-0.978-0.381-1.435-0.711
	s-0.868-0.766-1.231-1.308c-0.364-0.542-0.647-1.21-0.851-2.006c0-0.372,0.237-0.609,0.711-0.711c0.152,0,0.296,0.047,0.432,0.14
	c0.135,0.094,0.22,0.225,0.254,0.394c0.186,0.711,0.453,1.266,0.8,1.663c0.347,0.398,0.702,0.698,1.066,0.901
	c0.364,0.203,0.702,0.326,1.016,0.368c0.313,0.043,0.529,0.063,0.647,0.063c0.152,0,0.364-0.021,0.635-0.063
	c0.271-0.042,0.546-0.102,0.825-0.178s0.55-0.156,0.812-0.241c0.262-0.085,0.461-0.169,0.597-0.254
	c0.152-0.085,0.355-0.241,0.609-0.47s0.495-0.49,0.724-0.787c0.229-0.296,0.427-0.613,0.597-0.952
	c0.169-0.339,0.254-0.66,0.254-0.965c0-0.169-0.051-0.368-0.152-0.597s-0.284-0.482-0.546-0.762
	c-0.263-0.279-0.635-0.58-1.117-0.901s-1.104-0.669-1.866-1.041c-0.491-0.237-1.003-0.482-1.536-0.736s-1.028-0.486-1.485-0.698
	c-0.457-0.211-0.838-0.394-1.143-0.546l-0.457-0.203l-0.406-0.178v-0.457c0-0.778,0.194-1.46,0.584-2.044
	c0.389-0.584,0.863-1.074,1.422-1.473c0.559-0.397,1.146-0.698,1.765-0.901c0.618-0.203,1.164-0.305,1.638-0.305
	c0.491,0,0.905,0.06,1.244,0.178c0.338,0.118,0.618,0.25,0.838,0.394c0.22,0.145,0.385,0.279,0.495,0.406
	c0.11,0.127,0.173,0.207,0.19,0.241c0.084,0.118,0.127,0.245,0.127,0.381c0,0.254-0.11,0.448-0.33,0.584
	c-0.136,0.085-0.263,0.127-0.381,0.127c-0.254,0-0.449-0.11-0.584-0.33c-0.017,0-0.055-0.029-0.114-0.089
	c-0.06-0.059-0.152-0.123-0.279-0.19s-0.288-0.131-0.482-0.19c-0.195-0.059-0.436-0.089-0.724-0.089
	c-0.288,0-0.635,0.06-1.041,0.178s-0.812,0.301-1.219,0.546c-0.406,0.246-0.771,0.546-1.092,0.901
	c-0.322,0.355-0.525,0.771-0.609,1.244c0.22,0.102,0.491,0.225,0.812,0.368c0.321,0.145,0.673,0.305,1.054,0.482
	s0.774,0.364,1.181,0.559C109.489,30.021,109.87,30.203,110.226,30.372z"/>
<path fill="#FFFFFF" d="M135.972,37.888c0.186,0,0.343,0.06,0.47,0.178s0.207,0.296,0.241,0.533c0,0.187-0.055,0.343-0.165,0.47
	c-0.11,0.127-0.258,0.207-0.444,0.241c-0.034,0-0.187,0.021-0.457,0.063c-0.271,0.042-0.593,0.089-0.965,0.14
	c-0.373,0.051-0.762,0.093-1.168,0.127s-0.753,0.051-1.041,0.051c-2.251,0-3.978-0.597-5.18-1.79
	c-1.202-1.193-1.862-2.873-1.98-5.04c-0.034-1.101,0.063-2.065,0.292-2.895s0.533-1.54,0.914-2.133s0.808-1.083,1.282-1.473
	c0.474-0.39,0.935-0.694,1.384-0.914c0.448-0.22,0.854-0.376,1.219-0.47c0.364-0.093,0.63-0.14,0.8-0.14
	c0.44,0,0.91,0.11,1.409,0.33c0.499,0.22,0.965,0.555,1.396,1.003c0.432,0.449,0.8,1.02,1.104,1.714s0.491,1.515,0.559,2.463
	c0.102,0.136,0.152,0.288,0.152,0.457s-0.051,0.313-0.152,0.432c-0.085,0.339-0.313,0.508-0.686,0.508
	c-0.169,0-0.313-0.051-0.432-0.152c-0.457,0.102-0.931,0.245-1.422,0.432c-0.44,0.152-0.872,0.288-1.295,0.406
	c-0.423,0.118-0.804,0.178-1.143,0.178c-0.187,0-0.436,0.025-0.749,0.076c-0.313,0.051-0.656,0.118-1.028,0.203
	c-0.373,0.085-0.749,0.174-1.13,0.267c-0.381,0.094-0.724,0.182-1.028,0.267c0.067,1.05,0.309,1.892,0.724,2.526
	c0.415,0.635,0.905,1.126,1.473,1.473c0.567,0.348,1.168,0.576,1.803,0.686c0.635,0.11,1.206,0.165,1.714,0.165
	c0.271,0,0.601-0.017,0.99-0.051c0.389-0.034,0.762-0.076,1.117-0.127s0.668-0.093,0.939-0.127l0.381-0.051L135.972,37.888z
	 M131.173,26.259c-0.152,0-0.453,0.081-0.901,0.241c-0.449,0.161-0.914,0.449-1.396,0.863c-0.482,0.415-0.931,0.99-1.346,1.727
	c-0.415,0.736-0.673,1.68-0.774,2.831c0.288-0.067,0.613-0.144,0.978-0.229c0.364-0.085,0.728-0.165,1.092-0.241
	c0.364-0.076,0.711-0.14,1.041-0.19s0.597-0.076,0.8-0.076c0.237,0,0.537-0.055,0.901-0.165c0.364-0.109,0.724-0.225,1.079-0.343
	c0.288-0.102,0.559-0.19,0.812-0.267s0.499-0.148,0.736-0.216c-0.068-0.677-0.212-1.261-0.432-1.752
	c-0.22-0.491-0.474-0.897-0.762-1.219c-0.288-0.321-0.593-0.562-0.914-0.724C131.765,26.34,131.46,26.259,131.173,26.259z"/>
<path fill="#FFFFFF" d="M150.952,36.009c0,0.237,0.029,0.482,0.089,0.736s0.131,0.495,0.216,0.724
	c0.084,0.229,0.169,0.436,0.254,0.622c0.084,0.187,0.152,0.33,0.203,0.432s0.076,0.22,0.076,0.355c0,0.271-0.119,0.474-0.355,0.609
	c-0.068,0.034-0.127,0.06-0.178,0.076s-0.11,0.025-0.178,0.025c-0.271,0-0.475-0.127-0.609-0.381
	c-0.018-0.017-0.076-0.123-0.178-0.317s-0.207-0.444-0.317-0.749s-0.212-0.644-0.305-1.016c-0.093-0.372-0.14-0.745-0.14-1.117
	c0-0.085-0.004-0.182-0.013-0.292c-0.009-0.109-0.021-0.232-0.038-0.368c-0.017-0.237-0.034-0.495-0.051-0.774
	c-0.017-0.279-0.025-0.613-0.025-1.003c0-0.254-0.017-0.521-0.051-0.8c-0.034-0.279-0.068-0.588-0.102-0.927
	c-0.051-0.423-0.098-0.876-0.14-1.358c-0.042-0.482-0.063-0.994-0.063-1.536c0-0.339-0.072-0.706-0.216-1.104
	c-0.144-0.397-0.352-0.766-0.622-1.104c-0.271-0.339-0.605-0.618-1.003-0.838c-0.398-0.22-0.859-0.33-1.384-0.33
	c-0.66,0-1.249,0.123-1.765,0.368c-0.517,0.246-0.961,0.555-1.333,0.927c-0.373,0.372-0.69,0.774-0.952,1.206
	c-0.263,0.432-0.47,0.838-0.622,1.219s-0.267,0.707-0.343,0.978s-0.114,0.423-0.114,0.457c-0.051,0.152-0.119,0.271-0.203,0.355
	v0.457c0,0.406,0.059,0.872,0.178,1.396c0.118,0.524,0.254,1.083,0.406,1.676c0.186,0.762,0.368,1.558,0.546,2.387
	s0.267,1.676,0.267,2.539c0,0.203-0.068,0.372-0.203,0.508c-0.136,0.136-0.305,0.203-0.508,0.203c-0.187,0-0.352-0.067-0.495-0.203
	c-0.144-0.136-0.216-0.305-0.216-0.508c0-0.778-0.081-1.558-0.241-2.336c-0.161-0.778-0.334-1.523-0.521-2.234
	c-0.169-0.626-0.317-1.231-0.444-1.815s-0.19-1.121-0.19-1.612s-0.034-1.108-0.102-1.854c-0.068-0.745-0.148-1.468-0.241-2.171
	c-0.093-0.702-0.178-1.312-0.254-1.828c-0.076-0.516-0.114-0.791-0.114-0.825c0-0.169,0.059-0.321,0.178-0.457
	c0.118-0.136,0.296-0.22,0.533-0.254c0.186,0,0.343,0.056,0.47,0.165c0.127,0.11,0.207,0.258,0.241,0.444
	c0,0.034,0.017,0.14,0.051,0.317c0.034,0.178,0.067,0.415,0.102,0.711c0.034,0.297,0.076,0.631,0.127,1.003s0.102,0.762,0.152,1.168
	c0.254-0.474,0.554-0.939,0.901-1.396c0.347-0.457,0.753-0.863,1.219-1.219c0.465-0.355,0.986-0.644,1.562-0.863
	c0.575-0.22,1.219-0.33,1.93-0.33c0.694,0,1.324,0.14,1.892,0.419c0.567,0.279,1.054,0.647,1.46,1.104s0.724,0.974,0.952,1.549
	s0.343,1.151,0.343,1.727c0,0.508,0.021,0.99,0.063,1.447s0.089,0.88,0.14,1.27c0.033,0.339,0.067,0.669,0.102,0.99
	c0.033,0.321,0.051,0.626,0.051,0.914c0,0.677,0.025,1.219,0.076,1.625c0.017,0.152,0.029,0.292,0.038,0.419
	S150.952,35.873,150.952,36.009z"/>
<path fill="#FFFFFF" d="M160.804,24.354c0.355,0,0.766,0.174,1.231,0.521c0.465,0.348,0.905,0.838,1.32,1.473
	c0.414,0.635,0.77,1.4,1.066,2.298c0.296,0.897,0.444,1.904,0.444,3.021c0,1.134-0.194,2.184-0.584,3.148s-0.876,1.803-1.46,2.514
	s-1.219,1.266-1.904,1.663s-1.316,0.597-1.892,0.597c-0.66,0-1.312-0.127-1.955-0.381s-1.219-0.622-1.727-1.104
	s-0.923-1.079-1.244-1.79s-0.482-1.532-0.482-2.463c0-0.593,0.076-1.244,0.229-1.955s0.359-1.426,0.622-2.146
	c0.262-0.719,0.575-1.413,0.939-2.082c0.363-0.668,0.758-1.266,1.181-1.79s0.872-0.943,1.346-1.257
	c0.474-0.312,0.956-0.47,1.447-0.47c0.187,0,0.351,0.021,0.495,0.063c0.144,0.043,0.275,0.098,0.394,0.165
	c0.085,0,0.169-0.004,0.254-0.013C160.609,24.359,160.702,24.354,160.804,24.354z M159.026,38.167c0.321,0,0.731-0.156,1.231-0.47
	c0.499-0.312,0.986-0.753,1.46-1.32c0.474-0.566,0.88-1.248,1.219-2.044s0.508-1.685,0.508-2.666c0-0.948-0.114-1.781-0.343-2.501
	c-0.229-0.719-0.491-1.328-0.787-1.828c-0.297-0.499-0.593-0.876-0.889-1.13c-0.297-0.254-0.512-0.397-0.647-0.432
	c-0.288,0-0.546,0.021-0.774,0.063c-0.229,0.043-0.385,0.072-0.47,0.089c-0.203,0-0.39-0.085-0.559-0.254
	c-0.423,0.169-0.863,0.55-1.32,1.143s-0.88,1.282-1.27,2.069s-0.711,1.625-0.965,2.514s-0.381,1.705-0.381,2.45
	c0,0.778,0.136,1.443,0.406,1.993c0.271,0.551,0.609,0.994,1.016,1.333s0.838,0.589,1.295,0.749
	C158.214,38.087,158.637,38.167,159.026,38.167z"/>
<path fill="#FFFFFF" d="M178.907,32.81c0.372,0.085,0.559,0.364,0.559,0.838c-0.085,0.339-0.199,0.724-0.343,1.155
	c-0.145,0.432-0.334,0.867-0.571,1.308c0.102,0.812,0.194,1.515,0.279,2.107s0.136,0.923,0.152,0.99c0,0.187-0.06,0.343-0.178,0.47
	s-0.296,0.207-0.533,0.241c-0.187,0-0.343-0.056-0.47-0.165c-0.127-0.11-0.207-0.258-0.241-0.444c0-0.034-0.021-0.183-0.063-0.444
	c-0.043-0.262-0.089-0.597-0.14-1.003c-0.524,0.593-1.151,1.083-1.879,1.473s-1.574,0.584-2.539,0.584
	c-0.694,0-1.329-0.14-1.904-0.419s-1.066-0.647-1.473-1.104s-0.72-0.969-0.939-1.536c-0.22-0.566-0.33-1.146-0.33-1.739
	c0-0.508-0.021-0.99-0.063-1.447c-0.043-0.457-0.089-0.88-0.14-1.27c-0.034-0.339-0.067-0.664-0.102-0.978
	c-0.034-0.312-0.051-0.622-0.051-0.927c0-0.339-0.009-0.644-0.025-0.914s-0.042-0.508-0.076-0.711
	c-0.017-0.152-0.03-0.292-0.038-0.419c-0.009-0.127-0.013-0.258-0.013-0.394c0-0.237-0.03-0.482-0.089-0.736
	c-0.06-0.254-0.127-0.495-0.203-0.724s-0.156-0.436-0.241-0.622s-0.152-0.33-0.203-0.432c-0.067-0.085-0.102-0.194-0.102-0.33
	c0-0.288,0.127-0.499,0.381-0.635c0.102-0.051,0.212-0.076,0.33-0.076c0.288,0,0.499,0.118,0.635,0.355
	c0,0.017,0.051,0.123,0.152,0.317c0.102,0.195,0.207,0.444,0.317,0.749c0.109,0.305,0.211,0.644,0.305,1.016
	c0.093,0.372,0.14,0.745,0.14,1.117c0,0.085,0.004,0.187,0.013,0.305c0.008,0.118,0.021,0.245,0.038,0.381
	c0.034,0.22,0.06,0.47,0.076,0.749s0.025,0.613,0.025,1.003c0,0.254,0.017,0.521,0.051,0.8s0.067,0.588,0.102,0.927
	c0.034,0.44,0.076,0.897,0.127,1.371s0.076,0.981,0.076,1.523c0,0.355,0.071,0.728,0.216,1.117c0.144,0.39,0.352,0.753,0.622,1.092
	s0.604,0.618,1.003,0.838c0.397,0.22,0.859,0.33,1.384,0.33s0.999-0.076,1.422-0.229s0.804-0.355,1.143-0.609
	s0.639-0.537,0.901-0.851c0.262-0.312,0.486-0.639,0.673-0.978c-0.085-0.626-0.157-1.253-0.216-1.879
	c-0.06-0.626-0.105-1.193-0.14-1.701c-0.034-0.593-0.098-1.27-0.19-2.031c-0.094-0.762-0.187-1.481-0.279-2.158
	c-0.094-0.677-0.178-1.257-0.254-1.739s-0.114-0.74-0.114-0.774c0-0.169,0.06-0.321,0.178-0.457s0.296-0.22,0.533-0.254
	c0.169,0,0.317,0.056,0.444,0.165c0.127,0.11,0.207,0.25,0.241,0.419c0,0.051,0.038,0.313,0.114,0.787s0.165,1.05,0.267,1.727
	s0.198,1.401,0.292,2.171c0.093,0.771,0.156,1.46,0.19,2.069c0,0.136,0.004,0.275,0.013,0.419c0.008,0.145,0.021,0.301,0.038,0.47
	c0.085-0.085,0.178-0.152,0.279-0.203S178.721,32.793,178.907,32.81z"/>
<path fill="#FFFFFF" d="M192.339,29.229c0,0.39,0.017,0.876,0.051,1.46s0.08,1.219,0.14,1.904c0.059,0.686,0.123,1.414,0.19,2.184
	c0.067,0.771,0.144,1.545,0.229,2.323c0.067,0.762,0.14,1.503,0.216,2.222s0.14,1.396,0.19,2.031s0.093,1.215,0.127,1.739
	s0.051,0.965,0.051,1.32c0,0.609-0.118,1.214-0.355,1.815c-0.237,0.601-0.584,1.139-1.041,1.612s-1.021,0.858-1.688,1.155
	c-0.669,0.296-1.443,0.444-2.323,0.444c-2.505,0-4.3-1.371-5.383-4.113c-0.034-0.067-0.051-0.161-0.051-0.279
	c0-0.305,0.144-0.524,0.432-0.66c0.051-0.017,0.097-0.03,0.14-0.038c0.042-0.009,0.089-0.013,0.14-0.013
	c0.305,0,0.524,0.161,0.66,0.482c0.085,0.22,0.216,0.512,0.394,0.876c0.178,0.363,0.419,0.715,0.724,1.054s0.698,0.635,1.181,0.889
	s1.07,0.381,1.765,0.381c0.728,0,1.346-0.118,1.854-0.355s0.918-0.538,1.231-0.901c0.312-0.364,0.541-0.758,0.686-1.181
	c0.144-0.423,0.216-0.812,0.216-1.168c0-0.339-0.017-0.767-0.051-1.282c-0.034-0.517-0.076-1.088-0.127-1.714
	s-0.11-1.291-0.178-1.993s-0.136-1.409-0.203-2.12c-0.321,0.508-0.673,0.956-1.054,1.346s-0.771,0.724-1.168,1.003
	c-0.398,0.279-0.787,0.49-1.168,0.635c-0.381,0.144-0.732,0.216-1.054,0.216c-0.66,0-1.316-0.123-1.968-0.368
	c-0.652-0.246-1.231-0.609-1.739-1.092s-0.923-1.083-1.244-1.803c-0.321-0.719-0.482-1.545-0.482-2.476
	c0-0.593,0.076-1.244,0.229-1.955s0.359-1.422,0.622-2.133c0.262-0.711,0.575-1.405,0.939-2.082c0.363-0.677,0.758-1.273,1.181-1.79
	c0.423-0.516,0.872-0.931,1.346-1.244c0.474-0.312,0.956-0.47,1.447-0.47c0.355,0,0.651,0.076,0.889,0.229
	c0.085-0.017,0.169-0.025,0.254-0.025s0.178,0,0.279,0c0.305,0,0.644,0.118,1.016,0.355s0.728,0.567,1.066,0.99
	c0.034-0.203,0.089-0.39,0.165-0.559s0.25-0.263,0.521-0.279l0.66-0.051l0.102,0.66c0,0.034,0,0.063,0,0.089
	s-0.009,0.098-0.025,0.216c0,0.102-0.005,0.33-0.013,0.686C192.343,27.757,192.339,28.366,192.339,29.229z M190.993,35.272
	c0.051-0.152,0.161-0.271,0.33-0.355c-0.118-1.168-0.216-2.251-0.292-3.25s-0.114-1.812-0.114-2.438v-0.305
	c-0.169-0.085-0.288-0.194-0.355-0.33c-0.355-0.66-0.707-1.134-1.054-1.422c-0.348-0.288-0.571-0.44-0.673-0.457
	c-0.288,0-0.546,0.017-0.774,0.051s-0.385,0.06-0.47,0.076c-0.22,0-0.397-0.085-0.533-0.254c-0.423,0.169-0.868,0.55-1.333,1.143
	c-0.466,0.593-0.893,1.282-1.282,2.069s-0.711,1.625-0.965,2.514s-0.381,1.705-0.381,2.45c0,0.796,0.136,1.464,0.406,2.006
	s0.609,0.986,1.016,1.333c0.406,0.348,0.842,0.597,1.308,0.749c0.465,0.152,0.893,0.229,1.282,0.229
	c0.254,0,0.554-0.089,0.901-0.267c0.347-0.178,0.702-0.432,1.066-0.762c0.363-0.33,0.715-0.728,1.054-1.193
	C190.469,36.395,190.756,35.865,190.993,35.272z"/>
<path fill="#FFFFFF" d="M207.522,36.288c0,0.22,0.029,0.453,0.089,0.698c0.059,0.246,0.127,0.475,0.203,0.686
	c0.076,0.212,0.156,0.406,0.241,0.584s0.152,0.309,0.203,0.394c0.034,0.067,0.06,0.127,0.076,0.178s0.025,0.11,0.025,0.178
	c0,0.271-0.127,0.474-0.381,0.609c-0.085,0.067-0.194,0.102-0.33,0.102c-0.288,0-0.499-0.118-0.635-0.355
	c0-0.017-0.051-0.118-0.152-0.305s-0.208-0.427-0.317-0.724c-0.11-0.296-0.212-0.622-0.305-0.978
	c-0.094-0.355-0.14-0.711-0.14-1.066c0-0.085-0.005-0.178-0.013-0.279c-0.009-0.102-0.021-0.22-0.038-0.355
	c-0.017-0.22-0.034-0.466-0.051-0.736s-0.025-0.593-0.025-0.965c0-0.237-0.017-0.491-0.051-0.762s-0.067-0.559-0.102-0.863
	c-0.051-0.406-0.098-0.838-0.14-1.295c-0.043-0.457-0.063-0.948-0.063-1.473c0-0.321-0.067-0.669-0.203-1.041
	s-0.339-0.715-0.609-1.028c-0.271-0.312-0.601-0.575-0.99-0.787c-0.39-0.211-0.838-0.317-1.346-0.317
	c-0.644,0-1.215,0.114-1.714,0.343c-0.5,0.229-0.936,0.517-1.308,0.863c-0.372,0.348-0.686,0.729-0.939,1.143
	c-0.254,0.415-0.457,0.8-0.609,1.155c0.085,0.931,0.194,1.921,0.33,2.971s0.274,2.027,0.419,2.933
	c0.144,0.906,0.267,1.663,0.368,2.272s0.152,0.939,0.152,0.99c0,0.169-0.06,0.321-0.178,0.457s-0.296,0.22-0.533,0.254
	c-0.187,0-0.343-0.056-0.47-0.165c-0.127-0.11-0.207-0.25-0.241-0.419c0-0.051-0.038-0.305-0.114-0.762s-0.17-1.032-0.279-1.727
	c-0.11-0.694-0.232-1.468-0.368-2.323c-0.136-0.854-0.263-1.714-0.381-2.577c-0.372-0.085-0.55-0.364-0.533-0.838
	c0.067-0.372,0.194-0.804,0.381-1.295c-0.034-0.372-0.06-0.724-0.076-1.054s-0.025-0.639-0.025-0.927
	c0-0.812-0.025-1.676-0.076-2.59s-0.106-1.765-0.165-2.552c-0.06-0.787-0.119-1.443-0.178-1.968
	c-0.06-0.524-0.089-0.804-0.089-0.838c0-0.187,0.063-0.343,0.19-0.47s0.301-0.207,0.521-0.241c0.187,0,0.347,0.06,0.482,0.178
	s0.212,0.271,0.229,0.457c0,0.051,0.025,0.326,0.076,0.825c0.051,0.5,0.11,1.121,0.178,1.866s0.127,1.562,0.178,2.45
	s0.076,1.739,0.076,2.552c0.524-0.66,1.172-1.223,1.942-1.688c0.77-0.465,1.688-0.698,2.755-0.698c0.677,0,1.299,0.136,1.866,0.406
	c0.566,0.271,1.049,0.622,1.447,1.054c0.397,0.432,0.707,0.923,0.927,1.473c0.22,0.551,0.33,1.104,0.33,1.663
	c0,0.491,0.021,0.948,0.063,1.371c0.042,0.423,0.089,0.829,0.14,1.219c0.034,0.321,0.067,0.631,0.102,0.927
	c0.034,0.297,0.051,0.588,0.051,0.876c0,0.66,0.025,1.177,0.076,1.549c0.017,0.152,0.029,0.288,0.038,0.406
	C207.518,36.025,207.522,36.152,207.522,36.288z"/>
<path fill="#FFFFFF" d="M229.282,24.812c-0.152,0-0.296-0.051-0.432-0.152s-0.22-0.237-0.254-0.406c0-0.034-0.06-0.224-0.178-0.571
	c-0.118-0.347-0.31-0.719-0.571-1.117c-0.263-0.397-0.622-0.758-1.079-1.079s-1.024-0.482-1.701-0.482
	c-0.593,0-1.134,0.245-1.625,0.736c-0.237,0.254-0.428,0.542-0.571,0.863c-0.145,0.321-0.216,0.651-0.216,0.99l0.102,3.859
	c0.491-0.034,1.003-0.067,1.536-0.102s1.079-0.067,1.638-0.102c0.187,0,0.347,0.067,0.482,0.203s0.212,0.305,0.229,0.508
	c0,0.187-0.067,0.352-0.203,0.495c-0.136,0.145-0.296,0.216-0.482,0.216c-0.542,0.034-1.075,0.067-1.6,0.102
	s-1.032,0.067-1.523,0.102c0.067,0.931,0.182,1.951,0.343,3.06c0.16,1.109,0.317,2.154,0.47,3.136s0.288,1.808,0.406,2.476
	c0.118,0.669,0.178,1.028,0.178,1.079c0,0.39-0.237,0.626-0.711,0.711c-0.39,0-0.626-0.194-0.711-0.584
	c0-0.051-0.03-0.237-0.089-0.559c-0.06-0.321-0.136-0.74-0.229-1.257c-0.094-0.516-0.19-1.1-0.292-1.752
	c-0.102-0.651-0.203-1.333-0.305-2.044s-0.194-1.422-0.279-2.133s-0.152-1.38-0.203-2.006c-0.728,0.067-1.32,0.127-1.777,0.178
	s-0.72,0.085-0.787,0.102c-0.169,0-0.321-0.06-0.457-0.178s-0.22-0.296-0.254-0.533c0-0.187,0.06-0.343,0.178-0.47
	s0.271-0.207,0.457-0.241c0.017,0,0.258-0.025,0.724-0.076c0.465-0.051,1.079-0.118,1.841-0.203v-0.33l-0.102-3.707
	c0-0.491,0.105-0.981,0.317-1.473c0.211-0.491,0.504-0.931,0.876-1.32c0.372-0.372,0.782-0.66,1.231-0.863
	c0.448-0.203,0.918-0.305,1.409-0.305c0.778,0,1.456,0.157,2.031,0.47c0.575,0.313,1.062,0.698,1.46,1.155
	c0.397,0.457,0.715,0.948,0.952,1.473s0.397,0.999,0.482,1.422c0,0.372-0.178,0.601-0.533,0.686L229.282,24.812z"/>
<path fill="#FFFFFF" d="M236.392,24.354c0.355,0,0.766,0.174,1.231,0.521c0.465,0.348,0.905,0.838,1.32,1.473
	c0.414,0.635,0.77,1.4,1.066,2.298c0.296,0.897,0.444,1.904,0.444,3.021c0,1.134-0.194,2.184-0.584,3.148s-0.876,1.803-1.46,2.514
	s-1.219,1.266-1.904,1.663s-1.316,0.597-1.892,0.597c-0.66,0-1.312-0.127-1.955-0.381s-1.219-0.622-1.727-1.104
	s-0.923-1.079-1.244-1.79s-0.482-1.532-0.482-2.463c0-0.593,0.076-1.244,0.229-1.955s0.359-1.426,0.622-2.146
	c0.262-0.719,0.575-1.413,0.939-2.082c0.363-0.668,0.758-1.266,1.181-1.79s0.872-0.943,1.346-1.257
	c0.474-0.312,0.956-0.47,1.447-0.47c0.187,0,0.351,0.021,0.495,0.063c0.144,0.043,0.275,0.098,0.394,0.165
	c0.085,0,0.169-0.004,0.254-0.013C236.197,24.359,236.29,24.354,236.392,24.354z M234.614,38.167c0.321,0,0.731-0.156,1.231-0.47
	c0.499-0.312,0.986-0.753,1.46-1.32c0.474-0.566,0.88-1.248,1.219-2.044s0.508-1.685,0.508-2.666c0-0.948-0.114-1.781-0.343-2.501
	c-0.229-0.719-0.491-1.328-0.787-1.828c-0.297-0.499-0.593-0.876-0.889-1.13c-0.297-0.254-0.512-0.397-0.647-0.432
	c-0.288,0-0.546,0.021-0.774,0.063c-0.229,0.043-0.385,0.072-0.47,0.089c-0.203,0-0.39-0.085-0.559-0.254
	c-0.423,0.169-0.863,0.55-1.32,1.143s-0.88,1.282-1.27,2.069s-0.711,1.625-0.965,2.514s-0.381,1.705-0.381,2.45
	c0,0.778,0.136,1.443,0.406,1.993c0.271,0.551,0.609,0.994,1.016,1.333s0.838,0.589,1.295,0.749
	C233.802,38.087,234.225,38.167,234.614,38.167z"/>
<path fill="#FFFFFF" d="M250.103,24.558c0.372,0,0.686,0.03,0.939,0.089c0.254,0.06,0.461,0.127,0.622,0.203
	c0.16,0.076,0.287,0.156,0.381,0.241c0.093,0.085,0.156,0.152,0.19,0.203c0.085,0.118,0.127,0.245,0.127,0.381
	c0,0.271-0.102,0.466-0.305,0.584c-0.102,0.085-0.237,0.127-0.406,0.127c-0.203,0-0.381-0.076-0.533-0.229
	c-0.034-0.017-0.123-0.051-0.267-0.102c-0.145-0.051-0.394-0.076-0.749-0.076c-0.203,0-0.567,0.127-1.092,0.381
	s-1.058,0.669-1.6,1.244s-1.028,1.325-1.46,2.247c-0.432,0.923-0.647,2.053-0.647,3.39c0.051,0.22,0.102,0.444,0.152,0.673
	s0.11,0.461,0.178,0.698c0.187,0.762,0.372,1.558,0.559,2.387s0.279,1.676,0.279,2.539c0,0.203-0.072,0.372-0.216,0.508
	c-0.145,0.136-0.309,0.203-0.495,0.203c-0.203,0-0.372-0.067-0.508-0.203s-0.203-0.305-0.203-0.508c0-0.778-0.085-1.558-0.254-2.336
	s-0.347-1.523-0.533-2.234c-0.169-0.626-0.317-1.231-0.444-1.815s-0.19-1.121-0.19-1.612s-0.034-1.108-0.102-1.854
	s-0.148-1.468-0.241-2.171c-0.094-0.702-0.174-1.312-0.241-1.828c-0.067-0.516-0.102-0.791-0.102-0.825
	c0-0.169,0.06-0.321,0.178-0.457s0.296-0.22,0.533-0.254c0.169,0,0.317,0.056,0.444,0.165c0.127,0.11,0.207,0.258,0.241,0.444
	c0,0.034,0.021,0.174,0.063,0.419c0.042,0.246,0.089,0.555,0.14,0.927s0.105,0.796,0.165,1.27c0.059,0.474,0.114,0.954,0.165,1.44
	c0.339-0.706,0.74-1.326,1.206-1.859c0.465-0.533,0.943-0.978,1.435-1.333s0.965-0.622,1.422-0.8S249.781,24.558,250.103,24.558z"/>
<path fill="#FFFFFF" d="M43.664,100.034c0.118-0.067,0.254-0.102,0.406-0.102c0.254,0,0.448,0.102,0.584,0.305
	c0.084,0.136,0.127,0.271,0.127,0.406c0,0.22-0.11,0.415-0.33,0.584l-0.178,0.127c-0.136,0.085-0.313,0.169-0.533,0.254
	c-0.22,0.085-0.47,0.165-0.749,0.241s-0.58,0.114-0.901,0.114c-0.406,0-0.897-0.123-1.473-0.368
	c-0.576-0.245-1.139-0.66-1.688-1.244c-0.55-0.584-1.037-1.354-1.46-2.311c-0.423-0.956-0.686-2.137-0.787-3.542
	c-0.017-0.102-0.025-0.198-0.025-0.292c0-0.093,0-0.19,0-0.292c0-1.101,0.199-2.091,0.597-2.971c0.397-0.88,0.876-1.629,1.435-2.247
	c0.559-0.617,1.138-1.1,1.739-1.447c0.601-0.347,1.113-0.537,1.536-0.571c0.084-0.017,0.173-0.025,0.267-0.025
	c0.093,0,0.182,0,0.267,0c0.491,0,0.918,0.047,1.282,0.14c0.364,0.094,0.613,0.174,0.749,0.241c0.186,0.034,0.381,0.165,0.584,0.394
	s0.305,0.664,0.305,1.308c0,0.203-0.072,0.372-0.216,0.508c-0.144,0.136-0.309,0.203-0.495,0.203c-0.203,0-0.373-0.067-0.508-0.203
	c-0.136-0.136-0.203-0.305-0.203-0.508c0-0.136-0.017-0.271-0.051-0.406c-0.102-0.034-0.279-0.085-0.533-0.152
	s-0.559-0.102-0.914-0.102c-0.068,0-0.131,0-0.19,0c-0.06,0-0.131,0.009-0.216,0.025c-0.271,0.034-0.631,0.187-1.079,0.457
	c-0.449,0.271-0.889,0.656-1.32,1.155c-0.432,0.5-0.809,1.104-1.13,1.815c-0.322,0.711-0.482,1.515-0.482,2.412
	c0,0.085,0,0.161,0,0.229s0.008,0.144,0.025,0.229c0.067,1.151,0.262,2.116,0.584,2.895c0.321,0.778,0.689,1.409,1.104,1.892
	c0.415,0.482,0.829,0.83,1.244,1.041c0.415,0.212,0.766,0.317,1.054,0.317c0.203,0,0.397-0.025,0.584-0.076
	c0.186-0.051,0.355-0.105,0.508-0.165c0.152-0.059,0.271-0.123,0.355-0.19L43.664,100.034z"/>
<path fill="#FFFFFF" d="M54.404,86.755c0.355,0,0.766,0.174,1.231,0.521c0.465,0.348,0.905,0.838,1.32,1.473
	c0.415,0.635,0.77,1.4,1.066,2.298c0.296,0.897,0.444,1.904,0.444,3.021c0,1.134-0.195,2.184-0.584,3.148
	c-0.39,0.965-0.876,1.803-1.46,2.514s-1.219,1.266-1.904,1.663s-1.316,0.597-1.892,0.597c-0.66,0-1.312-0.127-1.955-0.381
	c-0.644-0.254-1.219-0.622-1.727-1.104s-0.923-1.079-1.244-1.79c-0.322-0.711-0.482-1.532-0.482-2.463
	c0-0.593,0.076-1.244,0.229-1.955s0.359-1.426,0.622-2.146c0.262-0.719,0.575-1.413,0.939-2.082c0.364-0.668,0.757-1.266,1.181-1.79
	c0.423-0.524,0.872-0.943,1.346-1.257c0.474-0.312,0.956-0.47,1.447-0.47c0.186,0,0.351,0.021,0.495,0.063
	c0.144,0.043,0.275,0.098,0.394,0.165c0.084,0,0.169-0.004,0.254-0.013C54.209,86.76,54.303,86.755,54.404,86.755z M52.627,100.567
	c0.321,0,0.732-0.156,1.231-0.47c0.499-0.312,0.986-0.753,1.46-1.32c0.474-0.566,0.88-1.248,1.219-2.044
	c0.338-0.796,0.508-1.685,0.508-2.666c0-0.948-0.114-1.781-0.343-2.501c-0.229-0.719-0.491-1.328-0.787-1.828
	c-0.296-0.499-0.593-0.876-0.889-1.13c-0.296-0.254-0.512-0.397-0.647-0.432c-0.288,0-0.546,0.021-0.774,0.063
	c-0.229,0.043-0.385,0.072-0.47,0.089c-0.203,0-0.39-0.085-0.559-0.254c-0.423,0.169-0.863,0.55-1.32,1.143s-0.88,1.282-1.27,2.069
	c-0.39,0.787-0.711,1.625-0.965,2.514s-0.381,1.705-0.381,2.45c0,0.778,0.135,1.443,0.406,1.993
	c0.271,0.551,0.609,0.994,1.016,1.333s0.838,0.589,1.295,0.749C51.814,100.487,52.237,100.567,52.627,100.567z"/>
<path fill="#FFFFFF" d="M70.908,87.212c-0.152,0-0.296-0.051-0.432-0.152c-0.136-0.102-0.22-0.237-0.254-0.406
	c0-0.034-0.06-0.224-0.178-0.571c-0.119-0.347-0.309-0.719-0.571-1.117c-0.263-0.397-0.622-0.758-1.079-1.079
	s-1.024-0.482-1.701-0.482c-0.593,0-1.134,0.245-1.625,0.736c-0.237,0.254-0.428,0.542-0.571,0.863
	c-0.144,0.321-0.216,0.651-0.216,0.99l0.102,3.859c0.491-0.034,1.003-0.067,1.536-0.102s1.079-0.067,1.638-0.102
	c0.186,0,0.347,0.067,0.482,0.203c0.135,0.136,0.211,0.305,0.229,0.508c0,0.187-0.068,0.352-0.203,0.495
	c-0.136,0.145-0.296,0.216-0.482,0.216c-0.542,0.034-1.075,0.067-1.6,0.102c-0.525,0.034-1.033,0.067-1.523,0.102
	c0.067,0.931,0.182,1.951,0.343,3.06c0.161,1.109,0.317,2.154,0.47,3.136s0.288,1.808,0.406,2.476
	c0.118,0.669,0.178,1.028,0.178,1.079c0,0.39-0.237,0.626-0.711,0.711c-0.39,0-0.626-0.194-0.711-0.584
	c0-0.051-0.03-0.237-0.089-0.559c-0.06-0.321-0.136-0.74-0.229-1.257c-0.093-0.516-0.19-1.1-0.292-1.752
	c-0.102-0.651-0.203-1.333-0.305-2.044s-0.195-1.422-0.279-2.133c-0.085-0.711-0.152-1.38-0.203-2.006
	c-0.728,0.067-1.32,0.127-1.777,0.178s-0.72,0.085-0.787,0.102c-0.169,0-0.322-0.06-0.457-0.178
	c-0.136-0.118-0.22-0.296-0.254-0.533c0-0.187,0.059-0.343,0.178-0.47c0.118-0.127,0.271-0.207,0.457-0.241
	c0.017,0,0.258-0.025,0.724-0.076c0.465-0.051,1.079-0.118,1.841-0.203v-0.33l-0.102-3.707c0-0.491,0.105-0.981,0.317-1.473
	c0.211-0.491,0.503-0.931,0.876-1.32c0.372-0.372,0.783-0.66,1.231-0.863c0.448-0.203,0.918-0.305,1.409-0.305
	c0.778,0,1.456,0.157,2.031,0.47c0.575,0.313,1.062,0.698,1.46,1.155c0.397,0.457,0.715,0.948,0.952,1.473
	c0.237,0.524,0.397,0.999,0.482,1.422c0,0.372-0.178,0.601-0.533,0.686L70.908,87.212z"/>
<path fill="#FFFFFF" d="M81.318,87.212c-0.152,0-0.296-0.051-0.432-0.152c-0.136-0.102-0.22-0.237-0.254-0.406
	c0-0.034-0.06-0.224-0.178-0.571c-0.119-0.347-0.309-0.719-0.571-1.117c-0.263-0.397-0.622-0.758-1.079-1.079
	s-1.024-0.482-1.701-0.482c-0.593,0-1.134,0.245-1.625,0.736c-0.237,0.254-0.428,0.542-0.571,0.863
	c-0.144,0.321-0.216,0.651-0.216,0.99l0.102,3.859c0.491-0.034,1.003-0.067,1.536-0.102s1.079-0.067,1.638-0.102
	c0.186,0,0.347,0.067,0.482,0.203c0.135,0.136,0.211,0.305,0.229,0.508c0,0.187-0.068,0.352-0.203,0.495
	c-0.136,0.145-0.296,0.216-0.482,0.216c-0.542,0.034-1.075,0.067-1.6,0.102c-0.525,0.034-1.033,0.067-1.523,0.102
	c0.067,0.931,0.182,1.951,0.343,3.06c0.161,1.109,0.317,2.154,0.47,3.136s0.288,1.808,0.406,2.476
	c0.118,0.669,0.178,1.028,0.178,1.079c0,0.39-0.237,0.626-0.711,0.711c-0.39,0-0.626-0.194-0.711-0.584
	c0-0.051-0.03-0.237-0.089-0.559c-0.06-0.321-0.136-0.74-0.229-1.257c-0.093-0.516-0.19-1.1-0.292-1.752
	c-0.102-0.651-0.203-1.333-0.305-2.044s-0.195-1.422-0.279-2.133c-0.085-0.711-0.152-1.38-0.203-2.006
	c-0.728,0.067-1.32,0.127-1.777,0.178s-0.72,0.085-0.787,0.102c-0.169,0-0.322-0.06-0.457-0.178
	c-0.136-0.118-0.22-0.296-0.254-0.533c0-0.187,0.059-0.343,0.178-0.47c0.118-0.127,0.271-0.207,0.457-0.241
	c0.017,0,0.258-0.025,0.724-0.076c0.465-0.051,1.079-0.118,1.841-0.203v-0.33l-0.102-3.707c0-0.491,0.105-0.981,0.317-1.473
	c0.211-0.491,0.503-0.931,0.876-1.32c0.372-0.372,0.783-0.66,1.231-0.863c0.448-0.203,0.918-0.305,1.409-0.305
	c0.778,0,1.456,0.157,2.031,0.47c0.575,0.313,1.062,0.698,1.46,1.155c0.397,0.457,0.715,0.948,0.952,1.473
	c0.237,0.524,0.397,0.999,0.482,1.422c0,0.372-0.178,0.601-0.533,0.686L81.318,87.212z"/>
<path fill="#FFFFFF" d="M91.932,100.288c0.186,0,0.343,0.06,0.47,0.178s0.207,0.296,0.241,0.533c0,0.187-0.055,0.343-0.165,0.47
	c-0.11,0.127-0.258,0.207-0.444,0.241c-0.034,0-0.187,0.021-0.457,0.063c-0.271,0.042-0.593,0.089-0.965,0.14
	c-0.373,0.051-0.762,0.093-1.168,0.127s-0.753,0.051-1.041,0.051c-2.251,0-3.978-0.597-5.18-1.79
	c-1.202-1.193-1.862-2.873-1.98-5.04c-0.034-1.101,0.063-2.065,0.292-2.895s0.533-1.54,0.914-2.133s0.808-1.083,1.282-1.473
	c0.474-0.39,0.935-0.694,1.384-0.914c0.448-0.22,0.854-0.376,1.219-0.47c0.364-0.093,0.63-0.14,0.8-0.14
	c0.44,0,0.91,0.11,1.409,0.33c0.499,0.22,0.965,0.555,1.396,1.003c0.432,0.449,0.8,1.02,1.104,1.714s0.491,1.515,0.559,2.463
	c0.102,0.136,0.152,0.288,0.152,0.457s-0.051,0.313-0.152,0.432c-0.085,0.339-0.313,0.508-0.686,0.508
	c-0.169,0-0.313-0.051-0.432-0.152c-0.457,0.102-0.931,0.245-1.422,0.432c-0.44,0.152-0.872,0.288-1.295,0.406
	c-0.423,0.118-0.804,0.178-1.143,0.178c-0.187,0-0.436,0.025-0.749,0.076c-0.313,0.051-0.656,0.118-1.028,0.203
	c-0.373,0.085-0.749,0.174-1.13,0.267c-0.381,0.094-0.724,0.182-1.028,0.267c0.067,1.05,0.309,1.892,0.724,2.526
	c0.415,0.635,0.905,1.126,1.473,1.473c0.567,0.348,1.168,0.576,1.803,0.686c0.635,0.11,1.206,0.165,1.714,0.165
	c0.271,0,0.601-0.017,0.99-0.051c0.389-0.034,0.762-0.076,1.117-0.127s0.668-0.093,0.939-0.127l0.381-0.051L91.932,100.288z
	 M87.133,88.659c-0.152,0-0.453,0.081-0.901,0.241c-0.449,0.161-0.914,0.449-1.396,0.863c-0.482,0.415-0.931,0.99-1.346,1.727
	c-0.415,0.736-0.673,1.68-0.774,2.831c0.288-0.067,0.613-0.144,0.978-0.229c0.364-0.085,0.728-0.165,1.092-0.241
	c0.364-0.076,0.711-0.14,1.041-0.19s0.597-0.076,0.8-0.076c0.237,0,0.537-0.055,0.901-0.165c0.364-0.109,0.724-0.225,1.079-0.343
	c0.288-0.102,0.559-0.19,0.812-0.267s0.499-0.148,0.736-0.216c-0.068-0.677-0.212-1.261-0.432-1.752
	c-0.22-0.491-0.474-0.897-0.762-1.219c-0.288-0.321-0.593-0.562-0.914-0.724C87.725,88.74,87.42,88.659,87.133,88.659z"/>
<path fill="#FFFFFF" d="M104.754,100.288c0.186,0,0.343,0.06,0.47,0.178s0.207,0.296,0.241,0.533c0,0.187-0.055,0.343-0.165,0.47
	c-0.11,0.127-0.258,0.207-0.444,0.241c-0.034,0-0.187,0.021-0.457,0.063c-0.271,0.042-0.593,0.089-0.965,0.14
	c-0.373,0.051-0.762,0.093-1.168,0.127s-0.753,0.051-1.041,0.051c-2.251,0-3.978-0.597-5.18-1.79
	c-1.202-1.193-1.862-2.873-1.98-5.04c-0.034-1.101,0.063-2.065,0.292-2.895s0.533-1.54,0.914-2.133s0.808-1.083,1.282-1.473
	c0.474-0.39,0.935-0.694,1.384-0.914c0.448-0.22,0.854-0.376,1.219-0.47c0.364-0.093,0.63-0.14,0.8-0.14
	c0.44,0,0.91,0.11,1.409,0.33c0.499,0.22,0.965,0.555,1.396,1.003c0.432,0.449,0.8,1.02,1.104,1.714s0.491,1.515,0.559,2.463
	c0.102,0.136,0.152,0.288,0.152,0.457s-0.051,0.313-0.152,0.432c-0.085,0.339-0.313,0.508-0.686,0.508
	c-0.169,0-0.313-0.051-0.432-0.152c-0.457,0.102-0.931,0.245-1.422,0.432c-0.44,0.152-0.872,0.288-1.295,0.406
	c-0.423,0.118-0.804,0.178-1.143,0.178c-0.187,0-0.436,0.025-0.749,0.076c-0.313,0.051-0.656,0.118-1.028,0.203
	c-0.373,0.085-0.749,0.174-1.13,0.267c-0.381,0.094-0.724,0.182-1.028,0.267c0.067,1.05,0.309,1.892,0.724,2.526
	c0.415,0.635,0.905,1.126,1.473,1.473c0.567,0.348,1.168,0.576,1.803,0.686c0.635,0.11,1.206,0.165,1.714,0.165
	c0.271,0,0.601-0.017,0.99-0.051c0.389-0.034,0.762-0.076,1.117-0.127s0.668-0.093,0.939-0.127l0.381-0.051L104.754,100.288z
	 M99.955,88.659c-0.152,0-0.453,0.081-0.901,0.241c-0.449,0.161-0.914,0.449-1.396,0.863c-0.482,0.415-0.931,0.99-1.346,1.727
	c-0.415,0.736-0.673,1.68-0.774,2.831c0.288-0.067,0.613-0.144,0.978-0.229c0.364-0.085,0.728-0.165,1.092-0.241
	c0.364-0.076,0.711-0.14,1.041-0.19s0.597-0.076,0.8-0.076c0.237,0,0.537-0.055,0.901-0.165c0.364-0.109,0.724-0.225,1.079-0.343
	c0.288-0.102,0.559-0.19,0.812-0.267s0.499-0.148,0.736-0.216c-0.068-0.677-0.212-1.261-0.432-1.752
	c-0.22-0.491-0.474-0.897-0.762-1.219c-0.288-0.321-0.593-0.562-0.914-0.724C100.547,88.74,100.243,88.659,99.955,88.659z"/>
<path fill="#FFFFFF" d="M124.279,88.202c0.152,0.034,0.279,0.127,0.381,0.279s0.144,0.347,0.127,0.584
	c-0.085,0.355-0.373,0.533-0.863,0.533c0-0.017-0.313-0.076-0.939-0.178c-0.626-0.102-1.464-0.161-2.514-0.178
	c0.051,0.965,0.076,1.761,0.076,2.387c0,0.321,0.021,0.778,0.063,1.371c0.042,0.593,0.093,1.24,0.152,1.942
	c0.059,0.703,0.123,1.422,0.19,2.158c0.067,0.736,0.135,1.405,0.203,2.006c0.067,0.602,0.123,1.101,0.165,1.498
	c0.042,0.398,0.063,0.605,0.063,0.622c0,0.187-0.063,0.343-0.19,0.47s-0.301,0.207-0.521,0.241c-0.187,0-0.347-0.06-0.482-0.178
	c-0.136-0.118-0.212-0.271-0.229-0.457c0-0.051-0.025-0.279-0.076-0.686s-0.106-0.909-0.165-1.511
	c-0.06-0.601-0.123-1.266-0.19-1.993c-0.068-0.728-0.131-1.442-0.19-2.146c-0.06-0.702-0.11-1.35-0.152-1.942
	c-0.042-0.593-0.063-1.058-0.063-1.396c0-0.644-0.025-1.422-0.076-2.336c-0.44,0.034-0.872,0.076-1.295,0.127
	c-0.423,0.051-0.8,0.098-1.13,0.14c-0.33,0.043-0.601,0.08-0.812,0.114c-0.212,0.034-0.334,0.051-0.368,0.051
	c-0.169,0-0.322-0.06-0.457-0.178c-0.136-0.118-0.22-0.296-0.254-0.533c0-0.169,0.055-0.317,0.165-0.444
	c0.11-0.127,0.258-0.207,0.444-0.241c0.017,0,0.131-0.021,0.343-0.063c0.211-0.042,0.482-0.084,0.812-0.127
	c0.33-0.042,0.707-0.084,1.13-0.127c0.423-0.042,0.863-0.08,1.32-0.114c-0.034-0.474-0.072-0.943-0.114-1.409
	c-0.042-0.465-0.085-0.914-0.127-1.346c-0.042-0.432-0.089-0.834-0.14-1.206s-0.102-0.694-0.152-0.965
	c0-0.169,0.059-0.321,0.178-0.457c0.118-0.136,0.296-0.22,0.533-0.254c0.169,0,0.317,0.051,0.444,0.152s0.207,0.245,0.241,0.432
	c0.118,0.524,0.229,1.244,0.33,2.158s0.194,1.854,0.279,2.818c0.575,0,1.096,0.017,1.562,0.051c0.465,0.034,0.863,0.076,1.193,0.127
	s0.592,0.098,0.787,0.14C124.156,88.182,124.262,88.202,124.279,88.202z"/>
<path fill="#FFFFFF" d="M133.928,86.958c0.372,0,0.686,0.03,0.939,0.089c0.254,0.06,0.461,0.127,0.622,0.203
	c0.161,0.076,0.288,0.156,0.381,0.241c0.093,0.085,0.156,0.152,0.19,0.203c0.084,0.118,0.127,0.245,0.127,0.381
	c0,0.271-0.102,0.466-0.305,0.584c-0.102,0.085-0.237,0.127-0.406,0.127c-0.203,0-0.381-0.076-0.533-0.229
	c-0.034-0.017-0.123-0.051-0.267-0.102c-0.144-0.051-0.394-0.076-0.749-0.076c-0.203,0-0.567,0.127-1.092,0.381
	c-0.525,0.254-1.058,0.669-1.6,1.244c-0.542,0.575-1.028,1.325-1.46,2.247c-0.432,0.923-0.647,2.053-0.647,3.39
	c0.051,0.22,0.102,0.444,0.152,0.673s0.11,0.461,0.178,0.698c0.186,0.762,0.372,1.558,0.559,2.387
	c0.186,0.829,0.279,1.676,0.279,2.539c0,0.203-0.072,0.372-0.216,0.508c-0.144,0.136-0.309,0.203-0.495,0.203
	c-0.203,0-0.373-0.067-0.508-0.203c-0.136-0.136-0.203-0.305-0.203-0.508c0-0.778-0.085-1.558-0.254-2.336
	c-0.169-0.778-0.347-1.523-0.533-2.234c-0.169-0.626-0.317-1.231-0.444-1.815s-0.19-1.121-0.19-1.612s-0.034-1.108-0.102-1.854
	c-0.068-0.745-0.148-1.468-0.241-2.171c-0.093-0.702-0.174-1.312-0.241-1.828c-0.068-0.516-0.102-0.791-0.102-0.825
	c0-0.169,0.059-0.321,0.178-0.457c0.118-0.136,0.296-0.22,0.533-0.254c0.169,0,0.317,0.056,0.444,0.165
	c0.127,0.11,0.207,0.258,0.241,0.444c0,0.034,0.021,0.174,0.063,0.419c0.042,0.246,0.089,0.555,0.14,0.927s0.105,0.796,0.165,1.27
	c0.059,0.474,0.114,0.954,0.165,1.44c0.338-0.706,0.74-1.326,1.206-1.859c0.465-0.533,0.943-0.978,1.435-1.333
	c0.491-0.355,0.965-0.622,1.422-0.8S133.606,86.958,133.928,86.958z"/>
<path fill="#FFFFFF" d="M147.664,100.288c0.186,0,0.343,0.06,0.47,0.178s0.207,0.296,0.241,0.533c0,0.187-0.055,0.343-0.165,0.47
	c-0.11,0.127-0.258,0.207-0.444,0.241c-0.034,0-0.187,0.021-0.457,0.063c-0.271,0.042-0.593,0.089-0.965,0.14
	c-0.373,0.051-0.762,0.093-1.168,0.127s-0.753,0.051-1.041,0.051c-2.251,0-3.978-0.597-5.18-1.79
	c-1.202-1.193-1.862-2.873-1.98-5.04c-0.034-1.101,0.063-2.065,0.292-2.895s0.533-1.54,0.914-2.133s0.808-1.083,1.282-1.473
	c0.474-0.39,0.935-0.694,1.384-0.914c0.448-0.22,0.854-0.376,1.219-0.47c0.364-0.093,0.63-0.14,0.8-0.14
	c0.44,0,0.91,0.11,1.409,0.33c0.499,0.22,0.965,0.555,1.396,1.003c0.432,0.449,0.8,1.02,1.104,1.714s0.491,1.515,0.559,2.463
	c0.102,0.136,0.152,0.288,0.152,0.457s-0.051,0.313-0.152,0.432c-0.085,0.339-0.313,0.508-0.686,0.508
	c-0.169,0-0.313-0.051-0.432-0.152c-0.457,0.102-0.931,0.245-1.422,0.432c-0.44,0.152-0.872,0.288-1.295,0.406
	c-0.423,0.118-0.804,0.178-1.143,0.178c-0.187,0-0.436,0.025-0.749,0.076c-0.313,0.051-0.656,0.118-1.028,0.203
	c-0.373,0.085-0.749,0.174-1.13,0.267c-0.381,0.094-0.724,0.182-1.028,0.267c0.067,1.05,0.309,1.892,0.724,2.526
	c0.415,0.635,0.905,1.126,1.473,1.473c0.567,0.348,1.168,0.576,1.803,0.686c0.635,0.11,1.206,0.165,1.714,0.165
	c0.271,0,0.601-0.017,0.99-0.051c0.389-0.034,0.762-0.076,1.117-0.127s0.668-0.093,0.939-0.127l0.381-0.051L147.664,100.288z
	 M142.865,88.659c-0.152,0-0.453,0.081-0.901,0.241c-0.449,0.161-0.914,0.449-1.396,0.863c-0.482,0.415-0.931,0.99-1.346,1.727
	c-0.415,0.736-0.673,1.68-0.774,2.831c0.288-0.067,0.613-0.144,0.978-0.229c0.364-0.085,0.728-0.165,1.092-0.241
	c0.364-0.076,0.711-0.14,1.041-0.19s0.597-0.076,0.8-0.076c0.237,0,0.537-0.055,0.901-0.165c0.364-0.109,0.724-0.225,1.079-0.343
	c0.288-0.102,0.559-0.19,0.812-0.267s0.499-0.148,0.736-0.216c-0.068-0.677-0.212-1.261-0.432-1.752
	c-0.22-0.491-0.474-0.897-0.762-1.219c-0.288-0.321-0.593-0.562-0.914-0.724C143.458,88.74,143.153,88.659,142.865,88.659z"/>
<path fill="#FFFFFF" d="M160.486,100.288c0.186,0,0.343,0.06,0.47,0.178s0.207,0.296,0.241,0.533c0,0.187-0.055,0.343-0.165,0.47
	s-0.259,0.207-0.444,0.241c-0.034,0-0.187,0.021-0.457,0.063c-0.271,0.042-0.593,0.089-0.965,0.14
	c-0.373,0.051-0.762,0.093-1.168,0.127s-0.754,0.051-1.041,0.051c-2.252,0-3.978-0.597-5.18-1.79s-1.862-2.873-1.98-5.04
	c-0.034-1.101,0.063-2.065,0.292-2.895s0.533-1.54,0.914-2.133s0.809-1.083,1.282-1.473s0.935-0.694,1.384-0.914
	c0.448-0.22,0.854-0.376,1.219-0.47c0.364-0.093,0.63-0.14,0.8-0.14c0.439,0,0.91,0.11,1.409,0.33s0.965,0.555,1.396,1.003
	c0.432,0.449,0.8,1.02,1.104,1.714s0.49,1.515,0.559,2.463c0.102,0.136,0.152,0.288,0.152,0.457s-0.051,0.313-0.152,0.432
	c-0.085,0.339-0.313,0.508-0.686,0.508c-0.17,0-0.313-0.051-0.432-0.152c-0.457,0.102-0.932,0.245-1.422,0.432
	c-0.44,0.152-0.872,0.288-1.295,0.406c-0.424,0.118-0.805,0.178-1.143,0.178c-0.187,0-0.436,0.025-0.749,0.076
	s-0.656,0.118-1.028,0.203s-0.749,0.174-1.13,0.267c-0.381,0.094-0.724,0.182-1.028,0.267c0.067,1.05,0.309,1.892,0.724,2.526
	c0.414,0.635,0.905,1.126,1.473,1.473c0.567,0.348,1.168,0.576,1.803,0.686c0.635,0.11,1.206,0.165,1.714,0.165
	c0.271,0,0.601-0.017,0.99-0.051c0.389-0.034,0.762-0.076,1.117-0.127s0.668-0.093,0.939-0.127l0.381-0.051L160.486,100.288z
	 M155.688,88.659c-0.152,0-0.453,0.081-0.901,0.241c-0.448,0.161-0.914,0.449-1.396,0.863c-0.482,0.415-0.932,0.99-1.346,1.727
	c-0.415,0.736-0.673,1.68-0.774,2.831c0.288-0.067,0.613-0.144,0.978-0.229c0.363-0.085,0.728-0.165,1.092-0.241
	s0.711-0.14,1.041-0.19s0.597-0.076,0.8-0.076c0.236,0,0.537-0.055,0.901-0.165c0.364-0.109,0.724-0.225,1.079-0.343
	c0.287-0.102,0.559-0.19,0.812-0.267s0.499-0.148,0.736-0.216c-0.068-0.677-0.212-1.261-0.432-1.752
	c-0.221-0.491-0.475-0.897-0.762-1.219c-0.288-0.321-0.593-0.562-0.914-0.724C156.279,88.74,155.975,88.659,155.688,88.659z"/>
<path fill="#FFFFFF" d="M178.031,92.772c2.996,1.456,4.494,2.987,4.494,4.596c0,0.491-0.11,0.974-0.33,1.447
	c-0.221,0.474-0.482,0.91-0.787,1.308c-0.305,0.398-0.622,0.745-0.952,1.041s-0.605,0.504-0.825,0.622
	c-0.203,0.118-0.47,0.232-0.8,0.343c-0.33,0.109-0.669,0.207-1.016,0.292s-0.677,0.152-0.99,0.203s-0.571,0.076-0.774,0.076
	c-0.44,0-0.91-0.072-1.409-0.216c-0.499-0.145-0.978-0.381-1.435-0.711s-0.867-0.766-1.231-1.308s-0.647-1.21-0.851-2.006
	c0-0.372,0.236-0.609,0.711-0.711c0.152,0,0.296,0.047,0.432,0.14c0.135,0.094,0.22,0.225,0.254,0.394
	c0.186,0.711,0.453,1.266,0.8,1.663c0.347,0.398,0.702,0.698,1.066,0.901s0.702,0.326,1.016,0.368
	c0.313,0.043,0.528,0.063,0.647,0.063c0.152,0,0.363-0.021,0.635-0.063c0.271-0.042,0.546-0.102,0.825-0.178s0.55-0.156,0.812-0.241
	s0.461-0.169,0.597-0.254c0.152-0.085,0.355-0.241,0.609-0.47s0.495-0.49,0.724-0.787c0.229-0.296,0.427-0.613,0.597-0.952
	c0.169-0.339,0.254-0.66,0.254-0.965c0-0.169-0.051-0.368-0.152-0.597s-0.283-0.482-0.546-0.762s-0.635-0.58-1.117-0.901
	s-1.104-0.669-1.866-1.041c-0.491-0.237-1.003-0.482-1.536-0.736s-1.028-0.486-1.485-0.698c-0.457-0.211-0.838-0.394-1.143-0.546
	l-0.457-0.203l-0.406-0.178v-0.457c0-0.778,0.194-1.46,0.584-2.044c0.389-0.584,0.863-1.074,1.422-1.473
	c0.559-0.397,1.146-0.698,1.765-0.901s1.163-0.305,1.638-0.305c0.49,0,0.905,0.06,1.244,0.178c0.338,0.118,0.617,0.25,0.838,0.394
	c0.22,0.145,0.385,0.279,0.495,0.406s0.173,0.207,0.19,0.241c0.084,0.118,0.127,0.245,0.127,0.381c0,0.254-0.11,0.448-0.33,0.584
	c-0.136,0.085-0.263,0.127-0.381,0.127c-0.254,0-0.449-0.11-0.584-0.33c-0.018,0-0.055-0.029-0.114-0.089
	c-0.06-0.059-0.152-0.123-0.279-0.19s-0.288-0.131-0.482-0.19c-0.194-0.059-0.437-0.089-0.724-0.089
	c-0.288,0-0.635,0.06-1.041,0.178s-0.812,0.301-1.219,0.546c-0.406,0.246-0.771,0.546-1.092,0.901
	c-0.322,0.355-0.525,0.771-0.609,1.244c0.22,0.102,0.49,0.225,0.812,0.368c0.321,0.145,0.673,0.305,1.054,0.482
	s0.774,0.364,1.181,0.559C177.295,92.422,177.676,92.604,178.031,92.772z"/>
<path fill="#FFFFFF" d="M195.145,100.288c0.186,0,0.343,0.06,0.47,0.178s0.207,0.296,0.241,0.533c0,0.187-0.055,0.343-0.165,0.47
	s-0.259,0.207-0.444,0.241c-0.034,0-0.187,0.021-0.457,0.063c-0.271,0.042-0.593,0.089-0.965,0.14
	c-0.373,0.051-0.762,0.093-1.168,0.127s-0.754,0.051-1.041,0.051c-2.252,0-3.979-0.597-5.18-1.79
	c-1.202-1.193-1.862-2.873-1.98-5.04c-0.034-1.101,0.063-2.065,0.292-2.895s0.533-1.54,0.914-2.133s0.808-1.083,1.282-1.473
	c0.474-0.39,0.936-0.694,1.384-0.914s0.854-0.376,1.219-0.47c0.364-0.093,0.63-0.14,0.8-0.14c0.439,0,0.91,0.11,1.409,0.33
	s0.965,0.555,1.396,1.003c0.432,0.449,0.8,1.02,1.104,1.714s0.49,1.515,0.559,2.463c0.102,0.136,0.152,0.288,0.152,0.457
	s-0.051,0.313-0.152,0.432c-0.085,0.339-0.313,0.508-0.686,0.508c-0.17,0-0.313-0.051-0.432-0.152
	c-0.457,0.102-0.932,0.245-1.422,0.432c-0.44,0.152-0.872,0.288-1.295,0.406c-0.424,0.118-0.805,0.178-1.143,0.178
	c-0.187,0-0.436,0.025-0.749,0.076s-0.656,0.118-1.028,0.203c-0.373,0.085-0.749,0.174-1.13,0.267
	c-0.381,0.094-0.724,0.182-1.028,0.267c0.067,1.05,0.309,1.892,0.724,2.526s0.905,1.126,1.473,1.473
	c0.567,0.348,1.168,0.576,1.803,0.686c0.635,0.11,1.206,0.165,1.714,0.165c0.271,0,0.601-0.017,0.99-0.051
	c0.389-0.034,0.762-0.076,1.117-0.127s0.668-0.093,0.939-0.127l0.381-0.051L195.145,100.288z M190.346,88.659
	c-0.152,0-0.453,0.081-0.901,0.241c-0.448,0.161-0.914,0.449-1.396,0.863c-0.482,0.415-0.931,0.99-1.346,1.727
	s-0.673,1.68-0.774,2.831c0.287-0.067,0.613-0.144,0.978-0.229s0.728-0.165,1.092-0.241s0.711-0.14,1.041-0.19
	s0.597-0.076,0.8-0.076c0.236,0,0.537-0.055,0.901-0.165c0.364-0.109,0.724-0.225,1.079-0.343c0.287-0.102,0.559-0.19,0.812-0.267
	s0.499-0.148,0.736-0.216c-0.068-0.677-0.212-1.261-0.432-1.752c-0.221-0.491-0.475-0.897-0.762-1.219
	c-0.288-0.321-0.593-0.562-0.914-0.724C190.938,88.74,190.633,88.659,190.346,88.659z"/>
<path fill="#FFFFFF" d="M207.967,100.288c0.186,0,0.343,0.06,0.47,0.178s0.207,0.296,0.241,0.533c0,0.187-0.055,0.343-0.165,0.47
	s-0.259,0.207-0.444,0.241c-0.034,0-0.187,0.021-0.457,0.063c-0.271,0.042-0.593,0.089-0.965,0.14
	c-0.373,0.051-0.762,0.093-1.168,0.127s-0.754,0.051-1.041,0.051c-2.252,0-3.979-0.597-5.18-1.79
	c-1.202-1.193-1.862-2.873-1.98-5.04c-0.034-1.101,0.063-2.065,0.292-2.895s0.533-1.54,0.914-2.133s0.808-1.083,1.282-1.473
	c0.474-0.39,0.936-0.694,1.384-0.914s0.854-0.376,1.219-0.47c0.364-0.093,0.63-0.14,0.8-0.14c0.439,0,0.91,0.11,1.409,0.33
	s0.965,0.555,1.396,1.003c0.432,0.449,0.8,1.02,1.104,1.714s0.49,1.515,0.559,2.463c0.102,0.136,0.152,0.288,0.152,0.457
	s-0.051,0.313-0.152,0.432c-0.085,0.339-0.313,0.508-0.686,0.508c-0.17,0-0.313-0.051-0.432-0.152
	c-0.457,0.102-0.932,0.245-1.422,0.432c-0.44,0.152-0.872,0.288-1.295,0.406c-0.424,0.118-0.805,0.178-1.143,0.178
	c-0.187,0-0.436,0.025-0.749,0.076s-0.656,0.118-1.028,0.203c-0.373,0.085-0.749,0.174-1.13,0.267
	c-0.381,0.094-0.724,0.182-1.028,0.267c0.067,1.05,0.309,1.892,0.724,2.526s0.905,1.126,1.473,1.473
	c0.567,0.348,1.168,0.576,1.803,0.686c0.635,0.11,1.206,0.165,1.714,0.165c0.271,0,0.601-0.017,0.99-0.051
	c0.389-0.034,0.762-0.076,1.117-0.127s0.668-0.093,0.939-0.127l0.381-0.051L207.967,100.288z M203.168,88.659
	c-0.152,0-0.453,0.081-0.901,0.241c-0.448,0.161-0.914,0.449-1.396,0.863c-0.482,0.415-0.931,0.99-1.346,1.727
	s-0.673,1.68-0.774,2.831c0.287-0.067,0.613-0.144,0.978-0.229s0.728-0.165,1.092-0.241s0.711-0.14,1.041-0.19
	s0.597-0.076,0.8-0.076c0.236,0,0.537-0.055,0.901-0.165c0.364-0.109,0.724-0.225,1.079-0.343c0.287-0.102,0.559-0.19,0.812-0.267
	s0.499-0.148,0.736-0.216c-0.068-0.677-0.212-1.261-0.432-1.752c-0.221-0.491-0.475-0.897-0.762-1.219
	c-0.288-0.321-0.593-0.562-0.914-0.724C203.76,88.74,203.455,88.659,203.168,88.659z"/>
<path fill="#FFFFFF" d="M220.205,90.005c0,0.542,0.029,1.193,0.089,1.955s0.14,1.558,0.241,2.387s0.207,1.655,0.317,2.476
	c0.11,0.821,0.212,1.566,0.305,2.234c0.093,0.669,0.173,1.215,0.241,1.638c0.067,0.423,0.102,0.651,0.102,0.686
	c0,0.169-0.06,0.321-0.178,0.457c-0.119,0.136-0.297,0.22-0.533,0.254c-0.17,0-0.322-0.056-0.457-0.165
	c-0.136-0.11-0.221-0.258-0.254-0.444c0-0.034-0.021-0.194-0.063-0.482s-0.098-0.669-0.165-1.143
	c-0.694,0.711-1.439,1.228-2.234,1.549c-0.796,0.321-1.549,0.482-2.26,0.482c-0.576,0-1.041-0.093-1.396-0.279
	c-0.508-0.237-0.994-0.554-1.46-0.952c-0.466-0.397-0.876-0.854-1.231-1.371c-0.355-0.516-0.639-1.088-0.851-1.714
	s-0.317-1.286-0.317-1.98c0-0.559,0.076-1.143,0.229-1.752c0.169-0.644,0.444-1.304,0.825-1.98s0.816-1.312,1.308-1.904
	c0.49-0.593,1.023-1.13,1.6-1.612c0.575-0.482,1.15-0.859,1.727-1.13c0.609-0.288,1.168-0.432,1.676-0.432
	c0.203,0,0.397,0.021,0.584,0.063c0.186,0.043,0.397,0.123,0.635,0.241c-0.034-0.626-0.072-1.235-0.114-1.828
	s-0.085-1.121-0.127-1.587c-0.042-0.465-0.076-0.842-0.102-1.13s-0.038-0.448-0.038-0.482c0-0.187,0.063-0.343,0.19-0.47
	s0.3-0.207,0.521-0.241c0.186,0,0.343,0.063,0.47,0.19s0.207,0.283,0.241,0.47c0,0.051,0.025,0.339,0.076,0.863
	s0.105,1.177,0.165,1.955s0.114,1.63,0.165,2.552C220.18,88.3,220.205,89.176,220.205,90.005z M219.215,98.46
	c0.084-0.118,0.211-0.203,0.381-0.254c-0.102-0.66-0.199-1.366-0.292-2.12c-0.093-0.753-0.178-1.498-0.254-2.234
	s-0.14-1.438-0.19-2.107c-0.051-0.668-0.076-1.248-0.076-1.739c0-0.118,0-0.237,0-0.355s-0.009-0.245-0.025-0.381
	c-0.271-0.085-0.432-0.279-0.482-0.584c0-0.034-0.021-0.089-0.063-0.165s-0.132-0.148-0.267-0.216
	c-0.136-0.067-0.297-0.102-0.482-0.102c-0.187,0-0.373,0.03-0.559,0.089c-0.187,0.06-0.355,0.123-0.508,0.19
	c-0.475,0.22-0.957,0.542-1.447,0.965c-0.491,0.423-0.952,0.897-1.384,1.422s-0.812,1.079-1.143,1.663s-0.571,1.146-0.724,1.688
	c-0.119,0.457-0.178,0.923-0.178,1.396c0,0.593,0.098,1.143,0.292,1.65s0.44,0.965,0.736,1.371s0.622,0.749,0.978,1.028
	s0.693,0.495,1.016,0.647c0.203,0.102,0.465,0.152,0.787,0.152c0.559,0,1.197-0.156,1.917-0.47
	C217.967,99.684,218.622,99.171,219.215,98.46z"/>
<path fill="#FFFFFF" d="M226.375,90.081c0,0.542,0.033,1.193,0.102,1.955c0.067,0.762,0.148,1.558,0.241,2.387
	s0.194,1.655,0.305,2.476c0.11,0.821,0.216,1.566,0.317,2.234c0.102,0.669,0.186,1.215,0.254,1.638
	c0.067,0.423,0.102,0.651,0.102,0.686c0,0.39-0.237,0.626-0.711,0.711c-0.187,0-0.343-0.056-0.47-0.165
	c-0.127-0.11-0.208-0.258-0.241-0.444c-0.018-0.051-0.06-0.296-0.127-0.736c-0.068-0.44-0.148-0.99-0.241-1.65
	s-0.194-1.4-0.305-2.222c-0.11-0.82-0.216-1.65-0.317-2.488s-0.182-1.638-0.241-2.399s-0.089-1.422-0.089-1.98
	c0-0.812-0.025-1.676-0.076-2.59s-0.102-1.765-0.152-2.552s-0.102-1.443-0.152-1.968s-0.076-0.804-0.076-0.838
	c0-0.187,0.059-0.343,0.178-0.47c0.118-0.127,0.296-0.207,0.533-0.241c0.186,0,0.343,0.063,0.47,0.19s0.207,0.283,0.241,0.47
	c0,0.051,0.025,0.339,0.076,0.863s0.102,1.181,0.152,1.968s0.102,1.638,0.152,2.552S226.375,89.252,226.375,90.081z"/>
<path fill="#FFFFFF" d="M231.174,86.272c-0.288,0-0.529-0.097-0.724-0.292c-0.194-0.194-0.292-0.436-0.292-0.724
	s0.098-0.524,0.292-0.711s0.436-0.279,0.724-0.279c0.271,0,0.504,0.093,0.698,0.279s0.292,0.423,0.292,0.711
	s-0.098,0.529-0.292,0.724C231.678,86.176,231.444,86.272,231.174,86.272z M231.504,87.339c0.186,0,0.343,0.056,0.47,0.165
	c0.127,0.11,0.207,0.25,0.241,0.419c0,0.051,0.038,0.313,0.114,0.787s0.165,1.05,0.267,1.727s0.199,1.401,0.292,2.171
	c0.093,0.771,0.156,1.46,0.19,2.069c0.033,0.593,0.093,1.286,0.178,2.082c0.084,0.796,0.178,1.554,0.279,2.272
	c0.102,0.72,0.19,1.338,0.267,1.854c0.076,0.517,0.114,0.791,0.114,0.825c0,0.187-0.06,0.343-0.178,0.47
	c-0.119,0.127-0.297,0.207-0.533,0.241c-0.187,0-0.343-0.056-0.47-0.165c-0.127-0.11-0.208-0.258-0.241-0.444
	c0-0.051-0.038-0.33-0.114-0.838s-0.165-1.121-0.267-1.841c-0.102-0.719-0.195-1.477-0.279-2.272
	c-0.085-0.796-0.145-1.498-0.178-2.107c-0.034-0.593-0.098-1.27-0.19-2.031s-0.187-1.481-0.279-2.158s-0.178-1.257-0.254-1.739
	s-0.114-0.74-0.114-0.774c0-0.169,0.051-0.321,0.152-0.457s0.245-0.22,0.432-0.254H231.504z"/>
<path fill="#FFFFFF" d="M249.227,98.409c0,0.237,0.029,0.482,0.089,0.736s0.131,0.495,0.216,0.724
	c0.084,0.229,0.169,0.436,0.254,0.622c0.084,0.187,0.152,0.33,0.203,0.432s0.076,0.22,0.076,0.355c0,0.271-0.119,0.474-0.355,0.609
	c-0.068,0.034-0.127,0.06-0.178,0.076s-0.11,0.025-0.178,0.025c-0.271,0-0.475-0.127-0.609-0.381
	c-0.018-0.017-0.076-0.123-0.178-0.317s-0.207-0.444-0.317-0.749s-0.212-0.644-0.305-1.016s-0.14-0.745-0.14-1.117
	c0-0.085-0.004-0.182-0.013-0.292c-0.009-0.109-0.021-0.232-0.038-0.368c-0.018-0.237-0.034-0.495-0.051-0.774
	c-0.018-0.279-0.025-0.613-0.025-1.003c0-0.254-0.018-0.521-0.051-0.8c-0.034-0.279-0.068-0.588-0.102-0.927
	c-0.051-0.423-0.098-0.876-0.14-1.358s-0.063-0.994-0.063-1.536c0-0.339-0.072-0.706-0.216-1.104
	c-0.144-0.397-0.352-0.766-0.622-1.104c-0.271-0.339-0.605-0.618-1.003-0.838s-0.859-0.33-1.384-0.33
	c-0.66,0-1.248,0.123-1.765,0.368c-0.517,0.246-0.961,0.555-1.333,0.927c-0.373,0.372-0.689,0.774-0.952,1.206
	s-0.47,0.838-0.622,1.219s-0.267,0.707-0.343,0.978s-0.114,0.423-0.114,0.457c-0.051,0.152-0.119,0.271-0.203,0.355v0.457
	c0,0.406,0.059,0.872,0.178,1.396c0.118,0.524,0.254,1.083,0.406,1.676c0.186,0.762,0.368,1.558,0.546,2.387
	s0.267,1.676,0.267,2.539c0,0.203-0.068,0.372-0.203,0.508c-0.136,0.136-0.305,0.203-0.508,0.203c-0.187,0-0.352-0.067-0.495-0.203
	s-0.216-0.305-0.216-0.508c0-0.778-0.08-1.558-0.241-2.336s-0.335-1.523-0.521-2.234c-0.17-0.626-0.317-1.231-0.444-1.815
	s-0.19-1.121-0.19-1.612s-0.034-1.108-0.102-1.854c-0.068-0.745-0.148-1.468-0.241-2.171c-0.093-0.702-0.178-1.312-0.254-1.828
	c-0.076-0.516-0.114-0.791-0.114-0.825c0-0.169,0.059-0.321,0.178-0.457c0.118-0.136,0.296-0.22,0.533-0.254
	c0.186,0,0.343,0.056,0.47,0.165c0.127,0.11,0.207,0.258,0.241,0.444c0,0.034,0.017,0.14,0.051,0.317
	c0.033,0.178,0.067,0.415,0.102,0.711c0.033,0.297,0.076,0.631,0.127,1.003s0.102,0.762,0.152,1.168
	c0.254-0.474,0.555-0.939,0.901-1.396s0.753-0.863,1.219-1.219s0.985-0.644,1.562-0.863c0.575-0.22,1.219-0.33,1.93-0.33
	c0.693,0,1.324,0.14,1.892,0.419s1.054,0.647,1.46,1.104s0.724,0.974,0.952,1.549s0.343,1.151,0.343,1.727
	c0,0.508,0.021,0.99,0.063,1.447s0.089,0.88,0.14,1.27c0.033,0.339,0.067,0.669,0.102,0.99c0.033,0.321,0.051,0.626,0.051,0.914
	c0,0.677,0.025,1.219,0.076,1.625c0.017,0.152,0.029,0.292,0.038,0.419S249.227,98.273,249.227,98.409z"/>
<path fill="#FFFFFF" d="M262.684,91.63c0,0.39,0.017,0.876,0.051,1.46c0.033,0.584,0.08,1.219,0.14,1.904s0.122,1.414,0.19,2.184
	c0.067,0.771,0.144,1.545,0.229,2.323c0.067,0.762,0.14,1.503,0.216,2.222s0.14,1.396,0.19,2.031s0.093,1.215,0.127,1.739
	c0.033,0.524,0.051,0.965,0.051,1.32c0,0.609-0.119,1.214-0.355,1.815c-0.237,0.601-0.584,1.139-1.041,1.612
	s-1.02,0.858-1.688,1.155c-0.669,0.296-1.443,0.444-2.323,0.444c-2.506,0-4.3-1.371-5.383-4.113
	c-0.034-0.067-0.051-0.161-0.051-0.279c0-0.305,0.144-0.524,0.432-0.66c0.051-0.017,0.098-0.03,0.14-0.038
	c0.042-0.009,0.089-0.013,0.14-0.013c0.305,0,0.524,0.161,0.66,0.482c0.084,0.22,0.216,0.512,0.394,0.876
	c0.178,0.363,0.419,0.715,0.724,1.054s0.698,0.635,1.181,0.889s1.07,0.381,1.765,0.381c0.728,0,1.346-0.118,1.854-0.355
	s0.918-0.538,1.231-0.901c0.313-0.364,0.542-0.758,0.686-1.181s0.216-0.812,0.216-1.168c0-0.339-0.018-0.767-0.051-1.282
	c-0.034-0.517-0.076-1.088-0.127-1.714s-0.11-1.291-0.178-1.993c-0.068-0.702-0.136-1.409-0.203-2.12
	c-0.322,0.508-0.673,0.956-1.054,1.346s-0.771,0.724-1.168,1.003s-0.787,0.49-1.168,0.635c-0.381,0.144-0.732,0.216-1.054,0.216
	c-0.66,0-1.316-0.123-1.968-0.368c-0.651-0.246-1.231-0.609-1.739-1.092s-0.923-1.083-1.244-1.803
	c-0.322-0.719-0.482-1.545-0.482-2.476c0-0.593,0.076-1.244,0.229-1.955s0.359-1.422,0.622-2.133s0.575-1.405,0.939-2.082
	s0.757-1.273,1.181-1.79c0.423-0.516,0.871-0.931,1.346-1.244c0.474-0.312,0.956-0.47,1.447-0.47c0.355,0,0.651,0.076,0.889,0.229
	c0.084-0.017,0.169-0.025,0.254-0.025c0.084,0,0.178,0,0.279,0c0.305,0,0.643,0.118,1.016,0.355c0.372,0.237,0.728,0.567,1.066,0.99
	c0.033-0.203,0.089-0.39,0.165-0.559s0.249-0.263,0.521-0.279l0.66-0.051l0.102,0.66c0,0.034,0,0.063,0,0.089
	s-0.009,0.098-0.025,0.216c0,0.102-0.004,0.33-0.013,0.686S262.684,90.767,262.684,91.63z M261.338,97.673
	c0.051-0.152,0.16-0.271,0.33-0.355c-0.119-1.168-0.216-2.251-0.292-3.25s-0.114-1.812-0.114-2.438v-0.305
	c-0.17-0.085-0.288-0.194-0.355-0.33c-0.355-0.66-0.707-1.134-1.054-1.422s-0.571-0.44-0.673-0.457
	c-0.288,0-0.546,0.017-0.774,0.051s-0.386,0.06-0.47,0.076c-0.221,0-0.398-0.085-0.533-0.254c-0.424,0.169-0.867,0.55-1.333,1.143
	s-0.894,1.282-1.282,2.069c-0.39,0.787-0.711,1.625-0.965,2.514s-0.381,1.705-0.381,2.45c0,0.796,0.135,1.464,0.406,2.006
	c0.271,0.542,0.609,0.986,1.016,1.333c0.406,0.348,0.842,0.597,1.308,0.749s0.893,0.229,1.282,0.229
	c0.254,0,0.555-0.089,0.901-0.267s0.702-0.432,1.066-0.762s0.715-0.728,1.054-1.193C260.812,98.795,261.101,98.266,261.338,97.673z"
	/>
</svg>
