<?xml version="1.0" encoding="utf-8"?>
<!-- Generator: Adobe Illustrator 16.0.0, SVG Export Plug-In . SVG Version: 6.00 Build 0)  -->
<!DOCTYPE svg PUBLIC "-//W3C//DTD SVG 1.1//EN" "http://www.w3.org/Graphics/SVG/1.1/DTD/svg11.dtd">
<svg version="1.1" id="Layer_1" xmlns="http://www.w3.org/2000/svg" xmlns:xlink="http://www.w3.org/1999/xlink" x="0px" y="0px"
	 width="300px" height="250px" viewBox="0 0 300 250" enable-background="new 0 0 300 250" xml:space="preserve">
<g>
	<path fill="#E3A600" stroke="#925F36" stroke-width="0.1" stroke-miterlimit="10" d="M97.691,171.65c0,0.399-0.16,0.8-0.46,1.18
		c-2.22,2.79-12.21,4.91-24.21,4.91c-11.061,0-20.41-1.801-23.54-4.271c-0.48-0.38-0.811-0.77-0.98-1.18l-0.14-0.64
		c0-3.36,11.04-6.08,24.66-6.08C86.651,165.57,97.691,168.29,97.691,171.65z"/>
	<path fill="#AF8019" stroke="#925F36" stroke-width="0.1" stroke-miterlimit="10" d="M98.361,174.65c0,3.359-11.05,6.09-24.67,6.09
		s-24.67-2.73-24.67-6.09l-0.521-2.36c0.17,0.41,0.5,0.8,0.98,1.18c3.13,2.47,12.479,4.271,23.54,4.271c12,0,21.99-2.12,24.21-4.91
		c0.3-0.38,0.46-0.78,0.46-1.18l0.52,2.35L98.361,174.65z"/>
</g>
</svg>
