<?xml version="1.0" encoding="utf-8"?>
<!-- Generator: Adobe Illustrator 16.0.0, SVG Export Plug-In . SVG Version: 6.00 Build 0)  -->
<!DOCTYPE svg PUBLIC "-//W3C//DTD SVG 1.1//EN" "http://www.w3.org/Graphics/SVG/1.1/DTD/svg11.dtd">
<svg version="1.1" id="Layer_1" xmlns="http://www.w3.org/2000/svg" xmlns:xlink="http://www.w3.org/1999/xlink" x="0px" y="0px"
	 width="792px" height="612px" viewBox="0 0 792 612" enable-background="new 0 0 792 612" xml:space="preserve">
<g>
	<path fill="#936037" d="M408.394,378.883c0,0,0.35-1.92,0.758-5.311c0.39-3.387,0.912-8.247,0.917-14.062
		c0.002-2.904-0.154-6.048-0.625-9.293c-0.524-3.205-1.277-6.648-3.067-9.45c-0.441-0.694-0.951-1.329-1.52-1.886
		c-0.587-0.558-1.155-0.961-2.013-1.502c-1.455-0.898-3.139-1.721-4.842-2.419c-3.431-1.405-7.108-2.445-10.836-3.159
		c-3.729-0.702-7.52-1.105-11.215-1.088c-3.694,0.007-7.288,0.377-10.572,1.137c-3.273,0.765-6.211,2.012-8.379,3.793
		c-0.255,0.236-0.509,0.471-0.761,0.704c-0.312,0.302-0.621,0.603-0.928,0.9c-0.254,0.267-0.705,0.624-1.052,0.923
		c-0.37,0.328-0.742,0.574-1.11,0.839c-1.497,1.015-3.105,1.761-4.698,2.233c-3.208,0.957-6.25,0.787-8.733,0.318
		c-2.5-0.508-4.528-1.311-6.117-2.09c-1.591-0.776-2.756-1.521-3.524-2.061c-0.768-0.541-1.155-0.866-1.155-0.866l0.268-0.423
		c0,0,0.438,0.203,1.294,0.514c0.855,0.309,2.116,0.746,3.736,1.154c1.618,0.402,3.605,0.786,5.842,0.868
		c2.229,0.079,4.715-0.201,7.067-1.19c1.175-0.492,2.306-1.176,3.343-2.053c0.259-0.218,0.541-0.432,0.753-0.66
		c0.24-0.249,0.437-0.387,0.727-0.731c0.26-0.29,0.521-0.583,0.784-0.877c0.331-0.355,0.665-0.714,1.002-1.074
		c2.843-2.759,6.626-4.388,10.467-5.296c3.877-0.85,7.903-1.023,11.901-0.744c4.002,0.273,8.003,0.888,11.914,1.861
		c3.915,0.949,7.749,2.23,11.372,3.92c1.818,0.855,3.544,1.787,5.247,2.959c0.718,0.496,1.664,1.215,2.381,1.987
		c0.728,0.782,1.335,1.632,1.837,2.509c1.984,3.543,2.584,7.252,2.931,10.669c0.285,3.437,0.243,6.667,0.06,9.626
		c-0.381,5.918-1.169,10.773-1.822,14.146c-0.653,3.374-1.144,5.277-1.144,5.277L408.394,378.883z"/>
</g>
<g>
	<path fill="#936037" d="M410.755,378.882c0,0,0.377-2.034,0.869-5.621c0.472-3.586,1.147-8.721,1.407-14.891
		c0.121-3.079,0.153-6.425-0.156-9.896c-0.162-1.732-0.388-3.5-0.791-5.232c-0.405-1.719-1.01-3.436-1.961-4.758
		c-0.112-0.143-0.25-0.375-0.337-0.448l-0.494-0.542c-0.332-0.356-0.622-0.573-0.938-0.873c-0.705-0.578-1.452-1.136-2.251-1.661
		c-1.594-1.054-3.322-2.017-5.099-2.949c-3.565-1.854-7.321-3.589-11.067-5.434c-3.755-1.829-7.506-3.761-11.094-6.067
		c-1.786-1.164-3.54-2.422-5.142-3.935c-1.601-1.503-3.073-3.275-4.096-5.431c-0.481-1.088-0.874-2.242-1.043-3.448l-0.114-0.903
		l-0.013-0.113l-0.007-0.056c0.002,0.033-0.014-0.152,0.003,0.059l-0.018-0.177l-0.034-0.354c-0.041-0.471-0.082-0.939-0.123-1.405
		c-0.218-1.831-0.482-3.139-0.928-5.001c-0.229-0.782-0.454-1.554-0.677-2.313c-0.281-0.769-0.559-1.526-0.831-2.271
		c-0.306-0.733-0.585-1.467-0.897-2.171c-0.334-0.692-0.644-1.385-0.98-2.046c-1.356-2.641-2.829-4.961-4.345-6.839
		c-1.5-1.892-3.022-3.351-4.398-4.378c-1.37-1.077-2.644-1.498-3.523-1.806c-0.892-0.174-1.407-0.235-1.407-0.235l-0.043-0.498
		c0,0,0.134-0.014,0.393-0.042c0.26-0.018,0.656-0.087,1.174-0.095c0.257,0.024,0.543,0.051,0.859,0.081
		c0.32,0.029,0.671,0.068,1.023,0.185c0.364,0.1,0.755,0.208,1.173,0.323c0.394,0.168,0.812,0.348,1.254,0.537
		c1.743,0.817,3.69,2.133,5.637,3.936c1.94,1.806,3.897,4.083,5.662,6.82c0.439,0.685,0.854,1.404,1.296,2.13
		c0.419,0.737,0.81,1.51,1.226,2.289c0.374,0.798,0.725,1.626,1.096,2.461c0.327,0.873,0.678,1.794,0.983,2.686
		c0.13,0.426,0.261,0.855,0.392,1.287l0.197,0.65l0.05,0.163l0.063,0.261l0.08,0.374c0.104,0.5,0.208,1.003,0.312,1.509l0.154,0.763
		c0.043,0.246,0.062,0.466,0.095,0.702c0.059,0.464,0.117,0.93,0.177,1.399l0.092,0.772l0.072,0.513
		c0.096,0.686,0.34,1.368,0.642,2.055c1.253,2.78,4.085,5.404,7.183,7.713c3.13,2.333,6.68,4.37,10.271,6.368
		c3.606,1.983,7.299,3.896,10.886,5.971c1.791,1.046,3.558,2.135,5.247,3.365c0.846,0.612,1.665,1.28,2.455,1.993
		c0.389,0.389,0.844,0.818,1.161,1.195l0.469,0.563c0.247,0.282,0.341,0.486,0.516,0.733c1.227,1.912,1.775,3.924,2.149,5.848
		c0.363,1.932,0.51,3.812,0.566,5.635c0.112,3.643-0.121,7.044-0.425,10.163c-0.638,6.235-1.577,11.353-2.312,14.915
		c-0.736,3.562-1.253,5.577-1.253,5.577L410.755,378.882z"/>
</g>
<g>
	<path fill="#936037" d="M375.893,314.365c-0.088-0.024,0.001-0.01-0.465,0.188c-0.398,0.193-0.993,0.518-1.778,0.881
		c-1.56,0.738-3.964,1.607-7.026,1.803c-1.524,0.1-3.202,0.026-4.939-0.296c-1.739-0.312-3.524-0.887-5.287-1.653
		c-1.76-0.771-3.507-1.73-5.153-2.873c-0.814-0.578-1.642-1.162-2.421-1.802l-0.594-0.472l-0.514-0.383l-1.166-0.874l-1.172-0.866
		c-0.388-0.275-0.77-0.458-1.155-0.684c-0.788-0.412-1.472-0.909-2.322-1.229c-0.82-0.339-1.602-0.74-2.411-1.029
		c-0.822-0.257-1.595-0.604-2.386-0.85s-1.57-0.486-2.332-0.722c-0.777-0.176-1.533-0.387-2.277-0.569
		c-0.753-0.119-1.484-0.299-2.202-0.41c-0.726-0.095-1.427-0.186-2.1-0.274c-0.685-0.056-1.342-0.109-1.966-0.16
		c-0.634-0.019-1.236-0.037-1.801-0.054c-1.139-0.009-2.146,0.024-2.986,0.062c-0.836,0.051-1.503,0.105-1.962,0.147
		c-0.455,0.049-0.698,0.075-0.698,0.075l-0.208-0.454c0,0,0.789-0.685,2.392-1.497c0.401-0.199,0.854-0.399,1.352-0.622
		c0.502-0.202,1.057-0.383,1.652-0.598c1.2-0.372,2.59-0.702,4.144-0.914c0.776-0.102,1.593-0.125,2.442-0.187
		c0.847-0.003,1.727,0.034,2.634,0.08c0.902,0.081,1.821,0.245,2.766,0.396c0.937,0.184,1.862,0.503,2.818,0.767
		c0.93,0.339,1.847,0.761,2.769,1.186c0.923,0.424,1.765,1.025,2.65,1.542l0.657,0.404l0.638,0.474l1.27,0.956
		c0.409,0.323,0.866,0.634,1.242,0.956l1.082,0.978l1.086,0.971l0.605,0.545l0.505,0.478c0.663,0.649,1.365,1.241,2.061,1.833
		c1.41,1.154,2.871,2.189,4.368,3.044c2.991,1.708,6.13,2.659,8.91,2.798c2.785,0.181,5.123-0.375,6.719-0.848
		c0.804-0.239,1.424-0.47,1.872-0.613c0.249-0.07,0.355-0.121,0.612-0.141c0.136-0.002,0.2,0.02,0.215,0.029
		c0.027,0.011,0.041,0.016,0.041,0.016L375.893,314.365z"/>
</g>
<g>
	<path fill="#936037" d="M392.802,286.056c-0.007,0.091,0.006-0.099,0.144,0.193c0.139,0.223,0.373,0.565,0.644,1.021
		c0.549,0.905,1.218,2.335,1.517,4.226c0.317,1.881,0.146,4.209-0.648,6.484c-0.387,1.138-0.888,2.28-1.517,3.358
		c-0.316,0.535-0.639,1.077-0.994,1.591l-0.263,0.392l-0.033,0.049l-0.017,0.024c0.022-0.029-0.062,0.083,0.049-0.062l-0.007,0.012
		l-0.059,0.093l-0.116,0.187l-0.468,0.748l-0.46,0.752c-0.144,0.245-0.216,0.465-0.32,0.7c-0.184,0.474-0.414,0.874-0.546,1.387
		c-0.143,0.491-0.318,0.962-0.44,1.436c-0.095,0.483-0.266,0.931-0.369,1.389c-0.097,0.458-0.228,0.899-0.348,1.335
		c-0.085,0.441-0.21,0.871-0.312,1.297c-0.062,0.428-0.176,0.848-0.243,1.26c-0.065,0.419-0.129,0.824-0.189,1.213
		c-0.095,0.788-0.172,1.534-0.229,2.217c-0.047,0.68-0.069,1.291-0.091,1.809c-0.016,1.058-0.025,1.662-0.025,1.662l-0.441,0.234
		c0,0-0.547-0.409-1.232-1.326c-0.167-0.23-0.343-0.49-0.534-0.781c-0.174-0.295-0.341-0.624-0.532-0.979
		c-0.354-0.716-0.673-1.565-0.918-2.53c-0.124-0.482-0.192-0.995-0.29-1.529c-0.054-0.535-0.091-1.096-0.11-1.674
		c0.001-0.576,0.045-1.17,0.1-1.776c0.08-0.603,0.229-1.207,0.376-1.821c0.19-0.601,0.427-1.197,0.684-1.789
		c0.25-0.595,0.624-1.137,0.939-1.704c0.299-0.562,0.76-1.113,1.137-1.663c0.2-0.264,0.396-0.566,0.587-0.802l0.576-0.668
		l0.569-0.673l0.339-0.404l0.273-0.303c0.372-0.399,0.708-0.818,1.046-1.233c0.653-0.843,1.246-1.704,1.73-2.584
		c0.963-1.759,1.504-3.585,1.57-5.217c0.092-1.636-0.26-3.017-0.547-3.974c-0.147-0.481-0.289-0.854-0.381-1.129
		c-0.048-0.163-0.077-0.202-0.103-0.412c-0.003-0.112,0.016-0.161,0.02-0.164c0.006-0.017,0.01-0.025,0.01-0.025L392.802,286.056z"
		/>
</g>
<g>
	<path fill="#936037" d="M373.314,245.15c-0.088-0.024,0.001-0.009-0.465,0.188c-0.398,0.193-0.993,0.517-1.778,0.881
		c-1.56,0.737-3.964,1.606-7.026,1.802c-1.524,0.099-3.202,0.026-4.939-0.296c-1.739-0.311-3.524-0.887-5.287-1.653
		c-1.76-0.771-3.507-1.731-5.153-2.874c-0.814-0.578-1.641-1.163-2.42-1.802l-0.594-0.472l-0.515-0.383l-1.166-0.874l-1.172-0.867
		c-0.388-0.274-0.77-0.457-1.155-0.682c-0.788-0.413-1.472-0.909-2.322-1.229c-0.821-0.339-1.602-0.74-2.411-1.029
		c-0.822-0.257-1.594-0.604-2.386-0.85c-0.792-0.245-1.57-0.486-2.332-0.722c-0.777-0.176-1.532-0.387-2.276-0.569
		c-0.753-0.12-1.484-0.299-2.202-0.411c-0.726-0.094-1.426-0.186-2.099-0.274c-0.686-0.056-1.342-0.109-1.967-0.16
		c-0.634-0.019-1.236-0.037-1.801-0.054c-1.139-0.008-2.146,0.024-2.986,0.062c-0.836,0.051-1.503,0.105-1.962,0.147
		c-0.455,0.049-0.698,0.075-0.698,0.075l-0.208-0.454c0,0,0.789-0.685,2.392-1.497c0.401-0.199,0.854-0.399,1.352-0.622
		c0.502-0.202,1.057-0.384,1.652-0.599c1.2-0.371,2.59-0.701,4.145-0.913c0.776-0.102,1.593-0.125,2.442-0.187
		c0.847-0.003,1.727,0.034,2.634,0.08c0.902,0.08,1.821,0.245,2.766,0.395c0.937,0.184,1.862,0.503,2.818,0.767
		c0.93,0.339,1.847,0.761,2.769,1.186c0.923,0.423,1.765,1.025,2.651,1.542l0.657,0.404l0.638,0.473l1.27,0.957
		c0.409,0.323,0.866,0.634,1.243,0.956l1.081,0.978l1.086,0.971l0.606,0.544l0.504,0.478c0.663,0.65,1.365,1.242,2.061,1.834
		c1.41,1.154,2.871,2.189,4.368,3.043c2.991,1.708,6.13,2.66,8.91,2.799c2.785,0.18,5.123-0.375,6.719-0.848
		c0.804-0.239,1.424-0.47,1.872-0.613c0.249-0.071,0.355-0.122,0.612-0.142c0.136-0.002,0.2,0.02,0.215,0.03
		c0.027,0.011,0.041,0.016,0.041,0.016L373.314,245.15z"/>
</g>
<g>
	<path fill="#936037" d="M405.465,253.137c0.006,0.013,0.051,0.002,0.193,0.116c0.186,0.179,0.293,0.375,0.414,0.629
		c0.237,0.506,0.418,1.202,0.646,2.004c0.215,0.8,0.473,1.708,0.789,2.612c0.333,0.903,0.7,1.805,1.175,2.586
		c0.246,0.384,0.532,0.733,0.854,1.015c0.312,0.293,0.63,0.528,0.863,0.804c0.238,0.274,0.433,0.565,0.605,0.888
		c0.193,0.302,0.367,0.625,0.549,0.942c0.179,0.317,0.359,0.63,0.52,0.941c0.172,0.293,0.318,0.592,0.452,0.839
		c0.27,0.489,0.423,0.867,0.423,0.867l-0.17,0.47c0,0-0.351,0.175-0.962,0.31c-0.31,0.075-0.669,0.095-1.096,0.106
		c-0.42-0.003-0.895-0.052-1.391-0.189c-0.502-0.127-1.022-0.347-1.542-0.649c-0.516-0.306-1.017-0.712-1.423-1.228
		c-0.397-0.521-0.699-1.14-0.901-1.785c-0.22-0.64-0.369-1.288-0.522-1.913c-0.283-1.254-0.404-2.481-0.344-3.594
		c0.028-1.111,0.184-2.103,0.312-2.928c0.141-0.822,0.261-1.487,0.298-1.911c0.024-0.211-0.01-0.367,0.023-0.393
		c-0.013-0.084-0.099-0.158-0.085-0.153L405.465,253.137z"/>
</g>
<g>
	<path fill="#936037" d="M374.442,230.04c0.005-0.013-0.034-0.037-0.055-0.218c-0.004-0.257,0.058-0.473,0.152-0.738
		c0.19-0.525,0.555-1.145,0.961-1.873c0.414-0.718,0.873-1.542,1.289-2.405c0.404-0.875,0.782-1.771,0.998-2.66
		c0.099-0.445,0.143-0.895,0.113-1.322c-0.013-0.427-0.072-0.819-0.042-1.18c0.026-0.361,0.094-0.705,0.2-1.056
		c0.077-0.35,0.183-0.702,0.278-1.054c0.098-0.351,0.191-0.7,0.298-1.033c0.086-0.329,0.192-0.644,0.273-0.914
		c0.155-0.537,0.313-0.912,0.313-0.912l0.453-0.212c0,0,0.371,0.124,0.899,0.461c0.271,0.165,0.54,0.406,0.849,0.699
		c0.296,0.299,0.597,0.67,0.85,1.117c0.266,0.446,0.479,0.969,0.632,1.549c0.148,0.582,0.215,1.223,0.138,1.875
		c-0.087,0.649-0.312,1.3-0.625,1.899c-0.297,0.607-0.649,1.172-0.982,1.722c-0.687,1.087-1.469,2.041-2.298,2.784
		c-0.807,0.766-1.617,1.357-2.292,1.849c-0.682,0.482-1.236,0.867-1.562,1.141c-0.167,0.132-0.253,0.266-0.295,0.261
		c-0.05,0.068-0.042,0.182-0.048,0.168L374.442,230.04z"/>
</g>
<g>
	<path fill="#936037" d="M413.927,377.771c0,0,0.956-2.872,2.22-8.01c0.624-2.568,1.326-5.703,1.945-9.322
		c0.602-3.619,1.143-7.738,1.179-12.211c0.008-2.232-0.121-4.557-0.566-6.871c-0.21-1.159-0.531-2.304-0.948-3.41
		c-0.218-0.547-0.459-1.088-0.739-1.602l-0.444-0.758c-0.156-0.258-0.352-0.537-0.526-0.807c-2.881-4.342-5.893-9.006-8.502-14.176
		c-2.573-5.154-4.863-10.905-5.229-17.285c-0.177-3.167,0.236-6.486,1.426-9.574c0.596-1.537,1.341-3.034,2.277-4.393l1.261-1.896
		c0.344-0.61,0.702-1.144,1.02-1.798c2.631-5.033,3.804-10.837,3.975-16.513c0.093-2.845-0.089-5.675-0.456-8.42
		c-0.404-2.73-0.97-5.423-1.891-7.797c-0.441-1.176-0.978-2.307-1.573-3.109c-0.148-0.178-0.293-0.387-0.429-0.5l-0.1-0.105
		l-0.024-0.027c0.048,0.048-0.488-0.495-0.282-0.289l-0.085-0.099l-0.344-0.411c-0.428-0.617-0.843-1.493-0.904-1.917
		c-0.065-0.257-0.142-0.529-0.183-0.777l-0.074-0.706c-0.129-1.849,0.161-3.338,0.465-4.78c0.317-1.436,0.759-2.751,1.195-4.043
		c1.807-5.115,4.002-9.575,6.076-13.664c2.071-4.083,4.103-7.734,5.854-10.976c0.884-1.616,1.7-3.13,2.412-4.536
		c0.36-0.702,0.699-1.374,0.991-2.016c0.273-0.589,0.539-1.303,0.789-1.898c0.538-1.241,0.854-2.303,1.185-3.258
		c0.239-0.956,0.475-1.793,0.514-2.456c0.019-0.168,0.037-0.327,0.054-0.476c-0.009-0.142-0.017-0.273-0.024-0.396
		c-0.008-0.124-0.015-0.238-0.021-0.342c-0.026-0.091-0.052-0.173-0.073-0.247c-0.032-0.168-0.099-0.227-0.129-0.29
		c-0.035-0.057-0.021-0.04-0.025-0.05l0.203-0.457c-0.013-0.002,0.104,0.042,0.187,0.13c0.081,0.085,0.229,0.221,0.303,0.411
		c0.048,0.096,0.102,0.205,0.16,0.324c0.037,0.12,0.063,0.25,0.1,0.395c0.033,0.146,0.07,0.302,0.109,0.471
		c0.011,0.165,0.021,0.34,0.034,0.527c0.09,0.764-0.021,1.655-0.128,2.726c-0.192,1.037-0.371,2.296-0.744,3.549
		c-0.181,0.659-0.319,1.283-0.56,2.065c-0.227,0.728-0.479,1.472-0.764,2.232c-0.571,1.521-1.227,3.136-1.935,4.853
		c-1.448,3.395-3.081,7.225-4.863,11.403c-0.883,2.079-1.777,4.249-2.641,6.502c-0.885,2.243-1.743,4.574-2.462,6.963
		c-0.345,1.19-0.675,2.405-0.893,3.589c-0.229,1.168-0.374,2.383-0.272,3.265c-0.022,0.462,0.305,0.794-0.006,0.517l0.328,0.379
		l0.085,0.098c0.235,0.238-0.274-0.271-0.194-0.193l0.067,0.065l0.269,0.263c0.379,0.356,0.645,0.712,0.937,1.076
		c1.066,1.446,1.718,2.903,2.29,4.374c1.084,2.95,1.677,5.96,2.016,9.023c0.328,3.061,0.365,6.167,0.136,9.28
		c-0.483,6.201-1.935,12.552-5.144,18.187c-0.367,0.7-0.865,1.422-1.296,2.112l-1.313,1.848c-0.82,1.109-1.467,2.323-2.001,3.58
		c-1.062,2.521-1.512,5.291-1.443,8.075c0.133,5.602,2.064,11.115,4.399,16.147c2.348,5.065,5.198,9.722,7.889,14.176
		c0.169,0.284,0.337,0.544,0.505,0.845l0.499,0.93c0.309,0.624,0.563,1.264,0.787,1.899c0.426,1.278,0.725,2.558,0.904,3.817
		c0.38,2.521,0.413,4.952,0.314,7.262c-0.222,4.621-0.938,8.771-1.691,12.408c-0.766,3.637-1.605,6.761-2.358,9.312
		c-1.508,5.104-2.602,7.943-2.602,7.943L413.927,377.771z"/>
</g>
<g>
	<path fill="#936037" d="M417.071,378.811c0,0,1.032-1.903,2.571-5.361c1.507-3.463,3.64-8.459,5.265-14.689
		c0.802-3.107,1.468-6.535,1.616-10.139c0.069-1.799-0.009-3.639-0.324-5.446c-0.077-0.452-0.196-0.894-0.291-1.343
		c-0.114-0.443-0.268-0.873-0.396-1.312c-0.287-0.982-0.577-1.975-0.869-2.974c-0.197-1.069-0.396-2.146-0.597-3.231
		c-0.109-1.064-0.219-2.136-0.329-3.215c-0.119-2.152-0.185-4.337-0.076-6.524c0.176-4.378,0.737-8.795,1.635-13.153
		c0.922-4.354,2.188-8.645,3.84-12.776c1.677-4.113,3.759-8.114,6.948-11.431c0.42-0.399,0.838-0.796,1.255-1.191l0.313-0.294
		l0.039-0.037c-0.077,0.059,0.15-0.123,0.141-0.114l0.075-0.056l0.152-0.111l0.605-0.445c0.17-0.138,0.479-0.32,0.744-0.484
		l0.822-0.488c0.529-0.256,1.043-0.507,1.567-0.724c2.099-0.852,4.187-1.281,6.159-1.519c3.946-0.491,7.488-0.383,10.615-0.568
		c3.113-0.185,5.838-0.611,7.758-1.804c1.942-1.144,3.069-2.979,3.707-4.644c0.172-0.413,0.312-0.816,0.416-1.209
		c0.106-0.392,0.241-0.754,0.308-1.106c0.132-0.705,0.293-1.306,0.354-1.805c0.146-1.002,0.223-1.537,0.223-1.537l0.5-0.005
		c0,0,0.053,0.55,0.152,1.582c0.066,1.036,0.142,2.581-0.229,4.572c-0.049,0.25-0.1,0.506-0.151,0.769
		c-0.079,0.26-0.161,0.526-0.244,0.798c-0.143,0.555-0.414,1.104-0.677,1.689c-0.605,1.128-1.47,2.296-2.653,3.271
		c-1.171,0.994-2.638,1.709-4.172,2.248c-1.541,0.541-3.176,0.903-4.851,1.157c-1.674,0.263-3.389,0.452-5.118,0.659
		c-1.73,0.183-3.48,0.384-5.191,0.711c-1.707,0.338-3.382,0.774-4.896,1.447c-0.373,0.172-0.736,0.372-1.093,0.554
		c-0.147,0.099-0.301,0.188-0.453,0.278c-0.157,0.096-0.29,0.15-0.51,0.327l-0.603,0.449l-0.151,0.112l-0.075,0.057
		c-0.036,0.026,0.171-0.131,0.07-0.051l-0.029,0.029l-0.231,0.229l-0.939,0.91c-2.504,2.525-4.603,5.988-6.369,9.661
		c-1.769,3.697-3.141,7.709-4.232,11.796c-1.031,4.105-1.749,8.301-2.096,12.448c-0.194,2.075-0.219,4.135-0.196,6.164
		c0.059,1.008,0.117,2.011,0.176,3.005c0.129,0.955,0.258,1.902,0.386,2.842c0.235,0.965,0.47,1.922,0.701,2.869
		c0.134,0.523,0.289,1.041,0.399,1.561c0.09,0.521,0.201,1.039,0.267,1.556c0.274,2.066,0.261,4.082,0.072,6.001
		c-0.373,3.844-1.266,7.339-2.262,10.48c-2.028,6.278-4.421,11.199-6.179,14.58c-1.772,3.377-2.935,5.225-2.935,5.225
		L417.071,378.811z"/>
</g>
<g>
	<path fill="#936037" d="M429.363,300.781c0,0,0.816-0.596,2.342-1.465c1.524-0.875,3.79-1.997,6.721-2.907
		c1.466-0.447,3.104-0.829,4.899-1.007c1.791-0.182,3.747-0.12,5.744,0.332c1.991,0.449,4.02,1.334,5.762,2.675
		c1.754,1.326,3.213,3.039,4.364,4.876c0.317,0.449,0.566,0.925,0.825,1.398c0.255,0.475,0.532,0.944,0.744,1.429l0.676,1.449
		l0.011,0.022c0.011,0.026-0.055-0.147-0.022-0.063l0.02,0.041l0.04,0.083l0.08,0.167l0.159,0.331l0.317,0.661
		c0.428,0.859,0.834,1.804,1.259,2.572c0.446,0.742,0.837,1.491,1.229,2.225c0.415,0.726,0.897,1.396,1.283,2.109
		c0.186,0.371,0.452,0.639,0.673,0.955c0.223,0.312,0.442,0.623,0.659,0.928c0.459,0.578,0.95,1.064,1.401,1.6
		c0.51,0.402,0.973,0.901,1.481,1.232c0.999,0.721,2.035,1.209,3.041,1.488c1.003,0.271,1.965,0.377,2.772,0.361
		c0.817,0.016,1.469-0.1,1.922-0.162c0.452-0.079,0.684-0.137,0.685-0.137l0.266,0.423c0,0-0.188,0.205-0.581,0.513
		c-0.198,0.151-0.446,0.348-0.763,0.524c-0.31,0.198-0.68,0.409-1.124,0.586c-0.434,0.216-0.947,0.352-1.517,0.53
		c-0.573,0.114-1.218,0.24-1.915,0.273c-0.7,0.023-1.46,0.01-2.24-0.158c-0.81-0.093-1.593-0.375-2.421-0.691
		c-0.433-0.133-0.801-0.367-1.197-0.586c-0.395-0.228-0.797-0.459-1.206-0.695c-0.7-0.576-1.503-1.14-2.184-1.821
		c-0.638-0.698-1.354-1.412-1.931-2.208c-0.567-0.799-1.115-1.64-1.646-2.51c-0.447-0.923-0.91-1.857-1.328-2.82
		c-0.416-0.947-0.637-1.84-0.964-2.777c-0.3-0.92-0.602-1.846-0.905-2.775c-0.123-0.444-0.312-0.849-0.489-1.264
		s-0.346-0.839-0.569-1.222c-0.815-1.593-1.854-3.041-3.126-4.187c-1.27-1.143-2.748-2.009-4.334-2.547
		c-3.187-1.077-6.61-0.924-9.432-0.424c-2.848,0.505-5.161,1.354-6.757,1.974c-1.6,0.633-2.464,1.095-2.464,1.095L429.363,300.781z"
		/>
</g>
<g>
	<path fill="#936037" d="M445.151,261.668c0,0-0.966-0.165-2.684-0.262c-1.71-0.085-4.173-0.161-7.034,0.258
		c-2.835,0.416-6.133,1.35-8.817,3.377c-1.335,1.01-2.464,2.298-3.31,3.784c-0.845,1.488-1.374,3.189-1.646,4.958
		c-0.092,0.434-0.117,0.889-0.154,1.339c-0.038,0.45-0.09,0.894-0.066,1.354c0.005,0.978,0.011,1.953,0.016,2.919
		c-0.015,0.994,0.058,1.911-0.038,2.94c-0.094,1.045-0.238,2.078-0.372,3.094c-0.228,0.994-0.482,1.964-0.77,2.9
		c-0.297,0.938-0.751,1.841-1.137,2.705c-0.431,0.862-1.015,1.65-1.497,2.418c-0.314,0.352-0.623,0.699-0.926,1.039
		c-0.307,0.333-0.583,0.671-0.951,0.934c-0.686,0.562-1.341,1.077-2.08,1.419c-0.687,0.405-1.404,0.658-2.076,0.856
		c-0.672,0.189-1.323,0.273-1.903,0.345c-0.597,0.01-1.126,0.043-1.606-0.024c-0.477-0.028-0.895-0.111-1.251-0.202
		c-0.356-0.069-0.653-0.176-0.889-0.257c-0.47-0.169-0.714-0.304-0.714-0.304l0.119-0.485c0,0,0.239-0.019,0.692-0.086
		c0.45-0.083,1.104-0.18,1.875-0.452c0.771-0.241,1.651-0.644,2.517-1.218c0.867-0.582,1.696-1.371,2.418-2.37
		c0.378-0.475,0.659-1.094,1.017-1.637c0.26-0.65,0.572-1.266,0.825-1.959c0.109-0.358,0.221-0.721,0.334-1.089
		c0.109-0.37,0.277-0.708,0.337-1.119c0.142-0.798,0.388-1.586,0.553-2.405c0.141-0.82,0.275-1.655,0.465-2.5
		c0.161-0.863,0.249-1.888,0.384-2.837l0.093-0.729l0.047-0.365l0.023-0.183l0.011-0.091l0.006-0.045
		c0.005-0.089-0.002,0.096,0,0.067l0.002-0.025l0.185-1.588c0.048-0.527,0.163-1.06,0.256-1.591c0.097-0.53,0.183-1.06,0.342-1.586
		c0.514-2.107,1.357-4.193,2.604-6.004c1.23-1.822,2.876-3.301,4.624-4.355c1.753-1.059,3.59-1.734,5.347-2.126
		c1.759-0.397,3.435-0.551,4.967-0.59c3.068-0.061,5.572,0.289,7.294,0.64c1.723,0.344,2.685,0.652,2.685,0.652L445.151,261.668z"/>
</g>
<g>
	<path fill="#936037" d="M437.378,287.599c0,0,0.093-0.521,0.256-1.434c0.122-0.455,0.238-1.042,0.46-1.666
		c0.2-0.636,0.472-1.34,0.812-2.099c0.188-0.37,0.386-0.756,0.589-1.155c0.229-0.383,0.454-0.794,0.715-1.195
		c0.521-0.802,1.123-1.622,1.799-2.41c0.671-0.796,1.399-1.587,2.178-2.321c0.77-0.748,1.567-1.468,2.335-2.174
		c0.765-0.708,1.495-1.434,2.104-2.156c0.613-0.724,1.129-1.415,1.571-2.016c0.454-0.601,0.817-1.127,1.118-1.676
		c0.293-0.55,0.546-1.126,0.704-1.746c0.096-0.303,0.162-0.617,0.217-0.926c0.083-0.307,0.103-0.614,0.155-0.912
		c0.053-0.297,0.094-0.584,0.103-0.853c0.031-0.277,0.061-0.532,0.087-0.762c0.062-0.934,0.156-1.535,0.156-1.535l0.467-0.18
		c0,0,0.105,0.103,0.303,0.296c0.195,0.196,0.476,0.491,0.79,0.898c0.29,0.421,0.67,0.927,0.969,1.601
		c0.171,0.33,0.326,0.691,0.448,1.101c0.131,0.405,0.261,0.842,0.319,1.327c0.176,0.953,0.154,2.084-0.118,3.243
		c-0.251,1.169-0.821,2.333-1.575,3.283c-0.755,0.96-1.68,1.716-2.609,2.364c-0.933,0.653-1.861,1.214-2.747,1.802
		c-1.775,1.161-3.446,2.273-4.914,3.437c-0.742,0.575-1.39,1.194-2.007,1.79c-0.307,0.3-0.579,0.613-0.859,0.907
		c-0.259,0.312-0.508,0.614-0.748,0.904c-0.446,0.605-0.859,1.17-1.178,1.705c-0.341,0.524-0.565,1.004-0.801,1.395
		c-0.396,0.836-0.622,1.314-0.622,1.314L437.378,287.599z"/>
</g>
<g>
	<path fill="#936037" d="M410.761,247.061c0,0,0.093-0.521,0.256-1.434c0.122-0.455,0.238-1.042,0.46-1.666
		c0.2-0.636,0.472-1.34,0.812-2.099c0.188-0.37,0.386-0.756,0.589-1.155c0.229-0.383,0.454-0.794,0.715-1.195
		c0.521-0.802,1.123-1.622,1.799-2.41c0.671-0.796,1.399-1.587,2.178-2.321c0.77-0.748,1.567-1.468,2.335-2.174
		c0.765-0.708,1.495-1.434,2.104-2.156c0.613-0.724,1.129-1.415,1.571-2.016c0.454-0.601,0.817-1.127,1.118-1.676
		c0.293-0.55,0.546-1.126,0.704-1.746c0.096-0.303,0.162-0.617,0.217-0.926c0.083-0.307,0.103-0.614,0.155-0.912
		c0.053-0.297,0.094-0.584,0.103-0.853c0.031-0.277,0.061-0.532,0.087-0.762c0.062-0.934,0.156-1.535,0.156-1.535l0.467-0.18
		c0,0,0.105,0.103,0.303,0.296c0.195,0.196,0.476,0.491,0.79,0.898c0.29,0.421,0.67,0.927,0.969,1.601
		c0.171,0.33,0.326,0.691,0.448,1.101c0.131,0.405,0.261,0.842,0.319,1.327c0.176,0.953,0.154,2.084-0.118,3.243
		c-0.251,1.169-0.821,2.333-1.575,3.283c-0.755,0.96-1.68,1.716-2.609,2.364c-0.933,0.653-1.861,1.214-2.747,1.802
		c-1.775,1.161-3.446,2.273-4.914,3.437c-0.742,0.575-1.39,1.194-2.007,1.79c-0.307,0.3-0.579,0.613-0.859,0.907
		c-0.259,0.312-0.508,0.614-0.748,0.904c-0.446,0.605-0.859,1.17-1.178,1.705c-0.341,0.524-0.565,1.004-0.801,1.395
		c-0.396,0.836-0.622,1.314-0.622,1.314L410.761,247.061z"/>
</g>
<g>
	<path fill="#936037" d="M408.911,285.646c0,0-0.342-0.304-0.981-0.874c-0.643-0.565-1.564-1.433-2.814-2.403
		c-0.618-0.496-1.288-1.058-2.073-1.606c-0.772-0.562-1.59-1.193-2.523-1.777c-1.815-1.245-3.986-2.455-6.42-3.592
		c-2.441-1.13-5.188-2.086-8.177-2.857c-1.521-0.371-3.082-0.751-4.679-1.14c-1.622-0.417-3.341-0.858-5.077-1.752
		c-1.75-0.858-3.344-2.498-4.213-4.345c-0.884-1.842-1.323-3.782-1.537-5.664c-0.474-3.792-0.321-7.522-0.134-11.234
		c0.122-1.847,0.234-3.701,0.409-5.528c0.076-0.903,0.152-1.804,0.228-2.703c0.068-0.903,0.136-1.805,0.202-2.702
		c0.186-3.5,0.286-6.946,0.24-10.263c-0.04-3.308-0.25-6.472-0.658-9.406c-0.203-1.469-0.507-2.864-0.86-4.188
		c-0.176-0.66-0.378-1.296-0.575-1.924c-0.246-0.597-0.429-1.228-0.711-1.774c-0.497-1.148-1.107-2.151-1.726-3.089
		c-0.661-0.896-1.373-1.681-2.115-2.349c-1.499-1.318-3.134-2.118-4.565-2.571c-1.435-0.466-2.657-0.585-3.487-0.649
		c-0.838-0.055-1.279-0.003-1.279-0.003l-0.113-0.487c0,0,0.446-0.188,1.318-0.382c0.87-0.185,2.191-0.393,3.9-0.239
		c1.702,0.134,3.813,0.673,5.939,1.963c1.07,0.631,2.072,1.5,3.061,2.478c0.932,1.017,1.871,2.154,2.604,3.46
		c0.416,0.635,0.714,1.327,1.085,2.015c0.315,0.702,0.637,1.422,0.926,2.164c0.529,1.495,0.996,3.062,1.353,4.684
		c0.744,3.243,1.06,6.705,1.112,10.247c0.005,3.538-0.31,7.168-0.792,10.831c-0.262,1.785-0.525,3.584-0.791,5.391
		c-0.278,1.785-0.491,3.572-0.719,5.362c-0.368,3.566-0.683,7.171-0.43,10.547c0.098,1.696,0.413,3.302,0.981,4.671
		c0.582,1.363,1.468,2.416,2.759,3.158c1.279,0.752,2.823,1.264,4.368,1.74c1.556,0.465,3.129,0.917,4.642,1.418
		c3.037,0.998,5.853,2.191,8.306,3.529c2.45,1.346,4.599,2.739,6.372,4.134c1.798,1.361,3.273,2.652,4.438,3.775
		c1.199,1.09,2.041,2.015,2.642,2.629c0.595,0.617,0.911,0.947,0.911,0.947L408.911,285.646z"/>
</g>
<path fill="#936037" d="M398.02,426h48.407c0,0-10.757-76.043-14.649-84.91c-3.893-8.866-6.174-16.189-7.133-13.995
	c-5.445,12.458-12.599-3.048-16.032-7.609c0,0,3.886,16.177-11.174,8.689c-13.021-6.474,0.581,4.913,0.581,4.913
	S420.005,362.834,398.02,426z"/>
<path fill="#157332" d="M325.88,295.651c0,0-5.839-4.181-1.946-11.534C323.934,284.118,329.772,287.938,325.88,295.651z"/>
<path fill="#89BD24" d="M333.759,296.636c0,0-1.674-6.983,6.083-9.99C339.842,286.646,341.752,293.357,333.759,296.636z"/>
<path fill="#157332" d="M348.303,303.534c0,0-5.839-4.181-1.946-11.534C346.356,292,352.195,295.821,348.303,303.534z"/>
<path fill="#89BD24" d="M358.358,311.176c0,0-5.839-4.18-1.946-11.533C356.412,299.643,362.251,303.463,358.358,311.176z"/>
<path fill="#2E5726" d="M366.793,315.756c0,0-5.839-4.182-1.946-11.534C364.847,304.222,370.686,308.042,366.793,315.756z"/>
<path fill="#89BD24" d="M321.092,297.823c0,0-7.098,1.094-9.456-6.885C311.637,290.938,318.482,289.587,321.092,297.823z"/>
<path fill="#157332" d="M317.722,312.62c0,0-2.822-6.604,4.32-10.87C322.042,301.75,325.052,308.046,317.722,312.62z"/>
<path fill="#2E5726" d="M329.339,314.881c0,0-3.587-6.221,2.998-11.306C332.337,303.575,336.073,309.469,329.339,314.881z"/>
<path fill="#157332" d="M342.187,318.848c0,0-5.839-4.181-1.947-11.533C340.24,307.314,346.079,311.135,342.187,318.848z"/>
<path fill="#2E5726" d="M346.51,324.037c0,0-1.331-7.057,6.564-9.682C353.074,314.355,354.653,321.152,346.51,324.037z"/>
<path fill="#157332" d="M365.461,327.812c0,0-5.839-4.181-1.946-11.534C363.515,316.277,369.354,320.098,365.461,327.812z"/>
<path fill="#157332" d="M376.108,325.252c0,0-5.839-4.181-1.946-11.533C374.162,313.719,380.001,317.539,376.108,325.252z"/>
<path fill="#157332" d="M327.218,335.539c0,0-5.839-4.181-1.946-11.533C325.271,324.006,331.11,327.826,327.218,335.539z"/>
<path fill="#89BD24" d="M325.465,351.318c0,0-1.604-7,6.183-9.93C331.647,341.389,333.49,348.119,325.465,351.318z"/>
<path fill="#157332" d="M337.774,354.977c0,0-5.839-4.181-1.946-11.533C335.828,343.443,341.667,347.264,337.774,354.977z"/>
<path fill="#2E5726" d="M346.81,354.977c0,0-5.839-4.181-1.946-11.533C344.863,343.443,350.702,347.264,346.81,354.977z"/>
<path fill="#157332" d="M356.048,353.635c0,0-5.839-4.182-1.946-11.534C354.102,342.101,359.94,345.922,356.048,353.635z"/>
<path fill="#2E5726" d="M366.793,349.21c0,0-5.839-4.181-1.946-11.534C364.847,337.676,370.686,341.497,366.793,349.21z"/>
<path fill="#89BD24" d="M380.029,341.34c0,0-7.176,0.292-8.625-7.9C371.404,333.439,378.358,332.863,380.029,341.34z"/>
<path fill="#157332" d="M386.776,343.443c0,0-5.839-4.182-1.946-11.533C384.83,331.91,390.669,335.73,386.776,343.443z"/>
<path fill="#89BD24" d="M391.953,344.64c0,0-1.89-6.929,5.771-10.175C397.724,334.465,399.841,341.113,391.953,344.64z"/>
<path fill="#157332" d="M393.5,323.219c0,0-5.839-4.181-1.946-11.533C391.554,311.686,397.393,315.506,393.5,323.219z"/>
<path fill="#89BD24" d="M398.883,312.516c0,0-7.18-0.18-8.089-8.449C390.794,304.066,397.771,303.948,398.883,312.516z"/>
<path fill="#89BD24" d="M395.887,300.929c0,0-2.373-6.778,5.04-10.555C400.927,290.374,403.507,296.857,395.887,300.929z"/>
<path fill="#89BD24" d="M393.142,285.458c0,0-6.932-1.879-5.852-10.128C387.29,275.331,394.096,276.872,393.142,285.458z"/>
<path fill="#2E5726" d="M389.683,296.304c0,0-7.167-0.454-7.759-8.753C381.924,287.551,388.899,287.7,389.683,296.304z"/>
<path fill="#157332" d="M384.418,310.343c0,0-7.115-0.974-7.103-9.293C377.315,301.049,384.262,301.705,384.418,310.343z"/>
<path fill="#157332" d="M372.811,297.552c0,0-0.187-7.179,8.025-8.509C380.836,289.043,381.311,296.005,372.811,297.552z"/>
<path fill="#89BD24" d="M368.051,286.589c0,0-0.994-7.112,7.017-9.358C375.067,277.231,376.322,284.095,368.051,286.589z"/>
<path fill="#157332" d="M361.157,281.785c0,0-2.587-6.699,4.702-10.71C365.859,271.075,368.644,277.473,361.157,281.785z"/>
<path fill="#89BD24" d="M357.248,274.314c0,0-6.454-3.15-3.841-11.048C353.407,263.266,359.801,266.061,357.248,274.314z"/>
<path fill="#2E5726" d="M351.341,276.482c0,0-7.181,0.13-8.445-8.093C342.896,268.389,349.86,267.97,351.341,276.482z"/>
<path fill="#157332" d="M357.667,282.875c0,0-3.902,6.028-11.43,2.485C346.237,285.36,349.779,279.349,357.667,282.875z"/>
<path fill="#2E5726" d="M353.175,295.063c0,0,0.155-7.18,8.422-8.117C361.597,286.947,361.738,293.923,353.175,295.063z"/>
<path fill="#157332" d="M360.275,303.938c0,0-1.402-7.043,6.466-9.748C366.741,294.19,368.39,300.971,360.275,303.938z"/>
<path fill="#157332" d="M321.198,245.069c0,0-5.839-4.181-1.946-11.534C319.251,233.536,325.09,237.356,321.198,245.069z"/>
<path fill="#89BD24" d="M325.929,246.803c0,0-2.817-6.606,4.329-10.866C330.258,235.937,333.262,242.235,325.929,246.803z"/>
<path fill="#157332" d="M335.104,246.967c0,0-3.367-6.343,3.393-11.194C338.497,235.773,342.024,241.794,335.104,246.967z"/>
<path fill="#89BD24" d="M341.72,252.498c0,0-1.722-6.972,6.014-10.032C347.734,242.466,349.69,249.164,341.72,252.498z"/>
<path fill="#157332" d="M352.882,257.33c0,0-5.044-5.112,0.041-11.696C352.923,245.633,358.027,250.39,352.882,257.33z"/>
<path fill="#89BD24" d="M360.371,258.67c0,0-5.839-4.181-1.946-11.534C358.425,247.137,364.264,250.958,360.371,258.67z"/>
<path fill="#89BD24" d="M306.247,235.62c0,0,2.605-6.692,10.693-4.741C316.94,230.879,314.684,237.481,306.247,235.62z"/>
<path fill="#2E5726" d="M320.58,228.685c0,0-6.444-3.168-3.808-11.06C316.772,217.625,323.157,220.439,320.58,228.685z"/>
<path fill="#157332" d="M328.398,228.399c0,0-3.516-6.262,3.127-11.271C331.525,217.128,335.194,223.063,328.398,228.399z"/>
<path fill="#89BD24" d="M334.335,227.597c0,0-2.443-6.753,4.931-10.607C339.266,216.99,341.913,223.447,334.335,227.597z"/>
<path fill="#157332" d="M341.932,233.412c0,0-2.577-6.703,4.718-10.703C346.65,222.709,349.425,229.111,341.932,233.412z"/>
<path fill="#89BD24" d="M348.153,238.14c0,0-0.292-7.175,7.899-8.625C356.053,229.515,356.63,236.468,348.153,238.14z"/>
<path fill="#2E5726" d="M360.923,244.843c0,0-5.839-4.181-1.946-11.534C358.977,233.31,364.815,237.13,360.923,244.843z"/>
<path fill="#157332" d="M367.74,245.069c0,0-5.839-4.181-1.946-11.534C365.794,233.536,371.633,237.356,367.74,245.069z"/>
<path fill="#157332" d="M372.143,227.555c0,0-6.678,2.643-10.75-4.612C361.393,222.943,367.768,220.105,372.143,227.555z"/>
<path fill="#2E5726" d="M359.816,216.158c0,0-0.71-7.146,7.383-9.072C367.199,207.086,368.182,213.994,359.816,216.158z"/>
<path fill="#2E5726" d="M350.678,210.475c0,0-0.876-7.128,7.171-9.24C357.849,201.235,358.99,208.119,350.678,210.475z"/>
<path fill="#89BD24" d="M356.938,199.408c0,0-7.06,1.317-9.669-6.583C347.269,192.826,354.068,191.259,356.938,199.408z"/>
<path fill="#2E5726" d="M362.32,201.101c0,0-5.839-4.181-1.946-11.534C360.374,189.567,366.213,193.388,362.32,201.101z"/>
<path fill="#89BD24" d="M366.87,202.358c0,0,1.059-7.103,9.377-6.992C376.247,195.367,375.51,202.306,366.87,202.358z"/>
<path fill="#89BD24" d="M374.72,213.627c0,0-1.293-7.064,6.616-9.646C381.336,203.981,382.879,210.787,374.72,213.627z"/>
<path fill="#157332" d="M383.525,217.303c0,0-3.709-6.149,2.774-11.363C386.3,205.94,390.151,211.758,383.525,217.303z"/>
<path fill="#157332" d="M388.362,229.006c0,0-4.145,5.865-11.521,2.02C376.841,231.026,380.624,225.163,388.362,229.006z"/>
<path fill="#157332" d="M374.037,245.083c0,0,0.722-7.146,9.036-7.427C383.073,237.657,382.664,244.623,374.037,245.083z"/>
<path fill="#157332" d="M374.625,261.089c0,0-3.128-6.464,3.807-11.06C378.432,250.03,381.732,256.178,374.625,261.089z"/>
<path fill="#2E5726" d="M383.269,268.977c0,0-3.844-6.065,2.522-11.421C385.791,257.555,389.771,263.287,383.269,268.977z"/>
<path fill="#157332" d="M394.979,271.824c0,0-3.965-5.987,2.292-11.47C397.271,260.354,401.364,266.004,394.979,271.824z"/>
<path fill="#157332" d="M400.132,289.885c0,0-5.839-4.181-1.946-11.534C398.186,278.351,404.024,282.171,400.132,289.885z"/>
<path fill="#89BD24" d="M401.947,278.856c0,0-2.944-6.55,4.118-10.948C406.065,267.908,409.19,274.147,401.947,278.856z"/>
<path fill="#157332" d="M405.526,260.872c0,0-7.07,1.262-9.617-6.658C395.909,254.214,402.721,252.701,405.526,260.872z"/>
<path fill="#2E5726" d="M407.987,256.377c0,0-5.839-4.181-1.946-11.534C406.041,244.843,411.88,248.664,407.987,256.377z"/>
<path fill="#2E5726" d="M405.977,240.655c0,0-6.939-1.85-5.895-10.103C400.082,230.552,406.894,232.064,405.977,240.655z"/>
<path fill="#89BD24" d="M412.011,226.584c0,0-6.115,3.765-11.388-2.67C400.623,223.914,406.406,220.009,412.011,226.584z"/>
<path fill="#157332" d="M410.299,220.338c0,0-5.84-4.181-1.946-11.534C408.353,208.805,414.191,212.625,410.299,220.338z"/>
<path fill="#89BD24" d="M417.224,211.522c0,0-6.979-1.691-6.122-9.967C411.102,201.555,417.946,202.912,417.224,211.522z"/>
<path fill="#2E5726" d="M421.094,202.282c0,0-5.839-4.181-1.946-11.534C419.147,190.748,424.986,194.568,421.094,202.282z"/>
<path fill="#89BD24" d="M427.131,196.098c0,0-2.571-6.705,4.727-10.699C431.857,185.398,434.628,191.803,427.131,196.098z"/>
<path fill="#157332" d="M431.246,210.396c0,0-5.839-4.181-1.946-11.534C429.3,198.863,435.139,202.683,431.246,210.396z"/>
<path fill="#89BD24" d="M430.472,219.175c0,0-6.834,2.206-10.429-5.296C420.043,213.879,426.587,211.458,430.472,219.175z"/>
<path fill="#2E5726" d="M424.645,231.88c0,0-6.955,1.79-10.09-5.917C414.555,225.964,421.233,223.943,424.645,231.88z"/>
<path fill="#157332" d="M412.445,247.021c0,0-1.929-6.917,5.713-10.206C418.158,236.815,420.313,243.452,412.445,247.021z"/>
<path fill="#89BD24" d="M434.711,231.016c0,0-5.839-4.181-1.946-11.534C432.765,219.482,438.604,223.303,434.711,231.016z"/>
<path fill="#2E5726" d="M434.365,242.053c0,0-6.961,1.765-10.068-5.953C424.297,236.1,430.982,234.103,434.365,242.053z"/>
<path fill="#157332" d="M423.29,252.904c0,0-5.839-4.181-1.946-11.534C421.344,241.37,427.183,245.19,423.29,252.904z"/>
<path fill="#2E5726" d="M421.296,263.31c0,0-5.839-4.181-1.946-11.534C419.35,251.776,425.188,255.597,421.296,263.31z"/>
<path fill="#157332" d="M423.043,276.381c0,0-2.202-6.835,5.303-10.426C428.346,265.955,430.763,272.501,423.043,276.381z"/>
<path fill="#89BD24" d="M425.267,261.567c0,0-2.146-6.854,5.39-10.381C430.656,251.186,433.019,257.752,425.267,261.567z"/>
<path fill="#89BD24" d="M436.829,260.668c0,0-5.839-4.181-1.946-11.534C434.883,249.134,440.722,252.955,436.829,260.668z"/>
<path fill="#2E5726" d="M439.532,258.088c0,0-1.155-7.088,6.803-9.516C446.335,248.572,447.745,255.406,439.532,258.088z"/>
<path fill="#89BD24" d="M444.75,272.37c0,0-7.081-1.194-6.81-9.51C437.94,262.86,444.863,263.731,444.75,272.37z"/>
<path fill="#157332" d="M434.518,276.43c0,0-5.839-4.181-1.946-11.534C432.571,264.896,438.41,268.717,434.518,276.43z"/>
<path fill="#157332" d="M426.842,286.161c0,0-5.839-4.181-1.946-11.534C424.896,274.627,430.734,278.448,426.842,286.161z"/>
<path fill="#89BD24" d="M426.314,297.146c0,0-7.167,0.458-8.807-7.698C417.508,289.449,424.446,288.711,426.314,297.146z"/>
<path fill="#2E5726" d="M411.06,317.721c0,0-1.922-6.92,5.724-10.201C416.783,307.52,418.931,314.158,411.06,317.721z"/>
<path fill="#157332" d="M407.496,309.145c0,0-1.513-7.02,6.312-9.847C413.809,299.298,415.562,306.051,407.496,309.145z"/>
<g>
	<path fill="#936037" d="M412.579,293.482c-0.863-0.64-1.604-1.444-2.189-2.355c-0.292-0.457-0.536-0.943-0.752-1.445l-0.269-0.775
		c-0.073-0.263-0.122-0.534-0.184-0.801c-0.073-0.267-0.068-0.544-0.1-0.817c-0.028-0.274-0.051-0.549-0.026-0.823l0.039-0.826
		l0.139-0.813c0.065-0.551,0.29-1.057,0.43-1.59c0.083-0.262,0.21-0.505,0.313-0.759l0.329-0.755l0,0l0.15-0.399l0.422,0.252
		c0.519,0.309,0.924,0.677,1.332,1.076c0.384,0.414,0.734,0.861,1.035,1.343c0.139,0.248,0.308,0.48,0.406,0.749
		c0.105,0.265,0.242,0.517,0.318,0.792c0.079,0.273,0.174,0.543,0.238,0.819l0.149,0.839c0.03,0.282,0.021,0.566,0.031,0.848
		c0.019,0.282-0.012,0.562-0.045,0.84c-0.036,0.277-0.041,0.559-0.105,0.829c-0.061,0.271-0.13,0.541-0.203,0.807
		c-0.136,0.535-0.387,1.031-0.575,1.539c-0.261,0.48-0.527,0.954-0.81,1.41l-0.031,0.05L412.579,293.482z M412.587,293.348
		c0.14-0.495,0.313-0.97,0.449-1.453c0.103-0.517,0.273-1.014,0.322-1.531c0.027-0.258,0.057-0.514,0.097-0.767
		c0.04-0.253,0.019-0.511,0.031-0.764c0.009-0.254,0.016-0.507-0.024-0.758c-0.032-0.25-0.043-0.502-0.091-0.748l-0.148-0.735
		c-0.063-0.241-0.153-0.475-0.227-0.712c-0.07-0.239-0.199-0.457-0.295-0.686c-0.094-0.231-0.239-0.437-0.349-0.661
		c-0.246-0.435-0.544-0.841-0.866-1.226c-0.312-0.389-0.689-0.756-1.042-1.064l0.572-0.148v0l-0.342,0.696
		c-0.108,0.234-0.242,0.46-0.33,0.702c-0.15,0.49-0.391,0.961-0.472,1.47l-0.167,0.755l-0.072,0.768
		c-0.036,0.257-0.026,0.514-0.012,0.771c0.018,0.256,0,0.518,0.057,0.771c0.044,0.254,0.072,0.512,0.126,0.765l0.208,0.75
		c0.176,0.489,0.38,0.97,0.634,1.429C411.143,291.865,411.805,292.677,412.587,293.348z"/>
</g>
<path fill="#157332" d="M414.999,279.389c0,0,0.156-7.18,8.423-8.117C423.422,271.272,423.563,278.249,414.999,279.389z"/>
<path fill="#89BD24" d="M421.54,326.712c0,0-5.839-4.181-1.946-11.534C419.594,315.178,425.433,318.999,421.54,326.712z"/>
<path fill="#2E5726" d="M424.53,309.988c0,0-5.839-4.181-1.946-11.534C422.584,298.455,428.423,302.275,424.53,309.988z"/>
<path fill="#2E5726" d="M431.893,295.185c0,0-7.172-0.368-7.863-8.659C424.029,286.526,431.007,286.591,431.893,295.185z"/>
<path fill="#89BD24" d="M436.547,286.637c0,0-7.035-1.44-6.476-9.741C430.071,276.896,436.96,278.007,436.547,286.637z"/>
<path fill="#2E5726" d="M447.695,281.229c0,0-7.179,0.215-8.541-7.992C439.154,273.237,446.114,272.735,447.695,281.229z"/>
<path fill="#157332" d="M449.021,270.663c0,0-5.839-4.181-1.946-11.534C447.074,259.129,452.913,262.95,449.021,270.663z"/>
<path fill="#2E5726" d="M453.962,259.871c0,0-5.839-4.181-1.946-11.534C452.016,248.337,457.854,252.158,453.962,259.871z"/>
<path fill="#89BD24" d="M455.248,269.477c0,0,0.943-7.119,9.263-7.143C464.511,262.334,463.886,269.284,455.248,269.477z"/>
<path fill="#89BD24" d="M455.248,279.789c0,0-2.732-6.641,4.467-10.811C459.715,268.979,462.639,275.314,455.248,279.789z"/>
<path fill="#157332" d="M446.394,294.257c0,0-5.839-4.181-1.946-11.533C444.447,282.724,450.286,286.544,446.394,294.257z"/>
<path fill="#157332" d="M456.197,297.695c0,0-5.839-4.181-1.946-11.534C454.251,286.161,460.09,289.982,456.197,297.695z"/>
<path fill="#89BD24" d="M472.344,294.842c0,0-7.165,0.478-8.826-7.675C463.518,287.167,470.454,286.412,472.344,294.842z"/>
<path fill="#89BD24" d="M481.184,284.796c0,0-7.026,1.484-9.821-6.352C471.362,278.444,478.123,276.717,481.184,284.796z"/>
<path fill="#157332" d="M472.208,274.384c0,0,0.002-7.182,8.247-8.295C480.455,266.089,480.746,273.061,472.208,274.384z"/>
<path fill="#157332" d="M470.912,270.236c0,0-6.699-2.588-4.769-10.681C466.144,259.556,472.753,261.795,470.912,270.236z"/>
<path fill="#157332" d="M464.08,279.841c0,0-5.839-4.181-1.946-11.534C462.134,268.307,467.973,272.127,464.08,279.841z"/>
<path fill="#157332" d="M438.321,312.184c0,0-5.839-4.181-1.946-11.533C436.375,300.65,442.214,304.471,438.321,312.184z"/>
<path fill="#2E5726" d="M446.709,312.952c0,0-5.839-4.181-1.946-11.534C444.763,301.418,450.602,305.239,446.709,312.952z"/>
<path fill="#157332" d="M455.131,322.85c0,0-5.839-4.182-1.946-11.534C453.185,311.315,459.023,315.137,455.131,322.85z"/>
<path fill="#89BD24" d="M457.396,331.393c0,0-1.853-6.938,5.826-10.143C463.222,321.25,465.302,327.91,457.396,331.393z"/>
<path fill="#157332" d="M470.536,335.539c0,0-5.839-4.181-1.946-11.533C468.59,324.006,474.43,327.826,470.536,335.539z"/>
<path fill="#89BD24" d="M483.382,333.117c0,0-7.073,1.239-9.595-6.689C473.787,326.428,480.604,324.937,483.382,333.117z"/>
<path fill="#157332" d="M480.344,320.98c0,0-3.276-5.696,2.473-11.391C482.816,309.59,486.221,314.949,480.344,320.98z"/>
<path fill="#2E5726" d="M468.66,315.421c0,0,2.481-6.739,10.604-4.938C479.264,310.483,477.13,317.127,468.66,315.421z"/>
<path fill="#89BD24" d="M464.981,310.979c0,0-1.823-6.947,5.867-10.119C470.849,300.859,472.902,307.528,464.981,310.979z"/>
<path fill="#2E5726" d="M459.349,304.343c0,0-2.374-6.778,5.038-10.557C464.387,293.786,466.968,300.269,459.349,304.343z"/>
<path fill="#2E5726" d="M432.615,326.712c0,0-5.839-4.181-1.946-11.534C430.669,315.178,436.508,318.999,432.615,326.712z"/>
<path fill="#89BD24" d="M440.632,327.754c0,0-5.839-4.181-1.946-11.533C438.686,316.221,444.524,320.041,440.632,327.754z"/>
<path fill="#157332" d="M381.567,282.196c0,0-5.839-4.181-1.946-11.533C379.621,270.663,385.46,274.483,381.567,282.196z"/>
<path fill="#157332" d="M373.844,267.971c0,0-4.715,5.417-11.666,0.844C362.178,268.815,366.535,263.365,373.844,267.971z"/>
<path fill="#157332" d="M371.531,261.899c0,0-6.872,2.083-10.331-5.484C361.2,256.415,367.787,254.113,371.531,261.899z"/>
<path fill="#89BD24" d="M381.587,248.449c0,0,5.652-4.43,11.616,1.371C393.203,249.82,387.896,254.351,381.587,248.449z"/>
<path fill="#89BD24" d="M402.613,250.757c0,0-7.135,0.822-9.187-7.241C393.427,243.517,400.319,242.428,402.613,250.757z"/>
<path fill="#2E5726" d="M393.5,239.303c0,0-5.839-4.181-1.946-11.534C391.554,227.769,397.393,231.589,393.5,239.303z"/>
<path fill="#89BD24" d="M398.07,327.095c0,0-2.699-6.655,4.521-10.788C402.592,316.307,405.483,322.657,398.07,327.095z"/>
<path fill="#157332" d="M335.462,337.27c0,0-5.839-4.182-1.946-11.533C333.516,325.736,339.355,329.557,335.462,337.27z"/>
<path fill="#89BD24" d="M341.446,336.682c0,0-2.92-6.561,4.159-10.932C345.604,325.75,348.706,332,341.446,336.682z"/>
<path fill="#157332" d="M353.758,332.861c0,0-5.839-4.181-1.946-11.533C351.812,321.328,357.65,325.148,353.758,332.861z"/>
</svg>
