<?xml version="1.0" encoding="utf-8"?>
<!-- Generator: Adobe Illustrator 16.0.0, SVG Export Plug-In . SVG Version: 6.00 Build 0)  -->
<!DOCTYPE svg PUBLIC "-//W3C//DTD SVG 1.1//EN" "http://www.w3.org/Graphics/SVG/1.1/DTD/svg11.dtd">
<svg version="1.1" id="Layer_1" xmlns="http://www.w3.org/2000/svg" xmlns:xlink="http://www.w3.org/1999/xlink" x="0px" y="0px"
	 width="300px" height="250px" viewBox="0 0 300 250" enable-background="new 0 0 300 250" xml:space="preserve">
<path fill="#B17F49" d="M254.25,51.75c-1-1.25-3.5-4.75-5.5-8s-6.25-17.5-8.5-19s-13.75-11-18-12.75S213,5.25,213,5.25L214.75,0h-44
	l-2.25,3.75c0,0-10.5,11-12.25,12.75s-7.25,5.58-7.5,9.91c-0.25,4.34-5.25,12.09-5.25,12.09S141,25.25,138.25,21s-5.75-6-8.25-7.75
	s-5-5-6.5-8s-3-5.25-3-5.25H68l3.5,6.75c0,0-20.75,23.25-26.25,24.25c0,0-3.75,4.5-3,9s-7,19.69-6.25,23.22
	c0.75,3.53,1.25,4.351,3.25,6.811c2,2.47,2.25,15.229,4,16.35s3.2,7.12,10.47,3.62c5.69-2.73,6.021-6.11,5.891-7.46
	c0.68,3.46,4.12,21.18,3.89,23.21C63.25,108,63.25,119.3,66,121.9c2.75,2.6,9.5,13.6,11.75,14.85s11.25,11.75,14.5,12
	s10.25-1,11-1.25c0,0,0,5.25,2.75,7.25s11.75,6.5,13,6.25s7-2.5,7.5-4.5c0,0,3.25,5,7.5,3.5s5.75-1.25,7-4s0-5.75,0-5.75
	s3.5,0.25,5-1.5s1.5-1.75,1.5-1.75s0,2.75,2.5,2.5s2.5-0.25,2.5-0.25s-1.5,4,1.25,5.25s7.75,3.5,10.25,2s5.25-4,5.25-4
	s5.5,4.25,8,2.75s8.25-4,9.5-6.25s5.5-4.5,5.5-4.5s7,0.25,10.25-1s6.5-6.5,12-12.75s9.75-11.46,10.75-13.73c1-2.27,1-9.02,2-12.64
	c1-3.63,6.75-12.87,7.25-18s0-6.88,0-7.88s5,0.81,6.5-1.72c1.5-2.53,3.25-4.96,4.5-6.75c1.25-1.78,5.5-3.891,6.75-6.96
	C253.5,60,255.25,53,254.25,51.75z M147.75,111.25c0-0.22-0.05-0.7-0.15-1.37l-0.02-0.149c-0.55-4.011-2.33-13.98-2.33-13.98
	s0.12-2.37,0.22-5.5L150,97.5L147.75,111.25z"/>
<g>
	<g>
		<path fill="#422918" d="M49.006,55.476c0,0,0.503,0.09,1.346,0.38c0.425,0.133,0.925,0.34,1.498,0.578
			c0.56,0.268,1.201,0.552,1.85,0.96c0.681,0.356,1.326,0.882,2.043,1.39c0.636,0.604,1.383,1.171,1.964,1.941
			c0.296,0.377,0.656,0.719,0.912,1.143c0.263,0.419,0.529,0.844,0.798,1.271c0.301,0.412,0.439,0.912,0.663,1.371
			c0.186,0.475,0.452,0.926,0.572,1.426l0.398,1.486l0.197,0.741l0.087,0.755c0.09,1.004,0.297,1.994,0.201,2.955
			c-0.057,0.958-0.012,1.896-0.149,2.764c-0.154,0.865-0.3,1.683-0.435,2.438c-0.103,0.762-0.333,1.427-0.516,2.021
			c-0.187,0.592-0.349,1.108-0.481,1.533c-0.274,0.846-0.431,1.329-0.431,1.329l-0.047-0.016c0,0,0.113-0.495,0.312-1.361
			c0.103-0.432,0.228-0.954,0.37-1.555c0.151-0.598,0.324-1.271,0.403-2.025c0.107-0.748,0.224-1.559,0.347-2.416
			c0.096-0.858,0.081-1.771,0.13-2.711c0.099-0.945-0.116-1.904-0.17-2.89l-0.067-0.741l-0.176-0.725l-0.354-1.46
			c-0.107-0.491-0.36-0.933-0.533-1.401c-0.21-0.451-0.335-0.945-0.622-1.351c-0.255-0.424-0.508-0.844-0.758-1.259
			c-0.242-0.42-0.59-0.759-0.872-1.135c-0.555-0.769-1.282-1.335-1.893-1.947c-0.694-0.517-1.319-1.053-1.983-1.422
			c-0.633-0.42-1.262-0.717-1.812-0.997c-0.562-0.25-1.055-0.469-1.474-0.611c-0.832-0.309-1.33-0.41-1.33-0.41L49.006,55.476z"/>
	</g>
	<g>
		<path fill="#422918" d="M61.323,38.976c-0.014-0.007,0.053,0.005,0.088,0.059c0.038,0.044,0.086,0.111,0.147,0.201
			c0.121,0.18,0.287,0.45,0.487,0.8c0.399,0.701,0.935,1.723,1.501,2.984c1.139,2.516,2.39,6.024,2.933,9.697
			c0.272,1.831,0.386,3.7,0.209,5.441c-0.146,1.743-0.586,3.339-1.133,4.626c-0.549,1.288-1.202,2.264-1.704,2.898
			c-0.508,0.633-0.832,0.961-0.833,0.961l-0.037-0.033c0,0,0.291-0.357,0.73-1.027c0.425-0.678,1.01-1.664,1.476-2.946
			c0.482-1.273,0.836-2.831,1.006-4.525c0.154-1.695,0.117-3.526-0.109-5.34c-0.459-3.635-1.643-7.145-2.698-9.683
			c-0.529-1.271-1.034-2.304-1.413-3.013c-0.19-0.354-0.349-0.628-0.463-0.809c-0.131-0.188-0.168-0.259-0.177-0.243L61.323,38.976z
			"/>
	</g>
	<g>
		<path fill="#422918" d="M70.729,51.737c0,0,2.238-3.796,4.477-7.593c0.561-0.948,1.121-1.896,1.646-2.785
			c0.542-0.879,1.078-1.681,1.534-2.37c0.923-1.372,1.593-2.252,1.593-2.252l0.043,0.025c0,0-0.486,0.995-1.298,2.436
			c-0.411,0.717-0.887,1.556-1.429,2.435c-0.559,0.869-1.154,1.796-1.75,2.723c-2.387,3.703-4.773,7.407-4.773,7.407L70.729,51.737z
			"/>
	</g>
	<g>
		<path fill="#422918" d="M68.732,57.482c0,0,0.979-1.012,2.532-2.445c1.547-1.438,3.686-3.279,5.972-4.939
			c1.143-0.829,2.303-1.643,3.465-2.291c0.574-0.335,1.146-0.631,1.709-0.871c0.548-0.271,1.096-0.461,1.601-0.636
			c0.495-0.2,0.98-0.295,1.406-0.381c0.423-0.098,0.792-0.175,1.109-0.161c0.619-0.021,0.974-0.033,0.974-0.033v0.051
			c0,0-0.346,0.056-0.951,0.153c-0.304,0.029-0.657,0.142-1.062,0.268c-0.408,0.114-0.861,0.259-1.338,0.477
			c-0.484,0.194-1.007,0.404-1.532,0.696c-0.535,0.269-1.1,0.547-1.659,0.891c-0.578,0.306-1.154,0.66-1.739,1.024
			c-0.593,0.349-1.167,0.752-1.75,1.14c-4.626,3.185-8.7,7.094-8.7,7.094L68.732,57.482z"/>
	</g>
	<g>
		<path fill="#422918" d="M70.767,66.608c0,0,0.195,0.173,0.582,0.466c0.202,0.137,0.451,0.305,0.744,0.502
			c0.31,0.17,0.655,0.384,1.061,0.588c0.819,0.387,1.843,0.824,3.081,1.08c0.31,0.062,0.629,0.125,0.958,0.19
			c0.329,0.067,0.679,0.054,1.03,0.085c0.354,0.016,0.716,0.057,1.086,0.053c0.371-0.033,0.749-0.066,1.136-0.1
			c1.547-0.13,3.179-0.621,4.799-1.348c1.604-0.759,3.216-1.747,4.704-2.998c0.373-0.31,0.787-0.578,1.137-0.928
			c0.351-0.348,0.704-0.697,1.06-1.049c0.698-0.716,1.47-1.38,2.085-2.201c0.649-0.788,1.305-1.583,1.962-2.38
			c0.638-0.812,1.188-1.698,1.788-2.545c1.188-1.699,2.322-3.458,3.442-5.172c1.104-1.728,2.337-3.344,3.473-4.937
			c1.215-1.537,2.341-3.062,3.569-4.378c0.299-0.336,0.592-0.668,0.882-0.994c0.308-0.311,0.61-0.616,0.908-0.917
			c0.6-0.598,1.159-1.193,1.767-1.694c0.598-0.511,1.139-1.036,1.731-1.443c0.576-0.427,1.11-0.849,1.674-1.158
			c0.273-0.166,0.538-0.326,0.794-0.481c0.272-0.126,0.535-0.247,0.787-0.364c0.492-0.258,1.004-0.355,1.438-0.502
			c0.905-0.188,1.644-0.181,2.126-0.054c0.479,0.132,0.695,0.301,0.695,0.301l-0.031,0.039c0,0-0.212-0.151-0.684-0.26
			c-0.473-0.104-1.192-0.08-2.063,0.141c-0.422,0.162-0.909,0.278-1.386,0.549c-0.243,0.12-0.498,0.244-0.761,0.373
			c-0.248,0.157-0.506,0.321-0.771,0.49c-0.546,0.315-1.065,0.743-1.624,1.177c-0.574,0.413-1.101,0.945-1.68,1.463
			c-0.589,0.507-1.132,1.111-1.713,1.716c-0.288,0.304-0.582,0.613-0.88,0.927c-0.28,0.33-0.564,0.666-0.854,1.006
			c-1.179,1.339-2.328,2.83-3.528,4.364c-1.133,1.584-2.345,3.186-3.478,4.897c-1.143,1.707-2.288,3.437-3.506,5.14
			c-0.611,0.848-1.173,1.731-1.823,2.544c-0.669,0.798-1.336,1.593-1.998,2.381c-0.626,0.82-1.412,1.485-2.123,2.201
			c-0.361,0.352-0.722,0.701-1.078,1.048c-0.355,0.35-0.777,0.619-1.157,0.928c-1.516,1.248-3.154,2.239-4.788,2.986
			c-1.65,0.717-3.31,1.194-4.878,1.307c-0.393,0.029-0.776,0.059-1.151,0.087c-0.375,0-0.741-0.046-1.099-0.065
			c-0.355-0.036-0.708-0.027-1.039-0.1c-0.332-0.069-0.654-0.138-0.966-0.203c-1.247-0.273-2.272-0.727-3.093-1.126
			c-0.404-0.211-0.75-0.43-1.059-0.604c-0.292-0.202-0.54-0.374-0.742-0.513c-0.388-0.302-0.58-0.477-0.58-0.477L70.767,66.608z"/>
	</g>
	<g>
		<path fill="#422918" d="M131.51,55.523c0,0-2.825,1.188-7.062,2.972c-2.119,0.89-4.592,1.928-7.241,3.039
			c-2.649,1.112-5.483,2.279-8.294,3.501c-2.815,1.207-5.631,2.415-8.271,3.547c-1.325,0.554-2.596,1.112-3.819,1.6
			c-1.221,0.495-2.374,0.963-3.439,1.395c-4.253,1.744-7.122,2.837-7.122,2.837l-0.021-0.045c0,0,2.777-1.292,6.994-3.125
			c1.052-0.463,2.192-0.965,3.397-1.495c1.203-0.536,2.491-1.059,3.812-1.623c2.654-1.104,5.484-2.281,8.315-3.459
			c2.826-1.188,5.674-2.319,8.337-3.399c2.665-1.073,5.152-2.075,7.285-2.934c4.266-1.714,7.109-2.856,7.109-2.856L131.51,55.523z"
			/>
	</g>
	<g>
		<path fill="#422918" d="M94.226,91.747c0,0,0.013-0.137,0.067-0.391c0.054-0.253,0.143-0.623,0.308-1.076
			c0.149-0.46,0.397-0.99,0.689-1.596c0.338-0.58,0.695-1.253,1.205-1.907c0.456-0.694,1.088-1.334,1.707-2.055
			c0.706-0.631,1.386-1.377,2.232-1.977c0.409-0.316,0.826-0.638,1.248-0.964c0.448-0.286,0.902-0.577,1.36-0.87
			c0.896-0.621,1.895-1.094,2.867-1.616c0.958-0.555,2.003-0.92,2.99-1.373c0.984-0.469,2.013-0.768,2.989-1.105
			c0.979-0.33,1.92-0.674,2.849-0.87c0.919-0.228,1.788-0.442,2.59-0.641c0.797-0.221,1.556-0.29,2.213-0.422
			c0.661-0.109,1.237-0.205,1.713-0.283c0.949-0.15,1.492-0.235,1.492-0.235l0.008,0.049c0,0-0.534,0.13-1.469,0.355
			c-0.467,0.109-1.034,0.242-1.686,0.395c-0.648,0.161-1.393,0.286-2.179,0.527c-0.791,0.222-1.646,0.463-2.553,0.717
			c-0.911,0.233-1.852,0.545-2.82,0.879c-0.969,0.333-1.985,0.638-2.97,1.071c-0.986,0.427-2.033,0.767-2.99,1.295
			c-0.971,0.5-1.97,0.951-2.864,1.551c-0.458,0.282-0.912,0.562-1.36,0.838c-0.423,0.314-0.84,0.626-1.25,0.932
			c-0.851,0.577-1.527,1.307-2.243,1.914c-0.626,0.696-1.269,1.316-1.734,1.993c-0.521,0.636-0.889,1.293-1.236,1.861
			c-0.303,0.593-0.562,1.113-0.719,1.566c-0.175,0.444-0.271,0.811-0.33,1.059c-0.06,0.248-0.076,0.385-0.076,0.385L94.226,91.747z"
			/>
	</g>
	<g>
		<path fill="#422918" d="M68.755,91.726c2.02,0.449,4.004,1.044,5.952,1.743c1.941,0.712,3.854,1.526,5.66,2.548
			c1.808,1.009,3.522,2.232,4.928,3.784c0.336,0.4,0.669,0.805,0.953,1.246c0.284,0.438,0.558,0.893,0.754,1.381
			c0.224,0.477,0.374,0.987,0.489,1.5c0.121,0.517,0.155,1.044,0.182,1.572l-0.271-0.143c1.638-1.078,3.406-1.917,5.263-2.531
			c1.854-0.603,3.822-0.94,5.794-0.801c0.493,0.029,0.981,0.11,1.469,0.196c0.48,0.118,0.961,0.239,1.424,0.418
			c0.465,0.168,0.92,0.372,1.353,0.612c0.439,0.23,0.85,0.507,1.251,0.797c0.389,0.304,0.78,0.611,1.126,0.963
			c0.355,0.343,0.692,0.702,0.997,1.09c0.332,0.366,0.581,0.793,0.867,1.191c0.269,0.41,0.498,0.845,0.748,1.265l-0.353-0.044
			c1.411-1.525,2.771-3.113,4.034-4.771c0.325-0.407,0.613-0.842,0.922-1.262s0.606-0.847,0.881-1.289
			c0.272-0.442,0.589-0.863,0.827-1.326l0.723-1.387l0.047,0.02l-0.661,1.426c-0.219,0.479-0.514,0.912-0.768,1.372
			c-0.253,0.461-0.539,0.9-0.842,1.328c-0.3,0.429-0.58,0.874-0.897,1.291c-1.23,1.697-2.555,3.32-3.944,4.896l-0.196,0.223
			l-0.157-0.266c-0.486-0.821-1.002-1.627-1.617-2.351c-0.293-0.374-0.617-0.72-0.958-1.048c-0.331-0.338-0.705-0.631-1.075-0.922
			c-0.383-0.276-0.773-0.541-1.191-0.76c-0.411-0.229-0.844-0.424-1.286-0.583c-0.44-0.171-0.898-0.285-1.356-0.399
			c-0.464-0.087-0.93-0.172-1.402-0.205c-1.891-0.158-3.811,0.142-5.635,0.711c-1.82,0.578-3.586,1.397-5.188,2.431l-0.259,0.166
			l-0.013-0.309c-0.021-0.505-0.048-1.009-0.159-1.504c-0.105-0.492-0.244-0.982-0.455-1.443c-0.184-0.473-0.443-0.913-0.715-1.342
			c-0.271-0.432-0.593-0.828-0.917-1.223c-1.359-1.529-3.04-2.76-4.82-3.786c-1.779-1.037-3.673-1.874-5.6-2.61
			c-1.933-0.722-3.907-1.343-5.916-1.817L68.755,91.726z"/>
	</g>
	<g>
		<path fill="#422918" d="M139.478,145.761c0,0-0.107-0.214-0.31-0.615c-0.195-0.405-0.566-0.946-1.02-1.649
			c-0.463-0.698-1.026-1.546-1.672-2.519c-0.307-0.497-0.634-1.026-0.979-1.584c-0.311-0.577-0.656-1.175-0.984-1.816
			c-0.278-0.664-0.646-1.326-0.886-2.067c-0.24-0.737-0.488-1.5-0.743-2.283c-0.259-0.78-0.486-1.599-0.787-2.404
			c-0.342-0.789-0.69-1.596-1.046-2.415c-0.336-0.836-0.712-1.674-1.03-2.544c-0.271-0.887-0.544-1.784-0.82-2.689
			c-0.55-1.79-1.071-3.66-1.911-5.34c-0.861-1.681-1.956-3.312-2.49-5.171c-0.333-0.912-0.402-1.864-0.523-2.796
			c-0.09-0.933-0.014-1.855-0.027-2.763c0.034-1.815,0.521-3.582,1.201-5.091c0.682-1.523,1.53-2.857,2.397-4.014
			c1.748-2.309,3.533-3.952,4.87-4.971c0.67-0.509,1.225-0.871,1.624-1.085c0.394-0.226,0.662-0.236,0.666-0.218l-0.016,0.047
			c0.006-0.012-0.225,0.001-0.61,0.242c-0.383,0.229-0.917,0.613-1.557,1.148c-1.262,1.084-3.022,2.726-4.683,5.052
			c-0.828,1.159-1.63,2.488-2.258,3.986c-0.615,1.506-1.113,3.142-1.14,4.925c0.015,0.886-0.062,1.797,0.025,2.7
			c0.122,0.899,0.168,1.826,0.48,2.701c0.486,1.786,1.536,3.401,2.397,5.129c0.856,1.767,1.344,3.605,1.884,5.423
			c0.265,0.901,0.528,1.795,0.787,2.678c0.308,0.866,0.673,1.7,0.998,2.533c0.351,0.831,0.694,1.648,1.031,2.449
			c0.294,0.813,0.513,1.631,0.761,2.415c0.244,0.784,0.481,1.548,0.711,2.286c0.227,0.735,0.583,1.396,0.851,2.059
			c0.317,0.642,0.653,1.241,0.956,1.819c0.336,0.561,0.654,1.093,0.954,1.592c0.633,0.98,1.185,1.835,1.639,2.539
			c0.444,0.71,0.812,1.265,1.002,1.671c0.196,0.403,0.301,0.618,0.301,0.618L139.478,145.761z"/>
	</g>
	<g>
		<path fill="#422918" d="M103.981,144.483c0,0,0.113-0.111,0.265-0.355c0.162-0.235,0.365-0.613,0.582-1.107
			c0.216-0.495,0.436-1.117,0.585-1.854c0.175-0.732,0.215-1.585,0.178-2.504c-0.102-0.913-0.303-1.901-0.763-2.853
			c-0.216-0.478-0.51-0.938-0.807-1.399c-0.355-0.424-0.654-0.91-1.089-1.292c-0.403-0.41-0.818-0.821-1.304-1.167
			c-0.459-0.362-0.945-0.737-1.437-1.103c-0.495-0.354-0.974-0.749-1.439-1.168c-0.484-0.397-0.925-0.841-1.369-1.28
			c-0.892-0.877-1.698-1.835-2.465-2.799c-0.739-0.983-1.429-1.982-2.02-2.994c-1.222-2.002-2.093-4.021-2.757-5.763
			c-0.302-0.867-0.734-1.6-1.059-2.287c-0.334-0.68-0.624-1.271-0.864-1.759c-0.472-0.979-0.742-1.537-0.742-1.537l0.045-0.023
			c0,0,0.31,0.539,0.851,1.481c0.268,0.473,0.592,1.047,0.965,1.705c0.348,0.666,0.839,1.384,1.173,2.271
			c0.359,0.857,0.757,1.777,1.233,2.726c0.479,0.944,0.979,1.944,1.582,2.931c0.58,1,1.267,1.977,1.969,2.965
			c0.736,0.963,1.513,1.922,2.375,2.803c0.431,0.44,0.859,0.884,1.325,1.279c0.447,0.415,0.912,0.812,1.406,1.176
			c0.483,0.371,0.952,0.743,1.427,1.13c0.488,0.359,0.908,0.787,1.314,1.214c0.438,0.396,0.74,0.901,1.096,1.342
			c0.3,0.479,0.593,0.956,0.805,1.451c0.452,0.987,0.639,2.005,0.723,2.938c0.02,0.939-0.039,1.804-0.231,2.543
			c-0.166,0.743-0.401,1.366-0.629,1.861c-0.229,0.495-0.439,0.868-0.612,1.108c-0.16,0.247-0.273,0.354-0.274,0.354
			L103.981,144.483z"/>
	</g>
	<g>
		<path fill="#422918" d="M127.226,153.494c0,0,0.196-0.71,0.142-1.982c-0.014-0.635-0.12-1.401-0.323-2.26
			c-0.199-0.861-0.561-1.794-1.026-2.773c-0.516-0.953-1.116-1.972-1.928-2.917c-0.771-0.977-1.721-1.889-2.743-2.778
			c-0.511-0.454-1.03-0.915-1.557-1.383c-0.49-0.51-1.02-1.001-1.489-1.549c-0.968-1.071-1.829-2.265-2.611-3.507
			c-0.764-1.254-1.409-2.581-1.918-3.938c-0.51-1.365-0.874-2.727-1.021-4.153c-0.035-1.353-0.158-2.664-0.274-3.902
			c-0.124-1.238-0.29-2.404-0.506-3.467c-0.418-2.126-1.074-3.847-1.856-4.829c-0.391-0.487-0.808-0.776-1.123-0.887
			c-0.312-0.122-0.497-0.135-0.494-0.145l0.006-0.049c-0.003,0.01,0.187,0.01,0.517,0.116c0.335,0.096,0.789,0.37,1.226,0.853
			c0.896,0.965,1.581,2.731,2.082,4.862c0.499,2.143,0.847,4.688,0.922,7.437c0.131,1.291,0.499,2.677,0.965,4.003
			c0.476,1.335,1.088,2.647,1.818,3.893c0.753,1.231,1.586,2.417,2.527,3.486c0.456,0.547,0.967,1.031,1.442,1.54
			c0.518,0.473,1.03,0.939,1.533,1.398c1.022,0.915,1.976,1.847,2.739,2.851c0.804,0.972,1.396,2.015,1.899,2.987
			c0.456,1,0.805,1.948,0.99,2.822c0.191,0.87,0.284,1.646,0.287,2.285c0.034,1.282-0.177,1.997-0.177,1.997L127.226,153.494z"/>
	</g>
	<g>
		<path fill="#422918" d="M240.258,44.273c0,0-0.569,0.179-1.505,0.638c-0.934,0.455-2.235,1.196-3.615,2.323
			c-0.696,0.555-1.391,1.228-2.072,1.981c-0.69,0.749-1.316,1.626-1.904,2.563c-0.582,0.944-1.062,1.988-1.478,3.072
			c-0.373,1.101-0.705,2.238-0.873,3.408c-0.205,1.162-0.269,2.347-0.277,3.508c0.007,1.161,0.066,2.306,0.203,3.406
			c0.044,0.553,0.146,1.089,0.234,1.615c0.089,0.526,0.17,1.043,0.285,1.539c0.106,0.497,0.21,0.982,0.311,1.45
			c0.125,0.463,0.246,0.91,0.362,1.34c0.218,0.864,0.476,1.639,0.693,2.33c0.21,0.694,0.424,1.289,0.602,1.779
			c0.35,0.982,0.55,1.544,0.55,1.544l-0.047,0.02c0,0-0.241-0.546-0.664-1.501c-0.219-0.476-0.469-1.06-0.71-1.747
			c-0.249-0.685-0.563-1.447-0.805-2.313c-0.13-0.43-0.265-0.878-0.405-1.342c-0.114-0.471-0.233-0.958-0.355-1.459
			c-0.138-0.498-0.222-1.021-0.309-1.557c-0.089-0.534-0.191-1.079-0.236-1.642c-0.136-1.118-0.206-2.284-0.18-3.469
			c0.032-1.183,0.121-2.389,0.354-3.57c0.19-1.189,0.547-2.346,0.945-3.46c0.44-1.1,0.946-2.153,1.553-3.104
			c0.614-0.943,1.26-1.826,1.977-2.569c0.708-0.75,1.424-1.415,2.139-1.96c1.416-1.108,2.74-1.825,3.688-2.263
			c0.948-0.441,1.525-0.608,1.525-0.608L240.258,44.273z"/>
	</g>
	<g>
		<path fill="#422918" d="M226.772,33.894c0,0-0.146,0.323-0.402,0.889c-0.248,0.569-0.605,1.38-0.967,2.38
			c-0.74,1.986-1.555,4.72-1.826,7.527c-0.099,0.698-0.079,1.403-0.107,2.093c-0.002,0.689,0.067,1.365,0.099,2.02
			c0.102,0.646,0.171,1.276,0.288,1.864c0.154,0.577,0.271,1.137,0.432,1.635c0.189,0.49,0.363,0.939,0.518,1.338
			c0.152,0.401,0.374,0.706,0.505,0.986c0.292,0.548,0.46,0.86,0.46,0.86l-0.041,0.029c0,0-0.206-0.291-0.566-0.8
			c-0.17-0.261-0.429-0.554-0.614-0.949c-0.188-0.396-0.401-0.843-0.634-1.33c-0.191-0.504-0.339-1.071-0.527-1.663
			c-0.156-0.6-0.218-1.254-0.338-1.919c-0.021-0.674-0.08-1.372-0.051-2.078c0.052-0.705,0.058-1.425,0.181-2.131
			c0.355-2.846,1.237-5.58,2.061-7.547c0.398-0.989,0.785-1.79,1.053-2.352c0.276-0.556,0.435-0.874,0.435-0.874L226.772,33.894z"/>
	</g>
	<g>
		<path fill="#422918" d="M182.751,38.972c6.304,0.32,12.604,0.787,18.875,1.542c3.135,0.385,6.266,0.826,9.367,1.46
			c1.55,0.319,3.095,0.677,4.61,1.166c0.755,0.253,1.511,0.516,2.23,0.891c0.702,0.377,1.466,0.783,1.893,1.618l-0.444,0.22
			c-1.494-2.8-2.804-5.69-3.826-8.695c-0.508-1.501-0.958-3.03-1.202-4.604c-0.122-0.785-0.188-1.587-0.115-2.384
			c0.04-0.397,0.102-0.797,0.242-1.173c0.113-0.387,0.344-0.727,0.601-1.028l0.037,0.033c-0.237,0.31-0.442,0.647-0.534,1.028
			c-0.118,0.37-0.157,0.763-0.177,1.15c-0.015,0.39,0.002,0.78,0.043,1.169c0.037,0.388,0.085,0.777,0.16,1.161
			c0.279,1.543,0.762,3.046,1.304,4.521c0.543,1.475,1.166,2.922,1.83,4.348c0.647,1.434,1.336,2.854,2.073,4.237l-0.444,0.221
			c-0.298-0.61-0.999-1.037-1.667-1.382c-0.676-0.365-1.414-0.633-2.149-0.891c-1.481-0.5-3.011-0.877-4.547-1.215
			c-3.076-0.662-6.196-1.136-9.321-1.553c-6.255-0.81-12.542-1.389-18.84-1.789L182.751,38.972z"/>
	</g>
	<g>
		<path fill="#422918" d="M170.77,33.867c0,0,2.285,2.711,5.982,6.528c3.697,3.811,8.809,8.742,14.419,13.059
			c1.402,1.076,2.841,2.104,4.283,3.074c1.457,0.946,2.899,1.868,4.353,2.655c0.723,0.401,1.438,0.785,2.161,1.115
			c0.71,0.357,1.425,0.659,2.122,0.951c1.391,0.595,2.759,1.015,4.04,1.322c0.639,0.161,1.269,0.22,1.859,0.328
			c0.595,0.075,1.165,0.07,1.699,0.107c1.064-0.032,2.001-0.096,2.747-0.291c0.766-0.117,1.318-0.376,1.708-0.516
			c0.389-0.146,0.596-0.224,0.596-0.224l0.021,0.045c0,0-0.203,0.088-0.585,0.254c-0.385,0.16-0.932,0.45-1.7,0.608
			c-0.747,0.243-1.698,0.342-2.785,0.396c-0.543-0.023-1.127-0.005-1.734-0.065c-0.603-0.095-1.249-0.14-1.902-0.286
			c-1.311-0.279-2.714-0.673-4.14-1.239c-0.718-0.271-1.445-0.575-2.162-0.941c-0.732-0.335-1.456-0.724-2.186-1.13
			c-1.467-0.798-2.926-1.72-4.375-2.701c-1.44-0.995-2.872-2.048-4.267-3.148c-5.584-4.396-10.66-9.379-14.3-13.253
			c-3.646-3.873-5.895-6.618-5.895-6.618L170.77,33.867z"/>
	</g>
	<g>
		<path fill="#422918" d="M161.756,59.476c0,0,0.72,0.176,1.979,0.482c1.261,0.305,3.06,0.742,5.21,1.308
			c4.308,1.102,10.008,2.736,15.689,4.418c2.845,0.829,5.691,1.646,8.368,2.365c1.342,0.343,2.644,0.658,3.882,0.928
			c0.617,0.148,1.221,0.273,1.809,0.368s1.151,0.229,1.702,0.276c0.549,0.065,1.074,0.127,1.575,0.187
			c0.503,0.023,0.979,0.046,1.428,0.067c0.897,0.055,1.679-0.035,2.326-0.024c1.284-0.12,2.021-0.215,2.021-0.215l0.01,0.049
			c0,0-0.728,0.139-2.015,0.338c-0.648,0.036-1.438,0.159-2.345,0.125c-0.454-0.008-0.938-0.016-1.447-0.024
			c-0.507-0.044-1.04-0.091-1.597-0.14c-0.56-0.032-1.129-0.149-1.727-0.227c-0.598-0.078-1.211-0.186-1.836-0.316
			c-1.262-0.22-2.562-0.576-3.913-0.911c-1.343-0.365-2.73-0.739-4.126-1.17c-1.395-0.426-2.812-0.859-4.23-1.292
			c-5.659-1.757-11.336-3.449-15.619-4.632c-2.139-0.603-3.931-1.07-5.186-1.396c-1.254-0.328-1.971-0.516-1.971-0.516
			L161.756,59.476z"/>
	</g>
	<g>
		<path fill="#422918" d="M221.759,83.094c-0.996,0.384-1.966,0.831-2.922,1.304c-0.956,0.474-1.897,0.977-2.812,1.524
			c-0.455,0.276-0.921,0.535-1.36,0.838c-0.44,0.299-0.896,0.576-1.325,0.891l-1.286,0.945l-1.228,1.018
			c-0.42,0.327-0.784,0.716-1.169,1.081c-0.385,0.366-0.768,0.733-1.101,1.146c-0.339,0.407-0.711,0.787-1.022,1.215l-0.906,1.3
			c-0.293,0.438-0.504,0.926-0.761,1.386c-0.272,0.454-0.445,0.95-0.614,1.448c-0.161,0.499-0.397,0.977-0.455,1.502l-0.3,1.542
			l-0.104,0.528l-0.339-0.402c-0.675-0.8-1.498-1.522-2.37-2.133c-0.439-0.304-0.889-0.595-1.363-0.843
			c-0.229-0.139-0.479-0.236-0.722-0.349c-0.241-0.116-0.488-0.217-0.744-0.295c-0.255-0.078-0.501-0.192-0.765-0.241l-0.78-0.186
			c-0.264-0.044-0.531-0.069-0.797-0.104c-0.266-0.046-0.534-0.047-0.803-0.044c-0.269,0.006-0.539-0.017-0.807,0.012l-0.806,0.089
			c-0.54,0.052-1.057,0.23-1.591,0.341l-0.016-0.047c0.523-0.149,1.034-0.369,1.576-0.462l0.813-0.15
			c0.272-0.044,0.551-0.034,0.826-0.054c0.276-0.017,0.554-0.028,0.829,0.005c0.276,0.022,0.555,0.035,0.83,0.067l0.818,0.157
			c0.275,0.044,0.533,0.153,0.802,0.228s0.528,0.172,0.782,0.285c0.256,0.109,0.519,0.205,0.761,0.342
			c0.5,0.244,0.979,0.528,1.44,0.839c0.91,0.642,1.744,1.368,2.475,2.236l-0.442,0.126l0.316-1.603
			c0.072-0.544,0.324-1.035,0.502-1.548c0.185-0.511,0.375-1.02,0.663-1.481c0.271-0.468,0.5-0.963,0.808-1.406l0.947-1.313
			c0.323-0.431,0.707-0.812,1.059-1.221c0.345-0.414,0.739-0.78,1.134-1.146c0.396-0.363,0.771-0.751,1.199-1.075l1.256-1.008
			l1.311-0.932c0.438-0.308,0.902-0.578,1.353-0.868c0.447-0.295,0.921-0.547,1.384-0.814c0.93-0.531,1.885-1.016,2.853-1.471
			c0.969-0.454,1.949-0.882,2.955-1.246L221.759,83.094z"/>
	</g>
	<g>
		<path fill="#422918" d="M152.753,94.652c0,0,0.244,0.017,0.688,0.113c0.444,0.093,1.093,0.248,1.909,0.476
			c1.629,0.461,3.951,1.181,6.594,2.406c1.313,0.624,2.718,1.367,4.039,2.406c0.656,0.521,1.294,1.12,1.803,1.854
			c0.502,0.729,0.888,1.617,0.854,2.577c-0.021,1.821-0.505,3.708-1.146,5.496c-0.633,1.804-1.428,3.578-1.952,5.42
			c-0.257,0.919-0.458,1.86-0.432,2.795c-0.008,0.941,0.279,1.81,0.618,2.717c0.161,0.447,0.323,0.892,0.413,1.38l0.16,0.714
			c0.022,0.242,0.026,0.488,0.039,0.731c0.066,0.488-0.083,0.968-0.15,1.446c-0.159,0.448-0.311,0.912-0.535,1.315
			c-0.889,1.635-1.982,3.005-2.873,4.401c-0.935,1.377-1.804,2.686-2.545,3.929c-0.77,1.227-1.457,2.362-2.021,3.396
			c-0.564,1.033-1.118,1.903-1.482,2.666c-0.77,1.507-1.209,2.368-1.209,2.368l-0.047-0.02c0,0,0.401-0.883,1.102-2.426
			c0.324-0.788,0.851-1.674,1.397-2.721c0.542-1.05,1.206-2.206,1.95-3.457c0.718-1.27,1.558-2.6,2.459-3.997
			c0.855-1.436,1.99-2.803,2.827-4.367c0.216-0.387,0.348-0.806,0.498-1.219c0.056-0.432,0.2-0.857,0.135-1.308
			c-0.013-0.223-0.015-0.447-0.034-0.671l-0.144-0.665c-0.072-0.445-0.229-0.896-0.386-1.347c-0.317-0.876-0.632-1.866-0.607-2.865
			c-0.014-0.998,0.209-1.972,0.482-2.908c0.556-1.879,1.369-3.642,2.014-5.426c0.655-1.785,1.138-3.577,1.18-5.395
			c0.04-0.87-0.308-1.713-0.781-2.413c-0.48-0.707-1.096-1.3-1.732-1.819c-1.284-1.038-2.67-1.795-3.967-2.432
			c-2.612-1.254-4.922-2.003-6.542-2.483c-0.812-0.237-1.456-0.4-1.898-0.499c-0.441-0.102-0.682-0.121-0.682-0.122L152.753,94.652z
			"/>
	</g>
	<g>
		<path fill="#422918" d="M177.248,100.181c0,0,0.215-0.022,0.617-0.021c0.402,0.004,0.996,0.011,1.74,0.131
			c0.739,0.121,1.646,0.325,2.581,0.82c0.928,0.483,1.866,1.351,2.322,2.588c0.464,1.223,0.474,2.7,0.202,4.143
			c-0.164,1.461-0.501,2.992-0.876,4.561c-0.396,1.562-0.868,3.157-1.346,4.773c-0.484,1.615-0.938,3.265-1.188,4.938
			c-0.036,0.418-0.033,0.837-0.053,1.255c-0.015,0.403-0.005,0.884-0.147,1.333c-0.268,0.857-0.706,1.608-1.157,2.331
			c-0.913,1.442-1.954,2.744-2.945,4.012c-1.984,2.53-3.899,4.832-5.349,6.945c-1.463,2.1-2.435,4.019-2.839,5.45
			c-0.22,0.712-0.272,1.298-0.299,1.695c0.008,0.399,0.012,0.612,0.012,0.612l-0.049,0.006c0,0-0.016-0.215-0.045-0.619
			c0.006-0.402,0.028-1.003,0.215-1.738c0.316-1.489,1.295-3.449,2.701-5.609c0.704-1.083,1.518-2.221,2.402-3.402
			c0.88-1.186,1.869-2.386,2.86-3.648c0.99-1.262,2.02-2.563,2.938-3.957c0.45-0.698,0.884-1.427,1.137-2.201
			c0.12-0.37,0.13-0.752,0.146-1.203c0.025-0.438,0.03-0.878,0.074-1.312c0.273-1.718,0.752-3.375,1.254-4.985
			c0.496-1.615,0.984-3.198,1.395-4.748c0.391-1.552,0.735-3.057,0.924-4.522c0.292-1.438,0.297-2.854-0.133-4.047
			c-0.422-1.199-1.314-2.053-2.218-2.541c-0.908-0.498-1.804-0.715-2.535-0.846c-0.736-0.13-1.326-0.146-1.727-0.154
			c-0.4-0.007-0.613,0.012-0.613,0.013L177.248,100.181z"/>
	</g>
	<g>
		<path fill="#422918" d="M188.725,140.002c0,0-0.068-0.712-0.093-1.961c-0.021-1.248-0.005-3.038,0.252-5.169
			c0.275-2.116,0.736-4.63,1.989-7.039c0.621-1.197,1.479-2.35,2.62-3.229c0.562-0.437,1.235-0.778,1.854-1.085
			c0.624-0.323,1.204-0.697,1.743-1.151c1.085-0.886,1.949-2.016,2.63-3.215c0.671-1.208,1.184-2.479,1.596-3.74
			c0.425-1.259,0.719-2.514,1.127-3.687c0.207-0.584,0.415-1.163,0.8-1.671c0.105-0.121,0.211-0.245,0.361-0.334
			c0.139-0.107,0.319-0.138,0.434-0.183c0.233-0.075,0.376-0.218,0.509-0.428c0.455-0.871,0.378-1.923,0.342-2.759
			c-0.063-0.859-0.18-1.606-0.275-2.221c-0.207-1.229-0.388-1.919-0.388-1.919l0.049-0.014c0,0,0.224,0.679,0.508,1.899
			c0.143,0.609,0.292,1.357,0.378,2.23c0.043,0.437,0.072,0.905,0.056,1.403c-0.027,0.494-0.071,1.037-0.354,1.562
			c-0.13,0.252-0.4,0.518-0.7,0.614c-0.287,0.088-0.417,0.184-0.59,0.403c-0.304,0.425-0.499,0.989-0.679,1.562
			c-0.349,1.159-0.685,2.414-1.105,3.693c-0.42,1.279-0.938,2.588-1.659,3.82c-0.724,1.226-1.642,2.387-2.786,3.29
			c-0.557,0.459-1.189,0.854-1.829,1.174c-0.658,0.315-1.255,0.61-1.812,1.026c-1.103,0.825-1.949,1.928-2.572,3.091
			c-0.638,1.16-1.062,2.382-1.388,3.555c-0.323,1.176-0.535,2.313-0.684,3.37c-0.293,2.114-0.34,3.9-0.341,5.146
			c0.002,1.247,0.059,1.958,0.059,1.958L188.725,140.002z"/>
	</g>
	<g>
		<path fill="#422918" d="M154.74,74.368c0.002,0.003,0.046-0.028,0.159-0.048c0.109-0.022,0.267-0.039,0.475-0.058
			c0.415-0.032,1.023-0.056,1.798-0.07c1.55-0.026,3.764-0.013,6.42,0.051c5.311,0.125,12.391,0.446,19.448,1.115
			c3.525,0.352,7.059,0.734,10.314,1.514c0.812,0.202,1.61,0.421,2.369,0.748c0.377,0.169,0.753,0.347,1.084,0.653
			c0.166,0.133,0.311,0.407,0.368,0.56c0.081,0.17,0.146,0.368,0.214,0.558c0.464,1.507,0.526,2.966,0.601,4.293
			c0.105,2.652,0.138,4.881,0.658,6.327c0.243,0.727,0.673,1.183,1.022,1.385c0.358,0.193,0.589,0.205,0.583,0.219l-0.008,0.049
			c0.004-0.014-0.229-0.013-0.615-0.196c-0.375-0.189-0.854-0.654-1.143-1.394c-0.633-1.47-0.677-3.736-0.862-6.368
			c-0.104-1.313-0.213-2.762-0.685-4.16c-0.128-0.32-0.266-0.732-0.479-0.91c-0.241-0.228-0.589-0.403-0.938-0.558
			c-0.709-0.307-1.491-0.524-2.288-0.723c-1.6-0.389-3.288-0.668-5.005-0.932c-1.72-0.258-3.475-0.474-5.232-0.666
			c-7.035-0.746-14.108-1.128-19.413-1.339c-2.652-0.101-4.864-0.146-6.413-0.141c-0.773,0.003-1.382,0.018-1.795,0.044
			c-0.418,0.021-0.618,0.093-0.618,0.092L154.74,74.368z"/>
	</g>
	<g>
		<path fill="#422918" d="M147.475,147c0,0-0.024-8.938-0.05-17.876c-0.025-4.469-0.013-8.938,0.088-12.289
			c0.088-3.351,0.212-5.585,0.212-5.585h0.051c0,0,0.093,2.234,0.134,5.587c0.054,3.352,0.004,7.82-0.084,12.289
			c-0.15,8.937-0.3,17.874-0.3,17.874H147.475z"/>
	</g>
	<g>
		<path fill="#422918" d="M150.026,97.495l-2.133,13.778l-0.153,0.992l-0.136-1.016c-0.085-0.637-0.128-1.283-0.253-1.923
			l-0.336-1.934l-0.672-3.868c-0.448-2.578-0.918-5.153-1.339-7.736l-0.004-0.023l0.001-0.028c0.068-1.832,0.143-3.663,0.248-5.494
			l0.04-0.708l0.366,0.599c1.487,2.431,2.939,4.884,4.365,7.353L150.026,97.495z M149.974,97.506
			c-1.593-2.362-3.159-4.739-4.69-7.139l0.406-0.11c-0.041,1.836-0.113,3.671-0.191,5.506l-0.003-0.052
			c0.439,2.58,0.83,5.168,1.243,7.752l0.618,3.877l0.31,1.938c0.117,0.648,0.153,1.312,0.229,1.973l-0.289-0.023L149.974,97.506z"/>
	</g>
	<g>
		<path fill="#422918" d="M143.525,38.499c0,0,0.132,3.235,0.33,8.089c0.103,2.426,0.223,5.256,0.352,8.289
			c0.147,3.031,0.306,6.265,0.464,9.498c0.089,1.616,0.15,3.235,0.262,4.822c0.12,1.585,0.238,3.144,0.353,4.652
			c0.114,1.516,0.225,2.979,0.33,4.368c0.142,1.382,0.095,2.716,0.125,3.934c0.024,1.222-0.032,2.331-0.04,3.32
			c-0.01,0.987-0.048,1.847-0.091,2.555c-0.073,1.416-0.114,2.225-0.114,2.225l-0.051-0.002c0,0-0.002-0.81-0.007-2.227
			c-0.003-0.708-0.007-1.567-0.011-2.554c-0.019-0.984,0.007-2.101-0.051-3.307c-0.064-1.209-0.052-2.512-0.232-3.897
			c-0.158-1.383-0.233-2.829-0.353-4.357c-0.106-1.519-0.217-3.088-0.329-4.683c-0.088-1.594-0.125-3.212-0.19-4.83
			c-0.264-6.473-0.472-12.945-0.592-17.801c-0.123-4.855-0.205-8.093-0.205-8.093L143.525,38.499z"/>
	</g>
	<g>
		<path fill="#422918" d="M147.726,111.253c-0.122-0.449-0.23-0.899-0.325-1.352l-0.306-1.465l0.703,1.414
			c0.109,0.221,0.113,0.461,0.126,0.696c-0.02,0.236-0.03,0.474-0.148,0.703l-0.033,0.064L147.726,111.253z M147.771,111.313
			l-0.047-0.063c-0.168-0.228-0.229-0.447-0.299-0.666c-0.038-0.223-0.084-0.438-0.024-0.674l0.397-0.052
			c0.006,0.461-0.002,0.925-0.024,1.389L147.771,111.313z"/>
	</g>
</g>
</svg>
