<?xml version="1.0" encoding="utf-8"?>
<!-- Generator: Adobe Illustrator 16.0.0, SVG Export Plug-In . SVG Version: 6.00 Build 0)  -->
<!DOCTYPE svg PUBLIC "-//W3C//DTD SVG 1.1//EN" "http://www.w3.org/Graphics/SVG/1.1/DTD/svg11.dtd">
<svg version="1.1" id="Layer_1" xmlns="http://www.w3.org/2000/svg" xmlns:xlink="http://www.w3.org/1999/xlink" x="0px" y="0px"
	 width="300px" height="250px" viewBox="0 0 300 250" enable-background="new 0 0 300 250" xml:space="preserve">
<g>
	<path fill="#FFFFFF" d="M45.266,68.202c0.355,0.119,0.524,0.415,0.508,0.889c-0.018,0.034-0.085,0.284-0.203,0.749
		c-0.119,0.466-0.275,1.028-0.47,1.688s-0.406,1.358-0.635,2.095s-0.453,1.393-0.673,1.968c-0.221,0.559-0.449,1.219-0.686,1.98
		c-0.237,0.762-0.457,1.489-0.66,2.184s-0.377,1.282-0.521,1.765s-0.216,0.732-0.216,0.749c-0.085,0.355-0.373,0.524-0.863,0.508
		c-0.355-0.118-0.525-0.415-0.508-0.889l0.127-0.381c-0.034-0.051-0.203-0.305-0.508-0.762s-0.673-1.101-1.104-1.93
		s-0.834-1.692-1.206-2.59c-0.627-1.507-1.16-3.021-1.6-4.545c-0.187,0.644-0.39,1.316-0.609,2.019
		c-0.221,0.703-0.44,1.333-0.66,1.892c-0.203,0.559-0.428,1.219-0.673,1.98s-0.47,1.489-0.673,2.184s-0.373,1.282-0.508,1.765
		c-0.136,0.482-0.203,0.732-0.203,0.749c-0.119,0.355-0.415,0.524-0.889,0.508c-0.339-0.118-0.5-0.415-0.482-0.889l0.102-0.381
		c-0.034-0.051-0.237-0.368-0.609-0.952c-0.373-0.584-0.821-1.409-1.346-2.476c-0.525-1.066-1.066-2.37-1.625-3.91
		c-0.576-1.54-1.075-3.301-1.498-5.281c0-0.372,0.236-0.609,0.711-0.711c0.372,0,0.601,0.187,0.686,0.559
		c0.305,1.371,0.744,2.92,1.32,4.646c0.186,0.576,0.474,1.32,0.863,2.234c0.372,0.931,0.736,1.735,1.092,2.412
		s0.66,1.228,0.914,1.65c0.22-0.728,0.465-1.515,0.736-2.361c0.271-0.847,0.524-1.591,0.762-2.234
		c0.22-0.559,0.444-1.202,0.673-1.93c0.229-0.728,0.436-1.426,0.622-2.095c0.186-0.668,0.347-1.24,0.482-1.714
		c0.135-0.474,0.211-0.736,0.229-0.787l0.178-0.229l0.254-0.127h0.254c0.033,0,0.063,0.004,0.089,0.013
		c0.025,0.009,0.089,0.03,0.19,0.063c0.017,0.017,0.033,0.03,0.051,0.038c0.017,0.009,0.067,0.055,0.152,0.14l0.152,0.279
		c0.287,1.354,0.622,2.607,1.003,3.758c0.381,1.151,0.766,2.192,1.155,3.123c0.389,0.931,0.762,1.735,1.117,2.412
		s0.66,1.228,0.914,1.65c0.22-0.728,0.465-1.515,0.736-2.361c0.271-0.847,0.524-1.591,0.762-2.234
		c0.203-0.559,0.419-1.202,0.647-1.93c0.229-0.728,0.436-1.417,0.622-2.069c0.186-0.651,0.343-1.206,0.47-1.663
		s0.19-0.694,0.19-0.711c0.033-0.152,0.123-0.279,0.267-0.381S45.012,68.186,45.266,68.202z"/>
	<path fill="#FFFFFF" d="M48.643,66.983c-0.288,0-0.529-0.097-0.724-0.292c-0.194-0.194-0.292-0.436-0.292-0.724
		c0-0.288,0.098-0.524,0.292-0.711c0.194-0.186,0.436-0.279,0.724-0.279c0.271,0,0.504,0.093,0.698,0.279
		c0.194,0.187,0.292,0.423,0.292,0.711c0,0.288-0.098,0.529-0.292,0.724C49.146,66.886,48.913,66.983,48.643,66.983z M48.973,68.05
		c0.186,0,0.343,0.055,0.47,0.165c0.127,0.11,0.207,0.25,0.241,0.419c0,0.051,0.038,0.313,0.114,0.787
		c0.076,0.474,0.165,1.05,0.267,1.727c0.102,0.677,0.199,1.401,0.292,2.171c0.093,0.771,0.156,1.46,0.19,2.069
		c0.033,0.593,0.093,1.286,0.178,2.082c0.084,0.796,0.178,1.554,0.279,2.272c0.102,0.72,0.19,1.338,0.267,1.854
		c0.076,0.517,0.114,0.791,0.114,0.825c0,0.187-0.06,0.343-0.178,0.47c-0.119,0.127-0.297,0.207-0.533,0.241
		c-0.187,0-0.343-0.056-0.47-0.165c-0.127-0.11-0.208-0.258-0.241-0.444c0-0.051-0.038-0.33-0.114-0.838s-0.165-1.121-0.267-1.841
		c-0.102-0.719-0.195-1.477-0.279-2.272c-0.085-0.796-0.145-1.498-0.178-2.107c-0.034-0.593-0.098-1.27-0.19-2.031
		s-0.187-1.481-0.279-2.158c-0.093-0.677-0.178-1.257-0.254-1.739s-0.114-0.74-0.114-0.774c0-0.169,0.051-0.321,0.152-0.457
		c0.102-0.135,0.245-0.22,0.432-0.254H48.973z"/>
	<path fill="#FFFFFF" d="M56.387,70.792c0,0.542,0.033,1.193,0.102,1.955c0.067,0.762,0.148,1.558,0.241,2.387
		s0.194,1.655,0.305,2.476c0.11,0.821,0.216,1.566,0.317,2.234c0.102,0.669,0.186,1.215,0.254,1.638
		c0.067,0.423,0.102,0.651,0.102,0.686c0,0.39-0.237,0.626-0.711,0.711c-0.187,0-0.343-0.056-0.47-0.165
		c-0.127-0.11-0.208-0.258-0.241-0.444c-0.018-0.051-0.06-0.296-0.127-0.736c-0.068-0.44-0.148-0.99-0.241-1.65
		s-0.194-1.4-0.305-2.222c-0.11-0.82-0.216-1.65-0.317-2.488s-0.182-1.638-0.241-2.399s-0.089-1.422-0.089-1.98
		c0-0.812-0.025-1.676-0.076-2.59s-0.102-1.765-0.152-2.552s-0.102-1.443-0.152-1.968c-0.051-0.524-0.076-0.804-0.076-0.838
		c0-0.186,0.059-0.343,0.178-0.47c0.118-0.127,0.296-0.207,0.533-0.241c0.186,0,0.343,0.063,0.47,0.19s0.207,0.284,0.241,0.47
		c0,0.051,0.025,0.339,0.076,0.863c0.051,0.525,0.102,1.181,0.152,1.968s0.102,1.638,0.152,2.552S56.387,69.963,56.387,70.792z"/>
	<path fill="#FFFFFF" d="M62.709,70.792c0,0.542,0.033,1.193,0.102,1.955c0.067,0.762,0.148,1.558,0.241,2.387
		s0.194,1.655,0.305,2.476c0.11,0.821,0.216,1.566,0.317,2.234c0.102,0.669,0.186,1.215,0.254,1.638
		c0.067,0.423,0.102,0.651,0.102,0.686c0,0.39-0.237,0.626-0.711,0.711c-0.187,0-0.343-0.056-0.47-0.165
		c-0.127-0.11-0.208-0.258-0.241-0.444c-0.018-0.051-0.06-0.296-0.127-0.736c-0.068-0.44-0.148-0.99-0.241-1.65
		s-0.194-1.4-0.305-2.222c-0.11-0.82-0.216-1.65-0.317-2.488s-0.182-1.638-0.241-2.399s-0.089-1.422-0.089-1.98
		c0-0.812-0.025-1.676-0.076-2.59s-0.102-1.765-0.152-2.552s-0.102-1.443-0.152-1.968c-0.051-0.524-0.076-0.804-0.076-0.838
		c0-0.186,0.059-0.343,0.178-0.47c0.118-0.127,0.296-0.207,0.533-0.241c0.186,0,0.343,0.063,0.47,0.19s0.207,0.284,0.241,0.47
		c0,0.051,0.025,0.339,0.076,0.863c0.051,0.525,0.102,1.181,0.152,1.968s0.102,1.638,0.152,2.552S62.709,69.963,62.709,70.792z"/>
	<path fill="#FFFFFF" d="M82.26,80.745c0.118-0.067,0.254-0.102,0.406-0.102c0.254,0,0.448,0.102,0.584,0.305
		c0.084,0.136,0.127,0.271,0.127,0.406c0,0.22-0.11,0.415-0.33,0.584l-0.178,0.127c-0.136,0.085-0.313,0.169-0.533,0.254
		c-0.221,0.085-0.47,0.165-0.749,0.241s-0.58,0.114-0.901,0.114c-0.406,0-0.897-0.123-1.473-0.368
		c-0.576-0.245-1.139-0.66-1.688-1.244s-1.037-1.354-1.46-2.311c-0.424-0.956-0.686-2.137-0.787-3.542
		c-0.018-0.102-0.025-0.198-0.025-0.292c0-0.093,0-0.19,0-0.292c0-1.1,0.199-2.09,0.597-2.971c0.397-0.88,0.876-1.629,1.435-2.247
		c0.559-0.618,1.139-1.1,1.739-1.447c0.601-0.347,1.112-0.537,1.536-0.571c0.084-0.017,0.174-0.025,0.267-0.025s0.182,0,0.267,0
		c0.49,0,0.918,0.047,1.282,0.14c0.364,0.093,0.613,0.174,0.749,0.241c0.186,0.034,0.381,0.165,0.584,0.394s0.305,0.665,0.305,1.308
		c0,0.203-0.072,0.373-0.216,0.508c-0.144,0.136-0.31,0.203-0.495,0.203c-0.203,0-0.373-0.067-0.508-0.203
		c-0.136-0.135-0.203-0.305-0.203-0.508c0-0.135-0.018-0.271-0.051-0.406c-0.102-0.034-0.279-0.084-0.533-0.152
		c-0.254-0.067-0.559-0.102-0.914-0.102c-0.068,0-0.131,0-0.19,0s-0.132,0.009-0.216,0.025c-0.271,0.034-0.631,0.187-1.079,0.457
		c-0.448,0.271-0.889,0.656-1.32,1.155c-0.432,0.5-0.809,1.104-1.13,1.815c-0.322,0.711-0.482,1.515-0.482,2.412
		c0,0.085,0,0.161,0,0.229s0.008,0.144,0.025,0.229c0.067,1.151,0.262,2.116,0.584,2.895c0.321,0.778,0.689,1.409,1.104,1.892
		s0.829,0.83,1.244,1.041c0.415,0.212,0.766,0.317,1.054,0.317c0.203,0,0.397-0.025,0.584-0.076
		c0.186-0.051,0.355-0.105,0.508-0.165c0.152-0.059,0.271-0.123,0.355-0.19L82.26,80.745z"/>
	<path fill="#FFFFFF" d="M93,67.466c0.355,0,0.766,0.174,1.231,0.521c0.466,0.347,0.905,0.838,1.32,1.473s0.771,1.401,1.066,2.298
		c0.296,0.897,0.444,1.904,0.444,3.021c0,1.134-0.195,2.184-0.584,3.148c-0.39,0.965-0.876,1.803-1.46,2.514
		s-1.219,1.266-1.904,1.663S91.798,82.7,91.223,82.7c-0.66,0-1.312-0.127-1.955-0.381c-0.644-0.254-1.219-0.622-1.727-1.104
		s-0.923-1.079-1.244-1.79c-0.322-0.711-0.482-1.532-0.482-2.463c0-0.593,0.076-1.244,0.229-1.955s0.359-1.426,0.622-2.146
		c0.263-0.719,0.575-1.413,0.939-2.082c0.364-0.668,0.757-1.265,1.181-1.79c0.423-0.524,0.871-0.943,1.346-1.257
		c0.474-0.313,0.956-0.47,1.447-0.47c0.186,0,0.352,0.021,0.495,0.063c0.144,0.042,0.274,0.098,0.394,0.165
		c0.084,0,0.169-0.004,0.254-0.013C92.805,67.47,92.898,67.466,93,67.466z M91.223,81.278c0.321,0,0.732-0.156,1.231-0.47
		c0.499-0.312,0.985-0.753,1.46-1.32c0.474-0.566,0.88-1.248,1.219-2.044c0.338-0.796,0.508-1.685,0.508-2.666
		c0-0.948-0.114-1.781-0.343-2.501c-0.229-0.719-0.491-1.329-0.787-1.828c-0.296-0.499-0.593-0.876-0.889-1.13
		s-0.513-0.397-0.647-0.432c-0.288,0-0.546,0.021-0.774,0.063c-0.229,0.042-0.386,0.072-0.47,0.089c-0.203,0-0.39-0.084-0.559-0.254
		c-0.424,0.169-0.863,0.55-1.32,1.143c-0.457,0.593-0.881,1.282-1.27,2.069c-0.39,0.787-0.711,1.625-0.965,2.514
		s-0.381,1.705-0.381,2.45c0,0.778,0.135,1.443,0.406,1.993c0.271,0.551,0.609,0.994,1.016,1.333s0.838,0.589,1.295,0.749
		C90.41,81.198,90.833,81.278,91.223,81.278z"/>
	<path fill="#FFFFFF" d="M111.865,79.12c0,0.237,0.029,0.482,0.089,0.736s0.131,0.495,0.216,0.724
		c0.084,0.229,0.169,0.436,0.254,0.622c0.084,0.187,0.152,0.33,0.203,0.432s0.076,0.22,0.076,0.355c0,0.271-0.119,0.474-0.355,0.609
		c-0.068,0.034-0.127,0.06-0.178,0.076s-0.11,0.025-0.178,0.025c-0.271,0-0.475-0.127-0.609-0.381
		c-0.018-0.017-0.076-0.123-0.178-0.317s-0.207-0.444-0.317-0.749s-0.212-0.644-0.305-1.016s-0.14-0.745-0.14-1.117
		c0-0.085-0.004-0.182-0.013-0.292c-0.009-0.109-0.021-0.232-0.038-0.368c-0.018-0.237-0.034-0.495-0.051-0.774
		c-0.018-0.279-0.025-0.613-0.025-1.003c0-0.254-0.018-0.521-0.051-0.8c-0.034-0.279-0.068-0.588-0.102-0.927
		c-0.051-0.423-0.098-0.876-0.14-1.358s-0.063-0.994-0.063-1.536c0-0.338-0.072-0.707-0.216-1.104
		c-0.144-0.397-0.352-0.766-0.622-1.104c-0.271-0.338-0.605-0.618-1.003-0.838c-0.397-0.22-0.859-0.33-1.384-0.33
		c-0.66,0-1.248,0.123-1.765,0.368c-0.517,0.246-0.961,0.555-1.333,0.927c-0.373,0.373-0.689,0.774-0.952,1.206
		s-0.47,0.838-0.622,1.219s-0.267,0.707-0.343,0.978c-0.076,0.271-0.114,0.423-0.114,0.457c-0.051,0.152-0.119,0.271-0.203,0.355
		v0.457c0,0.406,0.059,0.872,0.178,1.396c0.118,0.524,0.254,1.083,0.406,1.676c0.186,0.762,0.368,1.558,0.546,2.387
		s0.267,1.676,0.267,2.539c0,0.203-0.068,0.372-0.203,0.508c-0.136,0.136-0.305,0.203-0.508,0.203c-0.187,0-0.352-0.067-0.495-0.203
		s-0.216-0.305-0.216-0.508c0-0.778-0.08-1.558-0.241-2.336s-0.335-1.523-0.521-2.234c-0.17-0.626-0.317-1.231-0.444-1.815
		s-0.19-1.121-0.19-1.612s-0.034-1.108-0.102-1.854c-0.068-0.745-0.148-1.468-0.241-2.171c-0.093-0.702-0.178-1.312-0.254-1.828
		c-0.076-0.516-0.114-0.791-0.114-0.825c0-0.169,0.059-0.321,0.178-0.457c0.118-0.135,0.296-0.22,0.533-0.254
		c0.186,0,0.343,0.055,0.47,0.165c0.127,0.11,0.207,0.258,0.241,0.444c0,0.034,0.017,0.14,0.051,0.317
		c0.033,0.178,0.067,0.415,0.102,0.711c0.033,0.296,0.076,0.631,0.127,1.003c0.051,0.373,0.102,0.762,0.152,1.168
		c0.254-0.474,0.555-0.939,0.901-1.396s0.753-0.863,1.219-1.219s0.985-0.643,1.562-0.863c0.575-0.22,1.219-0.33,1.93-0.33
		c0.693,0,1.324,0.14,1.892,0.419s1.054,0.647,1.46,1.104s0.724,0.974,0.952,1.549c0.229,0.576,0.343,1.151,0.343,1.727
		c0,0.508,0.021,0.99,0.063,1.447s0.089,0.88,0.14,1.27c0.033,0.339,0.067,0.669,0.102,0.99c0.033,0.321,0.051,0.626,0.051,0.914
		c0,0.677,0.025,1.219,0.076,1.625c0.017,0.152,0.029,0.292,0.038,0.419S111.865,78.984,111.865,79.12z"/>
	<path fill="#FFFFFF" d="M123.291,68.913c0.152,0.034,0.279,0.127,0.381,0.279s0.144,0.347,0.127,0.584
		c-0.085,0.355-0.373,0.533-0.863,0.533c0-0.017-0.313-0.076-0.939-0.178c-0.627-0.102-1.465-0.161-2.514-0.178
		c0.051,0.965,0.076,1.761,0.076,2.387c0,0.322,0.021,0.779,0.063,1.371c0.042,0.593,0.093,1.24,0.152,1.942
		c0.06,0.703,0.122,1.422,0.19,2.158c0.067,0.736,0.135,1.405,0.203,2.006c0.067,0.602,0.123,1.101,0.165,1.498
		c0.042,0.398,0.063,0.605,0.063,0.622c0,0.187-0.063,0.343-0.19,0.47s-0.301,0.207-0.521,0.241c-0.187,0-0.348-0.06-0.482-0.178
		c-0.136-0.118-0.212-0.271-0.229-0.457c0-0.051-0.025-0.279-0.076-0.686s-0.105-0.909-0.165-1.511
		c-0.06-0.601-0.123-1.266-0.19-1.993c-0.068-0.728-0.131-1.442-0.19-2.146c-0.06-0.702-0.11-1.35-0.152-1.942
		c-0.042-0.592-0.063-1.058-0.063-1.396c0-0.643-0.025-1.422-0.076-2.336c-0.44,0.034-0.872,0.076-1.295,0.127
		c-0.424,0.051-0.8,0.098-1.13,0.14c-0.33,0.042-0.601,0.081-0.812,0.114c-0.212,0.034-0.335,0.051-0.368,0.051
		c-0.17,0-0.322-0.059-0.457-0.178c-0.136-0.118-0.221-0.296-0.254-0.533c0-0.169,0.055-0.317,0.165-0.444s0.258-0.207,0.444-0.241
		c0.017,0,0.131-0.021,0.343-0.063c0.212-0.042,0.482-0.084,0.812-0.127c0.33-0.042,0.706-0.084,1.13-0.127
		c0.423-0.042,0.863-0.08,1.32-0.114c-0.034-0.474-0.072-0.943-0.114-1.409c-0.042-0.465-0.085-0.914-0.127-1.346
		s-0.089-0.833-0.14-1.206c-0.051-0.372-0.102-0.694-0.152-0.965c0-0.169,0.059-0.321,0.178-0.457
		c0.118-0.135,0.296-0.22,0.533-0.254c0.169,0,0.317,0.051,0.444,0.152s0.207,0.246,0.241,0.432c0.118,0.525,0.229,1.244,0.33,2.158
		s0.194,1.854,0.279,2.818c0.575,0,1.096,0.017,1.562,0.051c0.466,0.034,0.863,0.076,1.193,0.127s0.593,0.098,0.787,0.14
		C123.168,68.892,123.273,68.913,123.291,68.913z"/>
	<path fill="#FFFFFF" d="M132.939,67.669c0.372,0,0.686,0.03,0.939,0.089c0.254,0.06,0.461,0.127,0.622,0.203
		s0.288,0.157,0.381,0.241c0.093,0.085,0.156,0.152,0.19,0.203c0.084,0.119,0.127,0.246,0.127,0.381
		c0,0.271-0.102,0.466-0.305,0.584c-0.102,0.085-0.237,0.127-0.406,0.127c-0.203,0-0.381-0.076-0.533-0.229
		c-0.034-0.017-0.123-0.051-0.267-0.102s-0.394-0.076-0.749-0.076c-0.203,0-0.567,0.127-1.092,0.381
		c-0.525,0.254-1.059,0.669-1.6,1.244c-0.542,0.576-1.028,1.325-1.46,2.247c-0.432,0.923-0.647,2.053-0.647,3.39
		c0.051,0.22,0.102,0.444,0.152,0.673s0.109,0.461,0.178,0.698c0.186,0.762,0.372,1.558,0.559,2.387
		c0.186,0.829,0.279,1.676,0.279,2.539c0,0.203-0.072,0.372-0.216,0.508s-0.31,0.203-0.495,0.203c-0.203,0-0.373-0.067-0.508-0.203
		c-0.136-0.136-0.203-0.305-0.203-0.508c0-0.778-0.085-1.558-0.254-2.336c-0.17-0.778-0.348-1.523-0.533-2.234
		c-0.17-0.626-0.317-1.231-0.444-1.815s-0.19-1.121-0.19-1.612s-0.034-1.108-0.102-1.854c-0.068-0.745-0.148-1.468-0.241-2.171
		c-0.093-0.702-0.174-1.312-0.241-1.828c-0.068-0.516-0.102-0.791-0.102-0.825c0-0.169,0.059-0.321,0.178-0.457
		c0.118-0.135,0.296-0.22,0.533-0.254c0.169,0,0.317,0.055,0.444,0.165c0.127,0.11,0.207,0.258,0.241,0.444
		c0,0.034,0.021,0.174,0.063,0.419c0.042,0.246,0.089,0.555,0.14,0.927c0.051,0.373,0.105,0.796,0.165,1.27
		c0.06,0.474,0.114,0.955,0.165,1.441c0.338-0.707,0.74-1.327,1.206-1.86s0.943-0.978,1.435-1.333c0.49-0.355,0.965-0.622,1.422-0.8
		S132.617,67.669,132.939,67.669z"/>
	<path fill="#FFFFFF" d="M138.018,66.983c-0.288,0-0.529-0.097-0.724-0.292c-0.194-0.194-0.292-0.436-0.292-0.724
		c0-0.288,0.098-0.524,0.292-0.711c0.194-0.186,0.436-0.279,0.724-0.279c0.271,0,0.504,0.093,0.698,0.279
		c0.194,0.187,0.292,0.423,0.292,0.711c0,0.288-0.098,0.529-0.292,0.724C138.521,66.886,138.288,66.983,138.018,66.983z
		 M138.348,68.05c0.186,0,0.343,0.055,0.47,0.165c0.127,0.11,0.207,0.25,0.241,0.419c0,0.051,0.038,0.313,0.114,0.787
		c0.076,0.474,0.165,1.05,0.267,1.727c0.102,0.677,0.199,1.401,0.292,2.171c0.093,0.771,0.156,1.46,0.19,2.069
		c0.033,0.593,0.093,1.286,0.178,2.082c0.084,0.796,0.178,1.554,0.279,2.272c0.102,0.72,0.19,1.338,0.267,1.854
		c0.076,0.517,0.114,0.791,0.114,0.825c0,0.187-0.06,0.343-0.178,0.47c-0.119,0.127-0.297,0.207-0.533,0.241
		c-0.187,0-0.343-0.056-0.47-0.165c-0.127-0.11-0.208-0.258-0.241-0.444c0-0.051-0.038-0.33-0.114-0.838s-0.165-1.121-0.267-1.841
		c-0.102-0.719-0.195-1.477-0.279-2.272c-0.085-0.796-0.145-1.498-0.178-2.107c-0.034-0.593-0.098-1.27-0.19-2.031
		s-0.187-1.481-0.279-2.158c-0.093-0.677-0.178-1.257-0.254-1.739s-0.114-0.74-0.114-0.774c0-0.169,0.051-0.321,0.152-0.457
		c0.102-0.135,0.245-0.22,0.432-0.254H138.348z"/>
	<path fill="#FFFFFF" d="M150.357,67.72c1.692,0.508,2.945,1.469,3.758,2.882c0.812,1.414,1.219,3.348,1.219,5.802
		c0,2.149-0.736,3.767-2.209,4.85c-0.644,0.491-1.35,0.829-2.12,1.016s-1.503,0.279-2.196,0.279c-0.66,0-1.219-0.067-1.676-0.203
		c-0.102-0.034-0.203-0.072-0.305-0.114c-0.102-0.043-0.195-0.08-0.279-0.114c0,0.372-0.237,0.601-0.711,0.686
		c-0.17,0-0.317-0.056-0.444-0.165c-0.127-0.11-0.208-0.258-0.241-0.444c-0.018-0.034-0.047-0.187-0.089-0.457
		s-0.098-0.626-0.165-1.066c-0.203-0.271-0.352-0.508-0.444-0.711s-0.148-0.313-0.165-0.33c-0.018-0.051-0.029-0.097-0.038-0.14
		c-0.009-0.042-0.013-0.089-0.013-0.14c0-0.203,0.076-0.372,0.229-0.508c-0.068-0.372-0.11-0.804-0.127-1.295
		c-0.018-0.491-0.051-1.058-0.102-1.701c-0.085-0.965-0.174-1.9-0.267-2.806c-0.093-0.905-0.14-1.68-0.14-2.323
		c0-0.812-0.025-1.676-0.076-2.59s-0.105-1.765-0.165-2.552s-0.114-1.443-0.165-1.968c-0.051-0.524-0.076-0.804-0.076-0.838
		c0-0.186,0.063-0.343,0.19-0.47s0.3-0.207,0.521-0.241c0.186,0,0.347,0.063,0.482,0.19c0.135,0.127,0.211,0.284,0.229,0.47
		c0,0.051,0.025,0.339,0.076,0.863c0.051,0.525,0.105,1.177,0.165,1.955c0.06,0.779,0.114,1.629,0.165,2.552
		c0.051,0.923,0.076,1.799,0.076,2.628v0.406c0.271-0.559,0.584-1.07,0.939-1.536c0.355-0.465,0.753-0.859,1.193-1.181
		c0.693-0.524,1.422-0.787,2.184-0.787c0.135,0,0.267,0.009,0.394,0.025C150.091,67.661,150.222,67.686,150.357,67.72z
		 M152.287,80.11c1.083-0.829,1.625-2.065,1.625-3.707c0-1.354-0.123-2.471-0.368-3.352c-0.245-0.88-0.559-1.591-0.939-2.133
		c-0.381-0.542-0.804-0.948-1.27-1.219c-0.466-0.271-0.927-0.474-1.384-0.609c-0.068-0.034-0.136-0.051-0.203-0.051
		c-0.068,0-0.136,0-0.203,0c-0.237,0-0.47,0.051-0.698,0.152s-0.428,0.22-0.597,0.355c-0.305,0.237-0.613,0.55-0.927,0.939
		c-0.313,0.39-0.593,0.851-0.838,1.384s-0.444,1.126-0.597,1.777c-0.152,0.652-0.229,1.35-0.229,2.095
		c0.084,0.711,0.178,1.405,0.279,2.082s0.203,1.312,0.305,1.904c0.186,0.136,0.279,0.355,0.279,0.66
		c0.135,0.136,0.287,0.254,0.457,0.355c0.169,0.102,0.355,0.178,0.559,0.229c0.305,0.102,0.728,0.152,1.27,0.152
		c0.541,0,1.125-0.071,1.752-0.216C151.187,80.767,151.762,80.5,152.287,80.11z"/>
	<path fill="#FFFFFF" d="M169.629,75.921c0.372,0.085,0.559,0.364,0.559,0.838c-0.085,0.339-0.199,0.724-0.343,1.155
		s-0.335,0.867-0.571,1.308c0.102,0.812,0.194,1.515,0.279,2.107c0.084,0.593,0.135,0.923,0.152,0.99c0,0.187-0.06,0.343-0.178,0.47
		c-0.119,0.127-0.297,0.207-0.533,0.241c-0.187,0-0.343-0.056-0.47-0.165c-0.127-0.11-0.208-0.258-0.241-0.444
		c0-0.034-0.021-0.183-0.063-0.444s-0.089-0.597-0.14-1.003c-0.525,0.593-1.151,1.083-1.879,1.473
		c-0.729,0.39-1.574,0.584-2.539,0.584c-0.694,0-1.329-0.14-1.904-0.419c-0.576-0.279-1.066-0.647-1.473-1.104
		s-0.72-0.969-0.939-1.536c-0.221-0.566-0.33-1.146-0.33-1.739c0-0.508-0.021-0.99-0.063-1.447s-0.089-0.88-0.14-1.27
		c-0.034-0.339-0.068-0.664-0.102-0.978c-0.034-0.312-0.051-0.622-0.051-0.927c0-0.338-0.009-0.643-0.025-0.914
		c-0.018-0.271-0.043-0.508-0.076-0.711c-0.018-0.152-0.029-0.292-0.038-0.419s-0.013-0.258-0.013-0.394
		c0-0.237-0.029-0.482-0.089-0.736s-0.127-0.495-0.203-0.724s-0.157-0.436-0.241-0.622c-0.085-0.186-0.152-0.33-0.203-0.432
		c-0.068-0.084-0.102-0.194-0.102-0.33c0-0.288,0.127-0.499,0.381-0.635c0.102-0.051,0.211-0.076,0.33-0.076
		c0.287,0,0.499,0.119,0.635,0.355c0,0.017,0.051,0.123,0.152,0.317c0.102,0.195,0.207,0.444,0.317,0.749s0.212,0.644,0.305,1.016
		c0.093,0.373,0.14,0.745,0.14,1.117c0,0.085,0.004,0.187,0.013,0.305c0.009,0.119,0.021,0.246,0.038,0.381
		c0.033,0.22,0.059,0.47,0.076,0.749c0.017,0.279,0.025,0.614,0.025,1.003c0,0.254,0.017,0.521,0.051,0.8
		c0.033,0.279,0.067,0.588,0.102,0.927c0.033,0.44,0.076,0.897,0.127,1.371s0.076,0.981,0.076,1.523
		c0,0.355,0.072,0.728,0.216,1.117s0.351,0.753,0.622,1.092c0.271,0.339,0.605,0.618,1.003,0.838s0.858,0.33,1.384,0.33
		c0.524,0,0.998-0.076,1.422-0.229c0.423-0.152,0.804-0.355,1.143-0.609c0.338-0.254,0.639-0.537,0.901-0.851
		c0.263-0.312,0.486-0.639,0.673-0.978c-0.085-0.626-0.156-1.253-0.216-1.879s-0.106-1.193-0.14-1.701
		c-0.034-0.593-0.098-1.27-0.19-2.031s-0.187-1.481-0.279-2.158c-0.093-0.677-0.178-1.257-0.254-1.739s-0.114-0.74-0.114-0.774
		c0-0.169,0.059-0.321,0.178-0.457c0.118-0.135,0.296-0.22,0.533-0.254c0.169,0,0.317,0.055,0.444,0.165
		c0.127,0.11,0.207,0.25,0.241,0.419c0,0.051,0.038,0.313,0.114,0.787c0.076,0.474,0.165,1.05,0.267,1.727
		c0.102,0.677,0.199,1.401,0.292,2.171c0.093,0.771,0.156,1.46,0.19,2.069c0,0.136,0.004,0.275,0.013,0.419
		c0.009,0.145,0.021,0.301,0.038,0.47c0.084-0.085,0.178-0.152,0.279-0.203S169.442,75.904,169.629,75.921z"/>
	<path fill="#FFFFFF" d="M181.029,68.913c0.152,0.034,0.279,0.127,0.381,0.279s0.144,0.347,0.127,0.584
		c-0.085,0.355-0.373,0.533-0.863,0.533c0-0.017-0.313-0.076-0.939-0.178c-0.627-0.102-1.465-0.161-2.514-0.178
		c0.051,0.965,0.076,1.761,0.076,2.387c0,0.322,0.021,0.779,0.063,1.371c0.042,0.593,0.093,1.24,0.152,1.942
		c0.06,0.703,0.122,1.422,0.19,2.158c0.067,0.736,0.135,1.405,0.203,2.006c0.067,0.602,0.123,1.101,0.165,1.498
		c0.042,0.398,0.063,0.605,0.063,0.622c0,0.187-0.063,0.343-0.19,0.47s-0.301,0.207-0.521,0.241c-0.187,0-0.348-0.06-0.482-0.178
		c-0.136-0.118-0.212-0.271-0.229-0.457c0-0.051-0.025-0.279-0.076-0.686s-0.105-0.909-0.165-1.511
		c-0.06-0.601-0.123-1.266-0.19-1.993c-0.068-0.728-0.131-1.442-0.19-2.146c-0.06-0.702-0.11-1.35-0.152-1.942
		c-0.042-0.592-0.063-1.058-0.063-1.396c0-0.643-0.025-1.422-0.076-2.336c-0.44,0.034-0.872,0.076-1.295,0.127
		c-0.424,0.051-0.8,0.098-1.13,0.14c-0.33,0.042-0.601,0.081-0.812,0.114c-0.212,0.034-0.335,0.051-0.368,0.051
		c-0.17,0-0.322-0.059-0.457-0.178c-0.136-0.118-0.221-0.296-0.254-0.533c0-0.169,0.055-0.317,0.165-0.444s0.258-0.207,0.444-0.241
		c0.017,0,0.131-0.021,0.343-0.063c0.212-0.042,0.482-0.084,0.812-0.127c0.33-0.042,0.706-0.084,1.13-0.127
		c0.423-0.042,0.863-0.08,1.32-0.114c-0.034-0.474-0.072-0.943-0.114-1.409c-0.042-0.465-0.085-0.914-0.127-1.346
		s-0.089-0.833-0.14-1.206c-0.051-0.372-0.102-0.694-0.152-0.965c0-0.169,0.059-0.321,0.178-0.457
		c0.118-0.135,0.296-0.22,0.533-0.254c0.169,0,0.317,0.051,0.444,0.152s0.207,0.246,0.241,0.432c0.118,0.525,0.229,1.244,0.33,2.158
		s0.194,1.854,0.279,2.818c0.575,0,1.096,0.017,1.562,0.051c0.466,0.034,0.863,0.076,1.193,0.127s0.593,0.098,0.787,0.14
		C180.906,68.892,181.012,68.913,181.029,68.913z"/>
	<path fill="#FFFFFF" d="M193.674,80.999c0.186,0,0.343,0.06,0.47,0.178s0.207,0.296,0.241,0.533c0,0.187-0.055,0.343-0.165,0.47
		s-0.259,0.207-0.444,0.241c-0.034,0-0.187,0.021-0.457,0.063c-0.271,0.042-0.593,0.089-0.965,0.14
		c-0.373,0.051-0.762,0.093-1.168,0.127s-0.754,0.051-1.041,0.051c-2.252,0-3.979-0.597-5.18-1.79
		c-1.202-1.193-1.862-2.873-1.98-5.04c-0.034-1.101,0.063-2.065,0.292-2.895c0.229-0.829,0.533-1.54,0.914-2.133
		c0.381-0.592,0.808-1.083,1.282-1.473c0.474-0.389,0.936-0.694,1.384-0.914c0.448-0.22,0.854-0.376,1.219-0.47
		c0.364-0.093,0.63-0.14,0.8-0.14c0.439,0,0.91,0.11,1.409,0.33c0.499,0.22,0.965,0.555,1.396,1.003
		c0.432,0.449,0.8,1.02,1.104,1.714c0.305,0.694,0.49,1.515,0.559,2.463c0.102,0.136,0.152,0.288,0.152,0.457
		s-0.051,0.313-0.152,0.432c-0.085,0.339-0.313,0.508-0.686,0.508c-0.17,0-0.313-0.051-0.432-0.152
		c-0.457,0.102-0.932,0.245-1.422,0.432c-0.44,0.152-0.872,0.288-1.295,0.406c-0.424,0.118-0.805,0.178-1.143,0.178
		c-0.187,0-0.436,0.025-0.749,0.076s-0.656,0.118-1.028,0.203c-0.373,0.085-0.749,0.174-1.13,0.267
		c-0.381,0.094-0.724,0.182-1.028,0.267c0.067,1.05,0.309,1.892,0.724,2.526s0.905,1.126,1.473,1.473
		c0.567,0.348,1.168,0.576,1.803,0.686c0.635,0.11,1.206,0.165,1.714,0.165c0.271,0,0.601-0.017,0.99-0.051
		c0.389-0.034,0.762-0.076,1.117-0.127s0.668-0.093,0.939-0.127l0.381-0.051L193.674,80.999z M188.875,69.37
		c-0.152,0-0.453,0.081-0.901,0.241c-0.448,0.161-0.914,0.449-1.396,0.863c-0.482,0.415-0.931,0.99-1.346,1.727
		s-0.673,1.68-0.774,2.831c0.287-0.067,0.613-0.144,0.978-0.229s0.728-0.165,1.092-0.241s0.711-0.14,1.041-0.19
		s0.597-0.076,0.8-0.076c0.236,0,0.537-0.055,0.901-0.165c0.364-0.109,0.724-0.224,1.079-0.343c0.287-0.102,0.559-0.19,0.812-0.267
		s0.499-0.148,0.736-0.216c-0.068-0.677-0.212-1.261-0.432-1.752c-0.221-0.491-0.475-0.897-0.762-1.219
		c-0.288-0.321-0.593-0.562-0.914-0.724C189.467,69.451,189.162,69.37,188.875,69.37z"/>
</g>
</svg>
