<?xml version="1.0" encoding="utf-8"?>
<!-- Generator: Adobe Illustrator 16.0.0, SVG Export Plug-In . SVG Version: 6.00 Build 0)  -->
<!DOCTYPE svg PUBLIC "-//W3C//DTD SVG 1.1//EN" "http://www.w3.org/Graphics/SVG/1.1/DTD/svg11.dtd">
<svg version="1.1" id="Layer_1" xmlns="http://www.w3.org/2000/svg" xmlns:xlink="http://www.w3.org/1999/xlink" x="0px" y="0px"
	 width="2906.071px" height="612px" viewBox="0 0 2906.071 612" enable-background="new 0 0 2906.071 612" xml:space="preserve">
<g>
	<path fill-rule="evenodd" clip-rule="evenodd" fill="#0F7433" d="M343.97,129.31c-6.52,3.91-9.07,9.44-8.17,17.12
		c0.55,4.69-0.2,9.17-3.62,13.48c-2.66,3.34-1.93,8.8-5.34,12.51c-2.17,2.36-4.36,4.19-7.47,4.41c-3.51,0.24-6.57,1.64-9.09,3.75
		c-3.61,3.02-7.22,5.76-11.95,6.8c-1.63,0.35-2.94,1.51-3.41,3.33c-1.15,4.44-4.5,7.74-6.14,11.94c-0.76,1.96-2.38,2.65-4.46,2.28
		c-3.68-0.65-9.8-6.77-10.22-10.56c-0.28-2.57-1.15-4.75-2.59-6.89c-2.56-3.8-2.36-7.32,1.2-10.67c5.69-5.33,5.63-6.4-0.13-11.06
		c-2.12-1.71-3.06-3.93-3.45-6.43c-1.41-9.26-5.45-12.66-15.14-12.21c-4.33,0.2-7.56-0.67-8.53-5.53c-0.65-3.22-0.11-5.74,3.42-6.59
		c3.16-0.76,5.04-3.11,7.09-5.26c0.84-0.88,2.52-1.74,1.3-3.22c-0.78-0.93-2.18-0.47-3.3-0.06c-8.98,3.27-17.28,7.55-23.02,15.58
		c-1.01,1.43-2.32,2.44-3.93,2.93c-2.58,0.77-3.96,1.57-3.77,5.05c0.16,3.08-2.97,4.61-6.26,3.81c-2.99-0.72-5.87-0.25-8.87-0.05
		c-5.55,0.37-7.6,4.33-9.23,8.36c-1.79,4.43-0.56,8.94,2.31,12.62c1.82,2.33,4.4,3.79,7.27,1.03c2.74-2.64,1.09-4.67-0.78-6.83
		c-4.07-4.72-3.65-6.07,2.16-8.4c1.84-0.74,3.49-1.9,5.29-2.74c3.04-1.41,5.75-1.73,7.38,2.15c0.6,1.44,2.08,2.58,3.65,1.96
		c5.04-1.99,8.49,1.77,12.52,3.27c2.01,0.75,4.2,2.53,4.08,4.7c-0.28,5.27,3.33,7.62,6.65,10.31c3.85,3.1,3.76,4.57-0.66,7.27
		c-1.3,0.79-2.34,1.41-2.65,3.23c-1.14,6.67-6.1,8.65-11.68,4.84c-2.59-1.77-4.8-3.98-7.78-5.31c-3.01-1.35-1.64-3.19,0.46-4.28
		c3.41-1.78,6.16-4.22,4.52-8.22c-1.6-3.87-4.91-6.13-9.51-6.02c-2.93,0.08-4.91,1.01-5,4.2c-0.13,4.55-3,7.3-6.76,8.34
		c-5.51,1.53-9.23,5.14-12.88,9c-3.08,3.26-6.42,6.29-8.73,10.21c-2.77,4.68-2.35,7.51,2.01,10.66c3.63,2.63,7.32,5.33,11.33,7.27
		c3.59,1.74,5.44,4.18,5.82,7.96c0.18,1.77,0.55,3.58,2.71,3.45c2.11-0.12,2.44-1.96,2.37-3.73c-0.14-3.31,0.78-6.22,2.98-8.74
		c1.62-1.86,1.99-4.08,1.93-6.52c-0.05-2.48-0.11-5.07,0.52-7.43c0.96-3.63,1.83-7.85,6.68-8.24c4.09-0.33,9.01,3.59,10.43,7.76
		c1.71,5.01,2.77,5.45,6.08,1.9c2.6-2.79,4.33-1.61,5.97,0.73c0.86,1.21,1.75,2.61,1.95,4.02c0.7,4.86,3.63,8.09,7.38,10.78
		c2.57,1.85,3.69,4.24,2.93,7.36c-0.74,3.06-3.23,3.06-5.77,3.64c-3.5,0.8-6.68,2.61-10.39,3.17c-3.49,0.53-4.62,4.52-2.88,8.09
		c1.04,2.15,2.63,3.81,4.78,4.77c-3.04,3.29-6.28,5.56-11.21,4.82c-2.09-0.31-4.83,0.91-6,3.05c-2.58,4.7-7.37,7.06-10.79,10.86
		c-2.27,2.52-4.14,5.01-4.76,8.45c-0.61,3.38-2.48,5.95-5.47,7.96c-5.96,4.01-6.93,7.62-4.63,14.2c0.73,2.09,1.16,4.63-1.12,5.84
		c-2.56,1.37-3.3-1.36-4.36-2.89c-5.63-8.19-5.61-8.2-15.56-5.84c-2.93,0.7-6.01-0.31-8.89,0.81c-6.13,2.39-10.6,12.14-8.48,18.67
		c0.56,1.729,1.23,3.46,2.07,5.08c1.88,3.64,4.95,4.18,8.12,1.54c0.51-0.43,0.99-0.9,1.44-1.391c2.35-2.55,5-5.01,8.61-2.989
		c3.27,1.83,0.94,4.779,0.45,7.189c-0.86,4.25,0.69,6.38,5.03,6.45c2.98,0.11,4.01,1.85,3.95,4.61c-0.05,2.16,0.12,4.33,0.02,6.479
		c-0.11,2.4,1.33,3.41,3.29,3.54c2.53,0.16,4.74,0.24,6.63,2.53c1.21,1.47,2.56-0.26,3.62-1.35c7.36-7.61,10.43-8.08,19.52-3.19
		c1.15,0.62,2.39,1.6,3.74,1.06c6.8-2.739,11.18,1.33,15.19,5.631c2.77,2.97,5.61,4.84,9.83,5.01c3.64,0.149,8.65,5.71,9.1,10.06
		c0.52,4.95,2.78,7.38,7.79,7.46c3.07,0.05,5.59,1.5,8.21,3.16c4.2,2.68,9.51,2.85,13.78,5.9c4.01,2.87,5.73,6.39,3.64,10.93
		c-0.96,2.09-2.27,4.03-3.41,6.05c-2.27,4.04-4.21,7.87-3.58,13.05c0.97,7.971-5.08,16.15-12.95,18.54
		c-4.58,1.391-7.55,4.53-7.93,8.69c-0.63,6.77-5.32,11.25-7.92,16.87c-0.75,1.62-2.12,3.06-3.95,3.67c-2.55,0.85-4.49,1.75-3.71,5.2
		c0.45,2.04-1.66,2.97-3.17,4.04c-3.64,2.58-8.66,4.51-9.68,8.96c-1.46,6.38-7.33,11.819-4.34,19.199
		c0.76,1.891-0.32,3.551-1.19,5.171c-3.28,6.1-2.75,8.76,2.67,12.979c1.41,1.1,2.88,2.37,1.21,4.03c-2.25,2.229-5.64,2.63-7.78,0.8
		c-5.34-4.55-12.33-8.71-13.41-15.92c-0.85-5.66-1.59-11.66-1.24-17.58c0.18-3.15,0.46-6.36,0.08-9.46
		c-0.82-6.67-1.61-13.08,2.62-19.2c1.78-2.59,0.5-6.229,0.27-9.35c-0.57-7.69,0.79-15.271,1.11-22.9
		c0.24-5.56-2.24-10.06-6.39-12.83c-4.97-3.3-9.11-7.3-10.62-12.68c-2.3-8.19-10.59-14.33-7.96-24.24
		c0.95-3.56,1.44-6.979,4.32-9.76c3.15-3.05,3.95-10.72,2.15-14.55c-0.72-1.521-1.94-2-3.25-1.4c-5.05,2.29-8.2-0.81-11.37-3.83
		c-4.37-4.17-7.51-9.88-14.13-11.2c-8.07-4.38-17.86-5-25.01-11.479c-2.22-2.01-3.73-4.05-3.78-7.2c-0.07-4.52-4.24-7.22-5.44-11.36
		c-0.39-1.35-2.05-1.39-3.05,0.271c-1.85,3.08-2.71,3.25-5.47-0.07c-4.53-5.42-4.41-12.56-8.36-18.03
		c-2.47-3.4-4.85-6.89-7.02-10.56c-5-8.47-3.74-16.51-1.12-24.89c1.31-4.17,4.28-8.26-0.23-12.28c1.21-8.31-5.61-13.76-7.63-21.01
		c-1.48-5.29-7.51-6.97-11.95-9.63c-2.26-1.34-4.98-1.89-7.37-3.05c-3.11-1.51-5.58-0.23-8.7,0.49c-7.38,1.7-12.98,5.66-18.51,10.23
		c-0.87,0.73-2.65,0.94-3.23-0.07c-2.3-4.02-6.77-5.88-9.23-9.68c-2.75-4.25-1.98-7.19,2.86-8.89c3.37-1.18,3.81-2.75,1.89-5.48
		c-2.28-3.26-2.88-6.13,1.92-7.65c2.46-0.77,3.25-2.22,1.68-4.49c-1.13-1.62-1.29-3.16,0.58-4.25c5.44-3.16,10.73-6.94,16.97-8.08
		c5.6-1.01,10.91,2.21,16.65,2.34c6.23,0.14,12.39,1.2,18.44,3.64c4.97,2,10.53-0.46,15.5-2.01c7-2.19,13.44-0.67,19.93,1.43
		c2.78,0.9,6.12,3.4,8.22,1.43c2.14-2.02-0.67-5.16-1.62-7.76c-0.86-2.35-1.62-4.74-4.79-2.56c-2.57,1.76-5.29,2.16-7.92,0.55
		c-1.51-0.93-1.26-2.71-0.34-4.03c2.03-2.93,3.34-7.02,7.87-6.72c2.75,0.19,5.5,0.73,8.03,2.4c5.48,3.63,11.03,6.93,17.66,1.66
		c1.71-1.36,4.87-1.24,4.08,2.83c-0.13,0.65-0.52,1.56-0.24,1.93c3.23,4.18,2.35,7.9-0.46,12.02c-1.49,2.2,0.98,3.13,2.82,3.46
		c4.21,0.76,8.2-0.94,12.3-1.45c1.96-0.24,2.47-2.53,2.1-4.51c-0.15-0.79-0.53-1.62-1.04-2.24c-2.33-2.82,1.61-5.3,0.75-7.24
		c-1.58-3.57-4.26,2.54-6.73-0.07c-1.4-1.47-2.42-2.9-1.58-4.81c0.83-1.9,2.32-2.45,4.52-1.77c4.82,1.52,9.77-0.28,12.56-4.21
		c1.27-1.78,1.05-3.38-0.39-4.93c-0.98-1.04-2.68-2.03-1.19-3.7c1.45-1.63,3.07-0.61,4.5,0.28c2.64,1.66,5.47,2.38,8.58,1.96
		c2.07-0.28,4.03-1.28,2.53-3.46c-1.13-1.63,2.25-6.27-3.42-5.03c-4.34,0.94-7.2-2.08-9.45-5.26c-1.47-2.1-0.14-4.17,1.14-5.96
		c1.27-1.78,3.06-1.84,4.93-1.13c1.39,0.54,2.72,1.26,4.11,1.81c2.94,1.16,5.78,2.03,5.21-2.97c-0.2-1.77,0.63-3.12,2.19-3.49
		c11.75-2.81,23.43-6.56,35.78-3.66c1.54,0.36,2.98,0.99,3.66,2.37c1.66,3.38,3.96,3.47,6.99,1.96c1.3-0.64,3.07-1.36,4.28-0.97
		c6.49,2.11,12.66-2.19,19.07-0.71c0.55,0.12,1.31-0.23,1.84-0.56c7.86-4.99,16.74-4.87,25.55-5.03c3.73-0.07,6.63,1.5,8.81,4.71
		c2.95,4.35,7.02,6.38,12.4,5.01c1.28-0.32,2.61-0.6,3.91-0.61c1.36-0.01,2.72,0.47,3.24,1.89
		C346.14,127.56,345.16,128.59,343.97,129.31z"/>
	<path fill-rule="evenodd" clip-rule="evenodd" fill="#0F7433" d="M617.771,451.219c-0.134-6.949-1.208-13.848-0.095-20.865
		c0.83-5.23,3.844-9.091,9.18-9.289c4.272-0.158,7.005-2.138,9.563-5.335c3.309-4.135,7.12-7.866,10.701-11.784
		c0.874-0.956,2.328-1.659,3.098-0.959c3.964,3.606,5.466,0.246,7.492-2.277c2.549-3.173,6.11-3.854,9.928-3.357
		c2.989,0.389,5.092,1.733,4.427,5.266c-0.438,2.33,0.144,4.238,2.016,5.783c1.489,1.229,2.602,3.506,4.952,2.536
		c2.436-1.005,0.932-3.189,0.827-4.841c-0.289-4.554,2.527-6.67,6.221-7.912c2.614-0.879,3.91,1.133,4.04,3.169
		c0.646,10.1,6.376,18.376,11.733,25.812c5.262,7.302,4.046,13.713,3.185,21.013c-0.446,3.776-3.382,6.019-4.991,9.064
		c-4.916,9.304-12.016,15.225-23.453,13.624c-3.992-0.56-7.117-1.725-7.516-6.41c-0.078-0.915-0.596-2.445-1.15-2.563
		c-5.162-1.101-7.663-6.237-12.406-7.938c-4.101-1.471-8.044-1.856-11.953,0.516c-5.729,3.477-11.997,5.619-18.585,6.479
		c-6.223,0.813-7.313-0.444-7.215-6.732C617.784,453.218,617.771,452.218,617.771,451.219z"/>
	<path fill-rule="evenodd" clip-rule="evenodd" fill="#0F7433" d="M736.2,179.17c-5.42-1.68-10.521-4.15-15.78-6.2
		c-6.41-2.5-12.78-5.38-20.189-4.12c-9.12,1.55-18.44,3.13-26.961-2.64c-0.779-0.53-1.899-0.78-2.869-0.79
		c-8.16-0.11-15.551-3.25-23.11-5.75c-3.19-1.06-6.73-1.92-9.68,0.09c-4.891,3.34-10.271,3.27-15.78,3.49
		c-3.67,0.16-6.13-0.53-8.16-4.04c-2.93-5.07-6.05-5.6-11.14-2.98c-2.101,1.08-4.29,2.36-6.641,1.48
		c-4.51-1.69-8.949-2.19-13.63-0.74c-1.3,0.4-3.14,0.69-4.069-0.92c-0.881-1.51,0.56-2.42,1.35-3.41c1.6-2.02,2.01-4.24,0.86-6.53
		c-1.07-2.12-3.17-2.06-5.23-2.08c-4.17-0.03-8.43-0.14-11.99-2.61c-2.81-1.95-4.59-1.22-6.06,1.44c-1.15,2.07-2.9,2.84-5.21,3.31
		c-4.41,0.89-8.75,2.01-13.3,1.85c-2.471-0.08-4.57,1.23-4.98,3.4c-0.78,4.21-3.59,5.11-7.06,5.68c-1.28,0.21-2.891,0.62-3.61,1.53
		c-4.1,5.16-8.4,4.67-13.41,1.32c-3.189-2.13-6.069,0.08-8.68,1.87c-1.64,1.13-3.34,2.47-2.351,4.92c1.7,4.19-0.77,4.6-3.899,4.29
		c-3.53-0.35-6.93-0.86-8.73,3.48c-0.59,1.43-2.35,1.42-3.989,0.95c-4.99-1.41-9.261,1.29-13.891,2.33
		c-6.46,1.45-12.18,3.38-17.029,8.19c-1.53,1.52-4.471,1.79-6.131,3.87c-1.029,1.29-2.64,1.75-3.949,0.47
		c-1.33-1.31-2.19-3.12-1.29-4.98c0.89-1.85,2.83-2.16,4.71-2.23c2.43-0.09,4.479-1.07,4.62-3.59c0.14-2.45-2.41-2.59-4.051-3.63
		c-4.899-3.12-12.279-1.81-15.159-8.59c-0.521-1.25-2.261-1.09-3.61-1.24c-10.9-1.23-18.69,4.9-24.43,12.51
		c-5.61,7.42-9.621,16.02-17.041,22.1c-2.61,2.14-1.44,4.66,0.4,6.54c1.77,1.8,2.45,6.5,6.04,4.37c4.62-2.74,5.26-0.62,6.17,3.14
		c0.83,3.44,5.51,4.8,6.771,1.98c1.739-3.9,5.59-7.7,2.84-12.8c-1.42-2.64-1.021-5.35,1.36-7.22c2.729-2.14,4.43-4.91,5.96-7.88
		c0.989-1.92,2.319-3.24,4.71-2.9c1.1,0.15,1.89,0.65,2.119,1.77c0.471,2.26-0.439,3.89-2.409,4.98c-3.03,1.68-3.88,4.49-3.641,7.64
		c0.28,3.52,3.391,3.68,5.86,4.45c1.28,0.4,2.729,0.52,3.09,2.1c0.42,1.86-1,2.62-2.27,3.46c-2.801,1.87-5.95,3.92-6.431,7.29
		c-0.569,4.1-2.89,5.21-6.229,6.63c-6.75,2.85-12.78,1.94-19.14-2.49c0.57,4.01-0.91,5.78-4.16,6.76c-1.96,0.59-4.17,2.01-5.19,3.71
		c-2.79,4.63-7.96,6.16-11.75,9.45c-3.44,2.98-5.65,3.91-0.56,6.99c2.4,1.45,1.81,4.03,0.93,6.34c-0.95,2.48-2.76,1.55-4.57,1.31
		c-10.92-1.43-11.96-0.55-12.68,10.39c-0.03,0.33-0.05,0.66-0.07,1c-0.27,6.68,0.1,6.62,6.56,7.71c6.33,1.07,10.72-0.36,12.94-6.7
		c0.33-0.92,1.04-1.7,1.54-2.57c4-6.92,9.72-11.25,17.97-10.82c2.88,0.15,5.5,2.02,7.09-2.33c0.67-1.83,3.199-1,4.89-0.04
		c6.14,3.49,10.21,8.81,13.32,14.99c0.58,1.15,0.689,2.86,2.18,3.09c1.76,0.28,1.95-1.6,2.46-2.67c1.23-2.6,3.5-3.06,5.84-2.8
		c2.23,0.24,3.24,1.92,3.48,4.22c0.359,3.56,2.05,5.53,6.08,5.75c2.619,0.14,5.17,0.72,7.85,0.23c2.16-0.4,4.45-0.23,5.3,2.36
		c1.21,3.68,0.58,7.37-1.46,10.47c-1.97,2.99-4.92,4.21-8.899,4.43c-4.41,0.25-8.23-1.33-12.33-1.9
		c-4.11-0.57-8.67-3.54-12.271,1.52c-0.45,0.64-2.32,0.76-3.3,0.43c-4.08-1.37-8.18-2.78-12.06-4.62c-2.58-1.22-3.891-4-3.53-6.71
		c0.62-4.58-1.88-4.59-5.27-4.95c-9.81-1.07-18.44,5.47-28.24,4.12c-0.5-0.07-1.12,0.62-1.66,0.97c-4.62,3-7.98,6.95-9.42,12.37
		c-0.39,1.45-0.91,2.79-2.09,3.87c-7.59,7.01-13.57,14.73-11.71,26.05c0.28,1.739-0.21,3.659-0.58,5.439
		c-0.65,3.13-0.92,6.24-0.47,9.41c2.07,4.41,6.29,7.24,8.54,11.46c2.5,4.67,5.66,9.85,10.7,10.05c5,0.21,10.7,1.01,15.55-1.47
		c4.98-2.56,9.6-4.86,14.25,0.46c0.43,0.49,1.54,0.41,2.35,0.56c5.55,1.08,7.29,3.591,5.96,9.2c-0.95,3.99-0.56,7.311,2.28,10.62
		c7.18,8.351,8.19,17.88,4.129,27.93c-1.56,3.851-1.199,7.381,0.15,11.131c2.51,6.97,6.61,13.47,6.41,21.3
		c-0.03,1.22,0.75,2.56,1.43,3.67c2.03,3.34,3.48,6.78,3.45,10.79c-0.02,2.83,1.32,5,4.3,5.2c6.94,0.46,13.34-0.67,19.141-5.271
		c8.119-6.43,9.04-17,14.989-24.6c0.49-0.63,0.431-2.061,0.101-2.9c-1.95-4.93,1.06-7.3,4.359-10.189
		c8.71-7.641,9.931-7.391,7.37-18.94c-0.609-2.76-1.34-5.49-2.029-8.23c-1.421-5.6-0.28-10.369,3.96-14.539
		c7.729-7.58,15.22-15.381,17.18-26.711c0.24-1.409,1.31-3-0.23-4.149c-1.319-0.99-2.859-0.43-4.279,0.13
		c-6.92,2.75-6.92,2.75-11.21-3.46c-4.551-6.38-9.561-12.78-10.931-20.521c-0.949-5.39-6.05-8.81-5.609-14.51
		c0.04-0.51-1.051-1.19-1.71-1.66c-1.761-1.25-2.721-3.09-1.04-4.56c2.08-1.84,3,0.66,4.17,1.94c3.88,4.23,4.33,10.52,8.49,14.48
		c4.71,4.49,6.579,10.56,9.479,16.03c2.07,3.92,7.51,6.35,11.42,4.04c4.12-2.431,8.601-4.13,12.49-7.08
		c4.08-3.09,7.61-6.641,9.84-11.04c1.82-3.58-1.08-6.57-3.21-9.37c-0.52-0.69-0.72-1.58,0.15-2.19c0.8-0.56,1.63-0.149,2.319,0.29
		c2.28,1.48,4.87,3.24,7.4,1.891c5.6-2.98,8.13,0.18,11.36,4.05c4,4.79,8.199,8.68,10.289,15.35c1.75,5.561,4.28,11.54,7.391,16.99
		c3.109,5.44,4.83,6.41,9.64,2.01c2.41-2.21,2.34-5.01,2.32-7.84c-0.01-2.83-0.69-5.97,1.13-8.27c3.98-5.051,8.26-9.891,12.66-14.58
		c2.399-2.561,5.06-2.08,8.03-0.141c4.04,2.641,3.899,6.99,5.34,10.71c0.3,2.41,1.989,2.98,3.979,2.671
		c3.79-0.61,4.67,1.52,4.69,4.619c0.02,3.66,0.02,7.32,0.08,10.98c0.029,2.03,0.16,4.16,2.189,5.25c1.98,1.06,3.54,2.42,2.431,4.67
		c-1.221,2.45-3.15,0.58-4.771,0.18c-1.61-0.399-2.99-0.12-3.95,1.32c-0.699,1.06-0.939,2.41,0.061,3.21
		c5.319,4.24,7.43,10.7,11.25,15.98c3.06,4.22,7.66,6.859,10.859,10.529c4.761,5.46,11.521,4.88,16.86,8.04
		c1.42,0.851,3.73,0.12,4.74-1.76c1.05-1.95-0.03-3.43-1.4-4.84c-2.71-2.771-5.83-4.12-9.81-4.01c-4.13,0.119-8.25-0.271-7.69-6.28
		c0.12-1.311-0.819-2.54-1.88-3.4c-3.11-2.55-3.54-5.7-2.59-9.43c0.76-3.021,0.5-6.61-1.95-8.3c-5.45-3.76-5.8-9.63-7.53-14.99
		c-0.25-0.8-0.229-1.73,0.66-2.16c0.88-0.41,1.58,0.11,2.16,0.78c1.62,1.87,3.37,3.649,4.811,5.649c1.399,1.94,3.3,2.9,5.069,1.511
		c2.65-2.09,5.53-3.95,6.66-7.71c2.05-6.87-1.54-11.07-6.07-15.08c-0.17-4.26-0.02-8.03,6.11-5.51c1.43,0.59,3.13-0.221,3.55-1.931
		c0.53-2.16,1.99-2.67,3.87-3.25c7.69-2.359,12.04-8.47,14.43-15.41c1.82-5.29,1.091-11.07-3.479-15.59
		c-1.4-1.38-2.19-3.75-1.33-5.6c1.59-3.39,0.13-5-2.74-6.04c-1.99-0.72-2.649-1.85-1.79-3.8c0.9-2.02,2.23-2.77,4.37-1.65
		c1.311,0.68,2.66,1.21,4.23,1.34c3.92,0.32,9.199,5.59,9.55,9.48c0.16,1.83,0.49,3.43,2.609,3.58c2.5,0.17,2.91-1.87,3.221-3.67
		c0.3-1.73-0.5-3.22-1.54-4.59c-4.61-6.04-3.71-10.96,2.78-14.74c6.939-4.04,11.699-9.64,13.21-17.72
		c0.199-1.12,0.619-2.32,1.29-3.21c3.409-4.51,2.39-7.59-2.721-9.43c-3.51-1.26-6.34-4.11-10.3-4.58c-1.02-0.12-1.32-1.36-1.31-2.44
		c0.02-7.2,9.199-14.67,16.33-13.35c2.119,0.39,4.31,0.4,6.399,0.87c4.521,1,7.76-0.26,9.74-4.62c0.93-2.07,2.84-3.31,4.97-3.93
		c2.59-0.75,5.09,0.13,6.84,1.91c1.37,1.39,0.271,3.23-0.979,4.4c-6,5.62-6.351,11.92-2.75,18.96c0.859,1.69,1.38,3.62,3.569,3.58
		c2.021-0.03,4.171-0.75,5.021-2.75c1.72-4.09,3.79-8.08,2.15-12.91c-2.011-5.91,0.18-9.19,6.34-8.96c4.47,0.17,7.6-1.85,10.8-4.24
		c1.31-0.98,2.31-2.48,4.11-2.66c4.369-0.42,5.939-2.03,2.84-6.03c-1.101-1.42-1.101-3.22,0.13-4.62c1.29-1.49,2.95-1.2,4.59-0.47
		c1.52,0.67,3.03,1.54,4.63,1.83c2.51,0.46,5.33,0.55,6.13-2.63C740.73,181.24,738.6,179.92,736.2,179.17z M491.52,306.9
		c-0.67,1.199-1.909,1.1-3.039,1.189c-2.7,0.061-10.721-6.63-11.28-9.42c-0.16-0.82-0.271-1.83,0.56-2.2
		c0.65-0.29,1.79-0.31,2.311,0.07c3.68,2.73,6.83,6.16,11.06,8.17C491.91,305.08,491.97,306.1,491.52,306.9z"/>
	<path fill-rule="evenodd" clip-rule="evenodd" fill="#0F7433" d="M700.792,392.011c-0.394,1.09,0.789,2.752-1.08,2.925
		c-1.777,0.165-3.994,0.427-5.067-1.3c-2.212-3.556-4.151-3.267-7.089-0.677c-2.942,2.593-9.683,0.19-12.101-4.557
		c-2.447-4.806-5.526-7.78-11.126-8.708c-3.791-0.628-4.858-4.312-4.182-7.928c0.562-2.994,4.992-4.046,6.584-1.306
		c2.357,4.059,5.247,3.517,8.875,2.799c10.196-2.02,21.964,7.656,24.602,15.45C700.575,389.793,700.618,390.986,700.792,392.011z"/>
	<path fill-rule="evenodd" clip-rule="evenodd" fill="#0F7433" d="M634.119,358.114c1.918,7.827-3.075,13.673-5.481,20.25
		c-0.205,0.561-0.809,1.067-1.35,1.398c-3.03,1.854-12.646-0.65-14.588-3.736c-0.97-1.542-2.096-2.994-2.962-4.59
		c-1.258-2.319-1.287-5.16,1.295-5.978c6.54-2.071,10.333-7.463,15.306-11.428c1.575-1.257,2.98-3.728,5.489-2.455
		C634.451,352.905,633.861,355.865,634.119,358.114z"/>
	<path fill-rule="evenodd" clip-rule="evenodd" fill="#0F7433" d="M483.084,410.243c0.706,7.937-4.561,14.318-5.805,21.83
		c-0.418,2.524-3.829,5.3-7.359,4.739c-3.632-0.575-3.599-4.146-3.657-6.787c-0.109-4.944,0.37-9.904,0.649-14.854
		c0.095-1.676,1.438-2.479,2.555-3.48c2.327-2.085,5.148-3.727,6.652-6.591c1.016-1.934,2.163-3.479,4.575-2.779
		c2.177,0.631,2.327,2.57,2.379,4.444C483.104,407.924,483.079,409.085,483.084,410.243z"/>
	<path fill-rule="evenodd" clip-rule="evenodd" fill="#0F7433" d="M727.278,494.069c-2.632,0.014-4.545,0.045-5.431-2.05
		c-0.913-2.16-0.073-3.811,1.628-5.243c4.995-4.207,10.29-8.137,14.795-12.821c2.769-2.88,6.586-5.503,6.708-10.275
		c0.018-0.697,0.098-1.449,0.915-1.455c3.083-0.022,5.979,0.686,8.219,2.948c2.085,2.104-0.066,3.604-0.972,5.215
		c-0.975,1.734-1.925,3.544-3.803,4.511c-7.02,3.614-11.079,10.284-16.096,15.903C731.239,493.045,729.397,494.29,727.278,494.069z"
		/>
	<path fill-rule="evenodd" clip-rule="evenodd" fill="#0F7433" d="M664.35,281.013c-2.244-0.026-4.236-0.282-5.097-2.095
		c-1.006-2.12,1.178-2.69,2.39-3.694c5.662-4.688,5.606-11.199,5.393-17.647c-0.155-4.703,1.229-6.223,5.618-5.585
		c1.634,0.237,2.938,0.813,3.253,2.524c0.274,1.493-0.559,2.75-1.873,3.181c-4.6,1.506-4.201,4.665-3.314,8.392
		c0.753,3.159,1.829,6.332,0.469,9.747C669.834,279.236,667.353,280.615,664.35,281.013z"/>
	<path fill-rule="evenodd" clip-rule="evenodd" fill="#0F7433" d="M331.351,184.687c3.889,0.49,6.305-0.064,8.623-1
		c1.848-0.746,3.493-0.922,4.933,0.768c1.309,1.536,1.843,3.605,0.941,5.09c-2,3.292-5.209,5.578-8.926,6.416
		c-3.08,0.693-6.208,0.237-8.366-2.877c-1.428-2.061-3.381-3.798-1.948-6.604C328.029,183.695,330.435,184.518,331.351,184.687z"/>
	<path fill-rule="evenodd" clip-rule="evenodd" fill="#0F7433" d="M367.678,236.086c-3.685,0.424-4.643-2.402-3.537-5.313
		c1.63-4.291,0.232-7.662-1.647-11.221c-0.813-1.54-2.262-3.498-0.004-4.747c1.983-1.097,4.39,0.021,5.033,1.861
		c1.543,4.414,4.695,7.977,6.137,12.351C374.793,232.458,371.888,235.995,367.678,236.086z"/>
	<path fill-rule="evenodd" clip-rule="evenodd" fill="#0F7433" d="M260.659,247.481c-2.051-1.799-7.129,1.386-7.581-3.687
		c-0.257-2.893,1.004-6.09,4.671-6.68c2.922-0.471,7.233,3.866,7.28,6.995C265.062,246.271,263.745,247.388,260.659,247.481z"/>
	<path fill-rule="evenodd" clip-rule="evenodd" fill="#0F7433" d="M165.702,153.992c-0.827,0-1.687,0.146-2.475-0.028
		c-1.991-0.442-4.23-1.2-3.974-3.601c0.247-2.313,2.669-3.184,4.578-2.875c2.691,0.436,5.147,0.459,7.779-0.325
		c1.922-0.572,3.703,0.311,4.197,2.463c0.485,2.114-0.999,3.003-2.758,3.367c-2.42,0.502-4.87,0.862-7.307,1.283
		C165.729,154.182,165.715,154.087,165.702,153.992z"/>
	<path fill-rule="evenodd" clip-rule="evenodd" fill="#0F7433" d="M201.807,313.317c4.217-0.576,6.298,4.408,10.03,6.552
		c0.574,0.33,0.842,1.227,0.249,1.704c-0.588,0.473-1.622,1.025-2.173,0.81c-4.384-1.719-8.723-3.561-13.014-5.5
		c-0.738-0.334-0.915-1.421-0.286-2.164C197.668,313.469,199.186,313.381,201.807,313.317z"/>
	<path fill-rule="evenodd" clip-rule="evenodd" fill="#0F7433" d="M687.637,480.013c-0.156,3.113-1.583,4.994-4.902,4.941
		c-3.363-0.053-4.06-2.355-4.016-5.063c0.044-2.716,0.833-4.979,4.201-4.904C686.179,475.058,687.741,476.764,687.637,480.013z"/>
	<path fill-rule="evenodd" clip-rule="evenodd" fill="#0F7433" d="M359.721,228.085c-0.531,2.379-0.918,4.897-4.104,4.619
		c-1.887-0.164-3.698-1.006-3.369-3.394c0.369-2.684,1.245-5.652,4.293-5.9C359.343,223.183,359.282,226.103,359.721,228.085z"/>
	<path fill-rule="evenodd" clip-rule="evenodd" fill="#0F7433" d="M223.841,324.964c-0.546,2.262-2.227,2.696-3.842,2.643
		c-1.753-0.059-3.978-0.304-3.819-2.799c0.123-1.933,1.91-2.592,3.628-2.651C221.847,322.085,223.095,323.309,223.841,324.964z"/>
	<path fill-rule="evenodd" clip-rule="evenodd" fill="#0F7433" d="M406.037,264.314c-0.203,1.561-1.426,2.168-2.415,1.355
		c-2.259-1.855-4.27-4.03-6.257-6.189c-0.506-0.55-0.652-1.59,0.172-2.206c0.746-0.558,1.934-0.435,2.238,0.17
		c1.354,2.674,3.172,4.767,5.96,5.973C405.929,263.501,405.94,264.005,406.037,264.314z"/>
</g>
<g>
	<path fill-rule="evenodd" clip-rule="evenodd" fill="#0F7433" d="M1051.854,129.31c-6.521,3.91-9.07,9.44-8.171,17.12
		c0.55,4.69-0.2,9.17-3.62,13.48c-2.66,3.34-1.93,8.8-5.34,12.51c-2.17,2.36-4.359,4.19-7.47,4.41c-3.511,0.24-6.57,1.64-9.091,3.75
		c-3.609,3.02-7.219,5.76-11.949,6.8c-1.63,0.35-2.939,1.51-3.41,3.33c-1.15,4.44-4.5,7.74-6.141,11.94
		c-0.76,1.96-2.379,2.65-4.459,2.28c-3.68-0.65-9.801-6.77-10.221-10.56c-0.279-2.57-1.149-4.75-2.59-6.89
		c-2.56-3.8-2.359-7.32,1.2-10.67c5.69-5.33,5.63-6.4-0.13-11.06c-2.12-1.71-3.061-3.93-3.45-6.43
		c-1.409-9.26-5.45-12.66-15.14-12.21c-4.33,0.2-7.561-0.67-8.53-5.53c-0.649-3.22-0.11-5.74,3.42-6.59
		c3.16-0.76,5.04-3.11,7.091-5.26c0.84-0.88,2.52-1.74,1.299-3.22c-0.779-0.93-2.18-0.47-3.299-0.06
		c-8.98,3.27-17.281,7.55-23.021,15.58c-1.011,1.43-2.32,2.44-3.931,2.93c-2.58,0.77-3.959,1.57-3.77,5.05
		c0.16,3.08-2.971,4.61-6.26,3.81c-2.99-0.72-5.87-0.25-8.87-0.05c-5.55,0.37-7.601,4.33-9.229,8.36
		c-1.791,4.43-0.561,8.94,2.31,12.62c1.819,2.33,4.399,3.79,7.271,1.03c2.739-2.64,1.09-4.67-0.781-6.83
		c-4.069-4.72-3.649-6.07,2.16-8.4c1.84-0.74,3.49-1.9,5.291-2.74c3.039-1.41,5.75-1.73,7.379,2.15c0.601,1.44,2.08,2.58,3.65,1.96
		c5.04-1.99,8.49,1.77,12.52,3.27c2.011,0.75,4.201,2.53,4.08,4.7c-0.279,5.27,3.33,7.62,6.65,10.31c3.85,3.1,3.76,4.57-0.66,7.27
		c-1.3,0.79-2.34,1.41-2.65,3.23c-1.139,6.67-6.1,8.65-11.68,4.84c-2.59-1.77-4.8-3.98-7.779-5.31c-3.01-1.35-1.641-3.19,0.459-4.28
		c3.41-1.78,6.16-4.22,4.521-8.22c-1.601-3.87-4.909-6.13-9.51-6.02c-2.931,0.08-4.91,1.01-5,4.2c-0.13,4.55-3,7.3-6.761,8.34
		c-5.51,1.53-9.229,5.14-12.879,9c-3.08,3.26-6.42,6.29-8.73,10.21c-2.77,4.68-2.35,7.51,2.01,10.66
		c3.631,2.63,7.32,5.33,11.33,7.27c3.59,1.74,5.439,4.18,5.82,7.96c0.18,1.77,0.55,3.58,2.71,3.45c2.11-0.12,2.44-1.96,2.37-3.73
		c-0.141-3.31,0.779-6.22,2.98-8.74c1.619-1.86,1.989-4.08,1.93-6.52c-0.051-2.48-0.11-5.07,0.52-7.43
		c0.96-3.63,1.83-7.85,6.68-8.24c4.09-0.33,9.01,3.59,10.43,7.76c1.711,5.01,2.771,5.45,6.08,1.9c2.601-2.79,4.33-1.61,5.971,0.73
		c0.859,1.21,1.75,2.61,1.949,4.02c0.701,4.86,3.631,8.09,7.381,10.78c2.57,1.85,3.689,4.24,2.93,7.36
		c-0.74,3.06-3.23,3.06-5.77,3.64c-3.5,0.8-6.68,2.61-10.391,3.17c-3.49,0.53-4.619,4.52-2.88,8.09c1.04,2.15,2.63,3.81,4.78,4.77
		c-3.04,3.29-6.28,5.56-11.21,4.82c-2.091-0.31-4.83,0.91-6,3.05c-2.58,4.7-7.37,7.06-10.79,10.86c-2.27,2.52-4.141,5.01-4.76,8.45
		c-0.61,3.38-2.48,5.95-5.471,7.96c-5.959,4.01-6.93,7.62-4.629,14.2c0.729,2.09,1.159,4.63-1.121,5.84
		c-2.56,1.37-3.3-1.36-4.359-2.89c-5.631-8.19-5.61-8.2-15.561-5.84c-2.93,0.7-6.01-0.31-8.89,0.81
		c-6.13,2.39-10.601,12.14-8.479,18.67c0.56,1.729,1.229,3.46,2.069,5.08c1.88,3.64,4.95,4.18,8.12,1.54
		c0.51-0.43,0.99-0.9,1.439-1.391c2.351-2.55,5-5.01,8.61-2.989c3.271,1.83,0.94,4.779,0.45,7.189
		c-0.859,4.25,0.689,6.38,5.029,6.45c2.98,0.11,4.011,1.85,3.951,4.61c-0.051,2.16,0.119,4.33,0.02,6.479
		c-0.109,2.4,1.33,3.41,3.29,3.54c2.53,0.16,4.739,0.24,6.63,2.53c1.21,1.47,2.561-0.26,3.62-1.35
		c7.36-7.61,10.431-8.08,19.521-3.19c1.149,0.62,2.39,1.6,3.739,1.06c6.8-2.739,11.181,1.33,15.19,5.631
		c2.77,2.97,5.609,4.84,9.83,5.01c3.64,0.149,8.65,5.71,9.1,10.06c0.52,4.95,2.78,7.38,7.79,7.46c3.069,0.05,5.59,1.5,8.21,3.16
		c4.2,2.68,9.51,2.85,13.78,5.9c4.01,2.87,5.729,6.39,3.64,10.93c-0.96,2.09-2.27,4.03-3.41,6.05c-2.27,4.04-4.209,7.87-3.58,13.05
		c0.971,7.971-5.08,16.15-12.949,18.54c-4.58,1.391-7.551,4.53-7.93,8.69c-0.631,6.77-5.32,11.25-7.921,16.87
		c-0.75,1.62-2.12,3.06-3.95,3.67c-2.55,0.85-4.49,1.75-3.709,5.2c0.449,2.04-1.66,2.97-3.17,4.04c-3.641,2.58-8.66,4.51-9.681,8.96
		c-1.46,6.38-7.33,11.819-4.34,19.199c0.76,1.891-0.32,3.551-1.19,5.171c-3.279,6.1-2.75,8.76,2.67,12.979
		c1.41,1.1,2.881,2.37,1.211,4.03c-2.25,2.229-5.641,2.63-7.781,0.8c-5.34-4.55-12.33-8.71-13.409-15.92
		c-0.851-5.66-1.591-11.66-1.24-17.58c0.181-3.15,0.46-6.36,0.08-9.46c-0.819-6.67-1.61-13.08,2.62-19.2
		c1.779-2.59,0.5-6.229,0.27-9.35c-0.57-7.69,0.791-15.271,1.11-22.9c0.239-5.56-2.24-10.06-6.39-12.83
		c-4.971-3.3-9.11-7.3-10.621-12.68c-2.299-8.19-10.59-14.33-7.959-24.24c0.949-3.56,1.439-6.979,4.32-9.76
		c3.149-3.05,3.949-10.72,2.149-14.55c-0.72-1.521-1.94-2-3.25-1.4c-5.05,2.29-8.2-0.81-11.37-3.83c-4.37-4.17-7.51-9.88-14.13-11.2
		c-8.069-4.38-17.86-5-25.011-11.479c-2.219-2.01-3.729-4.05-3.779-7.2c-0.07-4.52-4.24-7.22-5.439-11.36
		c-0.391-1.35-2.051-1.39-3.051,0.271c-1.85,3.08-2.71,3.25-5.47-0.07c-4.53-5.42-4.41-12.56-8.36-18.03
		c-2.47-3.4-4.85-6.89-7.02-10.56c-5-8.47-3.74-16.51-1.12-24.89c1.31-4.17,4.28-8.26-0.229-12.28
		c1.209-8.31-5.61-13.76-7.631-21.01c-1.479-5.29-7.51-6.97-11.949-9.63c-2.26-1.34-4.98-1.89-7.371-3.05
		c-3.109-1.51-5.58-0.23-8.699,0.49c-7.381,1.7-12.98,5.66-18.51,10.23c-0.871,0.73-2.65,0.94-3.23-0.07
		c-2.3-4.02-6.77-5.88-9.23-9.68c-2.75-4.25-1.979-7.19,2.86-8.89c3.37-1.18,3.81-2.75,1.89-5.48c-2.279-3.26-2.879-6.13,1.92-7.65
		c2.461-0.77,3.25-2.22,1.681-4.49c-1.13-1.62-1.29-3.16,0.58-4.25c5.44-3.16,10.729-6.94,16.97-8.08
		c5.6-1.01,10.91,2.21,16.65,2.34c6.23,0.14,12.39,1.2,18.439,3.64c4.971,2,10.53-0.46,15.5-2.01c7-2.19,13.44-0.67,19.93,1.43
		c2.781,0.9,6.121,3.4,8.221,1.43c2.141-2.02-0.67-5.16-1.62-7.76c-0.86-2.35-1.62-4.74-4.79-2.56c-2.57,1.76-5.29,2.16-7.92,0.55
		c-1.51-0.93-1.26-2.71-0.34-4.03c2.029-2.93,3.34-7.02,7.869-6.72c2.75,0.19,5.5,0.73,8.031,2.4c5.479,3.63,11.029,6.93,17.66,1.66
		c1.709-1.36,4.869-1.24,4.079,2.83c-0.13,0.65-0.521,1.56-0.239,1.93c3.229,4.18,2.35,7.9-0.461,12.02
		c-1.49,2.2,0.98,3.13,2.82,3.46c4.21,0.76,8.2-0.94,12.301-1.45c1.959-0.24,2.469-2.53,2.1-4.51c-0.15-0.79-0.53-1.62-1.041-2.24
		c-2.329-2.82,1.611-5.3,0.75-7.24c-1.579-3.57-4.26,2.54-6.729-0.07c-1.399-1.47-2.42-2.9-1.579-4.81
		c0.829-1.9,2.319-2.45,4.52-1.77c4.82,1.52,9.77-0.28,12.56-4.21c1.271-1.78,1.05-3.38-0.39-4.93c-0.98-1.04-2.68-2.03-1.189-3.7
		c1.449-1.63,3.069-0.61,4.5,0.28c2.639,1.66,5.469,2.38,8.579,1.96c2.07-0.28,4.03-1.28,2.53-3.46c-1.13-1.63,2.25-6.27-3.42-5.03
		c-4.34,0.94-7.2-2.08-9.45-5.26c-1.47-2.1-0.14-4.17,1.14-5.96c1.271-1.78,3.061-1.84,4.93-1.13c1.391,0.54,2.721,1.26,4.111,1.81
		c2.939,1.16,5.779,2.03,5.209-2.97c-0.199-1.77,0.631-3.12,2.19-3.49c11.75-2.81,23.431-6.56,35.78-3.66
		c1.539,0.36,2.979,0.99,3.66,2.37c1.66,3.38,3.959,3.47,6.99,1.96c1.299-0.64,3.069-1.36,4.279-0.97
		c6.49,2.11,12.66-2.19,19.07-0.71c0.55,0.12,1.31-0.23,1.84-0.56c7.859-4.99,16.74-4.87,25.55-5.03c3.729-0.07,6.63,1.5,8.81,4.71
		c2.951,4.35,7.021,6.38,12.4,5.01c1.28-0.32,2.609-0.6,3.91-0.61c1.359-0.01,2.72,0.47,3.24,1.89
		C1054.023,127.56,1053.043,128.59,1051.854,129.31z"/>
	<path fill-rule="evenodd" clip-rule="evenodd" fill="#0F7433" d="M1325.653,451.219c-0.134-6.949-1.208-13.848-0.095-20.865
		c0.83-5.23,3.844-9.091,9.18-9.289c4.272-0.158,7.005-2.138,9.563-5.335c3.309-4.135,7.12-7.866,10.701-11.784
		c0.874-0.956,2.328-1.659,3.098-0.959c3.964,3.606,5.466,0.246,7.492-2.277c2.549-3.173,6.11-3.854,9.928-3.357
		c2.989,0.389,5.092,1.733,4.427,5.266c-0.438,2.33,0.144,4.238,2.016,5.783c1.489,1.229,2.602,3.506,4.952,2.536
		c2.436-1.005,0.932-3.189,0.827-4.841c-0.289-4.554,2.527-6.67,6.221-7.912c2.614-0.879,3.91,1.133,4.04,3.169
		c0.646,10.1,6.376,18.376,11.733,25.812c5.262,7.302,4.046,13.713,3.185,21.013c-0.446,3.776-3.382,6.019-4.991,9.064
		c-4.916,9.304-12.016,15.225-23.453,13.624c-3.992-0.56-7.117-1.725-7.516-6.41c-0.078-0.915-0.596-2.445-1.15-2.563
		c-5.162-1.101-7.663-6.237-12.406-7.938c-4.101-1.471-8.044-1.856-11.953,0.516c-5.729,3.477-11.997,5.619-18.585,6.479
		c-6.223,0.813-7.313-0.444-7.215-6.732C1325.667,453.218,1325.653,452.218,1325.653,451.219z"/>
	<path fill-rule="evenodd" clip-rule="evenodd" fill="#0F7433" d="M1444.083,179.17c-5.42-1.68-10.521-4.15-15.78-6.2
		c-6.41-2.5-12.78-5.38-20.189-4.12c-9.12,1.55-18.44,3.13-26.961-2.64c-0.779-0.53-1.899-0.78-2.869-0.79
		c-8.16-0.11-15.551-3.25-23.11-5.75c-3.19-1.06-6.73-1.92-9.68,0.09c-4.891,3.34-10.271,3.27-15.78,3.49
		c-3.67,0.16-6.13-0.53-8.16-4.04c-2.93-5.07-6.05-5.6-11.14-2.98c-2.101,1.08-4.29,2.36-6.641,1.48
		c-4.51-1.69-8.949-2.19-13.63-0.74c-1.3,0.4-3.14,0.69-4.069-0.92c-0.881-1.51,0.56-2.42,1.35-3.41c1.6-2.02,2.01-4.24,0.86-6.53
		c-1.07-2.12-3.17-2.06-5.23-2.08c-4.17-0.03-8.43-0.14-11.99-2.61c-2.81-1.95-4.59-1.22-6.06,1.44c-1.15,2.07-2.9,2.84-5.21,3.31
		c-4.41,0.89-8.75,2.01-13.3,1.85c-2.471-0.08-4.57,1.23-4.98,3.4c-0.78,4.21-3.59,5.11-7.06,5.68c-1.28,0.21-2.891,0.62-3.61,1.53
		c-4.1,5.16-8.4,4.67-13.41,1.32c-3.189-2.13-6.069,0.08-8.68,1.87c-1.64,1.13-3.34,2.47-2.351,4.92c1.7,4.19-0.77,4.6-3.899,4.29
		c-3.53-0.35-6.93-0.86-8.73,3.48c-0.59,1.43-2.35,1.42-3.989,0.95c-4.99-1.41-9.261,1.29-13.891,2.33
		c-6.46,1.45-12.18,3.38-17.029,8.19c-1.53,1.52-4.471,1.79-6.131,3.87c-1.029,1.29-2.64,1.75-3.949,0.47
		c-1.33-1.31-2.19-3.12-1.29-4.98c0.89-1.85,2.83-2.16,4.71-2.23c2.43-0.09,4.479-1.07,4.62-3.59c0.14-2.45-2.41-2.59-4.051-3.63
		c-4.899-3.12-12.279-1.81-15.159-8.59c-0.521-1.25-2.261-1.09-3.61-1.24c-10.9-1.23-18.69,4.9-24.43,12.51
		c-5.61,7.42-9.62,16.02-17.04,22.1c-2.61,2.14-1.44,4.66,0.399,6.54c1.771,1.8,2.45,6.5,6.04,4.37c4.62-2.74,5.26-0.62,6.17,3.14
		c0.83,3.44,5.51,4.8,6.771,1.98c1.739-3.9,5.59-7.7,2.84-12.8c-1.42-2.64-1.021-5.35,1.36-7.22c2.729-2.14,4.43-4.91,5.96-7.88
		c0.989-1.92,2.319-3.24,4.71-2.9c1.1,0.15,1.89,0.65,2.119,1.77c0.471,2.26-0.439,3.89-2.409,4.98c-3.03,1.68-3.88,4.49-3.641,7.64
		c0.28,3.52,3.391,3.68,5.86,4.45c1.28,0.4,2.729,0.52,3.09,2.1c0.42,1.86-1,2.62-2.27,3.46c-2.801,1.87-5.95,3.92-6.431,7.29
		c-0.569,4.1-2.89,5.21-6.229,6.63c-6.75,2.85-12.78,1.94-19.141-2.49c0.57,4.01-0.91,5.78-4.16,6.76
		c-1.959,0.59-4.17,2.01-5.189,3.71c-2.79,4.63-7.96,6.16-11.75,9.45c-3.439,2.98-5.65,3.91-0.561,6.99
		c2.4,1.45,1.811,4.03,0.931,6.34c-0.95,2.48-2.761,1.55-4.57,1.31c-10.92-1.43-11.96-0.55-12.68,10.39c-0.03,0.33-0.05,0.66-0.07,1
		c-0.271,6.68,0.101,6.62,6.56,7.71c6.33,1.07,10.721-0.36,12.94-6.7c0.33-0.92,1.04-1.7,1.54-2.57c4-6.92,9.721-11.25,17.971-10.82
		c2.879,0.15,5.499,2.02,7.09-2.33c0.67-1.83,3.199-1,4.89-0.04c6.14,3.49,10.21,8.81,13.32,14.99c0.58,1.15,0.689,2.86,2.18,3.09
		c1.76,0.28,1.95-1.6,2.46-2.67c1.23-2.6,3.5-3.06,5.84-2.8c2.23,0.24,3.24,1.92,3.48,4.22c0.359,3.56,2.05,5.53,6.08,5.75
		c2.619,0.14,5.17,0.72,7.85,0.23c2.16-0.4,4.45-0.23,5.3,2.36c1.21,3.68,0.58,7.37-1.46,10.47c-1.97,2.99-4.92,4.21-8.899,4.43
		c-4.41,0.25-8.23-1.33-12.33-1.9c-4.11-0.57-8.67-3.54-12.271,1.52c-0.45,0.64-2.32,0.76-3.3,0.43c-4.08-1.37-8.18-2.78-12.06-4.62
		c-2.58-1.22-3.891-4-3.53-6.71c0.62-4.58-1.88-4.59-5.271-4.95c-9.81-1.07-18.439,5.47-28.24,4.12c-0.5-0.07-1.119,0.62-1.66,0.97
		c-4.619,3-7.979,6.95-9.42,12.37c-0.389,1.45-0.909,2.79-2.09,3.87c-7.59,7.01-13.569,14.73-11.709,26.05
		c0.279,1.739-0.211,3.659-0.58,5.439c-0.65,3.13-0.92,6.24-0.471,9.41c2.07,4.41,6.29,7.24,8.54,11.46
		c2.5,4.67,5.66,9.85,10.7,10.05c5,0.21,10.7,1.01,15.55-1.47c4.979-2.56,9.601-4.86,14.25,0.46c0.431,0.49,1.54,0.41,2.351,0.56
		c5.55,1.08,7.289,3.591,5.959,9.2c-0.949,3.99-0.56,7.311,2.281,10.62c7.18,8.351,8.189,17.88,4.129,27.93
		c-1.56,3.851-1.199,7.381,0.15,11.131c2.51,6.97,6.61,13.47,6.41,21.3c-0.03,1.22,0.75,2.56,1.43,3.67
		c2.03,3.34,3.48,6.78,3.45,10.79c-0.02,2.83,1.32,5,4.3,5.2c6.94,0.46,13.34-0.67,19.141-5.271c8.119-6.43,9.04-17,14.989-24.6
		c0.49-0.63,0.431-2.061,0.101-2.9c-1.95-4.93,1.06-7.3,4.359-10.189c8.71-7.641,9.931-7.391,7.37-18.94
		c-0.609-2.76-1.34-5.49-2.029-8.23c-1.421-5.6-0.28-10.369,3.96-14.539c7.729-7.58,15.22-15.381,17.18-26.711
		c0.24-1.409,1.31-3-0.23-4.149c-1.319-0.99-2.859-0.43-4.279,0.13c-6.92,2.75-6.92,2.75-11.21-3.46
		c-4.551-6.38-9.561-12.78-10.931-20.521c-0.949-5.39-6.05-8.81-5.609-14.51c0.04-0.51-1.051-1.19-1.71-1.66
		c-1.761-1.25-2.721-3.09-1.04-4.56c2.08-1.84,3,0.66,4.17,1.94c3.88,4.23,4.33,10.52,8.49,14.48c4.71,4.49,6.579,10.56,9.479,16.03
		c2.07,3.92,7.51,6.35,11.42,4.04c4.12-2.431,8.601-4.13,12.49-7.08c4.08-3.09,7.61-6.641,9.84-11.04c1.82-3.58-1.08-6.57-3.21-9.37
		c-0.52-0.69-0.72-1.58,0.15-2.19c0.8-0.56,1.63-0.149,2.319,0.29c2.28,1.48,4.87,3.24,7.4,1.891c5.6-2.98,8.13,0.18,11.36,4.05
		c4,4.79,8.199,8.68,10.289,15.35c1.75,5.561,4.28,11.54,7.391,16.99c3.109,5.44,4.83,6.41,9.64,2.01c2.41-2.21,2.34-5.01,2.32-7.84
		c-0.01-2.83-0.69-5.97,1.13-8.27c3.98-5.051,8.26-9.891,12.66-14.58c2.399-2.561,5.06-2.08,8.03-0.141
		c4.04,2.641,3.899,6.99,5.34,10.71c0.3,2.41,1.989,2.98,3.979,2.671c3.79-0.61,4.67,1.52,4.69,4.619
		c0.02,3.66,0.02,7.32,0.08,10.98c0.029,2.03,0.16,4.16,2.189,5.25c1.98,1.06,3.54,2.42,2.431,4.67
		c-1.221,2.45-3.15,0.58-4.771,0.18c-1.61-0.399-2.99-0.12-3.95,1.32c-0.699,1.06-0.939,2.41,0.061,3.21
		c5.319,4.24,7.43,10.7,11.25,15.98c3.06,4.22,7.66,6.859,10.859,10.529c4.761,5.46,11.521,4.88,16.86,8.04
		c1.42,0.851,3.73,0.12,4.74-1.76c1.05-1.95-0.03-3.43-1.4-4.84c-2.71-2.771-5.83-4.12-9.81-4.01c-4.13,0.119-8.25-0.271-7.69-6.28
		c0.12-1.311-0.819-2.54-1.88-3.4c-3.11-2.55-3.54-5.7-2.59-9.43c0.76-3.021,0.5-6.61-1.95-8.3c-5.45-3.76-5.8-9.63-7.53-14.99
		c-0.25-0.8-0.229-1.73,0.66-2.16c0.88-0.41,1.58,0.11,2.16,0.78c1.62,1.87,3.37,3.649,4.811,5.649c1.399,1.94,3.3,2.9,5.069,1.511
		c2.65-2.09,5.53-3.95,6.66-7.71c2.05-6.87-1.54-11.07-6.07-15.08c-0.17-4.26-0.02-8.03,6.11-5.51c1.43,0.59,3.13-0.221,3.55-1.931
		c0.53-2.16,1.99-2.67,3.87-3.25c7.69-2.359,12.04-8.47,14.43-15.41c1.82-5.29,1.091-11.07-3.479-15.59
		c-1.4-1.38-2.19-3.75-1.33-5.6c1.59-3.39,0.13-5-2.74-6.04c-1.99-0.72-2.649-1.85-1.79-3.8c0.9-2.02,2.23-2.77,4.37-1.65
		c1.311,0.68,2.66,1.21,4.23,1.34c3.92,0.32,9.199,5.59,9.55,9.48c0.16,1.83,0.49,3.43,2.609,3.58c2.5,0.17,2.91-1.87,3.221-3.67
		c0.3-1.73-0.5-3.22-1.54-4.59c-4.61-6.04-3.71-10.96,2.78-14.74c6.939-4.04,11.699-9.64,13.21-17.72
		c0.199-1.12,0.619-2.32,1.29-3.21c3.409-4.51,2.39-7.59-2.721-9.43c-3.51-1.26-6.34-4.11-10.3-4.58c-1.02-0.12-1.32-1.36-1.31-2.44
		c0.02-7.2,9.199-14.67,16.33-13.35c2.119,0.39,4.31,0.4,6.399,0.87c4.521,1,7.76-0.26,9.74-4.62c0.93-2.07,2.84-3.31,4.97-3.93
		c2.59-0.75,5.09,0.13,6.84,1.91c1.37,1.39,0.271,3.23-0.979,4.4c-6,5.62-6.351,11.92-2.75,18.96c0.859,1.69,1.38,3.62,3.569,3.58
		c2.021-0.03,4.171-0.75,5.021-2.75c1.72-4.09,3.79-8.08,2.15-12.91c-2.011-5.91,0.18-9.19,6.34-8.96c4.47,0.17,7.6-1.85,10.8-4.24
		c1.31-0.98,2.31-2.48,4.11-2.66c4.369-0.42,5.939-2.03,2.84-6.03c-1.101-1.42-1.101-3.22,0.13-4.62c1.29-1.49,2.95-1.2,4.59-0.47
		c1.52,0.67,3.03,1.54,4.63,1.83c2.51,0.46,5.33,0.55,6.13-2.63C1448.613,181.24,1446.482,179.92,1444.083,179.17z M1199.402,306.9
		c-0.67,1.199-1.909,1.1-3.039,1.189c-2.7,0.061-10.721-6.63-11.28-9.42c-0.16-0.82-0.271-1.83,0.56-2.2
		c0.65-0.29,1.79-0.31,2.311,0.07c3.68,2.73,6.83,6.16,11.06,8.17C1199.793,305.08,1199.853,306.1,1199.402,306.9z"/>
	<path fill-rule="evenodd" clip-rule="evenodd" fill="#0F7433" d="M1408.675,392.011c-0.394,1.09,0.789,2.752-1.08,2.925
		c-1.777,0.165-3.994,0.427-5.067-1.3c-2.212-3.556-4.151-3.267-7.089-0.677c-2.942,2.593-9.683,0.19-12.101-4.557
		c-2.447-4.806-5.526-7.78-11.126-8.708c-3.791-0.628-4.858-4.312-4.182-7.928c0.562-2.994,4.992-4.046,6.584-1.306
		c2.357,4.059,5.247,3.517,8.875,2.799c10.196-2.02,21.964,7.656,24.602,15.45C1408.458,389.793,1408.501,390.986,1408.675,392.011z
		"/>
	<path fill-rule="evenodd" clip-rule="evenodd" fill="#0F7433" d="M1342.002,358.114c1.918,7.827-3.075,13.673-5.481,20.25
		c-0.205,0.561-0.809,1.067-1.35,1.398c-3.03,1.854-12.646-0.65-14.588-3.736c-0.97-1.542-2.096-2.994-2.962-4.59
		c-1.258-2.319-1.287-5.16,1.295-5.978c6.54-2.071,10.333-7.463,15.306-11.428c1.575-1.257,2.98-3.728,5.489-2.455
		C1342.334,352.905,1341.744,355.865,1342.002,358.114z"/>
	<path fill-rule="evenodd" clip-rule="evenodd" fill="#0F7433" d="M1190.967,410.243c0.706,7.937-4.561,14.318-5.805,21.83
		c-0.418,2.524-3.829,5.3-7.359,4.739c-3.632-0.575-3.599-4.146-3.657-6.787c-0.109-4.944,0.37-9.904,0.649-14.854
		c0.095-1.676,1.438-2.479,2.555-3.48c2.327-2.085,5.148-3.727,6.652-6.591c1.016-1.934,2.163-3.479,4.575-2.779
		c2.177,0.631,2.327,2.57,2.379,4.444C1190.987,407.924,1190.962,409.085,1190.967,410.243z"/>
	<path fill-rule="evenodd" clip-rule="evenodd" fill="#0F7433" d="M1435.161,494.069c-2.632,0.014-4.545,0.045-5.431-2.05
		c-0.913-2.16-0.073-3.811,1.628-5.243c4.995-4.207,10.29-8.137,14.795-12.821c2.769-2.88,6.586-5.503,6.708-10.275
		c0.018-0.697,0.098-1.449,0.915-1.455c3.083-0.022,5.979,0.686,8.219,2.948c2.085,2.104-0.066,3.604-0.972,5.215
		c-0.975,1.734-1.925,3.544-3.803,4.511c-7.02,3.614-11.079,10.284-16.096,15.903C1439.122,493.045,1437.28,494.29,1435.161,494.069
		z"/>
	<path fill-rule="evenodd" clip-rule="evenodd" fill="#0F7433" d="M1372.232,281.013c-2.244-0.026-4.236-0.282-5.097-2.095
		c-1.006-2.12,1.178-2.69,2.39-3.694c5.662-4.688,5.606-11.199,5.393-17.647c-0.155-4.703,1.229-6.223,5.618-5.585
		c1.634,0.237,2.938,0.813,3.253,2.524c0.274,1.493-0.559,2.75-1.873,3.181c-4.6,1.506-4.201,4.665-3.314,8.392
		c0.753,3.159,1.829,6.332,0.469,9.747C1377.717,279.236,1375.235,280.615,1372.232,281.013z"/>
	<path fill-rule="evenodd" clip-rule="evenodd" fill="#0F7433" d="M1039.233,184.687c3.89,0.49,6.306-0.064,8.623-1
		c1.849-0.746,3.493-0.922,4.933,0.768c1.309,1.536,1.844,3.605,0.941,5.09c-2,3.292-5.209,5.578-8.926,6.416
		c-3.08,0.693-6.207,0.237-8.365-2.877c-1.429-2.061-3.381-3.798-1.949-6.604C1035.912,183.695,1038.317,184.518,1039.233,184.687z"
		/>
	<path fill-rule="evenodd" clip-rule="evenodd" fill="#0F7433" d="M1075.561,236.086c-3.686,0.424-4.643-2.402-3.537-5.313
		c1.63-4.291,0.232-7.662-1.647-11.221c-0.813-1.54-2.263-3.498-0.004-4.747c1.983-1.097,4.39,0.021,5.033,1.861
		c1.544,4.414,4.695,7.977,6.137,12.351C1082.676,232.458,1079.771,235.995,1075.561,236.086z"/>
	<path fill-rule="evenodd" clip-rule="evenodd" fill="#0F7433" d="M968.542,247.481c-2.051-1.799-7.129,1.386-7.581-3.687
		c-0.258-2.893,1.004-6.09,4.672-6.68c2.922-0.471,7.232,3.866,7.279,6.995C972.945,246.271,971.628,247.388,968.542,247.481z"/>
	<path fill-rule="evenodd" clip-rule="evenodd" fill="#0F7433" d="M873.585,153.992c-0.827,0-1.687,0.146-2.475-0.028
		c-1.991-0.442-4.229-1.2-3.974-3.601c0.246-2.313,2.668-3.184,4.577-2.875c2.691,0.436,5.147,0.459,7.778-0.325
		c1.923-0.572,3.703,0.311,4.197,2.463c0.485,2.114-0.998,3.003-2.758,3.367c-2.42,0.502-4.869,0.862-7.307,1.283
		C873.611,154.182,873.598,154.087,873.585,153.992z"/>
	<path fill-rule="evenodd" clip-rule="evenodd" fill="#0F7433" d="M909.689,313.317c4.217-0.576,6.298,4.408,10.029,6.552
		c0.574,0.33,0.842,1.227,0.25,1.704c-0.588,0.473-1.623,1.025-2.174,0.81c-4.383-1.719-8.723-3.561-13.014-5.5
		c-0.738-0.334-0.914-1.421-0.286-2.164C905.551,313.469,907.068,313.381,909.689,313.317z"/>
	<path fill-rule="evenodd" clip-rule="evenodd" fill="#0F7433" d="M1395.52,480.013c-0.156,3.113-1.583,4.994-4.902,4.941
		c-3.363-0.053-4.06-2.355-4.016-5.063c0.044-2.716,0.833-4.979,4.201-4.904C1394.062,475.058,1395.624,476.764,1395.52,480.013z"/>
	<path fill-rule="evenodd" clip-rule="evenodd" fill="#0F7433" d="M1067.604,228.085c-0.53,2.379-0.918,4.897-4.104,4.619
		c-1.887-0.164-3.698-1.006-3.369-3.394c0.369-2.684,1.245-5.652,4.293-5.9C1067.226,223.183,1067.165,226.103,1067.604,228.085z"/>
	<path fill-rule="evenodd" clip-rule="evenodd" fill="#0F7433" d="M931.724,324.964c-0.546,2.262-2.228,2.696-3.842,2.643
		c-1.753-0.059-3.978-0.304-3.819-2.799c0.123-1.933,1.91-2.592,3.629-2.651C929.729,322.085,930.979,323.309,931.724,324.964z"/>
	<path fill-rule="evenodd" clip-rule="evenodd" fill="#0F7433" d="M1113.92,264.314c-0.203,1.561-1.426,2.168-2.415,1.355
		c-2.259-1.855-4.27-4.03-6.257-6.189c-0.506-0.55-0.652-1.59,0.172-2.206c0.746-0.558,1.934-0.435,2.238,0.17
		c1.354,2.674,3.172,4.767,5.96,5.973C1113.812,263.501,1113.823,264.005,1113.92,264.314z"/>
</g>
<g>
	<path fill-rule="evenodd" clip-rule="evenodd" fill="#0F7433" d="M1759.737,129.31c-6.521,3.91-9.07,9.44-8.171,17.12
		c0.55,4.69-0.2,9.17-3.62,13.48c-2.66,3.34-1.93,8.8-5.34,12.51c-2.17,2.36-4.359,4.19-7.47,4.41c-3.511,0.24-6.57,1.64-9.091,3.75
		c-3.609,3.02-7.219,5.76-11.949,6.8c-1.63,0.35-2.939,1.51-3.41,3.33c-1.15,4.44-4.5,7.74-6.141,11.94
		c-0.76,1.96-2.379,2.65-4.459,2.28c-3.68-0.65-9.801-6.77-10.221-10.56c-0.279-2.57-1.149-4.75-2.59-6.89
		c-2.56-3.8-2.359-7.32,1.2-10.67c5.69-5.33,5.63-6.4-0.13-11.06c-2.12-1.71-3.061-3.93-3.45-6.43
		c-1.409-9.26-5.45-12.66-15.14-12.21c-4.33,0.2-7.561-0.67-8.53-5.53c-0.649-3.22-0.11-5.74,3.42-6.59
		c3.16-0.76,5.04-3.11,7.091-5.26c0.84-0.88,2.52-1.74,1.299-3.22c-0.779-0.93-2.18-0.47-3.299-0.06
		c-8.98,3.27-17.281,7.55-23.021,15.58c-1.011,1.43-2.32,2.44-3.931,2.93c-2.58,0.77-3.959,1.57-3.77,5.05
		c0.16,3.08-2.971,4.61-6.26,3.81c-2.99-0.72-5.87-0.25-8.87-0.05c-5.55,0.37-7.601,4.33-9.229,8.36
		c-1.791,4.43-0.561,8.94,2.31,12.62c1.819,2.33,4.399,3.79,7.271,1.03c2.739-2.64,1.09-4.67-0.781-6.83
		c-4.069-4.72-3.649-6.07,2.16-8.4c1.84-0.74,3.49-1.9,5.291-2.74c3.039-1.41,5.75-1.73,7.379,2.15c0.601,1.44,2.08,2.58,3.65,1.96
		c5.04-1.99,8.49,1.77,12.52,3.27c2.011,0.75,4.201,2.53,4.08,4.7c-0.279,5.27,3.33,7.62,6.65,10.31c3.85,3.1,3.76,4.57-0.66,7.27
		c-1.3,0.79-2.34,1.41-2.65,3.23c-1.139,6.67-6.1,8.65-11.68,4.84c-2.59-1.77-4.8-3.98-7.779-5.31c-3.01-1.35-1.641-3.19,0.459-4.28
		c3.41-1.78,6.16-4.22,4.521-8.22c-1.601-3.87-4.909-6.13-9.51-6.02c-2.931,0.08-4.91,1.01-5,4.2c-0.13,4.55-3,7.3-6.761,8.34
		c-5.51,1.53-9.229,5.14-12.879,9c-3.08,3.26-6.42,6.29-8.73,10.21c-2.77,4.68-2.35,7.51,2.01,10.66
		c3.631,2.63,7.32,5.33,11.33,7.27c3.59,1.74,5.439,4.18,5.82,7.96c0.18,1.77,0.55,3.58,2.71,3.45c2.11-0.12,2.44-1.96,2.37-3.73
		c-0.141-3.31,0.779-6.22,2.98-8.74c1.619-1.86,1.989-4.08,1.93-6.52c-0.051-2.48-0.11-5.07,0.52-7.43
		c0.96-3.63,1.83-7.85,6.68-8.24c4.09-0.33,9.01,3.59,10.43,7.76c1.711,5.01,2.771,5.45,6.08,1.9c2.601-2.79,4.33-1.61,5.971,0.73
		c0.859,1.21,1.75,2.61,1.949,4.02c0.701,4.86,3.631,8.09,7.381,10.78c2.57,1.85,3.689,4.24,2.93,7.36
		c-0.74,3.06-3.23,3.06-5.77,3.64c-3.5,0.8-6.68,2.61-10.391,3.17c-3.49,0.53-4.619,4.52-2.88,8.09c1.04,2.15,2.63,3.81,4.78,4.77
		c-3.04,3.29-6.28,5.56-11.21,4.82c-2.091-0.31-4.83,0.91-6,3.05c-2.58,4.7-7.37,7.06-10.79,10.86c-2.27,2.52-4.141,5.01-4.76,8.45
		c-0.61,3.38-2.48,5.95-5.471,7.96c-5.959,4.01-6.93,7.62-4.629,14.2c0.729,2.09,1.159,4.63-1.121,5.84
		c-2.56,1.37-3.3-1.36-4.359-2.89c-5.631-8.19-5.61-8.2-15.561-5.84c-2.93,0.7-6.01-0.31-8.89,0.81
		c-6.13,2.39-10.601,12.14-8.479,18.67c0.56,1.729,1.229,3.46,2.069,5.08c1.88,3.64,4.95,4.18,8.12,1.54
		c0.51-0.43,0.99-0.9,1.439-1.391c2.351-2.55,5-5.01,8.61-2.989c3.271,1.83,0.94,4.779,0.45,7.189
		c-0.859,4.25,0.689,6.38,5.029,6.45c2.98,0.11,4.011,1.85,3.951,4.61c-0.051,2.16,0.119,4.33,0.02,6.479
		c-0.109,2.4,1.33,3.41,3.29,3.54c2.53,0.16,4.739,0.24,6.63,2.53c1.21,1.47,2.561-0.26,3.62-1.35
		c7.36-7.61,10.431-8.08,19.521-3.19c1.149,0.62,2.39,1.6,3.739,1.06c6.8-2.739,11.181,1.33,15.19,5.631
		c2.77,2.97,5.609,4.84,9.83,5.01c3.64,0.149,8.65,5.71,9.1,10.06c0.52,4.95,2.78,7.38,7.79,7.46c3.069,0.05,5.59,1.5,8.21,3.16
		c4.2,2.68,9.51,2.85,13.78,5.9c4.01,2.87,5.729,6.39,3.64,10.93c-0.96,2.09-2.27,4.03-3.41,6.05c-2.27,4.04-4.209,7.87-3.58,13.05
		c0.971,7.971-5.08,16.15-12.949,18.54c-4.58,1.391-7.551,4.53-7.93,8.69c-0.631,6.77-5.32,11.25-7.921,16.87
		c-0.75,1.62-2.12,3.06-3.95,3.67c-2.55,0.85-4.49,1.75-3.709,5.2c0.449,2.04-1.66,2.97-3.17,4.04c-3.641,2.58-8.66,4.51-9.681,8.96
		c-1.46,6.38-7.33,11.819-4.34,19.199c0.76,1.891-0.32,3.551-1.19,5.171c-3.279,6.1-2.75,8.76,2.67,12.979
		c1.41,1.1,2.881,2.37,1.211,4.03c-2.25,2.229-5.641,2.63-7.781,0.8c-5.34-4.55-12.33-8.71-13.409-15.92
		c-0.851-5.66-1.591-11.66-1.24-17.58c0.181-3.15,0.46-6.36,0.08-9.46c-0.819-6.67-1.61-13.08,2.62-19.2
		c1.779-2.59,0.5-6.229,0.27-9.35c-0.57-7.69,0.791-15.271,1.11-22.9c0.239-5.56-2.24-10.06-6.39-12.83
		c-4.971-3.3-9.11-7.3-10.621-12.68c-2.299-8.19-10.59-14.33-7.959-24.24c0.949-3.56,1.439-6.979,4.32-9.76
		c3.149-3.05,3.949-10.72,2.149-14.55c-0.72-1.521-1.94-2-3.25-1.4c-5.05,2.29-8.2-0.81-11.37-3.83c-4.37-4.17-7.51-9.88-14.13-11.2
		c-8.069-4.38-17.86-5-25.011-11.479c-2.219-2.01-3.729-4.05-3.779-7.2c-0.07-4.52-4.24-7.22-5.439-11.36
		c-0.391-1.35-2.051-1.39-3.051,0.271c-1.85,3.08-2.71,3.25-5.47-0.07c-4.53-5.42-4.41-12.56-8.36-18.03
		c-2.47-3.4-4.85-6.89-7.02-10.56c-5-8.47-3.74-16.51-1.12-24.89c1.31-4.17,4.28-8.26-0.229-12.28
		c1.209-8.31-5.61-13.76-7.631-21.01c-1.479-5.29-7.51-6.97-11.949-9.63c-2.26-1.34-4.98-1.89-7.371-3.05
		c-3.109-1.51-5.58-0.23-8.699,0.49c-7.381,1.7-12.98,5.66-18.51,10.23c-0.871,0.73-2.65,0.94-3.23-0.07
		c-2.3-4.02-6.77-5.88-9.23-9.68c-2.75-4.25-1.979-7.19,2.86-8.89c3.37-1.18,3.81-2.75,1.89-5.48c-2.279-3.26-2.879-6.13,1.92-7.65
		c2.461-0.77,3.25-2.22,1.681-4.49c-1.13-1.62-1.29-3.16,0.58-4.25c5.44-3.16,10.729-6.94,16.97-8.08
		c5.6-1.01,10.91,2.21,16.65,2.34c6.23,0.14,12.39,1.2,18.439,3.64c4.971,2,10.53-0.46,15.5-2.01c7-2.19,13.44-0.67,19.93,1.43
		c2.781,0.9,6.121,3.4,8.221,1.43c2.141-2.02-0.67-5.16-1.62-7.76c-0.86-2.35-1.62-4.74-4.79-2.56c-2.57,1.76-5.29,2.16-7.92,0.55
		c-1.51-0.93-1.26-2.71-0.34-4.03c2.029-2.93,3.34-7.02,7.869-6.72c2.75,0.19,5.5,0.73,8.031,2.4c5.479,3.63,11.029,6.93,17.66,1.66
		c1.709-1.36,4.869-1.24,4.079,2.83c-0.13,0.65-0.521,1.56-0.239,1.93c3.229,4.18,2.35,7.9-0.461,12.02
		c-1.49,2.2,0.98,3.13,2.82,3.46c4.21,0.76,8.2-0.94,12.301-1.45c1.959-0.24,2.469-2.53,2.1-4.51c-0.15-0.79-0.53-1.62-1.041-2.24
		c-2.329-2.82,1.611-5.3,0.75-7.24c-1.579-3.57-4.26,2.54-6.729-0.07c-1.399-1.47-2.42-2.9-1.579-4.81
		c0.829-1.9,2.319-2.45,4.52-1.77c4.82,1.52,9.77-0.28,12.56-4.21c1.271-1.78,1.05-3.38-0.39-4.93c-0.98-1.04-2.68-2.03-1.189-3.7
		c1.449-1.63,3.069-0.61,4.5,0.28c2.639,1.66,5.469,2.38,8.579,1.96c2.07-0.28,4.03-1.28,2.53-3.46c-1.13-1.63,2.25-6.27-3.42-5.03
		c-4.34,0.94-7.2-2.08-9.45-5.26c-1.47-2.1-0.14-4.17,1.14-5.96c1.271-1.78,3.061-1.84,4.93-1.13c1.391,0.54,2.721,1.26,4.111,1.81
		c2.939,1.16,5.779,2.03,5.209-2.97c-0.199-1.77,0.631-3.12,2.19-3.49c11.75-2.81,23.431-6.56,35.78-3.66
		c1.539,0.36,2.979,0.99,3.66,2.37c1.66,3.38,3.959,3.47,6.99,1.96c1.299-0.64,3.069-1.36,4.279-0.97
		c6.49,2.11,12.66-2.19,19.07-0.71c0.55,0.12,1.31-0.23,1.84-0.56c7.859-4.99,16.74-4.87,25.55-5.03c3.729-0.07,6.63,1.5,8.81,4.71
		c2.951,4.35,7.021,6.38,12.4,5.01c1.28-0.32,2.609-0.6,3.91-0.61c1.359-0.01,2.72,0.47,3.24,1.89
		C1761.907,127.56,1760.927,128.59,1759.737,129.31z"/>
	<path fill-rule="evenodd" clip-rule="evenodd" fill="#0F7433" d="M2033.537,451.219c-0.134-6.949-1.208-13.848-0.095-20.865
		c0.83-5.23,3.844-9.091,9.18-9.289c4.272-0.158,7.005-2.138,9.563-5.335c3.309-4.135,7.12-7.866,10.701-11.784
		c0.874-0.956,2.328-1.659,3.098-0.959c3.964,3.606,5.466,0.246,7.492-2.277c2.549-3.173,6.11-3.854,9.928-3.357
		c2.989,0.389,5.092,1.733,4.427,5.266c-0.438,2.33,0.144,4.238,2.016,5.783c1.489,1.229,2.602,3.506,4.952,2.536
		c2.436-1.005,0.932-3.189,0.827-4.841c-0.289-4.554,2.527-6.67,6.221-7.912c2.614-0.879,3.91,1.133,4.04,3.169
		c0.646,10.1,6.376,18.376,11.733,25.812c5.262,7.302,4.046,13.713,3.185,21.013c-0.446,3.776-3.382,6.019-4.991,9.064
		c-4.916,9.304-12.016,15.225-23.453,13.624c-3.992-0.56-7.117-1.725-7.516-6.41c-0.078-0.915-0.596-2.445-1.15-2.563
		c-5.162-1.101-7.663-6.237-12.406-7.938c-4.101-1.471-8.044-1.856-11.953,0.516c-5.729,3.477-11.997,5.619-18.585,6.479
		c-6.223,0.813-7.313-0.444-7.215-6.732C2033.551,453.218,2033.537,452.218,2033.537,451.219z"/>
	<path fill-rule="evenodd" clip-rule="evenodd" fill="#0F7433" d="M2151.967,179.17c-5.42-1.68-10.521-4.15-15.78-6.2
		c-6.41-2.5-12.78-5.38-20.189-4.12c-9.12,1.55-18.44,3.13-26.961-2.64c-0.779-0.53-1.899-0.78-2.869-0.79
		c-8.16-0.11-15.551-3.25-23.11-5.75c-3.19-1.06-6.73-1.92-9.68,0.09c-4.891,3.34-10.271,3.27-15.78,3.49
		c-3.67,0.16-6.13-0.53-8.16-4.04c-2.93-5.07-6.05-5.6-11.14-2.98c-2.101,1.08-4.29,2.36-6.641,1.48
		c-4.51-1.69-8.949-2.19-13.63-0.74c-1.3,0.4-3.14,0.69-4.069-0.92c-0.881-1.51,0.56-2.42,1.35-3.41c1.6-2.02,2.01-4.24,0.86-6.53
		c-1.07-2.12-3.17-2.06-5.23-2.08c-4.17-0.03-8.43-0.14-11.99-2.61c-2.81-1.95-4.59-1.22-6.06,1.44c-1.15,2.07-2.9,2.84-5.21,3.31
		c-4.41,0.89-8.75,2.01-13.3,1.85c-2.471-0.08-4.57,1.23-4.98,3.4c-0.78,4.21-3.59,5.11-7.06,5.68c-1.28,0.21-2.891,0.62-3.61,1.53
		c-4.1,5.16-8.4,4.67-13.41,1.32c-3.189-2.13-6.069,0.08-8.68,1.87c-1.64,1.13-3.34,2.47-2.351,4.92c1.7,4.19-0.77,4.6-3.899,4.29
		c-3.53-0.35-6.93-0.86-8.73,3.48c-0.59,1.43-2.35,1.42-3.989,0.95c-4.99-1.41-9.261,1.29-13.891,2.33
		c-6.46,1.45-12.18,3.38-17.029,8.19c-1.53,1.52-4.471,1.79-6.131,3.87c-1.029,1.29-2.64,1.75-3.949,0.47
		c-1.33-1.31-2.19-3.12-1.29-4.98c0.89-1.85,2.83-2.16,4.71-2.23c2.43-0.09,4.479-1.07,4.62-3.59c0.14-2.45-2.41-2.59-4.051-3.63
		c-4.899-3.12-12.279-1.81-15.159-8.59c-0.521-1.25-2.261-1.09-3.61-1.24c-10.9-1.23-18.69,4.9-24.43,12.51
		c-5.61,7.42-9.62,16.02-17.04,22.1c-2.61,2.14-1.44,4.66,0.399,6.54c1.771,1.8,2.45,6.5,6.04,4.37c4.62-2.74,5.26-0.62,6.17,3.14
		c0.83,3.44,5.51,4.8,6.771,1.98c1.739-3.9,5.59-7.7,2.84-12.8c-1.42-2.64-1.021-5.35,1.36-7.22c2.729-2.14,4.43-4.91,5.96-7.88
		c0.989-1.92,2.319-3.24,4.71-2.9c1.1,0.15,1.89,0.65,2.119,1.77c0.471,2.26-0.439,3.89-2.409,4.98c-3.03,1.68-3.88,4.49-3.641,7.64
		c0.28,3.52,3.391,3.68,5.86,4.45c1.28,0.4,2.729,0.52,3.09,2.1c0.42,1.86-1,2.62-2.27,3.46c-2.801,1.87-5.95,3.92-6.431,7.29
		c-0.569,4.1-2.89,5.21-6.229,6.63c-6.75,2.85-12.78,1.94-19.141-2.49c0.57,4.01-0.91,5.78-4.16,6.76
		c-1.959,0.59-4.17,2.01-5.189,3.71c-2.79,4.63-7.96,6.16-11.75,9.45c-3.439,2.98-5.65,3.91-0.561,6.99
		c2.4,1.45,1.811,4.03,0.931,6.34c-0.95,2.48-2.761,1.55-4.57,1.31c-10.92-1.43-11.96-0.55-12.68,10.39c-0.03,0.33-0.05,0.66-0.07,1
		c-0.271,6.68,0.101,6.62,6.56,7.71c6.33,1.07,10.721-0.36,12.94-6.7c0.33-0.92,1.04-1.7,1.54-2.57c4-6.92,9.721-11.25,17.971-10.82
		c2.879,0.15,5.499,2.02,7.09-2.33c0.67-1.83,3.199-1,4.89-0.04c6.14,3.49,10.21,8.81,13.32,14.99c0.58,1.15,0.689,2.86,2.18,3.09
		c1.76,0.28,1.95-1.6,2.46-2.67c1.23-2.6,3.5-3.06,5.84-2.8c2.23,0.24,3.24,1.92,3.48,4.22c0.359,3.56,2.05,5.53,6.08,5.75
		c2.619,0.14,5.17,0.72,7.85,0.23c2.16-0.4,4.45-0.23,5.3,2.36c1.21,3.68,0.58,7.37-1.46,10.47c-1.97,2.99-4.92,4.21-8.899,4.43
		c-4.41,0.25-8.23-1.33-12.33-1.9c-4.11-0.57-8.67-3.54-12.271,1.52c-0.45,0.64-2.32,0.76-3.3,0.43c-4.08-1.37-8.18-2.78-12.06-4.62
		c-2.58-1.22-3.891-4-3.53-6.71c0.62-4.58-1.88-4.59-5.271-4.95c-9.81-1.07-18.439,5.47-28.24,4.12c-0.5-0.07-1.119,0.62-1.66,0.97
		c-4.619,3-7.979,6.95-9.42,12.37c-0.389,1.45-0.909,2.79-2.09,3.87c-7.59,7.01-13.569,14.73-11.709,26.05
		c0.279,1.739-0.211,3.659-0.58,5.439c-0.65,3.13-0.92,6.24-0.471,9.41c2.07,4.41,6.29,7.24,8.54,11.46
		c2.5,4.67,5.66,9.85,10.7,10.05c5,0.21,10.7,1.01,15.55-1.47c4.979-2.56,9.601-4.86,14.25,0.46c0.431,0.49,1.54,0.41,2.351,0.56
		c5.55,1.08,7.289,3.591,5.959,9.2c-0.949,3.99-0.56,7.311,2.281,10.62c7.18,8.351,8.189,17.88,4.129,27.93
		c-1.56,3.851-1.199,7.381,0.15,11.131c2.51,6.97,6.61,13.47,6.41,21.3c-0.03,1.22,0.75,2.56,1.43,3.67
		c2.03,3.34,3.48,6.78,3.45,10.79c-0.02,2.83,1.32,5,4.3,5.2c6.94,0.46,13.34-0.67,19.141-5.271c8.119-6.43,9.04-17,14.989-24.6
		c0.49-0.63,0.431-2.061,0.101-2.9c-1.95-4.93,1.06-7.3,4.359-10.189c8.71-7.641,9.931-7.391,7.37-18.94
		c-0.609-2.76-1.34-5.49-2.029-8.23c-1.421-5.6-0.28-10.369,3.96-14.539c7.729-7.58,15.22-15.381,17.18-26.711
		c0.24-1.409,1.31-3-0.23-4.149c-1.319-0.99-2.859-0.43-4.279,0.13c-6.92,2.75-6.92,2.75-11.21-3.46
		c-4.551-6.38-9.561-12.78-10.931-20.521c-0.949-5.39-6.05-8.81-5.609-14.51c0.04-0.51-1.051-1.19-1.71-1.66
		c-1.761-1.25-2.721-3.09-1.04-4.56c2.08-1.84,3,0.66,4.17,1.94c3.88,4.23,4.33,10.52,8.49,14.48c4.71,4.49,6.579,10.56,9.479,16.03
		c2.07,3.92,7.51,6.35,11.42,4.04c4.12-2.431,8.601-4.13,12.49-7.08c4.08-3.09,7.61-6.641,9.84-11.04c1.82-3.58-1.08-6.57-3.21-9.37
		c-0.52-0.69-0.72-1.58,0.15-2.19c0.8-0.56,1.63-0.149,2.319,0.29c2.28,1.48,4.87,3.24,7.4,1.891c5.6-2.98,8.13,0.18,11.36,4.05
		c4,4.79,8.199,8.68,10.289,15.35c1.75,5.561,4.28,11.54,7.391,16.99c3.109,5.44,4.83,6.41,9.64,2.01c2.41-2.21,2.34-5.01,2.32-7.84
		c-0.01-2.83-0.69-5.97,1.13-8.27c3.98-5.051,8.26-9.891,12.66-14.58c2.399-2.561,5.06-2.08,8.03-0.141
		c4.04,2.641,3.899,6.99,5.34,10.71c0.3,2.41,1.989,2.98,3.979,2.671c3.79-0.61,4.67,1.52,4.69,4.619
		c0.02,3.66,0.02,7.32,0.08,10.98c0.029,2.03,0.16,4.16,2.189,5.25c1.98,1.06,3.54,2.42,2.431,4.67
		c-1.221,2.45-3.15,0.58-4.771,0.18c-1.61-0.399-2.99-0.12-3.95,1.32c-0.699,1.06-0.939,2.41,0.061,3.21
		c5.319,4.24,7.43,10.7,11.25,15.98c3.06,4.22,7.66,6.859,10.859,10.529c4.761,5.46,11.521,4.88,16.86,8.04
		c1.42,0.851,3.73,0.12,4.74-1.76c1.05-1.95-0.03-3.43-1.4-4.84c-2.71-2.771-5.83-4.12-9.81-4.01c-4.13,0.119-8.25-0.271-7.69-6.28
		c0.12-1.311-0.819-2.54-1.88-3.4c-3.11-2.55-3.54-5.7-2.59-9.43c0.76-3.021,0.5-6.61-1.95-8.3c-5.45-3.76-5.8-9.63-7.53-14.99
		c-0.25-0.8-0.229-1.73,0.66-2.16c0.88-0.41,1.58,0.11,2.16,0.78c1.62,1.87,3.37,3.649,4.811,5.649c1.399,1.94,3.3,2.9,5.069,1.511
		c2.65-2.09,5.53-3.95,6.66-7.71c2.05-6.87-1.54-11.07-6.07-15.08c-0.17-4.26-0.02-8.03,6.11-5.51c1.43,0.59,3.13-0.221,3.55-1.931
		c0.53-2.16,1.99-2.67,3.87-3.25c7.69-2.359,12.04-8.47,14.43-15.41c1.82-5.29,1.091-11.07-3.479-15.59
		c-1.4-1.38-2.19-3.75-1.33-5.6c1.59-3.39,0.13-5-2.74-6.04c-1.99-0.72-2.649-1.85-1.79-3.8c0.9-2.02,2.23-2.77,4.37-1.65
		c1.311,0.68,2.66,1.21,4.23,1.34c3.92,0.32,9.199,5.59,9.55,9.48c0.16,1.83,0.49,3.43,2.609,3.58c2.5,0.17,2.91-1.87,3.221-3.67
		c0.3-1.73-0.5-3.22-1.54-4.59c-4.61-6.04-3.71-10.96,2.78-14.74c6.939-4.04,11.699-9.64,13.21-17.72
		c0.199-1.12,0.619-2.32,1.29-3.21c3.409-4.51,2.39-7.59-2.721-9.43c-3.51-1.26-6.34-4.11-10.3-4.58c-1.02-0.12-1.32-1.36-1.31-2.44
		c0.02-7.2,9.199-14.67,16.33-13.35c2.119,0.39,4.31,0.4,6.399,0.87c4.521,1,7.76-0.26,9.74-4.62c0.93-2.07,2.84-3.31,4.97-3.93
		c2.59-0.75,5.09,0.13,6.84,1.91c1.37,1.39,0.271,3.23-0.979,4.4c-6,5.62-6.351,11.92-2.75,18.96c0.859,1.69,1.38,3.62,3.569,3.58
		c2.021-0.03,4.171-0.75,5.021-2.75c1.72-4.09,3.79-8.08,2.15-12.91c-2.011-5.91,0.18-9.19,6.34-8.96c4.47,0.17,7.6-1.85,10.8-4.24
		c1.31-0.98,2.31-2.48,4.11-2.66c4.369-0.42,5.939-2.03,2.84-6.03c-1.101-1.42-1.101-3.22,0.13-4.62c1.29-1.49,2.95-1.2,4.59-0.47
		c1.52,0.67,3.03,1.54,4.63,1.83c2.51,0.46,5.33,0.55,6.13-2.63C2156.497,181.24,2154.366,179.92,2151.967,179.17z M1907.286,306.9
		c-0.67,1.199-1.909,1.1-3.039,1.189c-2.7,0.061-10.721-6.63-11.28-9.42c-0.16-0.82-0.271-1.83,0.56-2.2
		c0.65-0.29,1.79-0.31,2.311,0.07c3.68,2.73,6.83,6.16,11.06,8.17C1907.677,305.08,1907.736,306.1,1907.286,306.9z"/>
	<path fill-rule="evenodd" clip-rule="evenodd" fill="#0F7433" d="M2116.559,392.011c-0.394,1.09,0.789,2.752-1.08,2.925
		c-1.777,0.165-3.994,0.427-5.067-1.3c-2.212-3.556-4.151-3.267-7.089-0.677c-2.942,2.593-9.683,0.19-12.101-4.557
		c-2.447-4.806-5.526-7.78-11.126-8.708c-3.791-0.628-4.858-4.312-4.182-7.928c0.562-2.994,4.992-4.046,6.584-1.306
		c2.357,4.059,5.247,3.517,8.875,2.799c10.196-2.02,21.964,7.656,24.602,15.45C2116.342,389.793,2116.385,390.986,2116.559,392.011z
		"/>
	<path fill-rule="evenodd" clip-rule="evenodd" fill="#0F7433" d="M2049.886,358.114c1.918,7.827-3.075,13.673-5.481,20.25
		c-0.205,0.561-0.809,1.067-1.35,1.398c-3.03,1.854-12.646-0.65-14.588-3.736c-0.97-1.542-2.096-2.994-2.962-4.59
		c-1.258-2.319-1.287-5.16,1.295-5.978c6.54-2.071,10.333-7.463,15.306-11.428c1.575-1.257,2.98-3.728,5.489-2.455
		C2050.218,352.905,2049.628,355.865,2049.886,358.114z"/>
	<path fill-rule="evenodd" clip-rule="evenodd" fill="#0F7433" d="M1898.851,410.243c0.706,7.937-4.561,14.318-5.805,21.83
		c-0.418,2.524-3.829,5.3-7.359,4.739c-3.632-0.575-3.599-4.146-3.657-6.787c-0.109-4.944,0.37-9.904,0.649-14.854
		c0.095-1.676,1.438-2.479,2.555-3.48c2.327-2.085,5.148-3.727,6.652-6.591c1.016-1.934,2.163-3.479,4.575-2.779
		c2.177,0.631,2.327,2.57,2.379,4.444C1898.871,407.924,1898.846,409.085,1898.851,410.243z"/>
	<path fill-rule="evenodd" clip-rule="evenodd" fill="#0F7433" d="M2143.045,494.069c-2.632,0.014-4.545,0.045-5.431-2.05
		c-0.913-2.16-0.073-3.811,1.628-5.243c4.995-4.207,10.29-8.137,14.795-12.821c2.769-2.88,6.586-5.503,6.708-10.275
		c0.018-0.697,0.098-1.449,0.915-1.455c3.083-0.022,5.979,0.686,8.219,2.948c2.085,2.104-0.066,3.604-0.972,5.215
		c-0.975,1.734-1.925,3.544-3.803,4.511c-7.02,3.614-11.079,10.284-16.096,15.903
		C2147.006,493.045,2145.164,494.29,2143.045,494.069z"/>
	<path fill-rule="evenodd" clip-rule="evenodd" fill="#0F7433" d="M2080.116,281.013c-2.244-0.026-4.236-0.282-5.097-2.095
		c-1.006-2.12,1.178-2.69,2.39-3.694c5.662-4.688,5.606-11.199,5.393-17.647c-0.155-4.703,1.229-6.223,5.618-5.585
		c1.634,0.237,2.938,0.813,3.253,2.524c0.274,1.493-0.559,2.75-1.873,3.181c-4.6,1.506-4.201,4.665-3.314,8.392
		c0.753,3.159,1.829,6.332,0.469,9.747C2085.601,279.236,2083.119,280.615,2080.116,281.013z"/>
	<path fill-rule="evenodd" clip-rule="evenodd" fill="#0F7433" d="M1747.117,184.687c3.89,0.49,6.306-0.064,8.623-1
		c1.849-0.746,3.493-0.922,4.933,0.768c1.309,1.536,1.844,3.605,0.941,5.09c-2,3.292-5.209,5.578-8.926,6.416
		c-3.08,0.693-6.207,0.237-8.365-2.877c-1.429-2.061-3.381-3.798-1.949-6.604C1743.796,183.695,1746.201,184.518,1747.117,184.687z"
		/>
	<path fill-rule="evenodd" clip-rule="evenodd" fill="#0F7433" d="M1783.444,236.086c-3.686,0.424-4.643-2.402-3.537-5.313
		c1.63-4.291,0.232-7.662-1.647-11.221c-0.813-1.54-2.263-3.498-0.004-4.747c1.983-1.097,4.39,0.021,5.033,1.861
		c1.544,4.414,4.695,7.977,6.137,12.351C1790.56,232.458,1787.654,235.995,1783.444,236.086z"/>
	<path fill-rule="evenodd" clip-rule="evenodd" fill="#0F7433" d="M1676.426,247.481c-2.051-1.799-7.129,1.386-7.581-3.687
		c-0.258-2.893,1.004-6.09,4.672-6.68c2.922-0.471,7.232,3.866,7.279,6.995C1680.829,246.271,1679.512,247.388,1676.426,247.481z"/>
	<path fill-rule="evenodd" clip-rule="evenodd" fill="#0F7433" d="M1581.469,153.992c-0.827,0-1.687,0.146-2.475-0.028
		c-1.991-0.442-4.229-1.2-3.974-3.601c0.246-2.313,2.668-3.184,4.577-2.875c2.691,0.436,5.147,0.459,7.778-0.325
		c1.923-0.572,3.703,0.311,4.197,2.463c0.485,2.114-0.998,3.003-2.758,3.367c-2.42,0.502-4.869,0.862-7.307,1.283
		C1581.495,154.182,1581.481,154.087,1581.469,153.992z"/>
	<path fill-rule="evenodd" clip-rule="evenodd" fill="#0F7433" d="M1617.573,313.317c4.217-0.576,6.298,4.408,10.029,6.552
		c0.574,0.33,0.842,1.227,0.25,1.704c-0.588,0.473-1.623,1.025-2.174,0.81c-4.383-1.719-8.723-3.561-13.014-5.5
		c-0.738-0.334-0.914-1.421-0.286-2.164C1613.435,313.469,1614.952,313.381,1617.573,313.317z"/>
	<path fill-rule="evenodd" clip-rule="evenodd" fill="#0F7433" d="M2103.403,480.013c-0.156,3.113-1.583,4.994-4.902,4.941
		c-3.363-0.053-4.06-2.355-4.016-5.063c0.044-2.716,0.833-4.979,4.201-4.904C2101.945,475.058,2103.508,476.764,2103.403,480.013z"
		/>
	<path fill-rule="evenodd" clip-rule="evenodd" fill="#0F7433" d="M1775.487,228.085c-0.53,2.379-0.918,4.897-4.104,4.619
		c-1.887-0.164-3.698-1.006-3.369-3.394c0.369-2.684,1.245-5.652,4.293-5.9C1775.109,223.183,1775.049,226.103,1775.487,228.085z"/>
	<path fill-rule="evenodd" clip-rule="evenodd" fill="#0F7433" d="M1639.607,324.964c-0.546,2.262-2.228,2.696-3.842,2.643
		c-1.753-0.059-3.978-0.304-3.819-2.799c0.123-1.933,1.91-2.592,3.629-2.651C1637.613,322.085,1638.862,323.309,1639.607,324.964z"
		/>
	<path fill-rule="evenodd" clip-rule="evenodd" fill="#0F7433" d="M1821.804,264.314c-0.203,1.561-1.426,2.168-2.415,1.355
		c-2.259-1.855-4.27-4.03-6.257-6.189c-0.506-0.55-0.652-1.59,0.172-2.206c0.746-0.558,1.934-0.435,2.238,0.17
		c1.354,2.674,3.172,4.767,5.96,5.973C1821.695,263.501,1821.707,264.005,1821.804,264.314z"/>
</g>
<g>
	<path fill-rule="evenodd" clip-rule="evenodd" fill="#0F7433" d="M2467.621,129.31c-6.521,3.91-9.07,9.44-8.171,17.12
		c0.55,4.69-0.2,9.17-3.62,13.48c-2.66,3.34-1.93,8.8-5.34,12.51c-2.17,2.36-4.359,4.19-7.47,4.41c-3.511,0.24-6.57,1.64-9.091,3.75
		c-3.609,3.02-7.219,5.76-11.949,6.8c-1.63,0.35-2.939,1.51-3.41,3.33c-1.15,4.44-4.5,7.74-6.141,11.94
		c-0.76,1.96-2.379,2.65-4.459,2.28c-3.68-0.65-9.801-6.77-10.221-10.56c-0.279-2.57-1.149-4.75-2.59-6.89
		c-2.56-3.8-2.359-7.32,1.2-10.67c5.69-5.33,5.63-6.4-0.13-11.06c-2.12-1.71-3.061-3.93-3.45-6.43
		c-1.409-9.26-5.45-12.66-15.14-12.21c-4.33,0.2-7.561-0.67-8.53-5.53c-0.649-3.22-0.11-5.74,3.42-6.59
		c3.16-0.76,5.04-3.11,7.091-5.26c0.84-0.88,2.52-1.74,1.299-3.22c-0.779-0.93-2.18-0.47-3.299-0.06
		c-8.98,3.27-17.281,7.55-23.021,15.58c-1.011,1.43-2.32,2.44-3.931,2.93c-2.58,0.77-3.959,1.57-3.77,5.05
		c0.16,3.08-2.971,4.61-6.26,3.81c-2.99-0.72-5.87-0.25-8.87-0.05c-5.55,0.37-7.601,4.33-9.229,8.36
		c-1.791,4.43-0.561,8.94,2.31,12.62c1.819,2.33,4.399,3.79,7.271,1.03c2.739-2.64,1.09-4.67-0.781-6.83
		c-4.069-4.72-3.649-6.07,2.16-8.4c1.84-0.74,3.49-1.9,5.291-2.74c3.039-1.41,5.75-1.73,7.379,2.15c0.601,1.44,2.08,2.58,3.65,1.96
		c5.04-1.99,8.49,1.77,12.52,3.27c2.011,0.75,4.201,2.53,4.08,4.7c-0.279,5.27,3.33,7.62,6.65,10.31c3.85,3.1,3.76,4.57-0.66,7.27
		c-1.3,0.79-2.34,1.41-2.65,3.23c-1.139,6.67-6.1,8.65-11.68,4.84c-2.59-1.77-4.8-3.98-7.779-5.31c-3.01-1.35-1.641-3.19,0.459-4.28
		c3.41-1.78,6.16-4.22,4.521-8.22c-1.601-3.87-4.909-6.13-9.51-6.02c-2.931,0.08-4.91,1.01-5,4.2c-0.13,4.55-3,7.3-6.761,8.34
		c-5.51,1.53-9.229,5.14-12.879,9c-3.08,3.26-6.42,6.29-8.73,10.21c-2.77,4.68-2.35,7.51,2.01,10.66
		c3.631,2.63,7.32,5.33,11.33,7.27c3.59,1.74,5.439,4.18,5.82,7.96c0.18,1.77,0.55,3.58,2.71,3.45c2.11-0.12,2.44-1.96,2.37-3.73
		c-0.141-3.31,0.779-6.22,2.98-8.74c1.619-1.86,1.989-4.08,1.93-6.52c-0.051-2.48-0.11-5.07,0.52-7.43
		c0.96-3.63,1.83-7.85,6.68-8.24c4.09-0.33,9.01,3.59,10.43,7.76c1.711,5.01,2.771,5.45,6.08,1.9c2.601-2.79,4.33-1.61,5.971,0.73
		c0.859,1.21,1.75,2.61,1.949,4.02c0.701,4.86,3.631,8.09,7.381,10.78c2.57,1.85,3.689,4.24,2.93,7.36
		c-0.74,3.06-3.23,3.06-5.77,3.64c-3.5,0.8-6.68,2.61-10.391,3.17c-3.49,0.53-4.619,4.52-2.88,8.09c1.04,2.15,2.63,3.81,4.78,4.77
		c-3.04,3.29-6.28,5.56-11.21,4.82c-2.091-0.31-4.83,0.91-6,3.05c-2.58,4.7-7.37,7.06-10.79,10.86c-2.27,2.52-4.141,5.01-4.76,8.45
		c-0.61,3.38-2.48,5.95-5.471,7.96c-5.959,4.01-6.93,7.62-4.629,14.2c0.729,2.09,1.159,4.63-1.121,5.84
		c-2.56,1.37-3.3-1.36-4.359-2.89c-5.631-8.19-5.61-8.2-15.561-5.84c-2.93,0.7-6.01-0.31-8.89,0.81
		c-6.13,2.39-10.601,12.14-8.479,18.67c0.56,1.729,1.229,3.46,2.069,5.08c1.88,3.64,4.95,4.18,8.12,1.54
		c0.51-0.43,0.99-0.9,1.439-1.391c2.351-2.55,5-5.01,8.61-2.989c3.271,1.83,0.94,4.779,0.45,7.189
		c-0.859,4.25,0.689,6.38,5.029,6.45c2.98,0.11,4.011,1.85,3.951,4.61c-0.051,2.16,0.119,4.33,0.02,6.479
		c-0.109,2.4,1.33,3.41,3.29,3.54c2.53,0.16,4.739,0.24,6.63,2.53c1.21,1.47,2.561-0.26,3.62-1.35
		c7.36-7.61,10.431-8.08,19.521-3.19c1.149,0.62,2.39,1.6,3.739,1.06c6.8-2.739,11.181,1.33,15.19,5.631
		c2.77,2.97,5.609,4.84,9.83,5.01c3.64,0.149,8.65,5.71,9.1,10.06c0.52,4.95,2.78,7.38,7.79,7.46c3.069,0.05,5.59,1.5,8.21,3.16
		c4.2,2.68,9.51,2.85,13.78,5.9c4.01,2.87,5.729,6.39,3.64,10.93c-0.96,2.09-2.27,4.03-3.41,6.05c-2.27,4.04-4.209,7.87-3.58,13.05
		c0.971,7.971-5.08,16.15-12.949,18.54c-4.58,1.391-7.551,4.53-7.93,8.69c-0.631,6.77-5.32,11.25-7.921,16.87
		c-0.75,1.62-2.12,3.06-3.95,3.67c-2.55,0.85-4.49,1.75-3.709,5.2c0.449,2.04-1.66,2.97-3.17,4.04c-3.641,2.58-8.66,4.51-9.681,8.96
		c-1.46,6.38-7.33,11.819-4.34,19.199c0.76,1.891-0.32,3.551-1.19,5.171c-3.279,6.1-2.75,8.76,2.67,12.979
		c1.41,1.1,2.881,2.37,1.211,4.03c-2.25,2.229-5.641,2.63-7.781,0.8c-5.34-4.55-12.33-8.71-13.409-15.92
		c-0.851-5.66-1.591-11.66-1.24-17.58c0.181-3.15,0.46-6.36,0.08-9.46c-0.819-6.67-1.61-13.08,2.62-19.2
		c1.779-2.59,0.5-6.229,0.27-9.35c-0.57-7.69,0.791-15.271,1.11-22.9c0.239-5.56-2.24-10.06-6.39-12.83
		c-4.971-3.3-9.11-7.3-10.621-12.68c-2.299-8.19-10.59-14.33-7.959-24.24c0.949-3.56,1.439-6.979,4.32-9.76
		c3.149-3.05,3.949-10.72,2.149-14.55c-0.72-1.521-1.94-2-3.25-1.4c-5.05,2.29-8.2-0.81-11.37-3.83c-4.37-4.17-7.51-9.88-14.13-11.2
		c-8.069-4.38-17.86-5-25.011-11.479c-2.219-2.01-3.729-4.05-3.779-7.2c-0.07-4.52-4.24-7.22-5.439-11.36
		c-0.391-1.35-2.051-1.39-3.051,0.271c-1.85,3.08-2.71,3.25-5.47-0.07c-4.53-5.42-4.41-12.56-8.36-18.03
		c-2.47-3.4-4.85-6.89-7.02-10.56c-5-8.47-3.74-16.51-1.12-24.89c1.31-4.17,4.28-8.26-0.229-12.28
		c1.209-8.31-5.61-13.76-7.631-21.01c-1.479-5.29-7.51-6.97-11.949-9.63c-2.26-1.34-4.98-1.89-7.371-3.05
		c-3.109-1.51-5.58-0.23-8.699,0.49c-7.381,1.7-12.98,5.66-18.51,10.23c-0.871,0.73-2.65,0.94-3.23-0.07
		c-2.3-4.02-6.77-5.88-9.23-9.68c-2.75-4.25-1.979-7.19,2.86-8.89c3.37-1.18,3.81-2.75,1.89-5.48c-2.279-3.26-2.879-6.13,1.92-7.65
		c2.461-0.77,3.25-2.22,1.681-4.49c-1.13-1.62-1.29-3.16,0.58-4.25c5.44-3.16,10.729-6.94,16.97-8.08
		c5.6-1.01,10.91,2.21,16.65,2.34c6.23,0.14,12.39,1.2,18.439,3.64c4.971,2,10.53-0.46,15.5-2.01c7-2.19,13.44-0.67,19.93,1.43
		c2.781,0.9,6.121,3.4,8.221,1.43c2.141-2.02-0.67-5.16-1.62-7.76c-0.86-2.35-1.62-4.74-4.79-2.56c-2.57,1.76-5.29,2.16-7.92,0.55
		c-1.51-0.93-1.26-2.71-0.34-4.03c2.029-2.93,3.34-7.02,7.869-6.72c2.75,0.19,5.5,0.73,8.031,2.4c5.479,3.63,11.029,6.93,17.66,1.66
		c1.709-1.36,4.869-1.24,4.079,2.83c-0.13,0.65-0.521,1.56-0.239,1.93c3.229,4.18,2.35,7.9-0.461,12.02
		c-1.49,2.2,0.98,3.13,2.82,3.46c4.21,0.76,8.2-0.94,12.301-1.45c1.959-0.24,2.469-2.53,2.1-4.51c-0.15-0.79-0.53-1.62-1.041-2.24
		c-2.329-2.82,1.611-5.3,0.75-7.24c-1.579-3.57-4.26,2.54-6.729-0.07c-1.399-1.47-2.42-2.9-1.579-4.81
		c0.829-1.9,2.319-2.45,4.52-1.77c4.82,1.52,9.77-0.28,12.56-4.21c1.271-1.78,1.05-3.38-0.39-4.93c-0.98-1.04-2.68-2.03-1.189-3.7
		c1.449-1.63,3.069-0.61,4.5,0.28c2.639,1.66,5.469,2.38,8.579,1.96c2.07-0.28,4.03-1.28,2.53-3.46c-1.13-1.63,2.25-6.27-3.42-5.03
		c-4.34,0.94-7.2-2.08-9.45-5.26c-1.47-2.1-0.14-4.17,1.14-5.96c1.271-1.78,3.061-1.84,4.93-1.13c1.391,0.54,2.721,1.26,4.111,1.81
		c2.939,1.16,5.779,2.03,5.209-2.97c-0.199-1.77,0.631-3.12,2.19-3.49c11.75-2.81,23.431-6.56,35.78-3.66
		c1.539,0.36,2.979,0.99,3.66,2.37c1.66,3.38,3.959,3.47,6.99,1.96c1.299-0.64,3.069-1.36,4.279-0.97
		c6.49,2.11,12.66-2.19,19.07-0.71c0.55,0.12,1.31-0.23,1.84-0.56c7.859-4.99,16.74-4.87,25.55-5.03c3.729-0.07,6.63,1.5,8.81,4.71
		c2.951,4.35,7.021,6.38,12.4,5.01c1.28-0.32,2.609-0.6,3.91-0.61c1.359-0.01,2.72,0.47,3.24,1.89
		C2469.791,127.56,2468.811,128.59,2467.621,129.31z"/>
	<path fill-rule="evenodd" clip-rule="evenodd" fill="#0F7433" d="M2741.421,451.219c-0.134-6.949-1.208-13.848-0.095-20.865
		c0.83-5.23,3.844-9.091,9.18-9.289c4.272-0.158,7.005-2.138,9.563-5.335c3.309-4.135,7.12-7.866,10.701-11.784
		c0.874-0.956,2.328-1.659,3.098-0.959c3.964,3.606,5.466,0.246,7.492-2.277c2.549-3.173,6.11-3.854,9.928-3.357
		c2.989,0.389,5.092,1.733,4.427,5.266c-0.438,2.33,0.144,4.238,2.016,5.783c1.489,1.229,2.602,3.506,4.952,2.536
		c2.436-1.005,0.932-3.189,0.827-4.841c-0.289-4.554,2.527-6.67,6.221-7.912c2.614-0.879,3.91,1.133,4.04,3.169
		c0.646,10.1,6.376,18.376,11.733,25.812c5.262,7.302,4.046,13.713,3.185,21.013c-0.446,3.776-3.382,6.019-4.991,9.064
		c-4.916,9.304-12.016,15.225-23.453,13.624c-3.992-0.56-7.117-1.725-7.516-6.41c-0.078-0.915-0.596-2.445-1.15-2.563
		c-5.162-1.101-7.663-6.237-12.406-7.938c-4.101-1.471-8.044-1.856-11.953,0.516c-5.729,3.477-11.997,5.619-18.585,6.479
		c-6.223,0.813-7.313-0.444-7.215-6.732C2741.435,453.218,2741.421,452.218,2741.421,451.219z"/>
	<path fill-rule="evenodd" clip-rule="evenodd" fill="#0F7433" d="M2859.851,179.17c-5.42-1.68-10.521-4.15-15.78-6.2
		c-6.41-2.5-12.78-5.38-20.189-4.12c-9.12,1.55-18.44,3.13-26.961-2.64c-0.779-0.53-1.899-0.78-2.869-0.79
		c-8.16-0.11-15.551-3.25-23.11-5.75c-3.19-1.06-6.73-1.92-9.68,0.09c-4.891,3.34-10.271,3.27-15.78,3.49
		c-3.67,0.16-6.13-0.53-8.16-4.04c-2.93-5.07-6.05-5.6-11.14-2.98c-2.101,1.08-4.29,2.36-6.641,1.48
		c-4.51-1.69-8.949-2.19-13.63-0.74c-1.3,0.4-3.14,0.69-4.069-0.92c-0.881-1.51,0.56-2.42,1.35-3.41c1.6-2.02,2.01-4.24,0.86-6.53
		c-1.07-2.12-3.17-2.06-5.23-2.08c-4.17-0.03-8.43-0.14-11.99-2.61c-2.81-1.95-4.59-1.22-6.06,1.44c-1.15,2.07-2.9,2.84-5.21,3.31
		c-4.41,0.89-8.75,2.01-13.3,1.85c-2.471-0.08-4.57,1.23-4.98,3.4c-0.78,4.21-3.59,5.11-7.06,5.68c-1.28,0.21-2.891,0.62-3.61,1.53
		c-4.1,5.16-8.4,4.67-13.41,1.32c-3.189-2.13-6.069,0.08-8.68,1.87c-1.64,1.13-3.34,2.47-2.351,4.92c1.7,4.19-0.77,4.6-3.899,4.29
		c-3.53-0.35-6.93-0.86-8.73,3.48c-0.59,1.43-2.35,1.42-3.989,0.95c-4.99-1.41-9.261,1.29-13.891,2.33
		c-6.46,1.45-12.18,3.38-17.029,8.19c-1.53,1.52-4.471,1.79-6.131,3.87c-1.029,1.29-2.64,1.75-3.949,0.47
		c-1.33-1.31-2.19-3.12-1.29-4.98c0.89-1.85,2.83-2.16,4.71-2.23c2.43-0.09,4.479-1.07,4.62-3.59c0.14-2.45-2.41-2.59-4.051-3.63
		c-4.899-3.12-12.279-1.81-15.159-8.59c-0.521-1.25-2.261-1.09-3.61-1.24c-10.9-1.23-18.69,4.9-24.43,12.51
		c-5.61,7.42-9.62,16.02-17.04,22.1c-2.61,2.14-1.44,4.66,0.399,6.54c1.771,1.8,2.45,6.5,6.04,4.37c4.62-2.74,5.26-0.62,6.17,3.14
		c0.83,3.44,5.51,4.8,6.771,1.98c1.739-3.9,5.59-7.7,2.84-12.8c-1.42-2.64-1.021-5.35,1.36-7.22c2.729-2.14,4.43-4.91,5.96-7.88
		c0.989-1.92,2.319-3.24,4.71-2.9c1.1,0.15,1.89,0.65,2.119,1.77c0.471,2.26-0.439,3.89-2.409,4.98c-3.03,1.68-3.88,4.49-3.641,7.64
		c0.28,3.52,3.391,3.68,5.86,4.45c1.28,0.4,2.729,0.52,3.09,2.1c0.42,1.86-1,2.62-2.27,3.46c-2.801,1.87-5.95,3.92-6.431,7.29
		c-0.569,4.1-2.89,5.21-6.229,6.63c-6.75,2.85-12.78,1.94-19.141-2.49c0.57,4.01-0.91,5.78-4.16,6.76
		c-1.959,0.59-4.17,2.01-5.189,3.71c-2.79,4.63-7.96,6.16-11.75,9.45c-3.439,2.98-5.65,3.91-0.561,6.99
		c2.4,1.45,1.811,4.03,0.931,6.34c-0.95,2.48-2.761,1.55-4.57,1.31c-10.92-1.43-11.96-0.55-12.68,10.39c-0.03,0.33-0.05,0.66-0.07,1
		c-0.271,6.68,0.101,6.62,6.56,7.71c6.33,1.07,10.721-0.36,12.94-6.7c0.33-0.92,1.04-1.7,1.54-2.57c4-6.92,9.721-11.25,17.971-10.82
		c2.879,0.15,5.499,2.02,7.09-2.33c0.67-1.83,3.199-1,4.89-0.04c6.14,3.49,10.21,8.81,13.32,14.99c0.58,1.15,0.689,2.86,2.18,3.09
		c1.76,0.28,1.95-1.6,2.46-2.67c1.23-2.6,3.5-3.06,5.84-2.8c2.23,0.24,3.24,1.92,3.48,4.22c0.359,3.56,2.05,5.53,6.08,5.75
		c2.619,0.14,5.17,0.72,7.85,0.23c2.16-0.4,4.45-0.23,5.3,2.36c1.21,3.68,0.58,7.37-1.46,10.47c-1.97,2.99-4.92,4.21-8.899,4.43
		c-4.41,0.25-8.23-1.33-12.33-1.9c-4.11-0.57-8.67-3.54-12.271,1.52c-0.45,0.64-2.32,0.76-3.3,0.43c-4.08-1.37-8.18-2.78-12.06-4.62
		c-2.58-1.22-3.891-4-3.53-6.71c0.62-4.58-1.88-4.59-5.271-4.95c-9.81-1.07-18.439,5.47-28.24,4.12c-0.5-0.07-1.119,0.62-1.66,0.97
		c-4.619,3-7.979,6.95-9.42,12.37c-0.389,1.45-0.909,2.79-2.09,3.87c-7.59,7.01-13.569,14.73-11.709,26.05
		c0.279,1.739-0.211,3.659-0.58,5.439c-0.65,3.13-0.92,6.24-0.471,9.41c2.07,4.41,6.29,7.24,8.54,11.46
		c2.5,4.67,5.66,9.85,10.7,10.05c5,0.21,10.7,1.01,15.55-1.47c4.979-2.56,9.601-4.86,14.25,0.46c0.431,0.49,1.54,0.41,2.351,0.56
		c5.55,1.08,7.289,3.591,5.959,9.2c-0.949,3.99-0.56,7.311,2.281,10.62c7.18,8.351,8.189,17.88,4.129,27.93
		c-1.56,3.851-1.199,7.381,0.15,11.131c2.51,6.97,6.61,13.47,6.41,21.3c-0.03,1.22,0.75,2.56,1.43,3.67
		c2.03,3.34,3.48,6.78,3.45,10.79c-0.02,2.83,1.32,5,4.3,5.2c6.94,0.46,13.34-0.67,19.141-5.271c8.119-6.43,9.04-17,14.989-24.6
		c0.49-0.63,0.431-2.061,0.101-2.9c-1.95-4.93,1.06-7.3,4.359-10.189c8.71-7.641,9.931-7.391,7.37-18.94
		c-0.609-2.76-1.34-5.49-2.029-8.23c-1.421-5.6-0.28-10.369,3.96-14.539c7.729-7.58,15.22-15.381,17.18-26.711
		c0.24-1.409,1.31-3-0.23-4.149c-1.319-0.99-2.859-0.43-4.279,0.13c-6.92,2.75-6.92,2.75-11.21-3.46
		c-4.551-6.38-9.561-12.78-10.931-20.521c-0.949-5.39-6.05-8.81-5.609-14.51c0.04-0.51-1.051-1.19-1.71-1.66
		c-1.761-1.25-2.721-3.09-1.04-4.56c2.08-1.84,3,0.66,4.17,1.94c3.88,4.23,4.33,10.52,8.49,14.48c4.71,4.49,6.579,10.56,9.479,16.03
		c2.07,3.92,7.51,6.35,11.42,4.04c4.12-2.431,8.601-4.13,12.49-7.08c4.08-3.09,7.61-6.641,9.84-11.04c1.82-3.58-1.08-6.57-3.21-9.37
		c-0.52-0.69-0.72-1.58,0.15-2.19c0.8-0.56,1.63-0.149,2.319,0.29c2.28,1.48,4.87,3.24,7.4,1.891c5.6-2.98,8.13,0.18,11.36,4.05
		c4,4.79,8.199,8.68,10.289,15.35c1.75,5.561,4.28,11.54,7.391,16.99c3.109,5.44,4.83,6.41,9.64,2.01c2.41-2.21,2.34-5.01,2.32-7.84
		c-0.01-2.83-0.69-5.97,1.13-8.27c3.98-5.051,8.26-9.891,12.66-14.58c2.399-2.561,5.06-2.08,8.03-0.141
		c4.04,2.641,3.899,6.99,5.34,10.71c0.3,2.41,1.989,2.98,3.979,2.671c3.79-0.61,4.67,1.52,4.69,4.619
		c0.02,3.66,0.02,7.32,0.08,10.98c0.029,2.03,0.16,4.16,2.189,5.25c1.98,1.06,3.54,2.42,2.431,4.67
		c-1.221,2.45-3.15,0.58-4.771,0.18c-1.61-0.399-2.99-0.12-3.95,1.32c-0.699,1.06-0.939,2.41,0.061,3.21
		c5.319,4.24,7.43,10.7,11.25,15.98c3.06,4.22,7.66,6.859,10.859,10.529c4.761,5.46,11.521,4.88,16.86,8.04
		c1.42,0.851,3.73,0.12,4.74-1.76c1.05-1.95-0.03-3.43-1.4-4.84c-2.71-2.771-5.83-4.12-9.81-4.01c-4.13,0.119-8.25-0.271-7.69-6.28
		c0.12-1.311-0.819-2.54-1.88-3.4c-3.11-2.55-3.54-5.7-2.59-9.43c0.76-3.021,0.5-6.61-1.95-8.3c-5.45-3.76-5.8-9.63-7.53-14.99
		c-0.25-0.8-0.229-1.73,0.66-2.16c0.88-0.41,1.58,0.11,2.16,0.78c1.62,1.87,3.37,3.649,4.811,5.649c1.399,1.94,3.3,2.9,5.069,1.511
		c2.65-2.09,5.53-3.95,6.66-7.71c2.05-6.87-1.54-11.07-6.07-15.08c-0.17-4.26-0.02-8.03,6.11-5.51c1.43,0.59,3.13-0.221,3.55-1.931
		c0.53-2.16,1.99-2.67,3.87-3.25c7.69-2.359,12.04-8.47,14.43-15.41c1.82-5.29,1.091-11.07-3.479-15.59
		c-1.4-1.38-2.19-3.75-1.33-5.6c1.59-3.39,0.13-5-2.74-6.04c-1.99-0.72-2.649-1.85-1.79-3.8c0.9-2.02,2.23-2.77,4.37-1.65
		c1.311,0.68,2.66,1.21,4.23,1.34c3.92,0.32,9.199,5.59,9.55,9.48c0.16,1.83,0.49,3.43,2.609,3.58c2.5,0.17,2.91-1.87,3.221-3.67
		c0.3-1.73-0.5-3.22-1.54-4.59c-4.61-6.04-3.71-10.96,2.78-14.74c6.939-4.04,11.699-9.64,13.21-17.72
		c0.199-1.12,0.619-2.32,1.29-3.21c3.409-4.51,2.39-7.59-2.721-9.43c-3.51-1.26-6.34-4.11-10.3-4.58c-1.02-0.12-1.32-1.36-1.31-2.44
		c0.02-7.2,9.199-14.67,16.33-13.35c2.119,0.39,4.31,0.4,6.399,0.87c4.521,1,7.76-0.26,9.74-4.62c0.93-2.07,2.84-3.31,4.97-3.93
		c2.59-0.75,5.09,0.13,6.84,1.91c1.37,1.39,0.271,3.23-0.979,4.4c-6,5.62-6.351,11.92-2.75,18.96c0.859,1.69,1.38,3.62,3.569,3.58
		c2.021-0.03,4.171-0.75,5.021-2.75c1.72-4.09,3.79-8.08,2.15-12.91c-2.011-5.91,0.18-9.19,6.34-8.96c4.47,0.17,7.6-1.85,10.8-4.24
		c1.31-0.98,2.31-2.48,4.11-2.66c4.369-0.42,5.939-2.03,2.84-6.03c-1.101-1.42-1.101-3.22,0.13-4.62c1.29-1.49,2.95-1.2,4.59-0.47
		c1.52,0.67,3.03,1.54,4.63,1.83c2.51,0.46,5.33,0.55,6.13-2.63C2864.381,181.24,2862.25,179.92,2859.851,179.17z M2615.17,306.9
		c-0.67,1.199-1.909,1.1-3.039,1.189c-2.7,0.061-10.721-6.63-11.28-9.42c-0.16-0.82-0.271-1.83,0.56-2.2
		c0.65-0.29,1.79-0.31,2.311,0.07c3.68,2.73,6.83,6.16,11.06,8.17C2615.561,305.08,2615.62,306.1,2615.17,306.9z"/>
	<path fill-rule="evenodd" clip-rule="evenodd" fill="#0F7433" d="M2824.442,392.011c-0.394,1.09,0.789,2.752-1.08,2.925
		c-1.777,0.165-3.994,0.427-5.067-1.3c-2.212-3.556-4.151-3.267-7.089-0.677c-2.942,2.593-9.683,0.19-12.101-4.557
		c-2.447-4.806-5.526-7.78-11.126-8.708c-3.791-0.628-4.858-4.312-4.182-7.928c0.562-2.994,4.992-4.046,6.584-1.306
		c2.357,4.059,5.247,3.517,8.875,2.799c10.196-2.02,21.964,7.656,24.602,15.45C2824.226,389.793,2824.269,390.986,2824.442,392.011z
		"/>
	<path fill-rule="evenodd" clip-rule="evenodd" fill="#0F7433" d="M2757.77,358.114c1.918,7.827-3.075,13.673-5.481,20.25
		c-0.205,0.561-0.809,1.067-1.35,1.398c-3.03,1.854-12.646-0.65-14.588-3.736c-0.97-1.542-2.096-2.994-2.962-4.59
		c-1.258-2.319-1.287-5.16,1.295-5.978c6.54-2.071,10.333-7.463,15.306-11.428c1.575-1.257,2.98-3.728,5.489-2.455
		C2758.102,352.905,2757.512,355.865,2757.77,358.114z"/>
	<path fill-rule="evenodd" clip-rule="evenodd" fill="#0F7433" d="M2606.734,410.243c0.706,7.937-4.561,14.318-5.805,21.83
		c-0.418,2.524-3.829,5.3-7.359,4.739c-3.632-0.575-3.599-4.146-3.657-6.787c-0.109-4.944,0.37-9.904,0.649-14.854
		c0.095-1.676,1.438-2.479,2.555-3.48c2.327-2.085,5.148-3.727,6.652-6.591c1.016-1.934,2.163-3.479,4.575-2.779
		c2.177,0.631,2.327,2.57,2.379,4.444C2606.755,407.924,2606.729,409.085,2606.734,410.243z"/>
	<path fill-rule="evenodd" clip-rule="evenodd" fill="#0F7433" d="M2850.929,494.069c-2.632,0.014-4.545,0.045-5.431-2.05
		c-0.913-2.16-0.073-3.811,1.628-5.243c4.995-4.207,10.29-8.137,14.795-12.821c2.769-2.88,6.586-5.503,6.708-10.275
		c0.018-0.697,0.098-1.449,0.915-1.455c3.083-0.022,5.979,0.686,8.219,2.948c2.085,2.104-0.066,3.604-0.972,5.215
		c-0.975,1.734-1.925,3.544-3.803,4.511c-7.02,3.614-11.079,10.284-16.096,15.903C2854.89,493.045,2853.048,494.29,2850.929,494.069
		z"/>
	<path fill-rule="evenodd" clip-rule="evenodd" fill="#0F7433" d="M2788,281.013c-2.244-0.026-4.236-0.282-5.097-2.095
		c-1.006-2.12,1.178-2.69,2.39-3.694c5.662-4.688,5.606-11.199,5.393-17.647c-0.155-4.703,1.229-6.223,5.618-5.585
		c1.634,0.237,2.938,0.813,3.253,2.524c0.274,1.493-0.559,2.75-1.873,3.181c-4.6,1.506-4.201,4.665-3.314,8.392
		c0.753,3.159,1.829,6.332,0.469,9.747C2793.484,279.236,2791.003,280.615,2788,281.013z"/>
	<path fill-rule="evenodd" clip-rule="evenodd" fill="#0F7433" d="M2455.001,184.687c3.89,0.49,6.306-0.064,8.623-1
		c1.849-0.746,3.493-0.922,4.933,0.768c1.309,1.536,1.844,3.605,0.941,5.09c-2,3.292-5.209,5.578-8.926,6.416
		c-3.08,0.693-6.207,0.237-8.365-2.877c-1.429-2.061-3.381-3.798-1.949-6.604C2451.68,183.695,2454.085,184.518,2455.001,184.687z"
		/>
	<path fill-rule="evenodd" clip-rule="evenodd" fill="#0F7433" d="M2491.328,236.086c-3.686,0.424-4.643-2.402-3.537-5.313
		c1.63-4.291,0.232-7.662-1.647-11.221c-0.813-1.54-2.263-3.498-0.004-4.747c1.983-1.097,4.39,0.021,5.033,1.861
		c1.544,4.414,4.695,7.977,6.137,12.351C2498.443,232.458,2495.538,235.995,2491.328,236.086z"/>
	<path fill-rule="evenodd" clip-rule="evenodd" fill="#0F7433" d="M2384.31,247.481c-2.051-1.799-7.129,1.386-7.581-3.687
		c-0.258-2.893,1.004-6.09,4.672-6.68c2.922-0.471,7.232,3.866,7.279,6.995C2388.713,246.271,2387.396,247.388,2384.31,247.481z"/>
	<path fill-rule="evenodd" clip-rule="evenodd" fill="#0F7433" d="M2289.353,153.992c-0.827,0-1.687,0.146-2.475-0.028
		c-1.991-0.442-4.229-1.2-3.974-3.601c0.246-2.313,2.668-3.184,4.577-2.875c2.691,0.436,5.147,0.459,7.778-0.325
		c1.923-0.572,3.703,0.311,4.197,2.463c0.485,2.114-0.998,3.003-2.758,3.367c-2.42,0.502-4.869,0.862-7.307,1.283
		C2289.379,154.182,2289.365,154.087,2289.353,153.992z"/>
	<path fill-rule="evenodd" clip-rule="evenodd" fill="#0F7433" d="M2325.457,313.317c4.217-0.576,6.298,4.408,10.029,6.552
		c0.574,0.33,0.842,1.227,0.25,1.704c-0.588,0.473-1.623,1.025-2.174,0.81c-4.383-1.719-8.723-3.561-13.014-5.5
		c-0.738-0.334-0.914-1.421-0.286-2.164C2321.318,313.469,2322.836,313.381,2325.457,313.317z"/>
	<path fill-rule="evenodd" clip-rule="evenodd" fill="#0F7433" d="M2811.287,480.013c-0.156,3.113-1.583,4.994-4.902,4.941
		c-3.363-0.053-4.06-2.355-4.016-5.063c0.044-2.716,0.833-4.979,4.201-4.904C2809.829,475.058,2811.392,476.764,2811.287,480.013z"
		/>
	<path fill-rule="evenodd" clip-rule="evenodd" fill="#0F7433" d="M2483.371,228.085c-0.53,2.379-0.918,4.897-4.104,4.619
		c-1.887-0.164-3.698-1.006-3.369-3.394c0.369-2.684,1.245-5.652,4.293-5.9C2482.993,223.183,2482.933,226.103,2483.371,228.085z"/>
	<path fill-rule="evenodd" clip-rule="evenodd" fill="#0F7433" d="M2347.491,324.964c-0.546,2.262-2.228,2.696-3.842,2.643
		c-1.753-0.059-3.978-0.304-3.819-2.799c0.123-1.933,1.91-2.592,3.629-2.651C2345.497,322.085,2346.746,323.309,2347.491,324.964z"
		/>
	<path fill-rule="evenodd" clip-rule="evenodd" fill="#0F7433" d="M2529.688,264.314c-0.203,1.561-1.426,2.168-2.415,1.355
		c-2.259-1.855-4.27-4.03-6.257-6.189c-0.506-0.55-0.652-1.59,0.172-2.206c0.746-0.558,1.934-0.435,2.238,0.17
		c1.354,2.674,3.172,4.767,5.96,5.973C2529.579,263.501,2529.591,264.005,2529.688,264.314z"/>
</g>
</svg>
